<?xml version="1.0" encoding="iso-8859-1"?>
<!-- Generator: Adobe Illustrator 24.0.1, SVG Export Plug-In . SVG Version: 6.00 Build 0)  -->
<svg version="1.1" id="icon" xmlns="http://www.w3.org/2000/svg" xmlns:xlink="http://www.w3.org/1999/xlink" x="0px" y="0px"
	 viewBox="0 0 95.775 80.584" style="enable-background:new 0 0 95.775 80.584;" xml:space="preserve">
<path d="M1.323,79.843c-0.5-0.468-0.811-1.095-0.935-1.843c-0.126-0.748-0.234-1.818-0.328-3.19
	c-0.093-1.371-0.079-3.746,0.047-7.112c0.124-3.366,0.498-6.672,1.122-9.916c0.623-3.24,1.792-6.874,3.507-10.896
	c1.714-4.021,3.912-7.589,6.593-10.708c8.852-10.349,22.038-15.805,39.558-16.367L50.98,3.072c0-1.31,0.576-2.229,1.73-2.759
	c1.153-0.528,2.198-0.389,3.133,0.421l38.81,31.796c0.748,0.624,1.122,1.402,1.122,2.338c0,0.437-0.093,0.857-0.28,1.263
	c-0.187,0.406-0.468,0.764-0.842,1.075l-38.81,32.17c-0.935,0.811-1.98,0.935-3.133,0.374c-1.154-0.562-1.73-1.464-1.73-2.712
	l-0.093-17.207c-5.737,0-10.958,0.514-15.664,1.543c-4.708,1.028-8.573,2.291-11.596,3.787c-3.025,1.496-5.69,3.289-7.996,5.377
	c-2.307,2.09-4.038,4.007-5.19,5.752c-1.154,1.746-2.12,3.585-2.899,5.518c-0.78,1.933-1.232,3.289-1.356,4.067
	c-0.125,0.78-0.219,1.419-0.281,1.917c-0.063,0.812-0.327,1.506-0.795,2.004c-0.467,0.5-1.075,0.788-1.823,0.788H3.193
	C2.445,80.584,1.821,80.31,1.323,79.843z M56.124,44.687c0.187,0.187,0.342,0.39,0.467,0.607c0.125,0.22,0.43,0.468,0.493,0.748
	c0.062,0.281,0.306,0.547,0.306,0.795v13.841L88.53,34.868L57.39,9.338v13.467c0,0.811-0.509,1.512-1.101,2.104
	c-0.593,0.594-1.4,0.889-2.21,0.889c-5.674,0-10.948,0.53-15.717,1.59c-4.77,1.061-9.051,2.665-12.792,4.816
	c-3.741,2.15-6.965,4.785-9.646,7.902c-5.362,6.172-8.642,13.778-9.826,22.817c1.434-2.058,2.942-3.881,4.532-5.471
	s3.739-3.272,6.451-5.05c2.712-1.776,5.688-3.257,8.93-4.442c3.241-1.184,7.278-2.165,12.11-2.945
	c4.831-0.779,10.114-1.169,15.851-1.169C54.783,43.845,55.5,44.126,56.124,44.687z"/>
</svg>
