<?xml version="1.0" encoding="iso-8859-1"?>
<!-- Generator: Adobe Illustrator 24.0.1, SVG Export Plug-In . SVG Version: 6.00 Build 0)  -->
<svg version="1.1" id="icon" xmlns="http://www.w3.org/2000/svg" xmlns:xlink="http://www.w3.org/1999/xlink" x="0px" y="0px"
	 viewBox="0 0 95.918 80.625" style="enable-background:new 0 0 95.918 80.625;" xml:space="preserve">
<g>
	<path d="M92.72,80.625h-0.094c-0.749,0-1.358-0.249-1.826-0.749c-0.468-0.499-0.735-1.155-0.796-1.967
		c-0.063-0.874-0.266-2.014-0.608-3.418c-0.344-1.405-1.438-3.667-3.278-6.79c-1.842-3.122-4.23-5.9-7.165-8.335
		c-2.936-2.435-7.384-4.62-13.346-6.556c-5.963-1.935-12.878-2.903-20.745-2.903v17.233c0,0.313-0.047,0.594-0.14,0.843
		c-0.094,0.25-0.204,0.5-0.328,0.75c-0.125,0.25-0.297,0.468-0.515,0.655c-0.219,0.188-0.454,0.344-0.702,0.468
		c-1.187,0.562-2.248,0.438-3.185-0.375L1.124,37.262c-0.375-0.312-0.656-0.67-0.843-1.077C0.094,35.779,0,35.358,0,34.92
		c0-0.937,0.375-1.717,1.124-2.342L39.991,0.735c0.937-0.811,1.981-0.951,3.138-0.421c1.155,0.531,1.732,1.452,1.732,2.763v16.764
		c2.497,0.126,4.901,0.328,7.212,0.609c2.309,0.281,4.557,0.656,6.743,1.124c2.185,0.468,4.276,1.046,6.275,1.732
		c1.998,0.688,3.901,1.484,5.713,2.388c1.811,0.906,3.527,1.89,5.151,2.95c1.623,1.063,3.152,2.233,4.589,3.512
		c1.436,1.281,2.777,2.639,4.027,4.074c2.684,3.123,4.885,6.696,6.603,10.724c1.716,4.027,2.887,7.665,3.512,10.911
		c0.624,3.247,0.998,6.556,1.124,9.928c0.125,3.372,0.141,5.745,0.047,7.118c-0.093,1.374-0.203,2.435-0.328,3.185
		c-0.126,0.749-0.438,1.358-0.937,1.826C94.093,80.391,93.469,80.625,92.72,80.625z M41.864,43.911c4.871,0,9.366,0.25,13.487,0.75
		c4.121,0.5,7.741,1.233,10.864,2.201c3.121,0.969,5.915,2.03,8.382,3.185c2.466,1.156,4.667,2.498,6.603,4.027
		c1.935,1.53,3.559,2.982,4.87,4.355c1.312,1.374,2.56,2.903,3.747,4.589c-1.187-9.052-4.465-16.671-9.834-22.852
		c-8.181-9.553-20.886-14.33-38.119-14.33c-0.812,0-1.514-0.295-2.107-0.89c-0.594-0.593-0.89-1.295-0.89-2.107V9.352L7.68,34.92
		L38.868,60.77V46.908c0-0.811,0.281-1.529,0.843-2.154c0.187-0.188,0.405-0.343,0.656-0.468c0.249-0.125,0.499-0.218,0.749-0.281
		C41.364,43.943,41.614,43.911,41.864,43.911z"/>
</g>
</svg>
