<?xml version="1.0" encoding="utf-8"?>
<!-- Generator: Adobe Illustrator 24.0.1, SVG Export Plug-In . SVG Version: 6.00 Build 0)  -->
<svg version="1.1" id="Layer_1" xmlns="http://www.w3.org/2000/svg" xmlns:xlink="http://www.w3.org/1999/xlink" x="0px" y="0px"
	 viewBox="0 0 95.7 51.1" style="enable-background:new 0 0 95.7 51.1;" xml:space="preserve">
<path d="M55.9,0c0.2,0,0.4,0,0.6,0.1s0.4,0.1,0.6,0.2s0.4,0.2,0.5,0.3l36.7,22.3c0.3,0.2,0.6,0.4,0.8,0.7c0.2,0.3,0.4,0.6,0.5,1
	c0.1,0.4,0.2,0.7,0.2,1.1c0,1.2-0.5,2.1-1.4,2.7L57.5,50.6c-0.2,0.2-0.5,0.3-0.8,0.4c-0.3,0.1-0.6,0.1-0.9,0.1c-0.3,0-0.6,0-0.8-0.1
	c-0.3-0.1-0.5-0.2-0.8-0.3c-1.1-0.7-1.6-1.5-1.6-2.8l0.1-44.6c0-1.3,0.6-2.1,1.6-2.8C54.8,0,55.3,0,55.9,0z M55.9,47.7l36.7-22.3
	L55.9,3.1V47.7z"/>
<path d="M39.8,51c-0.2,0-0.4,0-0.6-0.1s-0.4-0.1-0.6-0.2c-0.2-0.1-0.4-0.2-0.5-0.3L1.5,28.1c-0.3,0-0.5-0.3-0.8-0.6
	c-0.2-0.3-0.4-0.6-0.5-1c-0.1-0.3-0.2-0.7-0.2-1c0-1.2,0.5-2.1,1.4-2.7L38.2,0.5c0.2-0.2,0.5-0.3,0.8-0.4C39.2,0,39.5,0,39.9,0
	c0.3,0,0.6,0,0.8,0.1c0.3,0.1,0.5,0.2,0.8,0.3c1.1,0.7,1.6,1.5,1.6,2.8L43,47.8c0,1.3-0.6,2.1-1.6,2.8C40.9,50.9,40.4,51,39.8,51z
	 M39.9,3.2L3.2,25.6l36.6,22.3L39.9,3.2z"/>
</svg>
