<?xml version="1.0" encoding="iso-8859-1"?>
<!-- Generator: Adobe Illustrator 24.0.1, SVG Export Plug-In . SVG Version: 6.00 Build 0)  -->
<svg version="1.1" id="Layer_1" xmlns="http://www.w3.org/2000/svg" xmlns:xlink="http://www.w3.org/1999/xlink" x="0px" y="0px"
	 viewBox="0 0 95.761 95.762" style="enable-background:new 0 0 95.761 95.762;" xml:space="preserve">
<path d="M71.915,89.355c-7.357,4.27-15.369,6.406-24.034,6.406c-8.666,0-16.678-2.137-24.034-6.406
	c-7.357-4.27-13.171-10.084-17.441-17.44C2.135,64.559,0,56.547,0,47.881c0-8.665,2.135-16.677,6.406-24.034
	c4.27-7.355,10.084-13.169,17.441-17.44C31.203,2.137,39.214,0,47.88,0c8.665,0,16.677,2.137,24.034,6.406
	c7.355,4.271,13.169,10.085,17.44,17.44c4.27,7.357,6.406,15.369,6.406,24.034c0,8.666-2.136,16.678-6.406,24.034
	C85.084,79.271,79.27,85.086,71.915,89.355z M6.359,54.053c1.496,9.976,6.046,18.361,13.653,25.156
	c7.979,7.046,17.269,10.567,27.868,10.567c5.672,0,11.097-1.106,16.272-3.32c5.174-2.212,9.632-5.189,13.373-8.931
	c3.741-3.74,6.717-8.197,8.931-13.373c2.212-5.174,3.32-10.598,3.32-16.271c0-5.672-1.107-11.097-3.32-16.271
	c-2.213-5.175-5.19-9.633-8.931-13.373c-3.741-3.741-8.199-6.718-13.373-8.931c-5.175-2.213-10.6-3.32-16.272-3.32
	c-5.674,0-11.098,1.107-16.271,3.32c-5.176,2.213-9.648,5.189-13.42,8.931c-3.773,3.74-6.765,8.198-8.978,13.373
	c-2.214,5.175-3.32,10.6-3.32,16.271C5.892,49.938,6.046,51.996,6.359,54.053z M50.031,70.979c-0.561,0.562-1.278,0.842-2.151,0.842
	c-0.5,0-0.982-0.124-1.449-0.374c-0.468-0.249-0.842-0.608-1.122-1.075c-0.281-0.468-0.421-0.982-0.421-1.543V34.976L33.947,46.011
	c-0.313,0.25-0.655,0.453-1.029,0.607c-0.374,0.156-0.748,0.234-1.122,0.234c-0.375,0-0.749-0.078-1.123-0.234
	c-0.374-0.154-0.717-0.357-1.028-0.607c-0.562-0.623-0.842-1.34-0.842-2.151c0-0.81,0.28-1.526,0.842-2.15l18.142-17.675
	l18.142,17.675c0.623,0.624,0.935,1.341,0.935,2.15c0,0.812-0.296,1.513-0.888,2.104c-0.593,0.593-1.309,0.889-2.151,0.889
	s-1.543-0.281-2.104-0.842L50.873,35.163v33.666C50.873,69.702,50.593,70.418,50.031,70.979z"/>
</svg>
