<?xml version="1.0" encoding="utf-8"?>
<!-- Generator: Adobe Illustrator 24.0.1, SVG Export Plug-In . SVG Version: 6.00 Build 0)  -->
<svg version="1.1" id="icon" xmlns="http://www.w3.org/2000/svg" xmlns:xlink="http://www.w3.org/1999/xlink" x="0px" y="0px"
	 viewBox="0 0 95.7 47.5" style="enable-background:new 0 0 95.7 47.5;" xml:space="preserve">
<path d="M36.8,6v35.5L6,23.8L36.8,6 M36.8,0c-1,0-2.1,0.3-3,0.8L3,18.6c-1.9,1.1-3,3.1-3,5.2s1.1,4.1,3,5.2l30.8,17.8
	c0.9,0.5,2,0.8,3,0.8s2.1-0.3,3-0.8c1.9-1.1,3-3.1,3-5.2V6c0-2.1-1.1-4.1-3-5.2C38.8,0.3,37.8,0,36.8,0L36.8,0z"/>
<path d="M58.9,6l30.8,17.8L58.9,41.5V6 M58.9,0c-1,0-2.1,0.3-3,0.8c-1.9,1.1-3,3.1-3,5.2v35.5c0,2.1,1.1,4.1,3,5.2
	c0.9,0.5,2,0.8,3,0.8s2.1-0.3,3-0.8L92.7,29c1.9-1.1,3-3.1,3-5.2s-1.1-4.1-3-5.2L61.9,0.8C61,0.3,60,0,58.9,0L58.9,0z"/>
</svg>
