<?xml version="1.0" encoding="iso-8859-1"?>
<!-- Generator: Adobe Illustrator 24.0.1, SVG Export Plug-In . SVG Version: 6.00 Build 0)  -->
<svg version="1.1" id="icon" xmlns="http://www.w3.org/2000/svg" xmlns:xlink="http://www.w3.org/1999/xlink" x="0px" y="0px"
	 viewBox="0 0 51.34 95.668" style="enable-background:new 0 0 51.34 95.668;" xml:space="preserve">
<path d="M48.161,0c0.872,0,1.62,0.313,2.244,0.936c0.249,0.187,0.436,0.406,0.561,0.654c0.125,0.25,0.218,0.515,0.281,0.795
	c0.062,0.281,0.093,0.562,0.093,0.842s-0.032,0.547-0.093,0.795c-0.063,0.25-0.156,0.5-0.281,0.748
	c-0.125,0.25-0.313,0.5-0.561,0.748L7.762,48.161l42.083,42.083c0.374,0.374,0.639,0.842,0.795,1.402
	c0.155,0.562,0.155,1.122,0,1.684c-0.156,0.561-0.421,1.028-0.795,1.402c-0.624,0.623-1.388,0.936-2.291,0.936
	c-0.905,0-1.669-0.313-2.291-0.936L0.935,50.406C0.311,49.783,0,49.035,0,48.161c0-0.872,0.311-1.62,0.935-2.244L45.917,0.936
	C46.539,0.313,47.287,0,48.161,0z"/>
</svg>
