<?xml version="1.0" encoding="iso-8859-1"?>
<!-- Generator: Adobe Illustrator 24.0.1, SVG Export Plug-In . SVG Version: 6.00 Build 0)  -->
<svg version="1.1" id="icon" xmlns="http://www.w3.org/2000/svg" xmlns:xlink="http://www.w3.org/1999/xlink" x="0px" y="0px"
	 viewBox="0 0 94.732 50.779" style="enable-background:new 0 0 94.732 50.779;" xml:space="preserve">
<path d="M0.935,45.355L45.449,0.841C46.072,0.28,46.82,0,47.694,0c0.872,0,1.62,0.28,2.244,0.841l43.859,43.953
	c0.623,0.624,0.935,1.372,0.935,2.244c0,0.874-0.313,1.622-0.935,2.245c-0.624,0.624-1.372,0.935-2.245,0.935
	c-0.874,0-1.622-0.311-2.244-0.935L47.694,7.668L5.424,49.844C4.8,50.468,4.052,50.779,3.18,50.779
	c-0.874,0-1.622-0.312-2.245-0.936c-0.313-0.248-0.546-0.575-0.701-0.981C0.078,48.457,0,48.053,0,47.646
	c0-0.405,0.078-0.81,0.234-1.216C0.389,46.025,0.623,45.668,0.935,45.355z"/>
</svg>
