<?xml version="1.0" encoding="iso-8859-1"?>
<!-- Generator: Adobe Illustrator 24.0.1, SVG Export Plug-In . SVG Version: 6.00 Build 0)  -->
<svg version="1.1" id="Layer_1" xmlns="http://www.w3.org/2000/svg" xmlns:xlink="http://www.w3.org/1999/xlink" x="0px" y="0px"
	 viewBox="0 0 94.732 50.873" style="enable-background:new 0 0 94.732 50.873;" xml:space="preserve">
<path d="M0,3.18c0-0.873,0.312-1.621,0.935-2.245C1.558,0.313,2.306,0,3.18,0C4.052,0,4.8,0.313,5.424,0.935l42.27,42.27
	L89.309,1.59c0.623-0.623,1.371-0.936,2.244-0.936c0.873,0,1.621,0.313,2.245,0.936c0.623,0.624,0.935,1.372,0.935,2.244
	c0,0.874-0.313,1.622-0.935,2.244L49.938,49.938c-0.624,0.624-1.372,0.936-2.244,0.936c-0.874,0-1.622-0.312-2.245-0.936
	L0.935,5.518c-0.313-0.312-0.546-0.67-0.701-1.076C0.078,4.037,0,3.616,0,3.18z"/>
</svg>
