<?xml version="1.0" encoding="utf-8"?>
<!-- Generator: Adobe Illustrator 24.0.1, SVG Export Plug-In . SVG Version: 6.00 Build 0)  -->
<svg version="1.1" id="icon" xmlns="http://www.w3.org/2000/svg" xmlns:xlink="http://www.w3.org/1999/xlink" x="0px" y="0px"
	 viewBox="0 0 47.5 95.7" style="enable-background:new 0 0 47.5 95.7;" xml:space="preserve">
<path d="M41.5,36.8H6L23.8,6L41.5,36.8 M47.5,36.8c0-1-0.3-2.1-0.8-3L29,3c-1.1-1.9-3.1-3-5.2-3s-4.1,1.1-5.2,3L0.8,33.8
	c-0.5,0.9-0.8,2-0.8,3s0.3,2.1,0.8,3c1.1,1.9,3.1,3,5.2,3h35.5c2.1,0,4.1-1.1,5.2-3C47.3,38.8,47.5,37.8,47.5,36.8L47.5,36.8z"/>
<path d="M41.5,58.9L23.8,89.7L6,58.9H41.5 M47.5,58.9c0-1-0.3-2.1-0.8-3c-1.1-1.9-3.1-3-5.2-3H6c-2.1,0-4.1,1.1-5.2,3
	c-0.5,0.9-0.8,2-0.8,3s0.3,2.1,0.8,3l17.8,30.8c1.1,1.9,3.1,3,5.2,3s4.1-1.1,5.2-3l17.8-30.8C47.3,61,47.5,60,47.5,58.9L47.5,58.9z"
	/>
</svg>
