<?xml version="1.0" encoding="utf-8"?>
<!-- Generator: Adobe Illustrator 24.0.1, SVG Export Plug-In . SVG Version: 6.00 Build 0)  -->
<svg version="1.1" id="Layer_1" xmlns="http://www.w3.org/2000/svg" xmlns:xlink="http://www.w3.org/1999/xlink" x="0px" y="0px"
	 viewBox="0 0 51 95.7" style="enable-background:new 0 0 51 95.7;" xml:space="preserve">
<path d="M0,39.8c0-0.2,0-0.4,0.1-0.6c0.1-0.2,0.1-0.4,0.2-0.6c0.1-0.2,0.2-0.4,0.3-0.5L22.9,1.5c0-0.3,0.3-0.5,0.6-0.8
	c0.3-0.2,0.6-0.4,1-0.5C24.7,0.1,25.1,0,25.5,0c1.2,0,2.1,0.5,2.7,1.5l22.3,36.7c0.2,0.2,0.3,0.5,0.4,0.8c0.1,0.3,0.1,0.6,0.1,0.9
	c0,0.3,0,0.6-0.1,0.8c-0.1,0.3-0.2,0.5-0.3,0.8C50,42.4,49.1,43,47.8,43H3.2c-1.3,0-2.1-0.6-2.8-1.6C0.1,40.9,0,40.4,0,39.8z
	 M47.8,39.9L25.4,3.2L3.2,39.8L47.8,39.9z"/>
<path d="M51,55.9c0,0.2,0,0.4-0.1,0.6c-0.1,0.2-0.1,0.4-0.2,0.6c-0.1,0.2-0.2,0.4-0.3,0.5L28.1,94.3c-0.2,0.3-0.4,0.6-0.7,0.8
	c-0.3,0.2-0.6,0.4-1,0.5c-0.4,0.1-0.7,0.2-1.1,0.2c-1.2,0-2.1-0.5-2.7-1.4L0.4,57.5C0.2,57.3,0.1,57,0,56.7c0-0.3,0-0.6,0-0.9
	s0-0.6,0.1-0.8c0.1-0.3,0.2-0.5,0.3-0.8c0.7-1.1,1.5-1.6,2.8-1.6l44.6,0.1c1.3,0,2.1,0.6,2.8,1.6C50.8,54.8,51,55.3,51,55.9z
	 M3.2,55.9l22.3,36.7L47.8,56L3.2,55.9z"/>
</svg>
