<?xml version="1.0" encoding="iso-8859-1"?>
<!-- Generator: Adobe Illustrator 24.0.1, SVG Export Plug-In . SVG Version: 6.00 Build 0)  -->
<svg version="1.1" id="icon" xmlns="http://www.w3.org/2000/svg" xmlns:xlink="http://www.w3.org/1999/xlink" x="0px" y="0px"
	 viewBox="0 0 51.34 95.668" style="enable-background:new 0 0 51.34 95.668;" xml:space="preserve">
<path d="M3.273,95.668c-0.874,0-1.637-0.313-2.291-0.936C0.327,94.108,0,93.36,0,92.488c0-0.874,0.311-1.622,0.935-2.244
	l42.737-42.737L1.59,5.518C1.216,5.082,0.95,4.583,0.795,4.021c-0.156-0.562-0.156-1.106,0-1.637C0.95,1.856,1.216,1.372,1.59,0.936
	C2.212,0.313,2.977,0,3.881,0c0.903,0,1.667,0.313,2.291,0.936l44.233,44.327c0.312,0.313,0.545,0.67,0.702,1.075
	c0.155,0.406,0.233,0.811,0.233,1.216c0,0.406-0.079,0.795-0.233,1.169c-0.157,0.374-0.39,0.718-0.702,1.028L5.518,94.732
	c-0.313,0.312-0.671,0.545-1.076,0.702C4.036,95.589,3.647,95.668,3.273,95.668z"/>
</svg>
