<?xml version="1.0" encoding="iso-8859-1"?>
<!-- Generator: Adobe Illustrator 24.0.1, SVG Export Plug-In . SVG Version: 6.00 Build 0)  -->
<svg version="1.1" id="Layer_1" xmlns="http://www.w3.org/2000/svg" xmlns:xlink="http://www.w3.org/1999/xlink" x="0px" y="0px"
	 viewBox="0 0 95.761 95.762" style="enable-background:new 0 0 95.761 95.762;" xml:space="preserve">
<path d="M23.847,6.406C31.203,2.137,39.214,0,47.88,0c8.665,0,16.677,2.137,24.034,6.406c7.355,4.271,13.169,10.085,17.44,17.44
	c4.27,7.357,6.406,15.369,6.406,24.034c0,8.666-2.136,16.678-6.406,24.034c-4.271,7.356-10.085,13.171-17.44,17.44
	c-7.357,4.27-15.369,6.406-24.034,6.406c-8.666,0-16.678-2.137-24.034-6.406c-7.357-4.27-13.171-10.084-17.441-17.44
	C2.135,64.559,0,56.547,0,47.881c0-8.665,2.135-16.677,6.406-24.034C10.675,16.491,16.49,10.678,23.847,6.406z M77.572,18.236
	c-3.773-3.741-8.246-6.718-13.42-8.931c-5.175-2.213-10.6-3.32-16.272-3.32c-5.674,0-11.098,1.107-16.271,3.32
	c-5.176,2.213-9.632,5.189-13.373,8.931c-3.741,3.74-6.719,8.198-8.931,13.373c-2.213,5.175-3.32,10.6-3.32,16.271
	c0,5.674,1.106,11.098,3.32,16.271c2.212,5.176,5.19,9.633,8.931,13.373c3.741,3.741,8.197,6.719,13.373,8.931
	c5.174,2.214,10.598,3.32,16.271,3.32c5.672,0,11.097-1.106,16.272-3.32c5.174-2.212,9.647-5.189,13.42-8.931
	c3.771-3.74,6.764-8.197,8.978-13.373c2.212-5.174,3.32-10.598,3.32-16.271c0-5.672-1.107-11.097-3.32-16.271
	C84.336,26.435,81.343,21.977,77.572,18.236z M45.122,25.718c0.155-0.374,0.358-0.686,0.608-0.936
	c0.249-0.248,0.562-0.451,0.936-0.607c0.374-0.155,0.779-0.234,1.215-0.234c0.81,0,1.511,0.28,2.104,0.842
	c0.592,0.562,0.888,1.278,0.888,2.151v33.853l10.941-11.035c0.623-0.561,1.34-0.842,2.151-0.842c0.81,0,1.511,0.297,2.104,0.889
	c0.592,0.594,0.889,1.295,0.889,2.104c0,0.811-0.281,1.528-0.842,2.15L47.974,71.728L29.832,54.053
	c-0.187-0.187-0.344-0.404-0.468-0.654c-0.811-1.31-0.655-2.525,0.468-3.647c0.187-0.187,0.389-0.342,0.607-0.468
	c0.218-0.124,0.452-0.218,0.702-0.28c0.249-0.062,0.498-0.094,0.748-0.094c0.249,0,0.499,0.032,0.748,0.094
	c0.249,0.063,0.499,0.156,0.748,0.28c0.249,0.126,0.468,0.281,0.655,0.468L44.888,60.6V26.934
	C44.888,26.498,44.965,26.092,45.122,25.718z"/>
</svg>
