<?xml version="1.0" encoding="iso-8859-1"?>
<!-- Generator: Adobe Illustrator 24.0.1, SVG Export Plug-In . SVG Version: 6.00 Build 0)  -->
<svg version="1.1" id="icon" xmlns="http://www.w3.org/2000/svg" xmlns:xlink="http://www.w3.org/1999/xlink" x="0px" y="0px"
	 viewBox="0 0 95.761 95.762" style="enable-background:new 0 0 95.761 95.762;" xml:space="preserve">
<path d="M89.355,23.847c4.27,7.357,6.406,15.369,6.406,24.034c0,8.666-2.136,16.678-6.406,24.034
	c-4.271,7.356-10.085,13.171-17.44,17.44c-7.357,4.27-15.369,6.406-24.034,6.406c-8.666,0-16.678-2.137-24.034-6.406
	c-7.357-4.27-13.171-10.084-17.441-17.44C2.135,64.559,0,56.547,0,47.881c0-8.665,2.135-16.677,6.406-24.034
	c4.27-7.355,10.084-13.169,17.441-17.44C31.203,2.137,39.214,0,47.88,0c8.665,0,16.677,2.137,24.034,6.406
	C79.27,10.678,85.084,16.491,89.355,23.847z M8.089,61.113c1.403,4.271,3.397,8.121,5.985,11.55
	c2.586,3.429,5.595,6.452,9.024,9.071c3.428,2.618,7.278,4.629,11.549,6.031c4.27,1.403,8.681,2.104,13.232,2.104
	c10.411,0,19.576-3.46,27.494-10.381L16.272,20.387C9.413,28.306,5.985,37.47,5.985,47.881C5.985,52.433,6.687,56.844,8.089,61.113z
	 M89.776,47.881c0-4.55-0.701-8.962-2.104-13.232c-1.403-4.27-3.399-8.12-5.985-11.55c-2.588-3.428-5.597-6.437-9.024-9.024
	c-3.43-2.586-7.28-4.582-11.549-5.984c-4.271-1.403-8.683-2.104-13.233-2.104c-5.113,0-10.006,0.889-14.682,2.665
	c-4.676,1.777-8.916,4.287-12.718,7.528l59.103,59.103C86.377,67.364,89.776,58.23,89.776,47.881z"/>
</svg>
