<?xml version="1.0" encoding="iso-8859-1"?>
<!-- Generator: Adobe Illustrator 24.0.1, SVG Export Plug-In . SVG Version: 6.00 Build 0)  -->
<svg version="1.1" id="Layer_1" xmlns="http://www.w3.org/2000/svg" xmlns:xlink="http://www.w3.org/1999/xlink" x="0px" y="0px"
	 viewBox="0 0 95.267 93.093" style="enable-background:new 0 0 95.267 93.093;" xml:space="preserve">
<path d="M95.106,28.098L80.798,70.18c-0.187,0.562-0.546,0.956-1.076,1.33C79.192,71.886,78.615,72,77.993,72H37.593
	c-0.437,0-0.841-0.022-1.215-0.208c-0.374-0.188-0.702-0.416-0.982-0.759c-0.281-0.342-0.484-0.683-0.608-1.057L18.235,9.199
	c-0.25-0.936-0.561-1.632-0.935-2.1s-0.67-0.836-0.888-0.9C16.193,6.137,15.959,6,15.71,6H2.899c-0.5,0-0.982-0.017-1.45-0.267
	C0.982,5.485,0.622,5.18,0.374,4.712C0.124,4.244,0,3.789,0,3.289c0-0.872,0.28-1.738,0.841-2.3C1.402,0.429,2.088,0,2.899,0H15.71
	c0.623,0,1.247,0.24,1.871,0.395c0.623,0.156,1.356,0.534,2.198,0.97c0.841,0.437,1.636,1.225,2.384,2.285
	c0.749,1.061,1.34,2.32,1.777,3.816L28.803,24h63.498c0.997,0,1.792,0.459,2.385,1.301C95.277,26.142,95.417,27.101,95.106,28.098z
	 M87.999,30H30.393l9.539,36h36.004L87.999,30z M45.449,78.504c0.749,0.25,1.434,0.607,2.058,1.075
	c0.623,0.468,1.169,1.014,1.636,1.637c0.468,0.624,0.826,1.31,1.076,2.058c0.249,0.748,0.374,1.528,0.374,2.338
	c0,2.057-0.733,3.817-2.198,5.283c-1.465,1.464-3.226,2.198-5.284,2.198c-2.057,0-3.819-0.734-5.284-2.198
	c-1.465-1.466-2.197-3.227-2.197-5.283c0-1.371,0.327-2.619,0.982-3.741c0.654-1.122,1.558-2.025,2.712-2.712
	c1.153-0.686,2.415-1.028,3.787-1.028C43.92,78.13,44.701,78.255,45.449,78.504z M77.525,85.611c0,2.057-0.733,3.817-2.197,5.283
	c-1.466,1.464-3.227,2.198-5.284,2.198c-2.058,0-3.82-0.734-5.284-2.198c-1.466-1.466-2.198-3.227-2.198-5.283
	c0-2.058,0.732-3.818,2.198-5.284c1.464-1.464,3.226-2.197,5.284-2.197c2.057,0,3.818,0.733,5.284,2.197
	C76.792,81.793,77.525,83.553,77.525,85.611z"/>
</svg>
