<?xml version="1.0" encoding="iso-8859-1"?>
<!-- Generator: Adobe Illustrator 24.0.1, SVG Export Plug-In . SVG Version: 6.00 Build 0)  -->
<svg version="1.1" id="Layer_1" xmlns="http://www.w3.org/2000/svg" xmlns:xlink="http://www.w3.org/1999/xlink" x="0px" y="0px"
	 viewBox="0 0 82.832 95.574" style="enable-background:new 0 0 82.832 95.574;" xml:space="preserve">
<path d="M79.583,68.174c0.312,0.374,0.702,0.874,1.169,1.496c0.468,0.624,0.795,1.122,0.982,1.496s0.405,0.827,0.655,1.356
	c0.249,0.53,0.389,0.981,0.421,1.355c0.031,0.374,0.031,0.795,0,1.263c-0.032,0.468-0.172,0.921-0.421,1.356
	c-0.935,2.057-3.46,3.086-7.575,3.086H57.326c0,4.427-1.559,8.198-4.676,11.315c-3.118,3.116-6.89,4.676-11.315,4.676
	c-4.428,0-8.199-1.56-11.315-4.676c-3.118-3.117-4.676-6.889-4.676-11.315H8.229c-4.115,0-6.703-1.029-7.762-3.086
	C0.155,75.874,0,75.22,0,74.533c0-0.686,0.078-1.293,0.234-1.824c0.155-0.528,0.482-1.216,0.982-2.057
	c0.498-0.842,0.935-1.527,1.309-2.058c0.374-0.529,0.935-1.324,1.684-2.385c0.187-0.188,0.872-1.06,2.057-2.618
	c1.184-1.558,1.995-2.666,2.432-3.32c0.435-0.654,1.059-1.651,1.87-2.992c0.81-1.34,1.371-2.587,1.683-3.741
	c0.312-1.152,0.468-2.291,0.468-3.413V30.58c0-5.548,1.247-10.661,3.741-15.337c2.493-4.676,5.938-8.384,10.333-11.128
	C31.188,1.372,36.004,0,41.241,0c3.989,0,7.762,0.812,11.316,2.432c3.553,1.622,6.593,3.787,9.118,6.499s4.536,5.955,6.032,9.726
	c1.496,3.773,2.245,7.748,2.245,11.924v19.545c0,0.936,0.124,1.917,0.374,2.946c0.248,1.028,0.608,2.057,1.075,3.086
	c0.468,1.028,0.935,1.964,1.403,2.805c0.468,0.842,1.06,1.763,1.777,2.759c0.716,0.998,1.324,1.81,1.824,2.432
	c0.498,0.624,1.122,1.403,1.87,2.338C78.834,67.238,79.27,67.8,79.583,68.174z M75.141,73.224c0.094,0,0.202,0,0.327,0
	c-0.125-0.187-0.266-0.374-0.42-0.562c-0.157-0.187-0.297-0.357-0.421-0.514c-0.126-0.155-0.281-0.342-0.468-0.562
	c-0.187-0.218-0.327-0.389-0.421-0.514c-0.093-0.125-0.233-0.312-0.421-0.562c-1.372-1.684-2.478-3.101-3.32-4.255
	c-0.841-1.153-1.839-2.665-2.992-4.536c-1.154-1.87-2.011-3.787-2.572-5.751s-0.842-3.911-0.842-5.845V30.58
	c0-1.932-0.187-3.802-0.561-5.611c-0.374-1.808-0.92-3.49-1.637-5.05c-0.717-1.558-1.59-3.039-2.618-4.441
	c-1.029-1.403-2.183-2.666-3.46-3.788c-1.278-1.122-2.65-2.071-4.115-2.852c-1.465-0.779-3.039-1.387-4.722-1.824
	c-1.684-0.436-3.43-0.654-5.237-0.654c-6.235,0-11.488,2.354-15.757,7.061c-4.271,4.708-6.406,10.427-6.406,17.16v19.545
	c0,1.248-0.187,2.588-0.562,4.021c-0.374,1.435-0.733,2.618-1.075,3.554c-0.343,0.935-0.982,2.167-1.917,3.693
	c-0.936,1.528-1.59,2.541-1.964,3.039c-0.374,0.5-1.154,1.529-2.338,3.087c-1.185,1.559-1.809,2.4-1.871,2.524
	c-1.122,1.496-1.87,2.558-2.244,3.18c0.061,0,0.155,0,0.28,0c0.125,0,0.265,0,0.421,0c0.155,0,0.295,0,0.421,0h66.584
	C74.938,73.224,75.047,73.224,75.141,73.224z M48.208,86.456c1.901-1.9,2.852-4.192,2.852-6.873H31.609
	c0,1.309,0.264,2.571,0.794,3.787c0.529,1.216,1.23,2.244,2.104,3.086c0.872,0.842,1.901,1.528,3.086,2.058
	c1.184,0.53,2.432,0.795,3.741,0.795C44.014,89.309,46.305,88.358,48.208,86.456z"/>
</svg>
