<?xml version="1.0" encoding="iso-8859-1"?>
<!-- Generator: Adobe Illustrator 24.0.1, SVG Export Plug-In . SVG Version: 6.00 Build 0)  -->
<svg version="1.1" id="icon" xmlns="http://www.w3.org/2000/svg" xmlns:xlink="http://www.w3.org/1999/xlink" x="0px" y="0px"
	 viewBox="0 0 96 95.906" style="enable-background:new 0 0 96 95.906;" xml:space="preserve">
<path d="M93.733,1.081C95.103,2.141,96,3.544,96,5.289v72.756c0,1.496-0.71,2.885-1.706,4.161c-0.998,1.279-2.319,2.104-3.752,2.479
	l-39.61,10.755c-0.561,0.187-1.195,0.311-1.85,0.374c-0.655,0.062-1.276,0.093-1.837,0.093c-1.435,0-2.688-0.156-3.747-0.467
	L4.965,84.778c-1.435-0.436-2.561-1.293-3.558-2.572C0.409,80.929,0,79.541,0,78.045V5.289c0-1.745,0.594-3.147,1.966-4.208
	c1.371-1.06,2.884-1.34,4.63-0.842L45.103,10.9c0.249,0.063,0.55,0.109,0.924,0.14c0.374,0.032,0.757,0.047,1.163,0.047
	c0.404,0,0.792-0.015,1.166-0.047c0.374-0.03,0.684-0.077,0.934-0.14L88.952,0.239C90.697-0.259,92.361,0.021,93.733,1.081z
	 M45,16.885c-1,0-0.614-0.03-0.801-0.093c-0.188-0.062-0.35-0.094-0.537-0.094L6,6.224v71.82c0,0.188-0.021,0.374,0.136,0.562
	c0.155,0.187,0.393,0.313,0.519,0.374L45,89.548V16.885z M37.599,46.81c0.249,0.187,0.468,0.39,0.655,0.607
	c0.187,0.22,0.342,0.484,0.468,0.795c0.124,0.313,0.187,0.624,0.187,0.936c0,0.313-0.032,0.624-0.094,0.936
	c-0.187,0.623-0.546,1.138-1.075,1.543c-0.531,0.406-1.138,0.607-1.824,0.607c-0.313,0-0.593-0.03-0.842-0.094l-20.948-5.892
	c-0.313-0.062-0.593-0.187-0.841-0.374c-0.25-0.187-0.468-0.404-0.655-0.654c-0.187-0.248-0.343-0.515-0.468-0.795
	c-0.125-0.28-0.187-0.576-0.187-0.889c0-0.311,0.031-0.622,0.094-0.935c0.187-0.562,0.468-1.029,0.842-1.403
	s0.809-0.622,1.309-0.748c0.498-0.124,1.029-0.124,1.59,0l20.948,5.892C37.069,46.468,37.349,46.623,37.599,46.81z M38.067,65.139
	c0.374,0.374,0.623,0.811,0.748,1.31c0.125,0.499,0.125,1.028,0,1.59c-0.187,0.624-0.546,1.138-1.075,1.543
	c-0.531,0.406-1.138,0.607-1.824,0.607c-0.25,0-0.53-0.03-0.842-0.094l-20.948-5.892c-0.313-0.061-0.593-0.187-0.841-0.374
	c-0.25-0.187-0.468-0.404-0.655-0.654c-0.187-0.248-0.343-0.515-0.468-0.795c-0.125-0.28-0.187-0.575-0.187-0.889
	c0-0.311,0.031-0.622,0.094-0.935c0.249-0.81,0.732-1.418,1.45-1.824c0.716-0.404,1.48-0.514,2.291-0.327l20.948,5.892
	C37.256,64.485,37.693,64.765,38.067,65.139z M38.488,29.837c0.405,0.718,0.514,1.481,0.327,2.291
	c-0.125,0.438-0.327,0.827-0.608,1.169c-0.28,0.344-0.624,0.567-1.028,0.721c-0.406,0.157-0.827,0.207-1.263,0.207
	c-0.125,0-0.266,0-0.421,0c-0.156,0-0.296-0.004-0.421-0.067L14.126,28.28c-0.748-0.248-1.325-0.725-1.73-1.442
	c-0.406-0.716-0.514-1.446-0.327-2.194c0.124-0.436,0.311-0.808,0.561-1.121c0.249-0.311,0.545-0.544,0.889-0.7
	c0.342-0.154,0.701-0.264,1.075-0.327c0.374-0.062,0.779-0.061,1.216,0l20.948,5.892C37.506,28.637,38.081,29.121,38.488,29.837z
	 M90,78.045V6.224l-39.121,10c-0.063,0,0.121,0,0.121,0v73.042L89.001,78.98c0.124-0.062,0.406-0.202,0.593-0.421
	C89.781,78.342,90,78.171,90,78.045z M58.033,33.671c-0.53-0.404-0.888-0.919-1.075-1.543c-0.187-0.81-0.079-1.573,0.327-2.291
	c0.405-0.716,0.982-1.199,1.73-1.449l20.948-5.892c0.561-0.124,1.09-0.124,1.59,0c0.498,0.126,0.935,0.374,1.309,0.748
	s0.655,0.842,0.842,1.403c0.187,0.748,0.078,1.481-0.327,2.197c-0.406,0.718-0.982,1.201-1.73,1.449l-20.948,5.892
	c-0.25,0.063-0.53,0.094-0.841,0.094C59.169,34.279,58.561,34.077,58.033,33.671z M58.033,51.627
	c-0.53-0.405-0.888-0.92-1.075-1.543c-0.187-0.81-0.079-1.574,0.327-2.292c0.405-0.716,0.982-1.199,1.73-1.449l20.948-5.892
	c0.81-0.187,1.574-0.077,2.291,0.327c0.716,0.406,1.184,0.998,1.403,1.777c0.218,0.78,0.125,1.528-0.28,2.244
	c-0.406,0.718-0.982,1.201-1.73,1.449L60.698,52.14c-0.25,0.063-0.53,0.094-0.841,0.094C59.169,52.234,58.561,52.033,58.033,51.627z
	 M58.033,69.599c-0.53-0.405-0.888-0.928-1.075-1.552c-0.187-0.81-0.079-1.579,0.327-2.295c0.405-0.717,0.982-1.202,1.73-1.452
	l20.948-5.893c0.81-0.187,1.574-0.078,2.291,0.327c0.716,0.406,1.184,0.998,1.403,1.777c0.218,0.78,0.125,1.528-0.28,2.244
	c-0.406,0.718-0.982,1.201-1.73,1.449l-20.948,5.909c-0.125,0.063-0.266,0.111-0.42,0.111c-0.157,0-0.297,0-0.421,0
	C59.169,70.225,58.561,70.006,58.033,69.599z"/>
</svg>
