<?xml version="1.0" encoding="iso-8859-1"?>
<!-- Generator: Adobe Illustrator 24.0.1, SVG Export Plug-In . SVG Version: 6.00 Build 0)  -->
<svg version="1.1" id="Layer_1" xmlns="http://www.w3.org/2000/svg" xmlns:xlink="http://www.w3.org/1999/xlink" x="0px" y="0px"
	 viewBox="0 0 96 90" style="enable-background:new 0 0 96 90;" xml:space="preserve">
<path d="M92.826,15.686c0.935,0.561,1.758,1.216,2.288,2.12C95.644,18.71,96,19.615,96,20.674v62.844
	c0,1.622-0.684,3.273-1.868,4.457C92.947,89.158,91.454,90,89.834,90H6.043c-1.622,0-3.054-0.842-4.237-2.026
	C0.62,86.79,0,85.139,0,83.517V47.7v-5.984V20.674c0-1.62,0.62-2.867,1.805-4.053C2.989,15.437,4.421,15,6.043,15H30V8.891
	c0-2.432,0.864-4.493,2.61-6.269C34.354,0.845,36.467,0,38.961,0h17.955c1.621,0,3.133,0.363,4.536,1.172
	c1.403,0.812,2.546,1.881,3.326,3.252C65.557,5.796,66,7.27,66,8.891V15h23.834C90.893,15,91.891,15.125,92.826,15.686z M6,42h33
	v-3.37c0-1.621,0.556-2.846,1.71-4.031C41.863,33.415,43.263,33,44.946,33h5.985c1.059,0,2.041,0.088,2.946,0.617
	c0.903,0.53,1.678,1.174,2.239,2.108C56.677,36.661,57,37.57,57,38.63V42h33V21H6V42z M90,84V48H57v5.685
	c0,1.061-0.323,2.058-0.884,2.992c-0.561,0.936-1.315,1.834-2.218,2.363C52.993,59.571,51.99,60,50.931,60h-5.985
	c-1.683,0-3.082-0.741-4.235-1.895c-1.154-1.152-1.71-2.736-1.71-4.42V48H6v36H90z M36,15h24V8.891c0-0.81-0.327-1.461-0.888-2.054
	C58.551,6.246,57.788,6,56.916,6H38.961c-0.811,0-1.497,0.246-2.088,0.838C36.279,7.431,36,8.082,36,8.891V15z M51,39h-6v15h6V39z"
	/>
</svg>
