<?xml version="1.0" encoding="iso-8859-1"?>
<!-- Generator: Adobe Illustrator 24.0.1, SVG Export Plug-In . SVG Version: 6.00 Build 0)  -->
<svg version="1.1" id="icon" xmlns="http://www.w3.org/2000/svg" xmlns:xlink="http://www.w3.org/1999/xlink" x="0px" y="0px"
	 viewBox="0 0 95.616 88.432" style="enable-background:new 0 0 95.616 88.432;" xml:space="preserve">
<path d="M38.507,59.432c-0.437,0-0.748,0-0.935,0c-0.374,0-0.717,0-1.029,0c-0.313,0-0.64,0-0.982,0
	c-0.343,0-0.701,0.132-1.075,0.069c-0.374-0.061-0.78-0.043-1.216-0.105c-0.437,0.561-1.388,1.46-2.852,2.612
	c-1.466,1.154-3.18,2.405-5.144,3.715c-1.964,1.309-4.115,2.559-6.453,3.65s-4.381,2.06-6.125,2.06h-0.093
	c-0.313,0-0.5,0.054-0.562,0.054c-0.187,0-0.359-0.05-0.514-0.112c-0.156-0.062-0.313-0.135-0.468-0.197
	c-0.156-0.062-0.296-0.146-0.42-0.238c-0.126-0.094-0.234-0.205-0.328-0.331c-0.093-0.124-0.172-0.265-0.234-0.422
	c-0.063-0.154-0.109-0.311-0.14-0.467c-0.032-0.155-0.047-0.292-0.047-0.479c0-0.312,0.062-0.806,0.187-0.806H9.985
	c3.428-6,5.604-10.233,5.604-12.977v-0.187c-5-2.493-8.927-6.141-11.546-10.941C1.424,39.526,0,34.477,0,29.177
	c0-5.298,1.687-10.193,5.179-14.682C8.67,10.006,13.38,6.469,19.365,3.881C25.35,1.294,31.882,0,38.989,0
	c2.68,0,5.291,0.203,7.848,0.607c2.556,0.406,4.983,0.968,7.29,1.684c2.306,0.718,4.502,1.605,6.591,2.665
	c2.088,1.061,3.988,2.244,5.704,3.554c1.714,1.31,3.272,2.744,4.675,4.302c1.403,1.56,2.586,3.212,3.553,4.956
	c0.966,1.746,1.714,3.586,2.244,5.518c0.529,1.934,0.795,3.897,0.795,5.892c0.062,5.985-1.575,11.315-4.91,15.991
	c-3.336,4.676-7.902,8.114-13.7,10.639c-5.798,2.524-12.283,3.625-19.452,3.625C39.317,59.432,38.943,59.432,38.507,59.432z
	 M34.112,53.585c1.932,0.25,3.834,0.344,5.705,0.28c4.489,0,8.711-0.622,12.671-1.87c3.958-1.246,7.341-2.946,10.146-5.097
	c2.806-2.151,5.018-4.77,6.64-7.855c1.621-3.086,2.432-6.374,2.432-9.866c0-4.238-1.45-8.136-4.349-11.689
	s-6.859-6.359-11.877-8.416C50.461,7.014,44.96,5.984,38.975,5.984c-5.985,0-11.519,1.029-16.599,3.087
	c-5.082,2.057-9.104,4.862-12.064,8.416C7.35,21.041,5.87,24.938,5.87,29.177c0,4.178,1.013,8.183,3.039,12.018
	c2.025,3.834,5.003,6.749,8.931,8.743l3.151,1.684l-0.403,3.647v0.654c0,0.374-0.128,1.201-0.439,2.479
	c-0.313,1.278-0.719,2.759-1.341,4.441c1.558-0.935,3.21-2.071,4.893-3.413c1.683-1.34,2.789-2.322,3.288-2.946l3.842-3.179
	L34.112,53.585z M82.588,73.224c0,0.063,0,0.125,0,0.187c0,0.936,0.137,2.011,0.357,3.227c0.218,1.216,0.497,2.385,0.81,3.507
	c0.311,1.122,0.662,2.183,1.036,3.18c0.374,0.998,0.72,1.746,1.032,2.244c0.125,0.25,0.189,0.498,0.189,0.748
	c0,0.562-0.186,1.106-0.56,1.48s-0.84,0.637-1.401,0.637c-0.063,0-0.157,0-0.281,0c-0.125,0-0.219,0-0.281,0
	c-2.805-1-5.861-2.072-9.165-4.565c-3.305-2.493-5.643-4.791-7.014-6.351c-1.122,0.126-2.338-0.084-3.647-0.084
	c-0.187,0-0.374,0-0.561,0s-0.39,0-0.608,0c-0.219,0-0.421,0-0.608,0c-2.432,0-4.77,0.063-7.014-0.281
	c-2.245-0.342-4.365-0.74-6.359-1.426c-1.996-0.686-3.866-1.452-5.611-2.42c-1.746-0.966-3.367-2.027-4.863-3.243
	c-1.497-1.216-2.838-2.321-4.021-3.755l0.094,0.126h8.51c5.05,4,11.471,5,19.265,5h0.841c0.623,0,1.31,0.226,2.058,0.194
	c0.748-0.03,1.309,0.043,1.683-0.019l3.18-0.408l0.187,0.404c0.187,0.313,0.482,0.732,0.889,1.231
	c0.405,0.499,0.888,1.068,1.449,1.69c0.561,0.624,1.31,1.346,2.245,2.155c0.935,0.811,1.964,1.624,3.086,2.434
	c-0.313-1.31-0.561-4.519-0.748-9.632l2.899-1.402c1.745-0.936,3.257-1.917,4.536-2.946c1.277-1.028,2.322-2.15,3.133-3.366
	c0.81-1.216,1.403-2.525,1.777-3.928s0.561-2.914,0.561-4.535c0-2.743-0.468-5.064-1.403-6.968c-0.935-1.9-2.65-3.725-5.144-5.471
	c0.81-2.492,1.31-4.644,1.497-6.452c7.355,4.302,11.005,10.6,11.005,18.891C95.616,62.157,91.588,68.798,82.588,73.224z"/>
</svg>
