<?xml version="1.0" encoding="iso-8859-1"?>
<!-- Generator: Adobe Illustrator 24.0.1, SVG Export Plug-In . SVG Version: 6.00 Build 0)  -->
<svg version="1.1" id="icon" xmlns="http://www.w3.org/2000/svg" xmlns:xlink="http://www.w3.org/1999/xlink" x="0px" y="0px"
	 viewBox="0 0 66.023 95.762" style="enable-background:new 0 0 66.023 95.762;" xml:space="preserve">
<path d="M41.896,1.216c2.867,0.812,5.501,1.934,7.902,3.367c2.399,1.435,4.613,3.195,6.64,5.283c2.025,2.09,3.741,4.349,5.143,6.78
	c1.403,2.432,2.493,5.097,3.273,7.995c0.779,2.899,1.169,5.877,1.169,8.932c0,2.12-0.141,4.1-0.421,5.938
	c-0.281,1.84-0.733,3.507-1.356,5.004c-0.624,1.496-1.263,2.821-1.917,3.974c-0.655,1.155-1.482,2.308-2.479,3.461
	c-0.998,1.154-1.855,2.073-2.572,2.759c-0.717,0.687-1.636,1.528-2.759,2.524c-1.746,1.56-2.945,2.65-3.6,3.273
	c-0.655,0.624-1.31,1.481-1.965,2.571c-0.655,1.092-0.983,2.198-0.983,3.32v5.05c0,0.063,0,0.156,0,0.28v-0.381l0,0v9.172
	c0,4.552-1.371,8.229-4.114,11.034c-2.744,2.806-6.328,4.209-10.754,4.209c-2.993,0-5.627-0.641-7.902-1.917
	c-2.276-1.279-4.075-3.072-5.322-5.378c-1.248-2.306-1.908-4.956-1.908-7.948v-9.172h0.17c-0.063,0-0.17,0.163-0.17,0.1v-5.05
	c0-0.686-0.196-1.403-0.663-2.151c-0.467-0.748-0.963-1.402-1.524-1.964c-0.561-0.561-1.456-1.402-2.702-2.524
	c-0.374-0.312-0.65-0.562-0.837-0.748c-1.122-0.997-2.055-1.871-2.803-2.619s-1.652-1.729-2.711-2.945
	c-1.061-1.216-1.949-2.462-2.665-3.741c-0.717-1.276-1.403-2.727-2.057-4.349c-0.655-1.62-1.154-3.428-1.496-5.424
	C0.171,37.938,0,35.817,0,33.573c0-6.109,1.45-11.736,4.349-16.88s6.888-9.212,11.97-12.204C21.399,1.497,26.963,0,33.011,0
	C36.065,0,39.027,0.406,41.896,1.216z M53.024,50.499c0.623-0.622,1.34-1.402,2.151-2.338c0.81-0.935,1.48-1.854,2.011-2.759
	c0.529-0.902,1.029-1.947,1.496-3.133c0.468-1.184,0.81-2.509,1.029-3.974c0.218-1.465,0.327-3.04,0.327-4.723
	c0-4.987-1.185-9.601-3.554-13.841c-2.37-4.239-5.627-7.59-9.772-10.053c-4.146-2.463-8.713-3.694-13.7-3.694
	c-7.544,0-13.934,2.682-19.171,8.043c-5.237,5.362-7.855,11.876-7.855,19.545c0,1.809,0.125,3.507,0.375,5.097
	c0.248,1.589,0.638,3.039,1.169,4.348c0.529,1.31,1.075,2.479,1.636,3.507c0.561,1.029,1.293,2.058,2.198,3.087
	c0.903,1.028,1.683,1.886,2.338,2.571c0.655,0.687,1.511,1.496,2.572,2.432l0.655,0.561c0.872,0.812,1.496,1.403,1.933,1.777
	c3.428,3.242,5.112,6.392,5.112,9.445v3.834c0,0.187,0.653,0.344,0.966,0.468c0.312,0.125,0.748,0.266,1.278,0.421
	c0.529,0.156,1.114,0.28,1.738,0.374c0.623,0.093,1.36,0.187,2.202,0.28s1.754,0.141,2.752,0.141c3.928,0,7.065-0.592,9.065-1.777
	v-3.74c0-1.496,0.21-2.867,0.616-4.115c0.405-1.246,1.08-2.446,2.015-3.601c0.935-1.152,1.747-2.071,2.434-2.759
	c0.685-0.685,1.684-1.589,2.993-2.712c0.249-0.248,0.436-0.404,0.562-0.467C51.588,51.871,52.4,51.123,53.024,50.499z
	 M39.596,87.345c1.59-1.62,2.376-3.896,2.376-6.826v-4.115c-1,0.438-2.517,0.78-4.013,1.029s-3.175,0.374-4.983,0.374
	c-3.429,0-6.004-0.436-9.004-1.31v4.021c0,2.868,0.809,5.129,2.369,6.779c1.558,1.653,3.752,2.479,6.557,2.479
	C35.765,89.776,38.006,88.967,39.596,87.345z"/>
</svg>
