<?xml version="1.0" encoding="iso-8859-1"?>
<!-- Generator: Adobe Illustrator 24.0.1, SVG Export Plug-In . SVG Version: 6.00 Build 0)  -->
<svg version="1.1" id="icon" xmlns="http://www.w3.org/2000/svg" xmlns:xlink="http://www.w3.org/1999/xlink" x="0px" y="0px"
	 viewBox="0 0 95.904 95.905" style="enable-background:new 0 0 95.904 95.905;" xml:space="preserve">
<g>
	<path d="M92.908,0.796c0.937,0.531,1.669,1.264,2.201,2.201c0.53,0.937,0.796,1.936,0.796,2.997v83.917
		c0,1.623-0.594,3.028-1.779,4.214c-1.187,1.186-2.592,1.78-4.214,1.78H5.994c-1.625,0-3.029-0.594-4.215-1.78
		C0.593,92.938,0,91.534,0,89.911V5.994C0,4.371,0.593,2.966,1.779,1.78C2.965,0.594,4.37,0,5.994,0h83.917
		C90.972,0,91.971,0.267,92.908,0.796z M89.911,5.994H5.994v83.917h83.917V5.994z M18.872,32.125
		c-0.594-0.562-0.89-1.265-0.89-2.107s0.296-1.56,0.89-2.154c0.592-0.592,1.295-0.89,2.107-0.89h5.994v-5.994
		c0-0.811,0.295-1.513,0.89-2.107c0.593-0.593,1.295-0.89,2.107-0.89c0.811,0,1.513,0.297,2.107,0.89
		c0.592,0.594,0.89,1.296,0.89,2.107v5.994h5.994c0.811,0,1.513,0.297,2.107,0.89c0.593,0.594,0.89,1.312,0.89,2.154
		s-0.297,1.545-0.89,2.107c-0.594,0.562-1.296,0.843-2.107,0.843h-5.994v5.994c0,0.875-0.297,1.592-0.89,2.154
		c-0.594,0.562-1.297,0.843-2.107,0.843c-0.812,0-1.515-0.281-2.107-0.843c-0.594-0.562-0.89-1.279-0.89-2.154v-5.994h-5.994
		C20.167,32.967,19.464,32.687,18.872,32.125z M40.553,59.566l-6.369,6.369l6.369,6.369c1.436,1.437,1.436,2.842,0,4.214
		c-0.25,0.313-0.562,0.547-0.937,0.703c-0.375,0.157-0.765,0.234-1.17,0.234c-0.407,0-0.796-0.077-1.171-0.234
		c-0.375-0.155-0.688-0.389-0.937-0.703l-6.369-6.275l-6.369,6.275c-0.25,0.313-0.562,0.547-0.937,0.703
		c-0.375,0.157-0.766,0.234-1.171,0.234c-0.407,0-0.796-0.077-1.17-0.234c-0.375-0.155-0.688-0.389-0.937-0.703
		c-0.375-0.375-0.641-0.811-0.796-1.311c-0.157-0.499-0.157-1.014,0-1.545c0.155-0.53,0.421-0.983,0.796-1.358l6.369-6.369
		l-6.369-6.369c-0.625-0.562-0.937-1.249-0.937-2.061c0-0.811,0.296-1.513,0.89-2.107c0.592-0.592,1.311-0.89,2.154-0.89
		s1.545,0.281,2.107,0.843l6.369,6.369l6.369-6.369c0.562-0.562,1.264-0.843,2.107-0.843c0.843,0,1.56,0.297,2.154,0.89
		c0.593,0.594,0.89,1.297,0.89,2.107C41.49,58.317,41.177,59.004,40.553,59.566z M54.836,32.125c-0.594-0.562-0.89-1.265-0.89-2.107
		s0.295-1.56,0.89-2.154c0.593-0.592,1.295-0.89,2.107-0.89h17.982c0.811,0,1.513,0.297,2.107,0.89
		c0.593,0.594,0.89,1.312,0.89,2.154s-0.297,1.545-0.89,2.107c-0.594,0.562-1.296,0.843-2.107,0.843H56.943
		C56.131,32.967,55.429,32.687,54.836,32.125z M54.836,62.095c-0.594-0.562-0.89-1.265-0.89-2.107s0.295-1.56,0.89-2.154
		c0.593-0.592,1.295-0.89,2.107-0.89h17.982c0.811,0,1.513,0.297,2.107,0.89c0.593,0.594,0.89,1.312,0.89,2.154
		s-0.297,1.545-0.89,2.107c-0.594,0.562-1.296,0.843-2.107,0.843H56.943C56.131,62.938,55.429,62.657,54.836,62.095z M54.836,74.083
		c-0.594-0.562-0.89-1.264-0.89-2.107c0-0.843,0.295-1.56,0.89-2.154c0.593-0.593,1.295-0.89,2.107-0.89h17.982
		c0.811,0,1.513,0.297,2.107,0.89c0.593,0.594,0.89,1.311,0.89,2.154c0,0.843-0.297,1.545-0.89,2.107
		c-0.594,0.562-1.296,0.843-2.107,0.843H56.943C56.131,74.926,55.429,74.645,54.836,74.083z"/>
</g>
</svg>
