<?xml version="1.0" encoding="iso-8859-1"?>
<!-- Generator: Adobe Illustrator 24.0.1, SVG Export Plug-In . SVG Version: 6.00 Build 0)  -->
<svg version="1.1" id="Layer_1" xmlns="http://www.w3.org/2000/svg" xmlns:xlink="http://www.w3.org/1999/xlink" x="0px" y="0px"
	 viewBox="0 0 96 95.347" style="enable-background:new 0 0 96 95.347;" xml:space="preserve">
<path d="M94.349,10.893C95.502,12.047,96,13.279,96,14.963v74.813c0,1.62-0.498,2.816-1.651,4.001
	c-1.155,1.184-2.493,1.57-4.176,1.57H6.382c-1.061,0-2.057-0.059-2.992-0.588c-0.936-0.53-1.868-1.159-2.396-2.095
	C0.463,91.73,0,90.836,0,89.776V14.963c0-1.684,0.774-2.916,1.929-4.07c1.153-1.153,2.77-1.546,4.454-1.546H30V2.993
	c0-0.81,0.457-1.511,1.05-2.104C31.642,0.297,32.424,0,33.235,0c0.81,0,1.397,0.297,1.99,0.889C35.817,1.482,36,2.184,36,2.993
	v6.354h24V2.993c0-0.81,0.419-1.511,1.013-2.104C61.604,0.297,62.368,0,63.179,0c0.81,0,1.425,0.297,2.018,0.889
	C65.789,1.482,66,2.184,66,2.993v6.354h24.173C91.857,9.347,93.194,9.739,94.349,10.893z M90,15.347H66v2.608
	c0,0.812-0.18,1.513-0.772,2.104c-0.593,0.594-1.236,0.889-2.046,0.889c-0.811,0-1.607-0.295-2.199-0.889
	C60.39,19.468,60,18.767,60,17.955v-2.608H36v2.608c0,0.812-0.143,1.513-0.735,2.104c-0.593,0.594-1.217,0.889-2.027,0.889
	c-0.811,0-1.635-0.295-2.227-0.889C30.418,19.468,30,18.767,30,17.955v-2.608H6v74h84V15.347z M28.499,36.362
	c0.342,0.156,0.655,0.265,0.936,0.545c0.28,0.281,0.337,0.539,0.493,0.881C30.083,38.133,30,38.468,30,38.903v5.985
	c0,0.811-0.135,1.745-0.727,2.337c-0.593,0.594-1.134,1.122-1.943,1.122h-5.985c-0.811,0-1.688-0.528-2.28-1.122
	C18.472,46.633,18,45.699,18,44.889v-5.985c0-0.81,0.472-1.293,1.065-1.887c0.592-0.592,1.469-0.67,2.28-0.67h5.985
	C27.765,36.347,28.156,36.207,28.499,36.362z M28.125,60.193c0.281,0.063,0.529,0.032,0.749,0.156
	c0.217,0.126,0.42,0.219,0.607,0.406c0.187,0.188,0.342,0.36,0.468,0.577c0.124,0.219,0.056,0.452,0.119,0.733
	c0.061,0.28-0.068,0.53-0.068,0.779v5.985c0,0.811-0.135,1.275-0.727,1.866c-0.593,0.594-1.134,0.651-1.943,0.651h-5.985
	c-0.811,0-1.688-0.058-2.28-0.651C18.472,70.104,18,69.64,18,68.829v-5.985c0-0.81,0.472-1.263,1.065-1.856
	c0.592-0.592,1.469-0.641,2.28-0.641h5.985C27.578,60.347,27.845,60.131,28.125,60.193z M52.439,36.362
	c0.342,0.156,0.655,0.265,0.935,0.545c0.281,0.281,0.367,0.539,0.523,0.881C54.052,38.133,54,38.468,54,38.903v5.985
	c0,0.811-0.165,1.745-0.757,2.337c-0.593,0.594-1.163,1.122-1.973,1.122h-5.985c-0.811,0-1.659-0.528-2.251-1.122
	C42.441,46.633,42,45.699,42,44.889v-5.985c0-0.81,0.441-1.293,1.035-1.887c0.592-0.592,1.44-0.67,2.251-0.67h5.985
	C51.706,36.347,52.096,36.207,52.439,36.362z M52.065,60.193c0.281,0.063,0.529,0.032,0.748,0.156
	c0.218,0.126,0.421,0.219,0.608,0.406c0.187,0.188,0.342,0.36,0.468,0.577c0.124,0.219,0.086,0.452,0.149,0.733
	c0.062,0.28-0.038,0.53-0.038,0.779v5.985c0,0.811-0.165,1.275-0.757,1.866c-0.593,0.594-1.163,0.651-1.973,0.651h-5.985
	c-0.313,0-0.624,0.19-0.936,0.097c-0.313-0.094-0.593-0.115-0.841-0.302c-0.25-0.187-0.468-0.345-0.655-0.595
	c-0.187-0.248-0.474-0.5-0.567-0.812C42.193,69.423,42,69.142,42,68.829v-5.985c0-0.81,0.441-1.263,1.035-1.856
	c0.592-0.592,1.44-0.641,2.251-0.641h5.985C51.519,60.347,51.784,60.131,52.065,60.193z M67.005,47.225
	C66.412,46.633,66,45.699,66,44.889v-5.985c0-0.81,0.412-1.293,1.005-1.887c0.592-0.592,1.41-0.67,2.221-0.67h5.985
	c0.81,0,1.409,0.078,2.003,0.67C77.805,37.61,78,38.094,78,38.903v5.985c0,0.811-0.195,1.745-0.787,2.337
	c-0.593,0.594-1.193,1.122-2.003,1.122h-5.985C68.415,48.347,67.597,47.819,67.005,47.225z M67.005,70.695
	C66.412,70.104,66,69.64,66,68.829v-5.985c0-0.81,0.412-1.263,1.005-1.856c0.592-0.592,1.41-0.641,2.221-0.641h5.985
	c0.81,0,1.409,0.049,2.003,0.641C77.805,61.581,78,62.034,78,62.844v5.985c0,0.811-0.195,1.275-0.787,1.866
	c-0.593,0.594-1.193,0.651-2.003,0.651h-5.985C68.415,71.347,67.597,71.289,67.005,70.695z"/>
</svg>
