<?xml version="1.0" encoding="utf-8"?>
<!-- Generator: Adobe Illustrator 24.0.1, SVG Export Plug-In . SVG Version: 6.00 Build 0)  -->
<svg version="1.1" id="icon" xmlns="http://www.w3.org/2000/svg" xmlns:xlink="http://www.w3.org/1999/xlink" x="0px" y="0px"
	 viewBox="0 0 96 95.3" style="enable-background:new 0 0 96 95.3;" xml:space="preserve">
<path d="M94.3,10.9C95.5,12,96,13.3,96,15v74.8c0,1.6-0.5,2.8-1.7,4c-1.2,1.2-2.5,1.6-4.2,1.6H6.4c-1.1,0-2.1-0.1-3-0.6
	c-0.9-0.5-1.9-1.2-2.4-2.1c-0.5-0.9-1-1.8-1-2.9V15c0-1.7,0.8-2.9,1.9-4.1c1.2-1.2,2.8-1.5,4.5-1.5H30V3c0-0.8,0.5-1.5,1-2.1
	C31.6,0.3,32.4,0,33.2,0c0.8,0,1.4,0.3,2,0.9C35.8,1.5,36,2.2,36,3v6.4h24V3c0-0.8,0.4-1.5,1-2.1C61.6,0.3,62.4,0,63.2,0
	c0.8,0,1.4,0.3,2,0.9C65.8,1.5,66,2.2,66,3v6.4h24.2C91.9,9.3,93.2,9.7,94.3,10.9z M90,15.3H66V18c0,0.8-0.2,1.5-0.8,2.1
	c-0.6,0.6-1.2,0.9-2,0.9c-0.8,0-1.6-0.3-2.2-0.9c-0.6-0.6-1-1.3-1-2.1v-2.6H36V18c0,0.8-0.1,1.5-0.7,2.1c-0.6,0.6-1.2,0.9-2,0.9
	c-0.8,0-1.6-0.3-2.2-0.9c-0.6-0.6-1-1.3-1-2.1v-2.6H6v74h84V15.3z"/>
<path d="M64.9,41.6L52.2,54.3l12.7,12.7c0.4,0.4,0.6,0.8,0.8,1.3c0.2,0.5,0.2,1,0,1.5c-0.2,0.5-0.4,1-0.8,1.4
	c-0.6,0.6-1.3,0.8-2.1,0.8c-0.8,0-1.5-0.3-2.1-0.8L48,58.6L35.3,71.3c-0.6,0.6-1.3,0.8-2.1,0.8s-1.5-0.3-2.1-0.8
	c-0.4-0.4-0.6-0.8-0.8-1.4c-0.2-0.5-0.2-1,0-1.5c0.2-0.5,0.4-0.9,0.8-1.3l12.7-12.7L31.1,41.6c-0.6-0.6-0.8-1.3-0.8-2.1
	s0.3-1.5,0.8-2.1c0.6-0.6,1.3-0.8,2.1-0.8s1.5,0.3,2.1,0.8L48,50.1l12.7-12.7c0.6-0.6,1.3-0.8,2.1-0.8s1.5,0.3,2.1,0.8
	c0.6,0.6,0.8,1.3,0.8,2.1S65.5,41.1,64.9,41.6z"/>
</svg>
