<?xml version="1.0" encoding="iso-8859-1"?>
<!-- Generator: Adobe Illustrator 24.0.1, SVG Export Plug-In . SVG Version: 6.00 Build 0)  -->
<svg version="1.1" id="icon" xmlns="http://www.w3.org/2000/svg" xmlns:xlink="http://www.w3.org/1999/xlink" x="0px" y="0px"
	 viewBox="0 0 95.945 96.266" style="enable-background:new 0 0 95.945 96.266;" xml:space="preserve">
<path d="M95.159,73.925c0.405,0.717,0.655,1.496,0.748,2.338c0.094,0.842,0.015,1.762-0.234,2.759
	c-0.25,0.998-0.687,1.964-1.309,2.898c-0.187,0.25-0.561,0.748-1.122,1.496c-0.561,0.749-1.513,1.887-2.853,3.414
	c-1.341,1.528-2.65,2.931-3.928,4.208c-1.278,1.277-2.665,2.574-4.161,3.572c-1.497,0.997-2.775,1.655-3.834,1.655h-0.093
	c-3.928,0-8.122-1.25-12.578-3.058c-4.458-1.81-8.854-4.302-13.186-7.328c-4.334-3.022-8.339-6.149-12.017-9.298
	c-3.68-3.147-7.357-6.58-11.035-10.26c-2.37-2.368-4.614-4.733-6.733-7.071c-2.12-2.338-4.333-4.914-6.64-7.72
	c-2.307-2.806-4.38-5.614-6.219-8.419c-1.839-2.805-3.507-5.643-5.003-8.511c-1.497-2.866-2.682-5.752-3.554-8.651
	c-0.874-2.898-1.341-5.658-1.403-8.277c-0.062-1.122,0.405-2.445,1.403-3.974c0.997-1.527,2.119-2.93,3.367-4.209
	C6.021,8.215,7.44,6.905,9.03,5.564c1.59-1.34,2.743-2.291,3.46-2.852c0.716-0.562,1.23-0.966,1.543-1.216
	c0.499-0.312,1.013-0.576,1.543-0.795c0.529-0.218,1.06-0.389,1.59-0.515C17.695,0.063,18.241,0,18.802,0
	c2.182,0,3.802,0.748,4.863,2.244c0.499,0.687,2.603,3.834,6.313,9.445c3.708,5.61,5.906,8.946,6.593,10.006
	c1.309,2.058,1.153,4.646-0.467,7.762c-0.624,1.122-2.214,3.96-4.77,8.511c2.68,3.803,6.827,8.51,12.438,14.121
	c5.672,5.674,10.411,9.851,14.215,12.53c4.489-2.555,7.325-4.145,8.51-4.769c0.187-0.124,0.405-0.234,0.655-0.327
	c0.249-0.094,0.482-0.188,0.701-0.281c0.218-0.094,0.436-0.171,0.655-0.233c0.218-0.062,0.452-0.124,0.701-0.188
	c0.249-0.062,0.482-0.107,0.702-0.14c0.218-0.031,0.421-0.062,0.608-0.094c0.187-0.031,0.405-0.047,0.654-0.047
	c0.374,0,0.732,0.032,1.076,0.094c0.342,0.063,0.685,0.156,1.029,0.28c0.342,0.126,0.638,0.28,0.888,0.468
	c0.374,0.187,1.247,0.733,2.619,1.637c1.371,0.904,2.93,1.933,4.676,3.086c1.745,1.154,3.491,2.307,5.237,3.46
	c1.745,1.154,3.273,2.167,4.583,3.039c1.309,0.874,2.088,1.436,2.338,1.684C94.238,72.662,94.752,73.209,95.159,73.925z
	 M89.968,76.834c-7.42-5.111-13.653-9.568-18.703-12.568h-0.094c-0.561,0-1.185,0.349-1.87,0.785
	c-0.624,0.25-1.715,0.892-3.273,1.796c-1.559,0.904-3.243,1.918-5.05,2.978l-3.366,1.886l-3.086-2.236
	c-4.115-2.867-9.103-7.227-14.962-13.088c-5.861-5.86-10.256-10.877-13.186-15.055l-2.151-3.085l1.871-3.273
	c0.498-0.872,0.95-1.682,1.356-2.431c0.405-0.748,0.795-1.432,1.169-2.057c0.374-0.623,0.701-1.184,0.982-1.684
	c0.28-0.498,0.514-0.936,0.701-1.31s0.342-0.654,0.468-0.842c0.374-0.809,0.561-1.464,0.561-1.963
	c-4.489-7.045-8.604-13.248-12.344-18.61c-0.063-0.062-0.125-0.094-0.187-0.094c-0.187,0-0.359,0.017-0.514,0.047
	c-0.157,0.032-0.297,0.079-0.421,0.141c-0.126,0.063-0.25,0.156-0.374,0.28c-2.619,1.87-5.097,3.96-7.435,6.266
	c-2.338,2.308-3.694,3.99-4.068,5.05c0.249,5.55,2.773,12.143,7.575,19.779c4.8,7.638,11.549,15.82,20.246,24.548
	c8.697,8.729,16.864,15.477,24.501,20.246c7.636,4.77,14.261,7.311,19.873,7.622c1.059-0.436,2.743-1.824,5.05-4.162
	c2.306-2.338,4.395-4.881,6.266-7.5C89.875,77.803,90.03,77.27,89.968,76.834z M63.036,36.518c-0.374,0.156-0.748,0.234-1.122,0.234
	s-0.748-0.078-1.123-0.234c-0.374-0.154-0.687-0.389-0.935-0.701c-0.624-0.561-0.935-1.263-0.935-2.104
	c0-0.841,0.311-1.449,0.935-2.01L85.479,6.266H71.358c-0.624,0-1.178-0.295-1.676-0.701c-0.5-0.405-0.835-1.044-0.835-1.731V2.338
	c0-0.188,0.008-0.358,0.04-0.515c0.031-0.155,0.09-0.312,0.184-0.468c0.094-0.154,0.185-0.295,0.279-0.421
	c0.093-0.124,0.201-0.233,0.326-0.327c0.124-0.094,0.264-0.188,0.42-0.28c0.155-0.094,0.311-0.155,0.468-0.188
	c0.155-0.03,0.327-0.007,0.514-0.007l21.415,0.133h0.094l1.122-0.133c0.249,0,0.515,0.044,0.795,0.168
	c0.281,0.126,0.515,0.27,0.702,0.458c0.374,0.374,0.561,0.868,0.561,1.491l-0.1,1.12l0.18,0.091v21.603
	c0,0.249-0.227,0.499-0.321,0.748c-0.093,0.25-0.293,0.467-0.511,0.654c-0.219,0.187-0.49,0.447-0.77,0.541
	c-0.281,0.094-0.569,0.26-0.817,0.26h-1.59c-0.561,0-1.061-0.338-1.497-0.775c-0.437-0.436-0.654-1.026-0.654-1.65l0.093-14.525
	L64.064,35.831C63.751,36.144,63.41,36.363,63.036,36.518z"/>
</svg>
