<?xml version="1.0" encoding="iso-8859-1"?>
<!-- Generator: Adobe Illustrator 24.0.1, SVG Export Plug-In . SVG Version: 6.00 Build 0)  -->
<svg version="1.1" id="Layer_1" xmlns="http://www.w3.org/2000/svg" xmlns:xlink="http://www.w3.org/1999/xlink" x="0px" y="0px"
	 viewBox="0 0 95.761 95.955" style="enable-background:new 0 0 95.761 95.955;" xml:space="preserve">
<path d="M93.517,23.665c-0.687,0.5-3.819,2.618-9.398,6.359c-5.58,3.74-8.869,5.924-9.866,6.546
	c-2.058,1.31-4.646,1.154-7.762-0.468c-1.122-0.622-3.959-2.212-8.51-4.769c-1.435,0.997-3.336,2.51-5.705,4.535
	c-2.37,2.026-5.176,4.661-8.417,7.902c-5.674,5.674-9.852,10.412-12.531,14.214c2.556,4.489,4.146,7.327,4.77,8.511
	c0.187,0.374,0.358,0.764,0.514,1.169c0.155,0.406,0.295,0.811,0.421,1.216c0.124,0.406,0.218,0.795,0.28,1.169
	c0.062,0.374,0.094,0.748,0.094,1.122c0,0.561-0.079,1.107-0.234,1.637c-0.156,0.53-0.359,0.981-0.608,1.355
	c-0.187,0.313-0.624,0.982-1.309,2.011c-0.687,1.028-1.466,2.229-2.338,3.601c-0.874,1.372-1.824,2.821-2.853,4.349
	c-1.028,1.528-1.979,2.945-2.852,4.255c-0.874,1.309-1.637,2.462-2.291,3.46c-0.655,0.996-1.076,1.59-1.263,1.776
	c-0.874,1.31-2.198,2.072-3.975,2.292c-1.776,0.218-3.663-0.297-5.658-1.543c-0.25-0.188-0.748-0.562-1.496-1.123
	c-0.748-0.561-1.886-1.512-3.414-2.852c-1.528-1.34-2.931-2.649-4.208-3.928c-1.279-1.277-2.417-2.665-3.414-4.162
	C0.498,80.803,0,79.526,0,78.465v-0.094c0.124-3.928,1.09-8.119,2.899-12.577c1.808-4.457,4.223-8.853,7.248-13.187
	c3.023-4.332,6.109-8.338,9.258-12.017c3.147-3.678,6.561-7.355,10.24-11.035C33.323,25.878,37,22.481,40.68,19.363
	c3.678-3.116,7.683-6.187,12.017-9.211c4.333-3.023,8.711-5.438,13.139-7.248c4.426-1.808,8.571-2.773,12.438-2.898
	c1.122-0.062,2.432,0.406,3.928,1.402c1.496,0.998,2.883,2.12,4.162,3.366c1.277,1.248,2.586,2.666,3.928,4.256
	c1.34,1.589,2.275,2.728,2.805,3.413c0.529,0.687,0.919,1.216,1.169,1.59c0.187,0.313,0.358,0.624,0.515,0.935
	c0.155,0.313,0.295,0.624,0.421,0.936c0.124,0.313,0.218,0.624,0.28,0.936c0.062,0.313,0.125,0.623,0.187,0.935
	c0.062,0.313,0.094,0.655,0.094,1.029C95.761,20.985,95.013,22.605,93.517,23.665z M89.496,17.493
	c-1.871-2.618-3.96-5.097-6.266-7.435c-2.307-2.338-3.991-3.694-5.05-4.068c-2.744,0.126-5.798,0.827-9.165,2.104
	c-3.366,1.278-6.92,3.102-10.661,5.471c-3.741,2.37-7.668,5.253-11.783,8.65c-4.115,3.398-8.355,7.247-12.718,11.549
	c-8.729,8.729-15.477,16.912-20.247,24.549c-4.769,7.638-7.31,14.261-7.622,19.872c0.436,1.061,1.824,2.744,4.162,5.05
	c2.338,2.308,4.816,4.396,7.435,6.266c0.499,0.374,0.966,0.529,1.403,0.468c5.174-7.543,9.319-13.778,12.438-18.703v-0.094
	c0-0.188-0.046-0.436-0.14-0.748c-0.093-0.312-0.266-0.686-0.514-1.122c-0.561-1.123-2.12-3.896-4.676-8.323l-1.871-3.367
	l2.245-3.086c2.867-4.114,7.231-9.102,13.092-14.962c5.859-5.86,10.878-10.255,15.056-13.187l3.086-2.15l3.273,1.87
	c4.426,2.557,7.201,4.114,8.323,4.676c0.81,0.437,1.464,0.624,1.964,0.562c7.044-4.489,13.247-8.604,18.61-12.345
	c0.062,0,0.093-0.062,0.093-0.187C89.963,18.303,89.807,17.867,89.496,17.493z"/>
</svg>
