<?xml version="1.0" encoding="iso-8859-1"?>
<!-- Generator: Adobe Illustrator 24.0.1, SVG Export Plug-In . SVG Version: 6.00 Build 0)  -->
<svg version="1.1" id="icon" xmlns="http://www.w3.org/2000/svg" xmlns:xlink="http://www.w3.org/1999/xlink" x="0px" y="0px"
	 viewBox="0 0 95.761 77.807" style="enable-background:new 0 0 95.761 77.807;" xml:space="preserve">
<path d="M91.74,13.654c1.433,1.122,2.462,2.338,3.086,3.646c0.623,1.31,0.935,2.525,0.935,3.647v47.974
	c0,1.497-0.453,2.946-1.356,4.349c-0.904,1.403-2.042,2.511-3.413,3.32c-1.372,0.811-2.712,1.216-4.021,1.216H8.323
	c-1.996,0-3.881-0.903-5.658-2.712C0.888,73.287,0,71.199,0,68.829V20.854c0-2.68,1.028-4.831,3.086-6.452
	c2.057-1.621,4.021-2.432,5.892-2.432h13.747L29.925,0h35.91l7.201,11.971h13.747C88.654,11.971,90.305,12.531,91.74,13.654z
	 M89.776,20.948c0-0.188-0.094-0.482-0.281-0.889c-0.187-0.404-0.53-0.856-1.028-1.355c-0.5-0.499-1.061-0.748-1.684-0.748H69.67
	l-1.684-2.899l-5.331-9.071H33.292l-7.201,11.971H8.978c-0.437,0.063-1.045,0.359-1.824,0.888c-0.78,0.53-1.169,1.201-1.169,2.011
	v47.975c0,0.748,0.295,1.418,0.888,2.01c0.592,0.594,1.106,0.921,1.543,0.982H86.97c0.499-0.062,1.09-0.421,1.777-1.075
	c0.686-0.655,1.029-1.263,1.029-1.824V20.948z M68.828,41.896c0,5.799-2.043,10.74-6.125,14.823
	c-4.084,4.084-9.024,6.125-14.822,6.125s-10.74-2.041-14.822-6.125c-4.084-4.083-6.125-9.024-6.125-14.823
	c0-5.798,2.041-10.738,6.125-14.822c4.083-4.082,9.024-6.125,14.822-6.125s10.738,2.043,14.822,6.125
	C66.785,31.157,68.828,36.098,68.828,41.896z M62.843,41.896c0-4.114-1.465-7.636-4.395-10.567
	c-2.931-2.93-6.453-4.395-10.567-4.395s-7.638,1.465-10.567,4.395c-2.931,2.932-4.396,6.453-4.396,10.567
	c0,4.115,1.464,7.638,4.396,10.567c2.93,2.932,6.453,4.396,10.567,4.396s7.636-1.464,10.567-4.396
	C61.377,49.533,62.843,46.011,62.843,41.896z"/>
</svg>
