<?xml version="1.0" encoding="iso-8859-1"?>
<!-- Generator: Adobe Illustrator 24.0.1, SVG Export Plug-In . SVG Version: 6.00 Build 0)  -->
<svg version="1.1" id="icon" xmlns="http://www.w3.org/2000/svg" xmlns:xlink="http://www.w3.org/1999/xlink" x="0px" y="0px"
	 viewBox="0 0 95.761 66.023" style="enable-background:new 0 0 95.761 66.023;" xml:space="preserve">
<path d="M93.891,3.273c1.246,0.5,1.87,1.466,1.87,2.899v53.771c0,1.372-0.624,2.308-1.87,2.806c-0.374,0.188-0.78,0.28-1.216,0.28
	c-1.061,0-1.809-0.218-2.244-0.654L65.835,48.068v11.689c0,1.746-0.608,3.226-1.824,4.441c-1.215,1.216-2.665,1.824-4.348,1.824
	H6.172c-1.683,0-3.133-0.608-4.349-1.824S0,61.504,0,59.758V6.266C0,4.521,0.607,3.04,1.823,1.824S4.489,0,6.172,0h53.492
	c0.872,0,1.683,0.173,2.431,0.515c0.748,0.344,1.403,0.795,1.964,1.356c0.561,0.561,0.997,1.215,1.31,1.964
	c0.311,0.748,0.467,1.559,0.467,2.431v11.877L89.963,3.928c0.249-0.248,0.545-0.436,0.888-0.561
	c0.342-0.124,0.655-0.218,0.936-0.281c0.28-0.061,0.545-0.093,0.795-0.093C93.08,2.993,93.517,3.086,93.891,3.273z M6.172,5.985
	c-0.063,0-0.109,0.032-0.14,0.094C6,6.142,5.985,6.204,5.985,6.266v53.492l0.187,0.28h53.492c0.061,0,0.108-0.03,0.14-0.094
	c0.031-0.062,0.047-0.124,0.047-0.187V48.068c0-0.499,0.061-0.95,0.187-1.356c0.124-0.404,0.264-0.81,0.421-1.216
	c0.155-0.404,0.374-0.778,0.654-1.122c0.281-0.342,0.592-0.654,0.936-0.936c0.342-0.28,0.701-0.514,1.075-0.701
	c0.187-0.124,0.358-0.218,0.514-0.28c0.155-0.062,0.328-0.124,0.515-0.188c0.187-0.061,0.374-0.107,0.561-0.14
	c0.187-0.031,0.374-0.047,0.561-0.047s0.374,0,0.561,0c1.309,0,2.462,0.343,3.46,1.028l20.48,11.223V11.597L69.389,23.099
	c-0.5,0.374-1.061,0.641-1.683,0.795c-0.624,0.156-1.248,0.234-1.871,0.234c-0.125,0-0.266,0-0.421,0
	c-0.156,0-0.313-0.015-0.467-0.047c-0.156-0.031-0.313-0.062-0.468-0.094c-0.156-0.03-0.313-0.077-0.468-0.141
	c-0.156-0.061-0.313-0.124-0.467-0.187c-0.156-0.062-0.327-0.124-0.514-0.188c-2.121-1.122-3.18-2.898-3.18-5.33V6.266
	c0-0.187-0.063-0.28-0.187-0.28H6.172z"/>
</svg>
