<?xml version="1.0" encoding="iso-8859-1"?>
<!-- Generator: Adobe Illustrator 24.0.1, SVG Export Plug-In . SVG Version: 6.00 Build 0)  -->
<svg version="1.1" id="icon" xmlns="http://www.w3.org/2000/svg" xmlns:xlink="http://www.w3.org/1999/xlink" x="0px" y="0px"
	 viewBox="0 0 93 95" style="enable-background:new 0 0 93 95;" xml:space="preserve">
<path d="M26.286,30.678C26.877,31.271,27,31.761,27,32.571v59.851c0,0.81-0.123,1.303-0.714,1.897
	C25.692,94.911,25.165,95,24.356,95H3.408c-0.811,0-1.72-0.089-2.312-0.681C0.503,93.725,0,93.231,0,92.422V32.571
	c0-0.81,0.503-1.3,1.096-1.893C1.688,30.086,2.597,30,3.408,30h20.948C25.165,30,25.692,30.086,26.286,30.678z M21,36H6v53h15V36z
	 M59.245,48.061C59.836,48.655,60,49.53,60,50.34v42.082c0,0.81-0.164,1.303-0.755,1.897C58.651,94.911,58.083,95,57.274,95H36.326
	c-0.874,0-1.757-0.089-2.318-0.681C33.447,93.725,33,93.231,33,92.422V50.34c0-0.81,0.447-1.684,1.008-2.278
	C34.569,47.47,35.452,47,36.326,47h20.948C58.083,47,58.651,47.47,59.245,48.061z M54,53H39v36h15V53z M92.204,0.715
	C92.796,1.309,93,1.837,93,2.646v89.775c0,0.81-0.204,1.303-0.796,1.897C91.611,94.911,91.001,95,90.192,95H69.244
	c-0.811,0-1.638-0.089-2.23-0.681C66.421,93.725,66,93.231,66,92.422V2.646c0-0.81,0.421-1.337,1.014-1.931
	C67.606,0.123,68.433,0,69.244,0h20.948C91.001,0,91.611,0.123,92.204,0.715z M87,6H72v83h15V6z"/>
</svg>
