<?xml version="1.0" encoding="utf-8"?>
<!-- Generator: Adobe Illustrator 22.1.0, SVG Export Plug-In . SVG Version: 6.00 Build 0)  -->
<svg version="1.1" id="icon" xmlns="http://www.w3.org/2000/svg" xmlns:xlink="http://www.w3.org/1999/xlink" x="0px" y="0px"
	 viewBox="0 0 96 96" style="enable-background:new 0 0 96 96;" xml:space="preserve">
<path d="M92.9,0.8c0.9,0.5,1.7,1.3,2.2,2.2s0.8,1.9,0.8,3v83.9c0,1.6-0.6,3-1.8,4.2c-1.2,1.2-2.6,1.8-4.2,1.8H6
	c-1.6,0-3-0.6-4.2-1.8C0.6,92.9,0,91.5,0,89.9V6c0-1.6,0.6-3,1.8-4.2S4.4,0,6,0h83.9C91,0,92,0.3,92.9,0.8z M89.9,6H6v83.9h83.9V6z"
	/>
<path d="M95.1,3c-0.5-0.9-1.3-1.7-2.2-2.2C92,0.3,91,0,89.9,0H6C4.4,0,3,0.6,1.8,1.8S0,4.4,0,6v83.9c0,1.6,0.6,3,1.8,4.2
	C3,95.3,4.4,95.9,6,95.9h83.9c1.6,0,3-0.6,4.2-1.8c1.2-1.2,1.8-2.6,1.8-4.2V6C95.9,4.9,95.6,3.9,95.1,3z M72.6,34.9L42.4,65.2
	c-0.5,0.5-0.6,0.5-0.9,0.6c-1.1,0.5-2.4,0.2-3.3-0.6L23.4,50.4c-1-1.1-0.9-1.5-0.9-2.1c0-2.3,3.2-4,5.1-2.2l12.7,12.7l28-28.2
	c0,0,1.3-0.9,2.3-0.9c1.5,0.1,1.6,0.5,2,0.9C73.7,31.8,73.8,33.5,72.6,34.9z"/>
<path d="M18,77.9h59.9V18H18V77.9z M22.5,48.3c0-2.3,3.2-4,5.1-2.2l12.7,12.7l28-28.2c0,0,1.3-0.9,2.3-0.9c1.5,0.1,1.6,0.5,2,0.9
	c1.1,1.2,1.2,2.9,0,4.3L42.4,65.2c-0.5,0.5-0.6,0.5-0.9,0.6c-1.1,0.5-2.4,0.2-3.3-0.6L23.4,50.4C22.4,49.3,22.5,48.9,22.5,48.3z"/>
</svg>
