<?xml version="1.0" encoding="utf-8"?>
<!-- Generator: Adobe Illustrator 24.0.1, SVG Export Plug-In . SVG Version: 6.00 Build 0)  -->
<svg version="1.1" id="icon" xmlns="http://www.w3.org/2000/svg" xmlns:xlink="http://www.w3.org/1999/xlink" x="0px" y="0px"
	 viewBox="0 0 95.9 95.9" style="enable-background:new 0 0 95.9 95.9;" xml:space="preserve">
<path d="M70.4,29.7c0.8,0,1.5,0.3,2.1,0.9s0.9,1.3,0.9,2.2c0,0.9-0.3,1.5-0.8,2.1l-29.8,30c-0.1,0.1-0.3,0.3-0.4,0.4
	c-0.6,0.6-1.3,0.9-2.1,0.9s-1.5-0.3-2.1-0.9L23.3,50.5c-0.1-0.2-0.3-0.4-0.4-0.6c-0.1-0.2-0.2-0.4-0.3-0.6c-0.1-0.2-0.1-0.4-0.1-0.7
	c0-0.2,0-0.4,0-0.7c0-0.2,0.1-0.4,0.1-0.6c0.1-0.2,0.2-0.4,0.3-0.6c0.1-0.2,0.2-0.4,0.4-0.5c0.6-0.6,1.3-0.9,2.2-0.9
	c0.8,0,1.5,0.3,2.2,0.9l12.6,12.6l28.1-28.2C68.9,30,69.6,29.7,70.4,29.7z"/>
</svg>
