<?xml version="1.0" encoding="utf-8"?>
<!-- Generator: Adobe Illustrator 24.0.1, SVG Export Plug-In . SVG Version: 6.00 Build 0)  -->
<svg version="1.1" id="icon" xmlns="http://www.w3.org/2000/svg" xmlns:xlink="http://www.w3.org/1999/xlink" x="0px" y="0px"
	 viewBox="0 0 95.9 95.9" style="enable-background:new 0 0 95.9 95.9;" xml:space="preserve">
<g>
	<path d="M92.9,0.8c0.9,0.5,1.7,1.3,2.2,2.2c0.5,0.9,0.8,1.9,0.8,3v83.9c0,1.6-0.6,3-1.8,4.2c-1.2,1.2-2.6,1.8-4.2,1.8H6
		c-1.6,0-3-0.6-4.2-1.8C0.6,92.9,0,91.5,0,89.9V6c0-1.6,0.6-3,1.8-4.2S4.4,0,6,0h83.9C91,0,92,0.3,92.9,0.8z M89.9,6H6v83.9h83.9V6z
		"/>
</g>
<path d="M44.7,50.9H27c-0.9,0-1.6-0.3-2.2-0.8C24.3,49.5,24,48.8,24,48c0-0.9,0.3-1.6,0.8-2.2c0.6-0.6,1.3-0.8,2.2-0.8h17.8h24.1
	c0.9,0,1.6,0.3,2.2,0.8c0.6,0.6,0.8,1.3,0.8,2.2c0,0.9-0.3,1.6-0.8,2.2c-0.6,0.6-1.3,0.8-2.2,0.8H44.7z"/>
</svg>
