<?xml version="1.0" encoding="iso-8859-1"?>
<!-- Generator: Adobe Illustrator 24.0.1, SVG Export Plug-In . SVG Version: 6.00 Build 0)  -->
<svg version="1.1" id="Layer_1" xmlns="http://www.w3.org/2000/svg" xmlns:xlink="http://www.w3.org/1999/xlink" x="0px" y="0px"
	 viewBox="0 0 57.384 95.762" style="enable-background:new 0 0 57.384 95.762;" xml:space="preserve">
<path d="M57.084,93.984c-0.53,1.184-1.418,1.777-2.665,1.777H2.985c-0.561,0-1.092-0.156-1.59-0.468
	c-0.5-0.313-0.874-0.748-1.122-1.31c-0.5-1.185-0.313-2.244,0.561-3.18l15.898-18.89V38.903h-1.964c-0.874,0-1.59-0.295-2.151-0.889
	c-0.562-0.592-0.842-1.309-0.842-2.15s0.28-1.543,0.842-2.104c0.561-0.561,1.277-0.842,2.151-0.842h4.956
	c0.81,0,1.511,0.281,2.104,0.842c0.592,0.562,0.889,1.278,0.889,2.151v37.126c0,0.811-0.25,1.496-0.748,2.058L9.718,89.776h37.968
	l-12.25-14.682c-0.5-0.562-0.748-1.247-0.748-2.058V35.911c0-0.873,0.295-1.59,0.888-2.151c0.592-0.561,1.293-0.842,2.104-0.842
	h4.956c0.873,0,1.59,0.281,2.151,0.842c0.561,0.562,0.842,1.263,0.842,2.104s-0.281,1.559-0.842,2.15
	c-0.561,0.594-1.278,0.889-2.151,0.889h-1.964v33.012l15.898,18.89C57.442,91.74,57.613,92.8,57.084,93.984z M24.634,29.832
	c-0.343-0.062-0.67-0.154-0.982-0.28c-0.313-0.124-0.624-0.28-0.935-0.468c-0.313-0.187-0.593-0.389-0.842-0.607
	c-0.25-0.218-0.483-0.452-0.701-0.702c-0.219-0.248-0.421-0.528-0.608-0.841c-0.187-0.312-0.343-0.623-0.468-0.936
	c-0.125-0.312-0.219-0.639-0.28-0.982c-0.063-0.342-0.094-0.701-0.094-1.075c0-0.81,0.155-1.59,0.468-2.338
	c0.311-0.748,0.732-1.387,1.262-1.917c0.529-0.529,1.169-0.95,1.917-1.263c0.748-0.311,1.527-0.468,2.338-0.468
	c1.62,0,3.023,0.577,4.208,1.73c1.184,1.154,1.777,2.558,1.777,4.208c0,1.653-0.593,3.071-1.777,4.255
	c-1.185,1.186-2.588,1.777-4.208,1.777C25.335,29.926,24.976,29.895,24.634,29.832z M34.687,10.521c0-2.898,1.029-5.377,3.086-7.435
	C39.831,1.029,42.309,0,45.207,0s5.377,1.029,7.435,3.086c2.058,2.058,3.086,4.536,3.086,7.435c0,2.899-1.028,5.378-3.086,7.435
	c-2.057,2.058-4.536,3.087-7.435,3.087s-5.377-1.029-7.435-3.087C35.716,15.898,34.687,13.42,34.687,10.521z M41.981,7.295
	c-0.874,0.873-1.31,1.933-1.31,3.18c0,0.811,0.202,1.559,0.608,2.244c0.405,0.687,0.95,1.231,1.637,1.637
	c0.685,0.406,1.433,0.607,2.244,0.607c1.247,0,2.306-0.436,3.18-1.31c0.873-0.872,1.309-1.932,1.309-3.179
	c0-0.623-0.109-1.216-0.327-1.777c-0.219-0.561-0.53-1.043-0.935-1.449c-0.406-0.405-0.889-0.716-1.45-0.936
	c-0.561-0.218-1.154-0.327-1.777-0.327C43.913,5.985,42.853,6.422,41.981,7.295z"/>
</svg>
