<?xml version="1.0" encoding="iso-8859-1"?>
<!-- Generator: Adobe Illustrator 24.0.1, SVG Export Plug-In . SVG Version: 6.00 Build 0)  -->
<svg version="1.1" id="icon" xmlns="http://www.w3.org/2000/svg" xmlns:xlink="http://www.w3.org/1999/xlink" x="0px" y="0px"
	 viewBox="0 0 95.761 95.762" style="enable-background:new 0 0 95.761 95.762;" xml:space="preserve">
<path d="M89.355,23.847c4.27,7.357,6.406,15.369,6.406,24.034c0,8.666-2.136,16.678-6.406,24.034
	c-4.271,7.356-10.085,13.171-17.44,17.44c-7.357,4.27-15.369,6.406-24.034,6.406c-8.666,0-16.678-2.137-24.034-6.406
	c-7.357-4.27-13.171-10.084-17.441-17.44C2.135,64.559,0,56.547,0,47.881c0-8.665,2.135-16.677,6.406-24.034
	c4.27-7.355,10.084-13.169,17.441-17.44C31.203,2.137,39.214,0,47.88,0c8.665,0,16.677,2.137,24.034,6.406
	C79.27,10.678,85.084,16.491,89.355,23.847z M64.152,86.55c5.174-2.212,9.632-5.204,13.373-8.978
	c3.741-3.771,6.717-8.244,8.931-13.42c2.212-5.174,3.32-10.598,3.32-16.271c0-5.672-1.107-11.097-3.32-16.271
	c-2.213-5.175-5.19-9.633-8.931-13.373c-3.741-3.741-8.199-6.718-13.373-8.931c-5.175-2.213-10.6-3.32-16.272-3.32
	c-5.674,0-11.098,1.107-16.271,3.32c-5.176,2.213-9.632,5.189-13.373,8.931c-3.741,3.74-6.719,8.198-8.931,13.373
	c-2.213,5.175-3.32,10.6-3.32,16.271c0,4.552,0.702,8.963,2.104,13.232c1.403,4.271,3.397,8.121,5.985,11.55
	c2.586,3.429,5.595,6.452,9.024,9.071c3.428,2.618,7.278,4.629,11.549,6.031c4.27,1.403,8.681,2.104,13.232,2.104
	C53.553,89.87,58.977,88.764,64.152,86.55z M64.807,35.163L52.089,47.881L64.807,60.6c0.374,0.374,0.639,0.811,0.795,1.309
	c0.155,0.5,0.155,1.015,0,1.543c-0.156,0.53-0.421,0.982-0.795,1.356c-0.561,0.561-1.263,0.842-2.104,0.842
	c-0.842,0-1.543-0.281-2.104-0.842L47.88,52.089L35.162,64.808c-0.561,0.561-1.262,0.842-2.104,0.842s-1.543-0.281-2.104-0.842
	c-0.374-0.374-0.64-0.826-0.795-1.356c-0.156-0.528-0.156-1.043,0-1.543c0.155-0.498,0.421-0.935,0.795-1.309l12.718-12.719
	L30.954,35.163c-0.561-0.562-0.842-1.263-0.842-2.104s0.281-1.543,0.842-2.104c0.561-0.561,1.262-0.842,2.104-0.842
	s1.543,0.281,2.104,0.842L47.88,43.673l12.718-12.719c0.562-0.561,1.263-0.842,2.104-0.842c0.841,0,1.543,0.281,2.104,0.842
	c0.561,0.562,0.842,1.263,0.842,2.104S65.368,34.602,64.807,35.163z"/>
</svg>
