<?xml version="1.0" encoding="iso-8859-1"?>
<!-- Generator: Adobe Illustrator 24.0.1, SVG Export Plug-In . SVG Version: 6.00 Build 0)  -->
<svg version="1.1" id="icon" xmlns="http://www.w3.org/2000/svg" xmlns:xlink="http://www.w3.org/1999/xlink" x="0px" y="0px"
	 viewBox="0 0 95.761 83.227" style="enable-background:new 0 0 95.761 83.227;" xml:space="preserve">
<path d="M88.701,26.649c4.707,4.989,7.061,10.88,7.061,17.675c0,3.306-0.5,6.546-1.497,9.726c-0.998,3.18-2.417,6.095-4.255,8.744
	c-1.839,2.65-4.24,5.039-7.201,6.69c-2.962,1.653-6.251,1.903-9.866,2.903h-6.827c-0.811,0-1.512-0.533-2.104-1.126
	c-0.593-0.592-0.888-1.412-0.888-2.223c0-0.81,0.295-1.34,0.888-1.933c0.592-0.592,1.293-0.718,2.104-0.718h6.827
	c3.304,0,6.28-1.32,8.931-3.504c2.649-2.182,4.66-5.024,6.032-8.298c1.371-3.272,2.057-6.712,2.057-10.204
	c0-5.548-2.073-10.346-6.219-14.336c-4.147-3.989-9.024-6.03-14.635-6.093l-2.151-0.101l-0.655-2.06
	C63.061,11.255,55.86,5.983,44.701,5.983c-4.863,0-9.165,1.107-12.905,3.319c-3.741,2.213-6.609,5.19-8.604,9.054
	c-1.996,3.866-2.993,8.03-2.993,13.03h0.093l0.187,2.868l-2.712,0.498c-3.305,0.562-6.111,2.354-8.417,5.347
	c-2.307,2.992-3.46,6.367-3.46,10.107c0,4.24,1.417,8.152,4.255,11.269c2.836,3.118,6.187,4.91,10.053,4.91h8.604
	c0.436,0,0.842-0.151,1.216,0.003c0.374,0.156,0.685,0.259,0.935,0.54c0.249,0.28,0.452,0.535,0.608,0.877
	c0.155,0.344,0.234,0.705,0.234,1.14c0,0.812-0.281,1.736-0.842,2.328c-0.561,0.593-1.279,1.112-2.151,1.112H20.2
	c-5.487,0-10.226-2.389-14.215-6.691C1.995,61.394,0,56.195,0,50.334c0-4.8,1.34-9.178,4.021-13.012
	c2.68-3.834,6.109-6.466,10.287-7.838c0.374-5.548,1.854-10.566,4.442-15.025c2.586-4.456,6.14-7.987,10.661-10.575
	C33.931,1.299,39.027,0,44.701,0c6.607,0,12.171,1.588,16.692,4.768c4.52,3.18,7.839,7.606,9.959,13.278
	C78.21,18.794,83.993,21.661,88.701,26.649z M60.978,54.049c0.435,0.438,0.745,0.951,0.745,1.543c0,0.594-0.174,1.139-0.609,1.637
	l-0.726,0.468c-0.437,0.437-0.924,0.607-1.485,0.515c-0.561-0.094-1.111-0.358-1.546-0.795l-6.597-7.295v30.112
	c0,0.874-0.241,1.59-0.832,2.151c-0.593,0.561-1.282,0.842-2.123,0.842c-0.842,0-1.592-0.281-2.154-0.842
	c-0.561-0.562-0.891-1.277-0.891-2.151V50.121l-6.296,7.107c-0.5,0.438-0.997,0.701-1.558,0.795s-1.045-0.077-1.48-0.515
	l-0.74-0.467c-0.437-0.499-0.651-1.044-0.651-1.637c0-0.592,0.329-1.106,0.766-1.543l10.959-11.971v-0.093L46.4,41.05
	c0.435-0.435,0.895-0.654,1.488-0.654c0.592,0,0.897,0.22,1.334,0.654l0.539,0.749v0.093L60.978,54.049z"/>
</svg>
