<?xml version="1.0" encoding="iso-8859-1"?>
<!-- Generator: Adobe Illustrator 24.0.1, SVG Export Plug-In . SVG Version: 6.00 Build 0)  -->
<svg version="1.1" id="icon" xmlns="http://www.w3.org/2000/svg" xmlns:xlink="http://www.w3.org/1999/xlink" x="0px" y="0px"
	 viewBox="0 0 95.761 95.762" style="enable-background:new 0 0 95.761 95.762;" xml:space="preserve">
<path d="M81.78,13.981c4.27,4.271,7.668,9.367,10.193,15.29s3.788,12.126,3.788,18.609c0,6.484-1.263,12.688-3.788,18.609
	c-2.525,5.924-5.924,11.021-10.193,15.29c-4.271,4.271-9.368,7.669-15.29,10.193c-5.923,2.525-12.126,3.788-18.61,3.788
	c-6.484,0-12.688-1.263-18.61-3.788c-5.923-2.524-11.02-5.922-15.29-10.193c-4.271-4.27-7.668-9.366-10.193-15.29
	C1.263,60.568,0,54.365,0,47.881c0-6.483,1.263-12.687,3.788-18.609s5.922-11.02,10.193-15.29c4.27-4.27,9.366-7.669,15.29-10.193
	C35.193,1.263,41.396,0,47.88,0c6.483,0,12.687,1.263,18.61,3.788C72.413,6.313,77.509,9.712,81.78,13.981z M64.152,86.55
	c5.174-2.212,9.632-5.204,13.373-8.978c3.741-3.771,6.717-8.244,8.931-13.42c2.212-5.174,3.32-10.598,3.32-16.271
	c0-5.672-1.107-11.097-3.32-16.271c-2.213-5.175-5.19-9.633-8.931-13.373c-3.741-3.741-8.199-6.718-13.373-8.931
	c-5.175-2.213-10.6-3.32-16.272-3.32c-5.674,0-11.098,1.107-16.271,3.32c-5.176,2.213-9.632,5.189-13.373,8.931
	c-3.741,3.74-6.719,8.198-8.931,13.373c-2.213,5.175-3.32,10.6-3.32,16.271c0,4.552,0.702,8.963,2.104,13.232
	c1.403,4.271,3.397,8.121,5.985,11.55c2.586,3.429,5.595,6.452,9.024,9.071c3.428,2.618,7.278,4.629,11.549,6.031
	c4.27,1.403,8.681,2.104,13.232,2.104C53.553,89.87,58.977,88.764,64.152,86.55z M71.868,26.746c0.966,0.998,1.106,2.12,0.421,3.366
	L58.167,57.887c-0.063,0.063-0.126,0.141-0.187,0.234c-0.063,0.094-0.126,0.187-0.187,0.28c-0.063,0.094-0.141,0.173-0.234,0.234
	c-0.094,0.063-0.187,0.125-0.281,0.187c-0.093,0.063-0.203,0.126-0.327,0.188L28.335,70.886c-0.374,0.188-0.78,0.281-1.216,0.281
	c-0.187,0-0.374-0.015-0.561-0.047c-0.187-0.031-0.359-0.078-0.514-0.141c-0.156-0.062-0.313-0.155-0.468-0.28
	c-0.156-0.124-0.296-0.249-0.421-0.374c-0.935-0.936-1.122-2.025-0.561-3.273l13.467-27.026c0.248-0.561,0.654-0.966,1.215-1.216
	l29.271-12.625C69.794,25.563,70.9,25.75,71.868,26.746z M49.844,55.83l-8.229-10.287l-8.136,16.646L49.844,55.83z M62.937,35.443
	l-16.552,6.452l8.323,10.475L62.937,35.443z"/>
</svg>
