<?xml version="1.0" encoding="iso-8859-1"?>
<!-- Generator: Adobe Illustrator 24.0.1, SVG Export Plug-In . SVG Version: 6.00 Build 0)  -->
<svg version="1.1" id="icon" xmlns="http://www.w3.org/2000/svg" xmlns:xlink="http://www.w3.org/1999/xlink" x="0px" y="0px"
	 viewBox="0 0 95.53 70.804" style="enable-background:new 0 0 95.53 70.804;" xml:space="preserve">
<path d="M53.291,0c1.124,0,2.154,0.25,3.091,0.749c2.122,1.187,3.184,2.936,3.184,5.245v12.363l27.91-17.42
	c0.312-0.249,0.64-0.436,0.983-0.562c0.343-0.125,0.687-0.218,1.03-0.281C89.831,0.032,90.191,0,90.566,0
	c0.687,0,1.482,0.25,2.388,0.749c0.904,0.5,1.56,1.203,1.967,2.107c0.405,0.906,0.609,1.952,0.609,3.137v58.817
	c0,0.749-0.079,1.452-0.234,2.107c-0.156,0.656-0.438,1.265-0.843,1.827c-0.407,0.562-0.922,1-1.545,1.311
	c-0.438,0.25-0.859,0.438-1.264,0.562c-0.407,0.125-0.859,0.187-1.358,0.187c-0.562,0-1.063-0.077-1.499-0.234
	c-0.438-0.155-0.906-0.389-1.405-0.703l-27.816-17.42v12.363c0,2.311-1.063,4.059-3.184,5.245c-0.937,0.5-1.936,0.749-2.997,0.749
	c-1.187,0-2.248-0.312-3.185-0.937L2.81,40.459c-0.438-0.249-0.828-0.562-1.171-0.937c-0.344-0.375-0.641-0.78-0.89-1.217
	c-0.25-0.437-0.438-0.905-0.562-1.405C0.061,36.401,0,35.903,0,35.402c0-1.061,0.249-2.044,0.749-2.95
	c0.499-0.905,1.186-1.607,2.061-2.107L50.2,0.937C51.136,0.313,52.167,0,53.291,0z M53.571,5.994L6.275,35.402l47.296,29.408V41.677
	l35.964,23.133V5.994L53.571,29.127V5.151V5.994z"/>
</svg>
