<?xml version="1.0" encoding="iso-8859-1"?>
<!-- Generator: Adobe Illustrator 24.0.1, SVG Export Plug-In . SVG Version: 6.00 Build 0)  -->
<svg version="1.1" id="icon" xmlns="http://www.w3.org/2000/svg" xmlns:xlink="http://www.w3.org/1999/xlink" x="0px" y="0px"
	 viewBox="0 0 95.53 70.804" style="enable-background:new 0 0 95.53 70.804;" xml:space="preserve">
<path d="M42.239,0c0.562,0,1.107,0.079,1.639,0.234c0.53,0.157,1.014,0.391,1.452,0.703L92.72,30.345
	c0.562,0.313,1.061,0.734,1.499,1.264c0.436,0.531,0.764,1.124,0.983,1.78c0.218,0.655,0.328,1.327,0.328,2.014
	c0,0.688-0.11,1.358-0.328,2.013c-0.22,0.656-0.547,1.25-0.983,1.78c-0.438,0.531-0.937,0.953-1.499,1.264L45.33,69.868
	c-0.937,0.625-1.999,0.937-3.184,0.937c-0.5,0-1.016-0.062-1.545-0.187c-0.531-0.125-1.016-0.312-1.452-0.562
	c-0.438-0.249-0.859-0.562-1.265-0.937c-0.407-0.375-0.749-0.796-1.03-1.265c-0.281-0.468-0.5-0.951-0.655-1.452
	c-0.157-0.499-0.234-1.03-0.234-1.592V52.448L8.148,69.868c-0.937,0.625-1.905,0.937-2.903,0.937c-0.875,0-1.749-0.249-2.623-0.749
	C0.874,69.119,0,67.371,0,64.811V5.994c0-2.559,0.843-4.308,2.528-5.245C3.465,0.25,4.276,0,4.964,0C5.212,0,5.479,0.016,5.76,0.047
	C6.041,0.079,6.306,0.14,6.556,0.234c0.249,0.094,0.499,0.188,0.75,0.281c0.249,0.093,0.499,0.234,0.749,0.421l27.91,17.42V5.994
	c0-1.061,0.296-2.06,0.89-2.997c0.593-0.937,1.358-1.686,2.295-2.248C40.085,0.25,41.115,0,42.239,0z M41.958,5.151v23.976
	L5.994,5.994v58.817l35.964-23.133v23.133l47.297-29.408L41.958,5.994V5.151z"/>
</svg>
