<?xml version="1.0" encoding="iso-8859-1"?>
<!-- Generator: Adobe Illustrator 24.0.1, SVG Export Plug-In . SVG Version: 6.00 Build 0)  -->
<svg version="1.1" id="icon" xmlns="http://www.w3.org/2000/svg" xmlns:xlink="http://www.w3.org/1999/xlink" x="0px" y="0px"
	 viewBox="0 0 86.914 95.905" style="enable-background:new 0 0 86.914 95.905;" xml:space="preserve">
<path d="M86.914,89.817c0,2.309-1.03,4.058-3.091,5.245c-0.875,0.499-1.842,0.749-2.903,0.749c-0.562,0-1.109-0.079-1.639-0.234
	c-0.531-0.156-1.046-0.391-1.545-0.702L8.71,53.01c-1.499-0.937-2.404-2.309-2.716-4.121v44.019c0,0.811-0.297,1.513-0.89,2.107
	c-0.594,0.592-1.296,0.89-2.107,0.89c-0.562,0-1.063-0.141-1.499-0.421c-0.438-0.281-0.796-0.641-1.077-1.077
	C0.141,93.969,0,93.47,0,92.908V2.997C0,2.187,0.295,1.484,0.89,0.89C1.482,0.297,2.185,0,2.997,0C3.808,0,4.51,0.297,5.104,0.89
	c0.593,0.594,0.89,1.297,0.89,2.107v44.019c0.312-1.81,1.217-3.184,2.716-4.121L77.642,1.03c0.998-0.624,2.06-0.937,3.184-0.937
	c1.061,0,2.028,0.25,2.903,0.75C85.79,2.03,86.82,3.779,86.82,6.088L86.914,89.817z M80.919,89.817L80.826,6.088L11.895,47.953
	L80.919,89.817z"/>
</svg>
