<?xml version="1.0" encoding="iso-8859-1"?>
<!-- Generator: Adobe Illustrator 24.0.1, SVG Export Plug-In . SVG Version: 6.00 Build 0)  -->
<svg version="1.1" id="Layer_1" xmlns="http://www.w3.org/2000/svg" xmlns:xlink="http://www.w3.org/1999/xlink" x="0px" y="0px"
	 viewBox="0 0 65.935 95.905" style="enable-background:new 0 0 65.935 95.905;" xml:space="preserve">
<path d="M26.13,0.89c0.562,0.594,0.843,1.297,0.843,2.107v89.911c0,0.811-0.281,1.513-0.843,2.107
	c-0.562,0.592-1.28,0.89-2.154,0.89H2.997c-0.812,0-1.515-0.297-2.107-0.89C0.296,94.421,0,93.718,0,92.908V2.997
	c0-0.436,0.078-0.827,0.234-1.17C0.39,1.484,0.609,1.171,0.89,0.89c0.281-0.281,0.608-0.499,0.983-0.655
	C2.248,0.079,2.623,0,2.997,0h20.979C24.85,0,25.568,0.297,26.13,0.89z M20.979,5.994H5.994v83.917h14.985V5.994z M64.436,0.421
	c0.436,0.281,0.796,0.641,1.077,1.077c0.281,0.438,0.421,0.937,0.421,1.499v89.911c0,0.436-0.079,0.827-0.234,1.171
	c-0.157,0.342-0.375,0.655-0.656,0.937c-0.281,0.281-0.609,0.499-0.983,0.655c-0.375,0.155-0.75,0.234-1.124,0.234H42.052
	c-0.813,0-1.515-0.297-2.107-0.89c-0.594-0.594-0.89-1.297-0.89-2.107V2.997c0-0.811,0.295-1.513,0.89-2.107
	C40.538,0.297,41.24,0,42.052,0h20.885C63.5,0,63.999,0.141,64.436,0.421z M59.94,5.994H45.049v83.917H59.94V5.994z"/>
</svg>
