<?xml version="1.0" encoding="iso-8859-1"?>
<!-- Generator: Adobe Illustrator 24.0.1, SVG Export Plug-In . SVG Version: 6.00 Build 0)  -->
<svg version="1.1" id="icon" xmlns="http://www.w3.org/2000/svg" xmlns:xlink="http://www.w3.org/1999/xlink" x="0px" y="0px"
	 viewBox="0 0 86.784 95.762" style="enable-background:new 0 0 86.784 95.762;" xml:space="preserve">
<path d="M85.287,0.421c0.436,0.281,0.795,0.641,1.076,1.076c0.28,0.437,0.421,0.935,0.421,1.496v89.775
	c0,0.81-0.297,1.511-0.889,2.104c-0.593,0.592-1.294,0.889-2.104,0.889c-0.811,0-1.512-0.297-2.104-0.889
	c-0.593-0.594-0.889-1.295-0.889-2.104V48.816c-0.313,1.809-1.216,3.18-2.712,4.114L9.165,94.732
	c-0.5,0.312-1.014,0.545-1.543,0.702c-0.53,0.154-1.075,0.233-1.637,0.233c-0.5,0-0.998-0.063-1.496-0.188
	c-0.5-0.125-0.967-0.313-1.403-0.561C1.029,93.734,0,91.988,0,89.683L0.094,6.079c0-1.06,0.28-2.058,0.841-2.993
	c0.561-0.935,1.31-1.683,2.245-2.244c0.872-0.498,1.838-0.748,2.899-0.748c1.122,0,2.182,0.313,3.18,0.936l68.828,41.802
	c1.496,0.936,2.399,2.308,2.712,4.114V2.993c0-0.81,0.295-1.511,0.889-2.104C82.279,0.297,82.98,0,83.791,0
	C84.352,0,84.851,0.141,85.287,0.421z M74.907,47.881L6.079,6.079L5.985,89.683L74.907,47.881z"/>
</svg>
