<?xml version="1.0" encoding="iso-8859-1"?>
<!-- Generator: Adobe Illustrator 24.0.1, SVG Export Plug-In . SVG Version: 6.00 Build 0)  -->
<svg version="1.1" id="icon" xmlns="http://www.w3.org/2000/svg" xmlns:xlink="http://www.w3.org/1999/xlink" x="0px" y="0px"
	 viewBox="0 0 80.919 95.717" style="enable-background:new 0 0 80.919 95.717;" xml:space="preserve">
<path d="M6.087,0c0.375,0,0.733,0.047,1.077,0.141c0.342,0.094,0.687,0.203,1.03,0.328c0.342,0.126,0.67,0.281,0.983,0.468
	L78.11,42.801c0.562,0.313,1.061,0.734,1.498,1.264c0.437,0.531,0.764,1.124,0.983,1.78c0.218,0.655,0.328,1.327,0.328,2.014
	c0,2.248-0.937,3.934-2.81,5.057L9.084,94.781c-0.438,0.312-0.922,0.546-1.452,0.702c-0.531,0.155-1.077,0.234-1.639,0.234
	c-0.5,0-1-0.063-1.499-0.188c-0.5-0.125-0.969-0.313-1.405-0.562C1.03,93.781,0,92.032,0,89.723L0.094,5.994
	c0-2.309,1.03-4.058,3.09-5.245C4.058,0.25,5.025,0,6.087,0z M5.994,89.723l68.931-41.864L6.087,5.994L5.994,89.723z"/>
</svg>
