<?xml version="1.0" encoding="iso-8859-1"?>
<!-- Generator: Adobe Illustrator 24.0.1, SVG Export Plug-In . SVG Version: 6.00 Build 0)  -->
<svg version="1.1" id="icon" xmlns="http://www.w3.org/2000/svg" xmlns:xlink="http://www.w3.org/1999/xlink" x="0px" y="0px"
	 viewBox="0 0 95.904 62.937" style="enable-background:new 0 0 95.904 62.937;" xml:space="preserve">
<path d="M91.409,1.217c1.373,0.813,2.466,1.905,3.278,3.278c0.811,1.374,1.217,2.873,1.217,4.495v44.956
	c0,2.498-0.875,4.621-2.622,6.369c-1.749,1.749-3.872,2.622-6.369,2.622H8.991c-2.498,0-4.621-0.874-6.369-2.622
	C0.874,58.567,0,56.444,0,53.946V8.991C0,7.368,0.405,5.87,1.217,4.496C2.028,3.123,3.121,2.03,4.496,1.217
	C5.868,0.407,7.367,0,8.991,0h77.923C88.536,0,90.035,0.407,91.409,1.217z M6.884,6.884C6.29,7.478,5.994,8.18,5.994,8.991v5.994
	h83.917V8.991c0-0.811-0.297-1.513-0.89-2.107c-0.594-0.593-1.296-0.89-2.107-0.89H8.991C8.179,5.994,7.477,6.291,6.884,6.884z
	 M89.021,56.053c0.593-0.592,0.89-1.295,0.89-2.107V26.973H5.994v26.973c0,0.812,0.295,1.515,0.89,2.107
	c0.593,0.594,1.295,0.89,2.107,0.89h77.923C87.724,56.943,88.427,56.647,89.021,56.053z"/>
</svg>
