<?xml version="1.0" encoding="iso-8859-1"?>
<!-- Generator: Adobe Illustrator 24.0.1, SVG Export Plug-In . SVG Version: 6.00 Build 0)  -->
<svg version="1.1" id="icon" xmlns="http://www.w3.org/2000/svg" xmlns:xlink="http://www.w3.org/1999/xlink" x="0px" y="0px"
	 viewBox="0 0 95.761 95.762" style="enable-background:new 0 0 95.761 95.762;" xml:space="preserve">
<path d="M90.524,44.187c3.491,3.523,5.237,7.763,5.237,12.719s-1.746,9.181-5.237,12.672c-3.492,3.492-7.701,5.236-12.625,5.236
	c-0.313,0-1.076,0-2.292,0s-2.478-0.03-3.787-0.094v3.087c0,4.988-1.747,9.228-5.237,12.718c-3.492,3.491-7.7,5.237-12.625,5.237
	H17.955c-4.989,0-9.228-1.746-12.718-5.237C1.745,87.034,0,82.795,0,77.807V32.824c0-1.62,0.576-3.022,1.73-4.208
	c1.153-1.184,2.572-1.776,4.255-1.776h59.851c1.684,0,3.101,0.593,4.255,1.776c1.153,1.186,1.73,2.588,1.73,4.208v5.985
	c3.241,0.063,5.268,0.094,6.079,0.094C82.823,38.903,87.032,40.665,90.524,44.187z M65.835,32.824H5.985v44.982
	c0,3.305,1.169,6.125,3.507,8.463s5.158,3.507,8.463,3.507h36.004c2.119,0,4.099-0.529,5.938-1.59
	c1.838-1.06,3.288-2.509,4.348-4.349c1.06-1.838,1.59-3.849,1.59-6.031V32.824z M14.962,17.955V2.993
	c0-0.81,0.295-1.511,0.889-2.104C16.443,0.297,17.144,0,17.955,0c0.81,0,1.511,0.297,2.104,0.889
	c0.592,0.594,0.888,1.295,0.888,2.104v14.962c0,0.812-0.296,1.513-0.888,2.104c-0.593,0.594-1.294,0.889-2.104,0.889
	c-0.811,0-1.512-0.295-2.104-0.889C15.258,19.468,14.962,18.767,14.962,17.955z M32.917,17.955V2.993
	c0-0.81,0.295-1.511,0.889-2.104C34.398,0.297,35.099,0,35.91,0c0.81,0,1.511,0.297,2.104,0.889
	c0.592,0.594,0.889,1.295,0.889,2.104v14.962c0,0.812-0.297,1.513-0.889,2.104c-0.593,0.594-1.294,0.889-2.104,0.889
	c-0.811,0-1.512-0.295-2.104-0.889C33.213,19.468,32.917,18.767,32.917,17.955z M50.873,17.955V2.993
	c0-0.81,0.295-1.511,0.888-2.104C52.353,0.297,53.054,0,53.865,0c0.81,0,1.511,0.297,2.104,0.889
	c0.592,0.594,0.888,1.295,0.888,2.104v14.962c0,0.812-0.296,1.513-0.888,2.104c-0.593,0.594-1.295,0.889-2.104,0.889
	c-0.811,0-1.512-0.295-2.104-0.889C51.168,19.468,50.873,18.767,50.873,17.955z M86.409,65.462c2.306-2.306,3.46-5.174,3.46-8.604
	c0-3.428-1.154-6.28-3.46-8.557c-2.307-2.275-5.144-3.413-8.51-3.413c-0.811,0-2.838,0-6.079,0v23.94
	c3.428,0.063,5.455,0.093,6.079,0.093C81.266,68.922,84.102,67.77,86.409,65.462z"/>
</svg>
