<?xml version="1.0" encoding="iso-8859-1"?>
<!-- Generator: Adobe Illustrator 24.0.1, SVG Export Plug-In . SVG Version: 6.00 Build 0)  -->
<svg version="1.1" id="icon" xmlns="http://www.w3.org/2000/svg" xmlns:xlink="http://www.w3.org/1999/xlink" x="0px" y="0px"
	 viewBox="0 0 95.756 95.762" style="enable-background:new 0 0 95.756 95.762;" xml:space="preserve">
<path d="M95.728,30.206c-0.094,0.998-0.36,1.84-0.795,2.525L49.297,94.826c-0.25,0.312-0.531,0.545-0.842,0.701
	c-0.313,0.155-0.624,0.234-0.935,0.234c-0.687,0-1.279-0.313-1.777-0.936L0.855,32.17c-0.5-0.622-0.78-1.434-0.841-2.432
	c-0.063-0.996,0.093-1.87,0.467-2.618L13.573,2.619c0.374-0.748,0.997-1.371,1.871-1.871C16.316,0.25,17.158,0,17.969,0H47.52h0.093
	h0.094h30.112c0.81,0,1.651,0.25,2.525,0.748c0.873,0.5,1.496,1.123,1.871,1.871l13.092,24.969
	C95.681,28.336,95.821,29.21,95.728,30.206z M7.401,26.934h16.646L17.595,7.669L7.401,26.934z M26.011,32.918H8.71l32.17,44.795
	L26.011,32.918z M42.002,5.985h-18.61l5.985,18.049L42.002,5.985z M32.277,32.918l15.336,46.011l16.085-46.011H32.277z M47.8,8.043
	L34.708,26.934h27.774L47.8,8.043z M67.065,23.099L73.05,5.985H53.786L67.065,23.099z M54.347,77.807l33.011-44.889h-17.3
	L54.347,77.807z M78.567,8.511l-6.453,18.423h15.991L78.567,8.511z"/>
</svg>
