<?xml version="1.0" encoding="iso-8859-1"?>
<!-- Generator: Adobe Illustrator 24.0.1, SVG Export Plug-In . SVG Version: 6.00 Build 0)  -->
<svg version="1.1" id="icon" xmlns="http://www.w3.org/2000/svg" xmlns:xlink="http://www.w3.org/1999/xlink" x="0px" y="0px"
	 viewBox="0 0 86.739 95.762" style="enable-background:new 0 0 86.739 95.762;" xml:space="preserve">
<path d="M86.737,29.926c-0.032,0.811-0.297,1.496-0.795,2.058L69.203,49.938c-0.313,0.313-0.655,0.546-1.029,0.701
	c-0.374,0.156-0.78,0.233-1.216,0.233H41.989v42.083c0,0.748-0.297,1.402-0.889,1.964c-0.593,0.561-1.294,0.842-2.104,0.842
	c-0.811,0-1.512-0.281-2.104-0.842c-0.593-0.562-0.889-1.216-0.889-1.964V50.873H2.993c-0.811,0-1.512-0.295-2.104-0.888
	C0.295,49.394,0,48.691,0,47.881v-35.91c0-0.562,0.14-1.06,0.421-1.496c0.28-0.436,0.655-0.795,1.122-1.076
	c0.468-0.28,0.95-0.421,1.45-0.421h33.011l0.094-6.172c0-0.312,0.046-0.607,0.14-0.889c0.093-0.28,0.218-0.528,0.374-0.748
	c0.155-0.218,0.358-0.421,0.608-0.607c0.249-0.188,0.514-0.327,0.795-0.421C38.295,0.047,38.59,0,38.903,0
	c0.249,0,0.482,0.032,0.702,0.094c0.218,0.063,0.421,0.141,0.608,0.233c0.187,0.094,0.374,0.203,0.561,0.328
	s0.342,0.266,0.467,0.421c0.125,0.156,0.249,0.327,0.374,0.514c0.125,0.188,0.202,0.391,0.234,0.608
	c0.031,0.219,0.047,0.421,0.047,0.607l0.094,6.172h24.969c0.873,0,1.621,0.313,2.245,0.936l16.739,17.955
	C86.503,28.43,86.768,29.116,86.737,29.926z M79.676,29.926L65.649,14.963H5.985v29.926h59.664L79.676,29.926z"/>
</svg>
