<?xml version="1.0" encoding="iso-8859-1"?>
<!-- Generator: Adobe Illustrator 24.0.1, SVG Export Plug-In . SVG Version: 6.00 Build 0)  -->
<svg version="1.1" id="icon" xmlns="http://www.w3.org/2000/svg" xmlns:xlink="http://www.w3.org/1999/xlink" x="0px" y="0px"
	 viewBox="0 0 95.948 95.762" style="enable-background:new 0 0 95.948 95.762;" xml:space="preserve">
<path d="M95.854,18.657c0.125,0.467,0.125,0.951,0,1.449c-0.125,0.5-0.343,0.936-0.654,1.31L85.848,31.89
	c-0.561,0.687-1.309,1.028-2.244,1.028H50.873v5.985h24.034c0.81,0,1.511,0.28,2.104,0.842c0.592,0.561,0.888,1.278,0.888,2.15
	v20.948c0,0.874-0.296,1.59-0.888,2.15c-0.593,0.562-1.295,0.842-2.104,0.842H50.873v27.12c0,0.748-0.296,1.402-0.888,1.964
	c-0.593,0.561-1.295,0.842-2.104,0.842c-0.811,0-1.512-0.281-2.104-0.842c-0.593-0.562-0.888-1.216-0.888-1.964v-27.12H12.344
	c-0.5,0-0.935-0.062-1.309-0.187s-0.687-0.342-0.936-0.655L0.748,54.427C0.249,53.866,0,53.211,0,52.463s0.249-1.402,0.748-1.964
	l9.352-10.66c0.562-0.623,1.31-0.936,2.245-0.936h32.544v-5.985h-23.94c-0.811,0-1.512-0.295-2.104-0.888
	c-0.593-0.592-0.889-1.294-0.889-2.104V8.978c0-0.81,0.295-1.511,0.889-2.104c0.592-0.592,1.293-0.889,2.104-0.889h23.94v-3.18
	c0-0.748,0.295-1.402,0.888-1.964C46.368,0.281,47.07,0,47.88,0c0.312,0,0.592,0.032,0.842,0.094
	c0.249,0.063,0.482,0.156,0.701,0.28c0.218,0.126,0.421,0.281,0.608,0.468c0.187,0.188,0.342,0.374,0.468,0.562
	c0.124,0.187,0.218,0.406,0.281,0.654c0.061,0.25,0.093,0.5,0.093,0.748v3.18h32.731c0.935,0,1.683,0.344,2.244,1.028L95.2,17.395
	C95.511,17.769,95.729,18.189,95.854,18.657z M71.915,44.889H13.653l-6.64,7.574l6.64,7.388h58.261V44.889z M88.935,19.358
	l-6.64-7.388H23.94v14.963h58.354L88.935,19.358z"/>
</svg>
