<?xml version="1.0" encoding="iso-8859-1"?>
<!-- Generator: Adobe Illustrator 24.0.1, SVG Export Plug-In . SVG Version: 6.00 Build 0)  -->
<svg version="1.1" id="Layer_1" xmlns="http://www.w3.org/2000/svg" xmlns:xlink="http://www.w3.org/1999/xlink" x="0px" y="0px"
	 viewBox="0 0 95.761 95.762" style="enable-background:new 0 0 95.761 95.762;" xml:space="preserve">
<path d="M89.355,23.847c4.27,7.357,6.406,15.369,6.406,24.034c0,8.666-2.136,16.678-6.406,24.034
	c-4.271,7.356-10.085,13.171-17.44,17.44c-7.357,4.27-15.369,6.406-24.034,6.406c-8.666,0-16.678-2.137-24.034-6.406
	c-7.357-4.27-13.171-10.084-17.441-17.44C2.135,64.559,0,56.547,0,47.881c0-8.665,2.135-16.677,6.406-24.034
	c4.27-7.355,10.084-13.169,17.441-17.44C31.203,2.137,39.214,0,47.88,0c8.665,0,16.677,2.137,24.034,6.406
	C79.27,10.678,85.084,16.491,89.355,23.847z M8.089,61.113c1.403,4.271,3.397,8.121,5.985,11.55
	c2.586,3.429,5.595,6.438,9.024,9.024c3.428,2.588,7.278,4.582,11.549,5.984c4.27,1.403,8.681,2.104,13.232,2.104
	c6.795,0,13.217-1.558,19.265-4.676L51.247,59.477c-1.122,0.313-2.244,0.468-3.367,0.468c-2.183,0-4.193-0.545-6.032-1.637
	c-1.839-1.09-3.305-2.556-4.395-4.395c-1.092-1.839-1.637-3.85-1.637-6.032c0-0.81,0.094-1.651,0.281-2.525L9.539,31.142
	c-2.37,5.3-3.554,10.88-3.554,16.739C5.985,52.433,6.687,56.844,8.089,61.113z M12.25,25.811l26.465,14.215l0.187-0.187l0.094-0.094
	L23.099,14.121C18.734,17.363,15.118,21.261,12.25,25.811z M86.456,31.609c-2.213-5.175-5.19-9.633-8.931-13.373
	c-3.741-3.741-8.199-6.718-13.373-8.931c-5.175-2.213-10.6-3.32-16.272-3.32c-6.983,0-13.56,1.652-19.732,4.956l15.804,25.53
	c1.31-0.436,2.619-0.654,3.928-0.654c1.123,0,2.198,0.14,3.227,0.421c1.029,0.28,1.979,0.687,2.852,1.216
	c0.873,0.53,1.684,1.169,2.432,1.917s1.387,1.559,1.917,2.432c0.529,0.873,0.935,1.823,1.216,2.852
	c0.28,1.029,0.421,2.104,0.421,3.227c0,0.25-0.016,0.515-0.047,0.795c-0.032,0.28-0.063,0.562-0.094,0.842
	c-0.032,0.28-0.079,0.546-0.14,0.795c-0.063,0.25-0.125,0.5-0.187,0.748l26.465,14.215c2.556-5.549,3.834-11.347,3.834-17.395
	C89.776,42.209,88.668,36.784,86.456,31.609z M41.802,47.881c0,1.684,0.592,3.118,1.777,4.302c1.184,1.186,2.619,1.776,4.302,1.776
	c1.684,0,3.117-0.591,4.302-1.776c1.184-1.184,1.777-2.618,1.777-4.302s-0.593-3.117-1.777-4.302
	c-1.185-1.184-2.618-1.776-4.302-1.776c-1.683,0-3.118,0.593-4.302,1.776C42.394,44.764,41.802,46.197,41.802,47.881z
	 M83.136,70.512L56.484,56.298v0.093h-0.093l15.804,25.53C76.558,78.805,80.205,75.001,83.136,70.512z"/>
</svg>
