<?xml version="1.0" encoding="iso-8859-1"?>
<!-- Generator: Adobe Illustrator 24.0.1, SVG Export Plug-In . SVG Version: 6.00 Build 0)  -->
<svg version="1.1" id="Layer_1" xmlns="http://www.w3.org/2000/svg" xmlns:xlink="http://www.w3.org/1999/xlink" x="0px" y="0px"
	 viewBox="0 0 95.95 95.762" style="enable-background:new 0 0 95.95 95.762;" xml:space="preserve">
<path d="M38.905,0c15.524,0,24.75,0.562,27.681,1.684c0.81,0.374,1.87,1.028,3.18,1.964c0.935,0.748,2.633,1.356,5.097,1.823
	c2.462,0.468,6.561,0.889,12.297,1.263c0.498,0.063,0.95,0.188,1.356,0.374c0.405,0.188,0.732,0.438,0.982,0.748
	c0.124,0.188,0.374,0.594,0.748,1.216c0.374,0.624,0.903,1.669,1.59,3.133c0.685,1.466,1.324,3.071,1.917,4.816
	c0.592,1.746,1.106,3.928,1.543,6.546c0.436,2.618,0.655,5.27,0.655,7.949c0,9.04-1.528,16.023-4.583,20.947
	c-0.187,0.25-0.421,0.484-0.701,0.702c-0.281,0.219-0.577,0.39-0.889,0.514c-0.313,0.126-0.654,0.188-1.028,0.188
	c-5.237,0-10.988,3.18-17.254,9.538C65.23,69.764,59.82,78.399,55.27,89.309c-1.123,2.556-1.903,4.083-2.338,4.582
	c-1.185,1.184-3.056,1.808-5.611,1.871c-1.683,0-3.382-0.53-5.097-1.59c-1.715-1.062-3.071-2.401-4.068-4.021
	c-1.185-1.932-1.87-4.706-2.057-8.323c-0.187-3.614-0.079-6.981,0.327-10.1c0.405-3.116,0.95-6.109,1.637-8.978
	c-11.222,0.063-18.767,0.094-22.631,0.094c-3.679,0-6.656-0.997-8.931-2.993c-2.277-1.994-3.446-4.612-3.507-7.854
	c-0.063-2.743,0.218-4.831,0.841-6.266c-2.494-2.432-3.772-4.831-3.834-7.201c-0.062-2.93,1.371-5.922,4.302-8.978
	c-0.063-0.124-0.187-0.421-0.374-0.889s-0.327-0.856-0.421-1.169c-0.093-0.312-0.172-0.701-0.234-1.169
	c-0.063-0.468-0.093-0.919-0.093-1.355c0.124-3.429,2.119-6.483,5.985-9.165c-0.313-2.058-0.28-3.896,0.094-5.518
	C10.756,3.43,20.637,0,38.905,0z M85.57,12.813c-10.226-0.81-16.709-2.245-19.452-4.302c-0.063-0.062-0.156-0.155-0.28-0.281
	c-0.562-0.374-1.014-0.654-1.356-0.842c-0.344-0.187-1.029-0.389-2.058-0.607c-1.029-0.218-2.447-0.374-4.255-0.468
	c-1.809-0.094-4.271-0.171-7.388-0.233c-3.119-0.062-7.077-0.094-11.877-0.094c-15.088,0-23.037,1.87-23.847,5.611
	c-0.25,1.372,0.342,2.774,1.777,4.208c0.311,0.748,0.311,1.431,0,2.209c-0.313,0.78-0.811,1.555-1.496,1.555h-0.094
	c-0.313,0-0.687,0.362-1.122,0.55c-0.437,0.187-1.076,0.571-1.917,1.069c-0.842,0.5-1.543,1.128-2.104,1.844
	c-0.561,0.718-0.874,1.46-0.935,2.208c0,0.187,0.015,0.395,0.047,0.613c0.031,0.22,0.062,0.423,0.093,0.611
	c0.031,0.187,0.094,0.375,0.188,0.562c0.093,0.188,0.171,0.344,0.233,0.468c0.062,0.126,0.141,0.25,0.234,0.374
	c0.094,0.126,0.171,0.235,0.234,0.327c0.062,0.094,0.124,0.173,0.187,0.234c0.062,0.063,0.124,0.156,0.187,0.28
	c0.436,0.624,0.576,1.342,0.421,2.15c-0.156,0.812-0.546,1.466-1.169,1.964c-0.374,0.188-0.78,0.453-1.216,0.795
	c-0.437,0.344-0.982,0.982-1.637,1.918c-0.654,0.935-0.982,1.87-0.982,2.805c0.062,1.56,1.247,3.025,3.554,4.396
	c0.81,0.438,1.31,1.122,1.497,2.058c0.061,0.437,0.046,0.857-0.047,1.263c-0.094,0.406-0.266,0.795-0.515,1.169
	c-0.125,0.125-0.266,0.343-0.42,0.654c-0.157,0.313-0.374,0.889-0.655,1.73c-0.281,0.841-0.421,1.605-0.421,2.291
	c0,0.437,0.062,0.857,0.187,1.263c0.125,0.405,0.281,0.764,0.468,1.075c0.187,0.313,0.389,0.593,0.608,0.842
	c0.218,0.249,0.467,0.467,0.748,0.654c0.28,0.187,0.561,0.344,0.842,0.468c0.28,0.125,0.576,0.233,0.888,0.327
	c0.311,0.094,0.592,0.156,0.842,0.187c0.248,0.032,0.514-0.081,0.795-0.051c0.28,0.032,0.498-0.098,0.654-0.098
	c0.155,0,0.295,0,0.421,0c9.539,0,18.517,0.115,26.933,0.051c1.059,0,1.901,0.54,2.525,1.476c0.561,0.811,0.654,1.782,0.28,2.842
	c-1.559,4.488-2.572,9.338-3.039,14.513c-0.468,5.175-0.079,9.049,1.169,11.605c0.061,0.126,0.202,0.394,0.421,0.799
	c0.218,0.406,0.389,0.673,0.514,0.797c0.124,0.126,0.327,0.298,0.608,0.516c0.28,0.219,0.623,0.375,1.029,0.467
	c0.405,0.094,0.888,0.141,1.449,0.141c0.81,0,1.621-0.935,2.432-2.806c4.8-11.596,10.598-20.838,17.394-27.727
	c6.794-6.888,13.373-10.644,19.732-11.269c2.058-4.613,3.086-10.1,3.086-16.459c0-4.052-0.483-7.776-1.449-11.176
	C87.548,16.943,86.566,14.434,85.57,12.813z"/>
</svg>
