<?xml version="1.0" encoding="iso-8859-1"?>
<!-- Generator: Adobe Illustrator 24.0.1, SVG Export Plug-In . SVG Version: 6.00 Build 0)  -->
<svg version="1.1" id="Layer_1" xmlns="http://www.w3.org/2000/svg" xmlns:xlink="http://www.w3.org/1999/xlink" x="0px" y="0px"
	 viewBox="0 0 69 96" style="enable-background:new 0 0 69 96;" xml:space="preserve">
<path d="M69,30.27v59.851c0,1.684-0.43,3.048-1.583,4.202C66.263,95.476,64.993,96,63.309,96H6.451
	c-1.684,0-3.336-0.524-4.488-1.677C0.809,93.168,0,91.804,0,90.121V6.33c0-1.684,0.809-3.273,1.963-4.427
	C3.116,0.749,4.768,0,6.451,0h32.917L69,30.27z M63,90V39H30V6H6v84H63z M36.938,6H36v27h27v-0.205L36.938,6z"/>
</svg>
