<?xml version="1.0" encoding="iso-8859-1"?>
<!-- Generator: Adobe Illustrator 24.0.1, SVG Export Plug-In . SVG Version: 6.00 Build 0)  -->
<svg version="1.1" id="icon" xmlns="http://www.w3.org/2000/svg" xmlns:xlink="http://www.w3.org/1999/xlink" x="0px" y="0px"
	 viewBox="0 0 95.904 95.905" style="enable-background:new 0 0 95.904 95.905;" xml:space="preserve">
<g>
	<path d="M38.961,11.988l23.976,23.976v53.946c0,1.686-0.578,3.105-1.733,4.261c-1.156,1.155-2.576,1.733-4.261,1.733H5.994
		c-1.686,0-3.107-0.578-4.262-1.733C0.577,93.016,0,91.597,0,89.911V17.982c0-1.686,0.577-3.105,1.732-4.262
		c1.155-1.154,2.576-1.732,4.262-1.732H38.961z M56.943,41.958H32.967V17.982H5.994v71.928h50.949V41.958z M95.904,23.976v53.946
		c0,1.686-0.578,3.107-1.732,4.262c-1.156,1.156-2.576,1.732-4.261,1.732H68.931v-5.994h20.979V29.97H65.935V5.994H32.967
		c0-1.686,0.577-3.105,1.732-4.261C35.854,0.578,37.275,0,38.961,0h32.967L95.904,23.976z M54.415,35.964L38.961,20.417v15.547
		H54.415z M87.382,23.976L71.928,8.429v15.547H87.382z"/>
</g>
</svg>
