<?xml version="1.0" encoding="iso-8859-1"?>
<!-- Generator: Adobe Illustrator 24.0.1, SVG Export Plug-In . SVG Version: 6.00 Build 0)  -->
<svg version="1.1" id="Layer_1" xmlns="http://www.w3.org/2000/svg" xmlns:xlink="http://www.w3.org/1999/xlink" x="0px" y="0px"
	 viewBox="0 0 95.904 81.107" style="enable-background:new 0 0 95.904 81.107;" xml:space="preserve">
<path d="M95.904,40.788c0,0.157,0,0.313,0,0.468c0,0.157,0,0.297,0,0.421c0,0.063,0,0.126,0,0.188c0,0.126,0,0.219,0,0.281v32.967
	c0,1.625-0.578,3.029-1.732,4.214c-1.156,1.187-2.576,1.78-4.261,1.78H5.994c-1.686,0-3.107-0.593-4.262-1.78
	C0.577,78.142,0,76.737,0,75.113V42.146c0-0.499,0.094-1.061,0.281-1.686c-0.126-0.312-0.203-0.64-0.234-0.983
	c-0.032-0.343-0.016-0.67,0.047-0.983L10.115,2.248c0.125-0.437,0.328-0.827,0.609-1.171c0.281-0.342,0.624-0.609,1.03-0.796
	C12.159,0.094,12.581,0,13.018,0H81.95c0.436,0,0.843,0.094,1.217,0.281c0.375,0.187,0.717,0.454,1.03,0.796
	c0.312,0.344,0.499,0.734,0.562,1.171l11.051,38.118C95.872,40.492,95.904,40.632,95.904,40.788z M89.911,42.146H65.373
	c-0.875,2.498-2.14,4.668-3.793,6.509c-1.655,1.842-3.652,3.247-5.994,4.214c-2.341,0.969-4.886,1.452-7.633,1.452
	c-4.121,0-7.712-1.077-10.771-3.231c-3.06-2.154-5.245-5.135-6.556-8.944H5.994v32.967h83.917V42.146z M6.931,36.152h28.659
	c0,1.812,0.312,3.465,0.937,4.963c0.624,1.499,1.482,2.779,2.576,3.84c1.092,1.062,2.388,1.889,3.887,2.482
	c1.499,0.594,3.152,0.89,4.964,0.89c1.436,0,2.793-0.188,4.074-0.562c1.279-0.375,2.419-0.92,3.418-1.639
	c0.998-0.717,1.873-1.576,2.622-2.576c0.75-0.998,1.326-2.122,1.733-3.372c0.405-1.248,0.609-2.59,0.609-4.027h27.91l-8.71-30.158
	H15.359L6.931,36.152z"/>
</svg>
