<?xml version="1.0" encoding="iso-8859-1"?>
<!-- Generator: Adobe Illustrator 24.0.1, SVG Export Plug-In . SVG Version: 6.00 Build 0)  -->
<svg version="1.1" id="icon" xmlns="http://www.w3.org/2000/svg" xmlns:xlink="http://www.w3.org/1999/xlink" x="0px" y="0px"
	 viewBox="0 0 65.935 95.717" style="enable-background:new 0 0 65.935 95.717;" xml:space="preserve">
<g>
	<path d="M32.78,95.717c-5.933,0-11.412-1.452-16.437-4.355c-5.027-2.903-9.007-6.837-11.941-11.801C1.466,74.598,0,69.182,0,63.312
		C0,52.448,7.306,35.871,21.916,13.58c3.121-4.807,5.962-8.928,8.522-12.362C31,0.407,31.781,0,32.78,0
		c0.998,0,1.81,0.407,2.435,1.218c0.436,0.562,0.998,1.327,1.686,2.294c0.687,0.969,1.888,2.639,3.606,5.011
		c1.716,2.374,3.386,4.839,5.011,7.399c1.623,2.561,3.449,5.495,5.479,8.804c2.028,3.31,3.887,6.619,5.572,9.927
		c1.686,3.311,3.262,6.635,4.729,9.975c1.467,3.341,2.606,6.635,3.419,9.881c0.811,3.247,1.217,6.181,1.217,8.804
		c0,3.498-0.562,6.9-1.686,10.208c-1.124,3.31-2.701,6.291-4.729,8.944c-2.03,2.655-4.402,4.98-7.118,6.978
		c-2.716,1.998-5.76,3.543-9.132,4.636C39.898,95.17,36.4,95.717,32.78,95.717z M32.874,8.148c-2.435,3.435-4.87,7.057-7.305,10.864
		c-2.435,3.81-5.292,8.539-8.569,14.189c-3.278,5.652-5.933,11.178-7.961,16.578c-2.03,5.401-3.044,9.913-3.044,13.533
		c0,7.244,2.623,13.456,7.867,18.638c5.245,5.183,11.551,7.773,18.919,7.773c7.492,0,13.892-2.59,19.2-7.773
		c5.306-5.182,7.96-11.394,7.96-18.638c0-2.56-0.484-5.541-1.452-8.944c-0.969-3.402-2.311-6.898-4.027-10.489
		c-1.718-3.59-3.512-7.086-5.385-10.49c-1.873-3.402-3.919-6.837-6.134-10.302c-2.217-3.465-4.09-6.306-5.62-8.523
		C35.792,12.348,34.31,10.208,32.874,8.148z"/>
</g>
</svg>
