<?xml version="1.0" encoding="iso-8859-1"?>
<!-- Generator: Adobe Illustrator 24.0.1, SVG Export Plug-In . SVG Version: 6.00 Build 0)  -->
<svg version="1.1" id="Layer_1" xmlns="http://www.w3.org/2000/svg" xmlns:xlink="http://www.w3.org/1999/xlink" x="0px" y="0px"
	 viewBox="0 0 95.904 90.098" style="enable-background:new 0 0 95.904 90.098;" xml:space="preserve">
<g>
	<path d="M95.717,54.602c0.125,0.5,0.187,0.969,0.187,1.405v26.037c0,2.187-0.781,4.06-2.341,5.62
		c-1.562,1.56-3.435,2.341-5.619,2.341h-7.961c-0.875,0-1.718-0.141-2.529-0.421c-0.812-0.281-1.545-0.672-2.201-1.171
		c-0.656-0.5-1.234-1.077-1.733-1.732c-0.5-0.656-0.875-1.373-1.124-2.154c-0.25-0.78-0.375-1.607-0.375-2.482V56.007
		c0-2.185,0.764-4.058,2.294-5.619c1.529-1.56,3.419-2.342,5.667-2.342h7.961c0.187,0,0.389,0.016,0.608,0.047
		c0.218,0.032,0.422,0.063,0.609,0.094c0.188,0.032,0.375,0.047,0.562,0.047c-0.126-2.747-0.25-4.557-0.375-5.432
		c-0.562-5.245-2.03-10.146-4.402-14.704c-2.374-4.557-5.371-8.444-8.991-11.66c-3.622-3.215-7.82-5.76-12.597-7.633
		c-4.776-1.873-9.819-2.81-15.125-2.81c-5.495,0-10.756,1.03-15.781,3.091c-5.027,2.061-9.382,4.87-13.065,8.429
		c-3.685,3.559-6.682,7.82-8.991,12.784c-2.311,4.963-3.622,10.288-3.934,15.968c-0.063,0.937-0.094,1.592-0.094,1.967
		c0.249-0.062,0.515-0.108,0.796-0.141c0.281-0.031,0.546-0.047,0.796-0.047h8.054c1.499,0,2.857,0.36,4.074,1.077
		c1.218,0.719,2.169,1.686,2.856,2.903c0.687,1.218,1.03,2.545,1.03,3.98v26.13c0,2.186-0.765,4.06-2.294,5.619
		c-1.531,1.56-3.418,2.342-5.667,2.342H7.961c-2.187,0-4.06-0.782-5.62-2.342C0.78,86.197,0,84.323,0,82.137v-26.13
		c0-0.187,0.015-0.375,0.047-0.562c0.031-0.187,0.062-0.375,0.094-0.562c0.031-0.187,0.047-0.375,0.047-0.562v-1.405
		c0.061-1.623,0.155-3.964,0.281-7.024c0.436-8.554,2.84-16.343,7.211-23.368c4.37-7.024,10.115-12.534,17.233-16.53
		C32.031,1.999,39.804,0,48.233,0c8.054,0,15.515,1.812,22.384,5.432c6.868,3.622,12.487,8.649,16.858,15.079
		c4.37,6.431,6.992,13.643,7.867,21.634c0.375,3.435,0.562,7.306,0.562,11.614C95.904,54.009,95.842,54.291,95.717,54.602z
		 M7.352,54.134c-0.22,0.063-0.407,0.157-0.562,0.281c-0.157,0.126-0.297,0.267-0.421,0.422c-0.126,0.156-0.22,0.344-0.281,0.562
		c-0.063,0.22-0.094,0.422-0.094,0.609v26.13c0,0.313,0.094,0.625,0.281,0.937c0.188,0.313,0.421,0.562,0.703,0.749
		c0.281,0.188,0.609,0.281,0.983,0.281h8.054c0.562,0,1.03-0.202,1.405-0.609c0.375-0.405,0.562-0.857,0.562-1.358v-26.13
		c0-0.375-0.079-0.702-0.234-0.983c-0.157-0.281-0.391-0.515-0.703-0.702c-0.313-0.188-0.655-0.281-1.03-0.281H7.961
		C7.773,54.04,7.57,54.072,7.352,54.134z M89.911,56.007c0-0.562-0.188-1.03-0.562-1.405s-0.843-0.562-1.405-0.562h-7.961
		c-0.562,0-1.03,0.188-1.405,0.562s-0.562,0.843-0.562,1.405v26.037c0,0.126,0.015,0.267,0.047,0.421
		c0.031,0.157,0.078,0.297,0.141,0.421c0.061,0.126,0.14,0.25,0.234,0.375c0.094,0.125,0.188,0.219,0.281,0.281
		c0.093,0.063,0.202,0.141,0.328,0.234c0.125,0.093,0.265,0.156,0.421,0.187c0.155,0.032,0.328,0.047,0.515,0.047h7.961
		c0.562,0,1.03-0.202,1.405-0.609c0.375-0.405,0.562-0.857,0.562-1.358V56.007z"/>
</g>
</svg>
