<?xml version="1.0" encoding="iso-8859-1"?>
<!-- Generator: Adobe Illustrator 24.0.1, SVG Export Plug-In . SVG Version: 6.00 Build 0)  -->
<svg version="1.1" id="icon" xmlns="http://www.w3.org/2000/svg" xmlns:xlink="http://www.w3.org/1999/xlink" x="0px" y="0px"
	 viewBox="0 0 96.054 96.179" style="enable-background:new 0 0 96.054 96.179;" xml:space="preserve">
<path d="M95.654,54.52c0.124,0.5,0.4,0.968,0.4,1.403v20.013c0,1.559-0.633,2.978-1.475,4.255c-0.841,1.278-2.055,2.229-3.426,2.852
	c-0.125,0.126-0.287,0.234-0.38,0.328c-0.094,0.093-0.23,0.172-0.354,0.233c-0.126,0.063-0.263,0.126-0.388,0.188L59.164,95.97
	l-5.337,0.209h-0.093h-8.978c-0.811,0-1.367-0.412-1.959-1.004c-0.593-0.594-0.743-1.411-0.743-2.22v-2.992
	c0-0.873,0.15-1.485,0.743-2.047c0.592-0.561,1.148-0.737,1.959-0.737h8.978c0.561,0,1.075,0.021,1.543,0.269
	c0.468,0.25,0.99,0.556,1.239,1.024c0.249,0.468,0.538,0.929,0.538,1.491v0.468l19.1-7.575c-1.309-0.686-2.284-1.651-3.032-2.899
	c-0.748-1.246-1.068-2.586-1.068-4.021V55.923c0-2.182,0.627-3.949,2.155-5.509c1.527-1.558,3.277-2.235,5.522-2.235h7.949
	c0.561,0,1.153-0.04,1.777,0.085c-0.063-1.184-0.125-2.327-0.187-3.325c-0.063-0.997-0.125-1.74-0.187-2.177
	C87.898,32.164,83.44,23.377,75.71,16.425C67.979,9.474,58.751,5.991,48.029,5.991c-7.357,0-14.153,1.743-20.387,5.234
	c-6.235,3.492-11.254,8.307-15.056,14.447C8.782,31.813,6.694,38.655,6.32,46.198c0,0.313-0.103,0.545-0.133,0.701
	c-0.032,0.156-0.133,0.342-0.133,0.56c0,0.22,0,0.453,0,0.702c1-0.125,1.201,0.018,1.763,0.018h8.042
	c1.497,0,2.853,0.257,4.068,0.973c1.215,0.718,2.288,1.632,2.975,2.848c0.685,1.216,1.152,2.49,1.152,3.923v20.105
	c0,2.184-0.887,4.154-2.414,5.712c-1.528,1.56-3.536,2.439-5.781,2.439H7.817c-2.183,0-3.96-0.879-5.518-2.439
	c-1.559-1.558-2.245-3.528-2.245-5.712V55.923c0-0.188-0.078-0.374-0.046-0.562c0.031-0.187,0.014-0.374,0.046-0.561
	c0.031-0.188,0-0.374,0-0.562v-1.402c0-1.621,0.155-3.959,0.281-7.014C0.77,37.282,3.171,29.504,7.536,22.49
	c4.363-7.014,10.1-12.515,17.207-16.506C31.851,1.995,39.612,0,48.029,0c6.046,0,11.814,1.061,17.301,3.179
	c5.485,2.121,10.287,5.036,14.401,8.744c4.115,3.71,7.528,8.168,10.24,13.373c2.712,5.206,4.41,10.801,5.097,16.786
	c0.374,3.43,0.667,7.294,0.667,11.596C95.735,53.928,95.779,54.209,95.654,54.52z M7.068,54.209
	c-0.25,0.094-0.467,0.179-0.654,0.366c-0.187,0.188-0.227,0.379-0.32,0.628c-0.094,0.249-0.04,0.472-0.04,0.721v20.105
	c0,0.5,0.086,1.045,0.461,1.45c0.374,0.406,0.741,0.701,1.302,0.701h8.042c0.561,0,1.144-0.295,1.518-0.701
	c0.374-0.405,0.677-0.95,0.677-1.45V55.923c0-0.249-0.162-0.499-0.256-0.748s-0.292-0.468-0.479-0.655
	c-0.187-0.187-0.419-0.217-0.637-0.311c-0.219-0.093-0.512-0.03-0.824-0.03H7.817C7.567,54.179,7.317,54.116,7.068,54.209z
	 M78.054,75.936c0,0.499,0.044,1.091,0.418,1.495c0.374,0.406,0.698,0.748,1.259,0.748h7.949c0.374,0,0.702-0.234,0.982-0.421
	c0.281-0.187,0.72-0.505,0.907-0.818c0.187-0.311,0.485-0.692,0.485-1.004V55.923c0-0.374-0.298-0.701-0.485-0.982
	c-0.187-0.28-0.523-0.404-0.804-0.591c-0.28-0.188-0.71-0.17-1.085-0.17h-7.949c-0.25,0-0.468-0.078-0.655-0.017
	c-0.187,0.063-0.359,0.102-0.514,0.226c-0.156,0.125-0.297,0.238-0.421,0.393c-0.125,0.156-0.076,0.329-0.137,0.547
	c-0.063,0.22,0.05,0.407,0.05,0.595V75.936z"/>
</svg>
