<?xml version="1.0" encoding="iso-8859-1"?>
<!-- Generator: Adobe Illustrator 24.0.1, SVG Export Plug-In . SVG Version: 6.00 Build 0)  -->
<svg version="1.1" id="icon" xmlns="http://www.w3.org/2000/svg" xmlns:xlink="http://www.w3.org/1999/xlink" x="0px" y="0px"
	 viewBox="0 0 95.761 95.762" style="enable-background:new 0 0 95.761 95.762;" xml:space="preserve">
<path d="M81.78,13.981c4.27,4.271,7.668,9.367,10.193,15.29s3.787,12.126,3.787,18.609c0,6.484-1.262,12.688-3.787,18.609
	c-2.525,5.924-5.924,11.021-10.193,15.29c-4.271,4.271-9.368,7.669-15.29,10.193c-5.924,2.525-12.126,3.788-18.61,3.788
	c-6.485,0-12.688-1.263-18.61-3.788c-5.924-2.524-11.021-5.922-15.29-10.193c-4.271-4.27-7.668-9.366-10.193-15.29
	C1.262,60.568,0,54.365,0,47.881c0-6.483,1.262-12.687,3.787-18.609s5.922-11.02,10.193-15.29c4.27-4.27,9.366-7.669,15.29-10.193
	C35.193,1.263,41.396,0,47.88,0c6.483,0,12.686,1.263,18.61,3.788C72.413,6.313,77.509,9.712,81.78,13.981z M64.152,86.456
	c5.174-2.212,9.632-5.189,13.373-8.931c3.741-3.74,6.717-8.197,8.931-13.373c2.212-5.174,3.32-10.598,3.32-16.271
	c0-5.672-1.107-11.097-3.32-16.271c-2.214-5.175-5.19-9.633-8.931-13.373c-3.74-3.741-8.199-6.718-13.373-8.931
	c-5.176-2.213-10.6-3.32-16.272-3.32c-5.674,0-11.098,1.107-16.272,3.32c-5.176,2.213-9.632,5.189-13.373,8.931
	c-3.741,3.74-6.718,8.198-8.931,13.373c-2.214,5.175-3.32,10.6-3.32,16.271c0,4.552,0.701,8.963,2.104,13.232
	c1.403,4.271,3.397,8.121,5.985,11.55c2.586,3.429,5.595,6.438,9.024,9.024c3.428,2.588,7.278,4.582,11.549,5.984
	c4.27,1.403,8.681,2.104,13.233,2.104C53.553,89.776,58.977,88.67,64.152,86.456z M73.878,57.279
	c0.249,0.219,0.436,0.468,0.561,0.748c0.125,0.28,0.234,0.562,0.328,0.842c0.093,0.28,0.124,0.593,0.093,0.936
	c-0.032,0.343-0.14,0.64-0.327,0.888c-0.25,0.562-0.608,1.263-1.076,2.104c-0.467,0.842-1.465,2.229-2.992,4.161
	c-1.529,1.934-3.227,3.633-5.097,5.097c-1.871,1.466-4.396,2.806-7.575,4.021s-6.546,1.823-10.1,1.823
	c-0.187,0.063-0.313,0.094-0.374,0.094c-1.933,0-3.82-0.201-5.658-0.607c-1.84-0.405-3.492-0.919-4.957-1.543
	c-1.466-0.623-2.868-1.371-4.208-2.245c-1.341-0.872-2.51-1.744-3.507-2.618c-0.998-0.872-1.949-1.808-2.852-2.806
	c-0.904-0.996-1.622-1.885-2.151-2.665c-0.53-0.779-1.045-1.558-1.543-2.338c-0.5-0.779-0.827-1.324-0.982-1.637
	c-0.156-0.312-0.266-0.561-0.327-0.748c-0.375-0.81-0.421-1.59-0.141-2.338c0.281-0.748,0.81-1.293,1.59-1.637
	c0.779-0.342,1.543-0.374,2.291-0.094c0.749,0.281,1.31,0.795,1.684,1.544c0.062,0.187,0.187,0.437,0.374,0.748
	c0.187,0.313,0.498,0.841,0.935,1.59c0.436,0.748,0.966,1.496,1.59,2.244c0.623,0.748,1.356,1.575,2.198,2.478
	c0.841,0.905,1.808,1.73,2.899,2.479c1.09,0.748,2.259,1.449,3.507,2.104c1.247,0.654,2.68,1.169,4.302,1.543
	c1.621,0.374,3.304,0.561,5.05,0.561c0.125-0.061,0.218-0.093,0.281-0.093c2.057,0,4.036-0.265,5.938-0.795
	c1.901-0.529,3.537-1.169,4.909-1.917c1.371-0.749,2.68-1.637,3.928-2.666c1.247-1.028,2.245-1.979,2.993-2.852
	s1.434-1.777,2.058-2.712c0.622-0.936,1.012-1.558,1.169-1.871c0.155-0.311,0.295-0.592,0.42-0.841
	c0.312-0.749,0.856-1.263,1.637-1.544c0.779-0.28,1.543-0.264,2.291,0.047C73.348,56.891,73.628,57.062,73.878,57.279z
	 M26.933,38.903c0-1.62,0.576-3.023,1.73-4.208c1.153-1.184,2.572-1.777,4.255-1.777c1.06,0,2.042,0.267,2.946,0.795
	c0.903,0.53,1.621,1.263,2.151,2.198c0.529,0.935,0.795,1.933,0.795,2.992c0,1.622-0.577,3.024-1.73,4.208
	c-1.154,1.186-2.557,1.777-4.208,1.777c-1.653,0-3.056-0.592-4.208-1.777C27.508,41.928,26.933,40.525,26.933,38.903z
	 M58.588,43.111c-1.154-1.184-1.73-2.586-1.73-4.208c0-1.62,0.576-3.023,1.73-4.208c1.153-1.184,2.556-1.777,4.208-1.777
	c1.651,0,3.054,0.594,4.208,1.777c1.153,1.185,1.73,2.588,1.73,4.208c0,0.437-0.046,0.889-0.14,1.355
	c-0.093,0.468-0.234,0.889-0.421,1.263s-0.421,0.733-0.701,1.076c-0.281,0.343-0.593,0.654-0.935,0.935
	c-0.344,0.28-0.718,0.515-1.123,0.701c-0.406,0.188-0.827,0.344-1.262,0.468c-0.437,0.126-0.874,0.188-1.31,0.188
	C61.16,44.889,59.741,44.297,58.588,43.111z"/>
</svg>
