<?xml version="1.0" encoding="iso-8859-1"?>
<!-- Generator: Adobe Illustrator 24.0.1, SVG Export Plug-In . SVG Version: 6.00 Build 0)  -->
<svg version="1.1" id="Layer_1" xmlns="http://www.w3.org/2000/svg" xmlns:xlink="http://www.w3.org/1999/xlink" x="0px" y="0px"
	 viewBox="0 0 63.199 95.574" style="enable-background:new 0 0 63.199 95.574;" xml:space="preserve">
<path d="M39.362,0c0.061,0,0.108,0,0.14,0c0.031,0,0.078,0,0.14,0c0.499,0,0.997,0.079,1.497,0.233
	c0.498,0.157,0.966,0.36,1.402,0.608c0.436,0.25,0.826,0.562,1.169,0.936c0.342,0.374,0.638,0.78,0.888,1.215
	c0.249,0.438,0.452,0.905,0.608,1.403c0.155,0.5,0.234,1.028,0.234,1.59c0,0.25-0.016,0.483-0.047,0.701
	c-0.032,0.219-0.079,0.453-0.14,0.701l-5.424,28.148H57.13c2.432,0,4.208,1.092,5.331,3.273c1.122,2.183,0.966,4.271-0.468,6.266
	L28.42,93.143c-1.248,1.621-2.775,2.432-4.583,2.432c-0.437,0-0.858-0.032-1.263-0.094c-0.406-0.063-0.794-0.187-1.169-0.374
	c-1.248-0.561-2.213-1.449-2.899-2.665c-0.687-1.216-0.904-2.511-0.654-3.881l5.517-32.076l-17.3-0.094
	c-0.437,0-0.874-0.047-1.31-0.141c-0.437-0.093-0.857-0.233-1.262-0.421c-0.406-0.187-0.78-0.42-1.122-0.701
	c-0.344-0.28-0.655-0.592-0.936-0.935c-0.28-0.342-0.514-0.702-0.701-1.076c-1.122-2.182-0.967-4.27,0.468-6.266L34.779,2.525
	c0.062-0.062,0.108-0.125,0.14-0.188c0.031-0.062,0.078-0.124,0.141-0.187c0.374-0.436,0.795-0.81,1.262-1.123
	c0.468-0.311,0.889-0.545,1.263-0.701c0.374-0.154,0.81-0.265,1.309-0.327c0.124,0,0.218,0,0.281,0C39.236,0,39.299,0,39.362,0z
	 M6.07,50.499l24.501,0.094l-6.733,38.996L57.13,41.521l-24.501-0.094l6.733-35.442L6.07,50.499z"/>
</svg>
