<?xml version="1.0" encoding="iso-8859-1"?>
<!-- Generator: Adobe Illustrator 24.0.1, SVG Export Plug-In . SVG Version: 6.00 Build 0)  -->
<svg version="1.1" id="icon" xmlns="http://www.w3.org/2000/svg" xmlns:xlink="http://www.w3.org/1999/xlink" x="0px" y="0px"
	 viewBox="0 0 95.761 95.762" style="enable-background:new 0 0 95.761 95.762;" xml:space="preserve">
<path d="M95.761,44.701c0,0.126,0,0.25,0,0.374v44.701c0,1.06-0.266,2.058-0.795,2.992c-0.53,0.936-1.262,1.668-2.197,2.198
	c-0.936,0.528-1.934,0.795-2.993,0.795H5.985c-1.622,0-3.025-0.577-4.208-1.73C0.591,92.877,0,91.46,0,89.776V44.981
	c0-0.685,0.171-1.387,0.514-2.104c0.342-0.716,0.701-1.293,1.075-1.73c0.374-0.436,0.749-0.842,1.123-1.216L41.708,2.525
	C43.392,0.842,45.51,0,48.067,0c2.556,0,4.676,0.842,6.359,2.525l38.997,37.688c0.187,0.187,0.374,0.374,0.561,0.561
	c0.187,0.188,0.342,0.374,0.468,0.562l0.093,0.094c0.188,0.187,0.342,0.39,0.468,0.607c0.124,0.219,0.234,0.453,0.327,0.701
	c0.094,0.25,0.171,0.5,0.234,0.748c0.062,0.25,0.094,0.5,0.094,0.748C95.729,44.421,95.761,44.577,95.761,44.701z M5.985,50.967
	v34.695L25.25,67.894L5.985,50.967z M9.539,41.429l-2.525,2.431l22.631,20.013l11.783-10.848c1.184-0.997,2.525-1.651,4.021-1.964
	c1.497-0.312,2.96-0.312,4.396,0c1.434,0.313,2.712,0.936,3.834,1.87l12.718,11.315l22.631-20.105l-5.144-5.144h0.093L50.218,6.733
	c-0.624-0.561-1.341-0.842-2.151-0.842c-0.811,0-1.528,0.281-2.151,0.842L9.726,41.429H9.539z M10.287,89.776h75.468l-35.91-32.264
	c-0.624-0.498-1.372-0.748-2.245-0.748c-0.874,0-1.652,0.281-2.338,0.842L32.076,69.764l-0.094,0.094
	c-0.187,0.187-0.374,0.374-0.561,0.561L10.287,89.776z M89.776,85.381V51.528L70.792,68.361L89.776,85.381z"/>
</svg>
