<?xml version="1.0" encoding="iso-8859-1"?>
<!-- Generator: Adobe Illustrator 24.0.1, SVG Export Plug-In . SVG Version: 6.00 Build 0)  -->
<svg version="1.1" id="icon" xmlns="http://www.w3.org/2000/svg" xmlns:xlink="http://www.w3.org/1999/xlink" x="0px" y="0px"
	 viewBox="0 0 95.761 65.836" style="enable-background:new 0 0 95.761 65.836;" xml:space="preserve">
<path d="M95.761,7.014c0,0.188,0,0.344,0,0.468v47.881c0,2.744-0.67,5.175-2.01,7.294c-1.342,2.12-3.165,3.18-5.471,3.18H10.474
	c-2.494,0-4.863-1.122-7.107-3.366C1.122,60.225,0,57.856,0,55.362V7.481c0-0.124,0-0.248,0-0.374c0-0.124,0.03-0.248,0.093-0.374
	c-0.187-0.936,0.031-1.745,0.655-2.432c0.124-0.124,0.28-0.28,0.467-0.468C2.088,2.65,3.381,1.716,5.096,1.028
	C6.811,0.344,8.604,0,10.474,0h77.806c4.052,0,6.453,1.684,7.201,5.05c0.061,0.188,0.124,0.374,0.187,0.562
	c0.061,0.187,0.093,0.374,0.093,0.561c0,0.188-0.032,0.374-0.093,0.562C95.729,6.796,95.761,6.89,95.761,7.014z M89.776,55.736
	c0-0.188,0-0.312,0-0.374V12.531l-39.932,31.89c-0.561,0.437-1.216,0.687-1.964,0.748c-0.748,0-1.403-0.249-1.964-0.748
	L5.985,12.531v42.831c0,0.561,0.249,1.201,0.748,1.917c0.499,0.717,1.106,1.325,1.824,1.823c0.716,0.5,1.356,0.748,1.917,0.748
	h77.806C89.276,59.851,89.776,58.48,89.776,55.736z M7.575,6.079L47.88,38.248L88.279,5.985H10.474
	C9.039,5.985,8.073,6.018,7.575,6.079z"/>
</svg>
