<?xml version="1.0" encoding="iso-8859-1"?>
<!-- Generator: Adobe Illustrator 24.0.1, SVG Export Plug-In . SVG Version: 6.00 Build 0)  -->
<svg version="1.1" id="Layer_1" xmlns="http://www.w3.org/2000/svg" xmlns:xlink="http://www.w3.org/1999/xlink" x="0px" y="0px"
	 viewBox="0 0 95.761 95.761" style="enable-background:new 0 0 95.761 95.761;" xml:space="preserve">
<path d="M95.761,44.7c0,0.126,0,0.25,0,0.374v44.701c0,1.06-0.266,2.058-0.795,2.992c-0.53,0.936-1.262,1.668-2.197,2.198
	c-0.936,0.528-1.934,0.795-2.993,0.795H5.985c-1.622,0-3.025-0.577-4.208-1.73C0.591,92.876,0,91.459,0,89.776V44.981
	c0-2.181,0.903-3.864,2.712-5.05l15.243-15.243v-9.819c0-0.81,0.295-1.511,0.888-2.104c0.592-0.592,1.293-0.889,2.104-0.889h9.913
	l10.848-9.352c0.686-0.686,1.45-1.23,2.292-1.637c0.841-0.404,1.73-0.669,2.665-0.795c0.935-0.124,1.871-0.124,2.806,0
	c0.935,0.126,1.823,0.391,2.665,0.795c0.842,0.406,1.604,0.951,2.291,1.637l10.942,9.352h9.445c0.81,0,1.511,0.297,2.104,0.889
	c0.592,0.593,0.888,1.294,0.888,2.104v9.633l15.617,15.711c0.187,0.187,0.374,0.374,0.561,0.561
	c0.187,0.188,0.342,0.374,0.468,0.562l0.093,0.094c0.188,0.187,0.342,0.39,0.468,0.607c0.124,0.219,0.234,0.453,0.327,0.701
	c0.094,0.25,0.171,0.5,0.234,0.748c0.062,0.25,0.094,0.5,0.094,0.748C95.729,44.42,95.761,44.576,95.761,44.7z M5.985,50.966v34.695
	l19.171-17.769L5.985,50.966z M9.539,41.428l-2.525,2.431l10.941,9.633V33.198l-8.229,8.229H9.539z M10.287,89.776h75.468
	l-35.91-32.544c-0.624-0.498-1.372-0.748-2.245-0.748c-0.874,0-1.652,0.28-2.338,0.842l-12.905,11.97
	c-0.063,0.126-0.125,0.234-0.187,0.327c-0.063,0.094-0.125,0.173-0.187,0.234c-0.313,0.374-0.655,0.654-1.029,0.842L10.287,89.776z
	 M23.94,17.862v40.96l5.611,4.956l11.876-11.034c0.374-0.312,0.795-0.592,1.262-0.842c0.468-0.249,0.919-0.468,1.356-0.655
	c0.436-0.187,0.903-0.342,1.403-0.467c0.499-0.125,0.982-0.202,1.45-0.234c0.468-0.03,0.95-0.03,1.45,0
	c0.498,0.032,0.981,0.109,1.449,0.234s0.919,0.266,1.356,0.421c0.436,0.156,0.873,0.359,1.309,0.607
	c0.436,0.25,0.842,0.53,1.216,0.842L66.49,64.245l5.331-4.77V17.862H23.94z M39.932,11.876h16.271l-5.985-5.144
	c-0.313-0.248-0.655-0.451-1.029-0.607c-0.374-0.155-0.748-0.234-1.122-0.234c-0.811,0-1.528,0.281-2.151,0.842L39.932,11.876z
	 M89.776,85.286V51.528L70.885,68.267L89.776,85.286z M77.806,32.823v21.322L89.028,44.14l-5.144-5.144h0.093L77.806,32.823z"/>
</svg>
