<?xml version="1.0" encoding="iso-8859-1"?>
<!-- Generator: Adobe Illustrator 24.0.1, SVG Export Plug-In . SVG Version: 6.00 Build 0)  -->
<svg version="1.1" id="Layer_1" xmlns="http://www.w3.org/2000/svg" xmlns:xlink="http://www.w3.org/1999/xlink" x="0px" y="0px"
	 viewBox="0 0 95.904 95.905" style="enable-background:new 0 0 95.904 95.905;" xml:space="preserve">
<g>
	<path d="M21.447,40.601c1.687,2.154,2.529,4.605,2.529,7.352c0,2.748-0.843,5.198-2.529,7.352c-1.686,2.154-3.84,3.575-6.462,4.261
		v33.342c0,0.811-0.297,1.513-0.89,2.107c-0.595,0.592-1.297,0.89-2.107,0.89c-0.813,0-1.515-0.297-2.107-0.89
		c-0.594-0.594-0.89-1.297-0.89-2.107V59.566c-2.622-0.687-4.776-2.107-6.462-4.261C0.843,53.15,0,50.701,0,47.953
		c0-2.747,0.843-5.198,2.529-7.352c1.686-2.154,3.84-3.574,6.462-4.262V2.997c0-0.811,0.296-1.513,0.89-2.107
		C10.474,0.297,11.176,0,11.988,0c0.811,0,1.513,0.297,2.107,0.89c0.593,0.594,0.89,1.297,0.89,2.107v33.342
		C17.607,37.027,19.762,38.446,21.447,40.601z M15.032,53.15c0.904-0.53,1.623-1.264,2.154-2.201
		c0.529-0.937,0.796-1.935,0.796-2.997c0-1.623-0.578-3.028-1.732-4.215c-1.156-1.185-2.576-1.779-4.262-1.779
		s-3.106,0.594-4.262,1.779c-1.156,1.187-1.732,2.592-1.732,4.215c0,1.624,0.576,3.029,1.732,4.214
		c1.155,1.187,2.576,1.779,4.262,1.779C13.112,53.946,14.126,53.682,15.032,53.15z M57.412,58.583
		c1.686,2.154,2.528,4.605,2.528,7.352c0,1.124-0.141,2.201-0.422,3.231c-0.28,1.03-0.688,1.999-1.217,2.903
		c-0.531,0.906-1.171,1.718-1.92,2.435c-0.75,0.719-1.593,1.344-2.529,1.874c-0.937,0.531-1.905,0.922-2.903,1.17v15.36
		c0,0.811-0.297,1.513-0.89,2.107c-0.594,0.592-1.297,0.89-2.107,0.89c-0.812,0-1.515-0.297-2.107-0.89
		c-0.594-0.594-0.89-1.297-0.89-2.107v-15.36c-2.622-0.686-4.776-2.107-6.462-4.261c-1.686-2.154-2.529-4.604-2.529-7.352
		c0-2.747,0.844-5.198,2.529-7.352c1.686-2.154,3.84-3.574,6.462-4.261V2.997c0-0.811,0.296-1.513,0.89-2.107
		C46.438,0.297,47.141,0,47.952,0c0.811,0,1.514,0.297,2.107,0.89c0.593,0.594,0.89,1.297,0.89,2.107v51.324
		C53.572,55.009,55.726,56.428,57.412,58.583z M52.214,70.149c1.154-1.185,1.732-2.59,1.732-4.214c0-1.623-0.578-3.028-1.732-4.215
		c-1.156-1.185-2.575-1.779-4.262-1.779c-1.686,0-3.106,0.594-4.261,1.779c-1.156,1.187-1.733,2.592-1.733,4.215
		c0,0.562,0.078,1.093,0.234,1.592c0.155,0.5,0.358,0.969,0.609,1.405c0.248,0.438,0.545,0.843,0.89,1.217
		c0.342,0.375,0.732,0.688,1.17,0.937c0.437,0.25,0.921,0.454,1.452,0.609c0.529,0.157,1.077,0.234,1.639,0.234
		C49.639,71.929,51.058,71.336,52.214,70.149z M93.376,22.618c1.686,2.154,2.528,4.605,2.528,7.352c0,1.374-0.219,2.702-0.655,3.98
		c-0.438,1.28-1.063,2.42-1.873,3.418c-0.813,1-1.765,1.873-2.856,2.623c-1.093,0.749-2.295,1.28-3.605,1.592v51.324
		c0,0.811-0.298,1.513-0.891,2.107c-0.594,0.592-1.296,0.89-2.106,0.89c-0.813,0-1.515-0.297-2.107-0.89
		c-0.595-0.594-0.89-1.297-0.89-2.107V41.584c-2.623-0.687-4.776-2.107-6.463-4.262c-1.686-2.154-2.528-4.604-2.528-7.352
		c0-2.747,0.843-5.198,2.528-7.352c1.687-2.154,3.84-3.574,6.463-4.261V2.997c0-0.436,0.077-0.827,0.233-1.17
		c0.155-0.343,0.375-0.656,0.656-0.937c0.28-0.281,0.608-0.499,0.983-0.655C83.167,0.079,83.542,0,83.917,0
		c0.811,0,1.513,0.297,2.106,0.89c0.593,0.594,0.891,1.297,0.891,2.107v15.36C89.536,19.044,91.69,20.464,93.376,22.618z
		 M86.961,35.168c0.904-0.53,1.622-1.265,2.153-2.201c0.53-0.937,0.797-1.935,0.797-2.997c0-1.623-0.578-3.028-1.733-4.214
		c-1.156-1.186-2.575-1.78-4.261-1.78c-1.687,0-3.107,0.594-4.262,1.78c-1.156,1.187-1.732,2.591-1.732,4.214
		c0,0.813,0.155,1.592,0.468,2.341c0.312,0.75,0.733,1.391,1.265,1.92c0.529,0.531,1.171,0.953,1.92,1.264
		c0.749,0.313,1.529,0.468,2.342,0.468C85.04,35.964,86.055,35.7,86.961,35.168z"/>
</g>
</svg>
