<?xml version="1.0" encoding="iso-8859-1"?>
<!-- Generator: Adobe Illustrator 24.0.1, SVG Export Plug-In . SVG Version: 6.00 Build 0)  -->
<svg version="1.1" id="icon" xmlns="http://www.w3.org/2000/svg" xmlns:xlink="http://www.w3.org/1999/xlink" x="0px" y="0px"
	 viewBox="0 0 95.761 95.762" style="enable-background:new 0 0 95.761 95.762;" xml:space="preserve">
<path d="M14.027,81.734C4.676,72.382,0,61.099,0,47.881C0,34.664,4.676,23.38,14.027,14.028C23.379,4.676,34.663,0,47.88,0
	c13.217,0,24.501,4.676,33.853,14.028c9.352,9.352,14.028,20.636,14.028,33.853c0,13.218-4.676,24.501-14.028,33.854
	c-9.352,9.352-20.636,14.027-33.853,14.027C34.663,95.762,23.379,91.086,14.027,81.734z M77.525,77.479
	c8.229-8.197,12.344-18.063,12.344-29.598c0-11.533-4.115-21.399-12.344-29.598C69.296,10.086,59.414,5.985,47.88,5.985
	c-11.535,0-21.4,4.101-29.598,12.298C10.083,26.481,5.985,36.348,5.985,47.881c0,11.535,4.099,21.4,12.298,29.598
	c8.197,8.199,18.063,12.298,29.598,12.298C59.414,89.776,69.296,85.678,77.525,77.479z M44.888,63.03V17.955
	c0-0.872,0.28-1.589,0.841-2.15c0.562-0.562,1.277-0.842,2.151-0.842c0.873,0,1.59,0.28,2.151,0.842
	c0.562,0.562,0.842,1.278,0.842,2.15V63.03H44.888z M44.888,68.922h5.985v5.611h-5.985V68.922z"/>
</svg>
