<?xml version="1.0" encoding="iso-8859-1"?>
<!-- Generator: Adobe Illustrator 24.0.1, SVG Export Plug-In . SVG Version: 6.00 Build 0)  -->
<svg version="1.1" id="Layer_1" xmlns="http://www.w3.org/2000/svg" xmlns:xlink="http://www.w3.org/1999/xlink" x="0px" y="0px"
	 viewBox="0 0 96.092 66.122" style="enable-background:new 0 0 96.092 66.122;" xml:space="preserve">
<g>
	<path d="M96.092,33.154c0,0.188-0.032,0.468-0.094,0.843l-0.094,0.187c0,0.126,0,0.22,0,0.281c-0.063,0.063-0.093,0.109-0.093,0.14
		c0,0.032,0,0.079,0,0.141c0,0.063-0.032,0.094-0.094,0.094c-2.81,6.556-6.713,12.208-11.707,16.952
		c-4.996,4.746-10.569,8.321-16.718,10.724c-6.151,2.405-12.566,3.606-19.247,3.606c-10.24,0-19.684-2.763-28.331-8.289
		C11.066,52.307,4.59,44.644,0.281,34.84c0-0.062,0-0.155,0-0.281c-0.063-0.061-0.094-0.124-0.094-0.187c0-0.062,0-0.125,0-0.188
		c-0.063-0.125-0.094-0.218-0.094-0.281c0-0.125-0.016-0.249-0.047-0.375C0.015,33.405,0,33.28,0,33.154
		c0-0.187,0.031-0.468,0.094-0.843l0.094-0.188c0-0.124,0-0.218,0-0.281c0.062-0.062,0.094-0.108,0.094-0.141
		c0-0.031,0-0.108,0-0.234c2.871-6.556,6.821-12.222,11.848-16.999c5.025-4.776,10.63-8.382,16.812-10.817
		C35.121,1.217,41.552,0,48.233,0c10.177,0,19.574,2.795,28.19,8.382c8.617,5.588,15.047,13.285,19.294,23.086
		c0.062,0.063,0.094,0.156,0.094,0.281c0.062,0.063,0.093,0.126,0.093,0.188c0,0.063,0.015,0.141,0.047,0.234
		c0.031,0.094,0.047,0.173,0.047,0.234L96.092,33.154z M54.415,59.706c2.122-0.281,4.198-0.702,6.228-1.264
		c2.028-0.562,4.027-1.279,5.994-2.154c1.967-0.874,3.871-1.857,5.714-2.95c1.841-1.092,3.605-2.356,5.291-3.793
		c1.686-1.436,3.262-2.981,4.729-4.636c1.467-1.653,2.841-3.465,4.121-5.432c1.279-1.967,2.419-4.074,3.419-6.322
		c-2.623-5.807-6.151-10.785-10.584-14.938c-4.434-4.152-9.288-7.226-14.563-9.225c-5.276-1.998-10.786-2.997-16.53-2.997
		c-8.866,0-17.108,2.357-24.726,7.071C15.89,17.78,10.115,24.477,6.182,33.154c3.934,8.68,9.678,15.345,17.232,19.996
		c7.555,4.652,15.766,6.977,24.632,6.977C50.168,60.127,52.291,59.987,54.415,59.706z M61.064,20.464
		c3.496,3.528,5.245,7.759,5.245,12.69c0,3.311-0.797,6.338-2.389,9.085c-1.592,2.748-3.763,4.917-6.509,6.509
		c-2.748,1.592-5.776,2.388-9.085,2.388c-2.436,0-4.762-0.468-6.978-1.405c-2.217-0.937-4.121-2.201-5.713-3.793
		c-1.592-1.592-2.873-3.512-3.84-5.76c-0.969-2.248-1.452-4.589-1.452-7.024s0.483-4.76,1.452-6.977
		c0.967-2.216,2.248-4.121,3.84-5.713s3.496-2.871,5.713-3.84c2.216-0.967,4.542-1.452,6.978-1.452
		C53.321,15.172,57.567,16.937,61.064,20.464z M56.756,41.583c2.31-2.372,3.466-5.212,3.466-8.522c0-3.309-1.171-6.135-3.513-8.476
		c-2.341-2.341-5.167-3.512-8.476-3.512c-1.624,0-3.17,0.313-4.636,0.937c-1.468,0.625-2.748,1.484-3.84,2.576
		c-1.094,1.093-1.952,2.374-2.576,3.84c-0.625,1.468-0.937,3.013-0.937,4.636c0,2.186,0.546,4.2,1.64,6.041
		c1.092,1.842,2.575,3.31,4.448,4.402c1.873,1.093,3.871,1.639,5.994,1.639C51.636,45.143,54.445,43.957,56.756,41.583z"/>
</g>
</svg>
