<?xml version="1.0" encoding="iso-8859-1"?>
<!-- Generator: Adobe Illustrator 24.0.1, SVG Export Plug-In . SVG Version: 6.00 Build 0)  -->
<svg version="1.1" id="icon" xmlns="http://www.w3.org/2000/svg" xmlns:xlink="http://www.w3.org/1999/xlink" x="0px" y="0px"
	 viewBox="0 0 96.563 71.82" style="enable-background:new 0 0 96.563 71.82;" xml:space="preserve">
<path d="M96.341,50.031c0,0.063,0.015,0.203,0.047,0.421c0.031,0.219,0.047,0.39,0.047,0.515c0,5.736-2.043,10.646-6.125,14.729
	c-4.084,4.084-9.024,6.125-14.822,6.125c-5.798,0-10.771-2.041-14.916-6.125c-4.147-4.083-6.219-8.992-6.219-14.729
	c0-0.873,0.047-1.745,0.14-2.619c0.094-0.872,0.265-1.714,0.514-2.524c-0.811-0.312-1.776-0.576-2.899-0.795
	c-1.122-0.218-2.338-0.327-3.647-0.327c-0.998,0-1.949,0.078-2.853,0.233c-0.904,0.156-1.622,0.313-2.151,0.468
	c-0.53,0.156-1.044,0.327-1.543,0.514c0.436,1.684,0.655,3.367,0.655,5.051c0,5.736-2.043,10.646-6.125,14.729
	c-4.084,4.084-9.024,6.125-14.822,6.125c-5.737,0-10.936-2.041-15.112-6.125C2.331,61.612,0,56.703,0,50.967c0-0.188,0-0.623,0-1.31
	c0-0.312,0.182-0.592,0.243-0.842l5.545-34.228l0.155-1.215l0.124-0.188c0.125-0.936,0.249-1.684,0.343-2.244
	c0.093-0.562,0.288-1.356,0.569-2.385c0.28-1.028,0.642-1.87,1.079-2.525c0.436-0.654,1.045-1.402,1.826-2.244
	c0.779-0.842,1.668-1.511,2.666-2.011c0.997-0.498,2.276-0.919,3.835-1.263C17.941,0.172,19.657,0,21.527,0
	c0.81,0,1.511,0.296,2.105,0.888c0.592,0.594,0.888,1.295,0.888,2.104c0,0.812-0.296,1.513-0.888,2.104
	c-0.593,0.593-1.295,0.888-2.104,0.888c-1.372,0-2.571,0.079-3.6,0.234c-1.029,0.156-1.871,0.437-2.525,0.842
	c-0.655,0.406-1.185,0.795-1.59,1.169c-0.406,0.374-0.733,0.935-0.982,1.683c-0.25,0.749-0.421,1.356-0.514,1.824
	c-0.094,0.468-0.203,1.201-0.328,2.197l-0.187,1.59c-0.063,0.188-0.514,2.604-1.356,7.248s-1.512,8.619-2.011,11.923
	c3.865-3.116,8.26-4.676,13.186-4.676c2.556,0,4.987,0.437,7.294,1.31c2.306,0.873,4.363,2.073,6.172,3.601
	c1.808,1.528,3.334,3.319,4.583,5.377c2.618-1.06,5.548-1.59,8.791-1.59c1.808,0,3.46,0.156,4.957,0.468
	c1.496,0.313,2.805,0.687,3.928,1.122c1.932-3.117,4.503-5.611,7.715-7.481c3.21-1.87,6.687-2.806,10.427-2.806
	c0.935,0,1.87,0.063,2.805,0.188c0.936,0.125,1.838,0.313,2.712,0.561c0.872,0.25,1.73,0.547,2.571,0.889
	c0.842,0.344,1.637,0.733,2.385,1.169c0.748,0.437,1.464,0.936,2.151,1.496c-0.5-3.304-1.169-7.231-2.01-11.783
	c-0.842-4.55-1.263-6.888-1.263-7.014c-0.063-0.312-0.125-0.842-0.187-1.59c-0.187-1.184-0.327-2.058-0.421-2.618
	c-0.093-0.562-0.343-1.246-0.748-2.058c-0.406-0.81-0.92-1.402-1.543-1.776c-0.624-0.374-1.512-0.717-2.666-1.029
	c-1.154-0.311-2.541-0.468-4.161-0.468c-0.874,0-1.59-0.295-2.151-0.888c-0.561-0.592-0.842-1.293-0.842-2.104
	c0-0.81,0.281-1.511,0.842-2.104C73.523,0.296,74.239,0,75.113,0c1.62,0,3.133,0.125,4.536,0.374c1.402,0.25,2.602,0.607,3.6,1.075
	c0.997,0.468,1.871,0.951,2.619,1.449c0.748,0.5,1.387,1.154,1.917,1.964c0.529,0.812,0.95,1.513,1.263,2.104
	c0.311,0.593,0.576,1.342,0.794,2.244c0.218,0.904,0.587,1.59,0.65,2.058C90.552,11.736,90,12.376,91,13.186v0.188
	c0,0.499-0.042,0.904-0.042,1.215c3.802,22.818,5.59,34.29,5.59,34.415C96.61,49.315,96.465,49.657,96.341,50.031z M32.188,61.487
	c2.93-2.899,4.396-6.406,4.396-10.521c0-2.743-0.671-5.252-2.011-7.528c-1.341-2.275-3.149-4.083-5.424-5.424
	c-2.277-1.34-4.786-2.011-7.528-2.011c-4.115,0-7.668,1.481-10.661,4.441c-2.992,2.962-4.489,6.453-4.489,10.475
	c0,4.021,1.497,7.513,4.489,10.474c2.993,2.962,6.546,4.442,10.661,4.442S29.257,64.386,32.188,61.487z M81.331,64.667
	c1.838-0.779,3.414-1.839,4.723-3.18c1.309-1.34,2.369-2.93,3.18-4.77c0.809-1.838,1.215-3.756,1.215-5.751
	c0-0.062-0.116-0.343-0.178-0.842C90.208,49.876,90,49.626,90,49.377c0-0.125,0-0.249,0-0.374s0.031-0.265,0-0.421
	c-0.032-0.155,0-0.296,0-0.421c0-0.124,0-0.281,0-0.468c0-2.182-1.412-4.161-2.815-5.938c-1.403-1.776-3.099-3.18-5.125-4.208
	c-2.027-1.029-4.215-1.543-6.583-1.543c-4.115,0-7.664,1.481-10.656,4.441c-2.992,2.962-4.486,6.453-4.486,10.475
	c0,4.021,1.498,7.513,4.49,10.474c2.993,2.962,6.547,4.442,10.662,4.442C77.543,65.836,79.492,65.447,81.331,64.667z"/>
</svg>
