<?xml version="1.0" encoding="iso-8859-1"?>
<!-- Generator: Adobe Illustrator 24.0.1, SVG Export Plug-In . SVG Version: 6.00 Build 0)  -->
<svg version="1.1" id="icon" xmlns="http://www.w3.org/2000/svg" xmlns:xlink="http://www.w3.org/1999/xlink" x="0px" y="0px"
	 viewBox="0 0 95.155 95.342" style="enable-background:new 0 0 95.155 95.342;" xml:space="preserve">
<g>
	<path d="M33.717,78.438c0,4.652-1.639,8.632-4.917,11.941c-3.278,3.309-7.259,4.964-11.941,4.964
		c-4.683,0-8.663-1.655-11.941-4.964C1.639,87.07,0,83.089,0,78.438c0-4.651,1.639-8.631,4.917-11.941
		c3.278-3.309,7.258-4.964,11.941-4.964c4.683,0,8.663,1.655,11.941,4.964C32.078,69.806,33.717,73.787,33.717,78.438z
		 M23.133,87.475c3.122-2.185,4.683-5.212,4.683-9.084c0-1.935-0.484-3.761-1.452-5.479c-0.969-1.716-2.294-3.059-3.98-4.027
		c-1.686-0.967-3.528-1.452-5.526-1.452c-2.997,0-5.573,1.077-7.727,3.231C6.978,72.818,5.9,75.41,5.9,78.438
		c0,3.029,1.077,5.619,3.231,7.773c2.154,2.154,4.729,3.231,7.727,3.231C19.106,89.442,21.197,88.787,23.133,87.475z M32.031,3.09
		c7.43,2.061,14.283,4.933,20.558,8.617c6.275,3.685,12.065,8.18,17.374,13.486c5.306,5.308,9.802,11.099,13.486,17.374
		c3.684,6.275,6.556,13.128,8.617,20.558c2.06,7.431,3.09,15.048,3.09,22.852c0,0.375-0.079,0.766-0.234,1.171
		c-0.157,0.407-0.375,0.735-0.656,0.983c-0.281,0.25-0.609,0.468-0.983,0.656c-0.375,0.187-0.749,0.281-1.124,0.281
		c-0.875,0-1.608-0.312-2.201-0.937c-0.594-0.624-0.89-1.342-0.89-2.154c0-5.432-0.547-10.785-1.639-16.062
		c-1.093-5.275-2.639-10.27-4.636-14.985c-1.999-4.714-4.464-9.24-7.398-13.581c-2.936-4.339-6.182-8.289-9.741-11.847
		c-3.559-3.559-7.508-6.805-11.847-9.741c-4.341-2.934-8.867-5.4-13.581-7.398c-4.715-1.998-9.709-3.543-14.985-4.636
		C19.964,6.635,14.61,6.087,9.179,6.087c-0.813,0-1.531-0.295-2.154-0.89C6.399,4.605,6.088,3.872,6.088,2.997
		c0-0.375,0.094-0.75,0.281-1.124C6.556,1.499,6.774,1.17,7.024,0.89c0.249-0.281,0.562-0.499,0.937-0.656
		C8.335,0.079,8.741,0,9.179,0C16.983,0,24.6,1.03,32.031,3.09z M31.235,34.84c6.837,2.81,12.69,6.666,17.561,11.566
		c4.87,4.902,8.71,10.787,11.52,17.654c2.81,6.869,4.215,14.236,4.215,22.103c0,0.438-0.079,0.843-0.234,1.218
		c-0.157,0.375-0.375,0.702-0.655,0.983c-0.281,0.281-0.609,0.5-0.983,0.655c-0.375,0.157-0.782,0.234-1.218,0.234
		c-0.875,0-1.608-0.296-2.201-0.89c-0.594-0.593-0.89-1.326-0.89-2.201c0-5.619-0.781-10.958-2.341-16.015
		c-1.562-5.058-3.825-9.6-6.79-13.627c-2.966-4.027-6.448-7.523-10.443-10.489c-3.997-2.965-8.539-5.245-13.627-6.837
		c-5.09-1.592-10.412-2.388-15.968-2.388c-0.562,0-1.077-0.141-1.545-0.421c-0.468-0.281-0.843-0.656-1.124-1.124
		s-0.421-0.983-0.421-1.545c0-0.874,0.295-1.607,0.89-2.201c0.593-0.592,1.326-0.89,2.201-0.89
		C17.045,30.625,24.398,32.03,31.235,34.84z"/>
</g>
</svg>
