<?xml version="1.0" encoding="iso-8859-1"?>
<!-- Generator: Adobe Illustrator 24.0.1, SVG Export Plug-In . SVG Version: 6.00 Build 0)  -->
<svg version="1.1" id="Layer_1" xmlns="http://www.w3.org/2000/svg" xmlns:xlink="http://www.w3.org/1999/xlink" x="0px" y="0px"
	 viewBox="0 0 95.904 92.908" style="enable-background:new 0 0 95.904 92.908;" xml:space="preserve">
<g>
	<path d="M92.908,0.796c0.937,0.531,1.669,1.264,2.201,2.201c0.53,0.937,0.796,1.936,0.796,2.997v80.919
		c0,1.623-0.594,3.028-1.779,4.214c-1.187,1.186-2.592,1.78-4.214,1.78H5.994c-1.625,0-3.029-0.594-4.215-1.78
		C0.593,89.941,0,88.537,0,86.914V5.994C0,4.371,0.593,2.966,1.779,1.78C2.965,0.594,4.37,0,5.994,0h83.917
		C90.972,0,91.971,0.267,92.908,0.796z M89.911,5.994H5.994v80.919h83.917V5.994z M12.878,23.133
		c-0.594-0.562-0.89-1.279-0.89-2.154v-2.997c0-0.811,0.295-1.513,0.89-2.107c0.593-0.593,1.295-0.89,2.107-0.89h5.994
		c0.811,0,1.513,0.297,2.107,0.89c0.593,0.594,0.89,1.296,0.89,2.107v2.997c0,0.875-0.297,1.592-0.89,2.154
		c-0.594,0.562-1.296,0.843-2.107,0.843h-5.994C14.173,23.976,13.471,23.695,12.878,23.133z M12.878,41.115
		c-0.594-0.562-0.89-1.279-0.89-2.154v-2.997c0-0.811,0.295-1.513,0.89-2.107c0.593-0.593,1.295-0.89,2.107-0.89h5.994
		c0.811,0,1.513,0.297,2.107,0.89c0.593,0.594,0.89,1.297,0.89,2.107v2.997c0,0.875-0.297,1.592-0.89,2.154
		c-0.594,0.562-1.296,0.843-2.107,0.843h-5.994C14.173,41.958,13.471,41.677,12.878,41.115z M12.878,59.098
		c-0.594-0.562-0.89-1.279-0.89-2.154v-2.997c0-0.811,0.295-1.513,0.89-2.107c0.593-0.593,1.295-0.89,2.107-0.89h5.994
		c0.811,0,1.513,0.297,2.107,0.89c0.593,0.594,0.89,1.296,0.89,2.107v2.997c0,0.875-0.297,1.592-0.89,2.154
		c-0.594,0.562-1.296,0.843-2.107,0.843h-5.994C14.173,59.94,13.471,59.66,12.878,59.098z M12.878,77.08
		c-0.594-0.562-0.89-1.279-0.89-2.154v-2.997c0-0.811,0.295-1.513,0.89-2.107c0.593-0.593,1.295-0.89,2.107-0.89h5.994
		c0.811,0,1.513,0.297,2.107,0.89c0.593,0.594,0.89,1.296,0.89,2.107v2.997c0,0.875-0.297,1.592-0.89,2.154
		c-0.594,0.562-1.296,0.843-2.107,0.843h-5.994C14.173,77.922,13.471,77.642,12.878,77.08z M72.818,23.133
		c-0.594-0.562-0.89-1.279-0.89-2.154v-2.997c0-0.811,0.296-1.513,0.89-2.107c0.592-0.593,1.295-0.89,2.107-0.89h5.994
		c0.811,0,1.513,0.297,2.107,0.89c0.593,0.594,0.89,1.296,0.89,2.107v2.997c0,0.875-0.297,1.592-0.89,2.154
		c-0.594,0.562-1.297,0.843-2.107,0.843h-5.994C74.113,23.976,73.411,23.695,72.818,23.133z M72.818,41.115
		c-0.594-0.562-0.89-1.279-0.89-2.154v-2.997c0-0.811,0.296-1.513,0.89-2.107c0.592-0.593,1.295-0.89,2.107-0.89h5.994
		c0.811,0,1.513,0.297,2.107,0.89c0.593,0.594,0.89,1.297,0.89,2.107v2.997c0,0.875-0.297,1.592-0.89,2.154
		c-0.594,0.562-1.297,0.843-2.107,0.843h-5.994C74.113,41.958,73.411,41.677,72.818,41.115z M72.818,59.098
		c-0.594-0.562-0.89-1.279-0.89-2.154v-2.997c0-0.811,0.296-1.513,0.89-2.107c0.592-0.593,1.295-0.89,2.107-0.89h5.994
		c0.811,0,1.513,0.297,2.107,0.89c0.593,0.594,0.89,1.296,0.89,2.107v2.997c0,0.875-0.297,1.592-0.89,2.154
		c-0.594,0.562-1.297,0.843-2.107,0.843h-5.994C74.113,59.94,73.411,59.66,72.818,59.098z M72.818,77.08
		c-0.594-0.562-0.89-1.279-0.89-2.154v-2.997c0-0.811,0.296-1.513,0.89-2.107c0.592-0.593,1.295-0.89,2.107-0.89h5.994
		c0.811,0,1.513,0.297,2.107,0.89c0.593,0.594,0.89,1.296,0.89,2.107v2.997c0,0.875-0.297,1.592-0.89,2.154
		c-0.594,0.562-1.297,0.843-2.107,0.843h-5.994C74.113,77.922,73.411,77.642,72.818,77.08z"/>
</g>
</svg>
