<?xml version="1.0" encoding="iso-8859-1"?>
<!-- Generator: Adobe Illustrator 24.0.1, SVG Export Plug-In . SVG Version: 6.00 Build 0)  -->
<svg version="1.1" id="icon" xmlns="http://www.w3.org/2000/svg" xmlns:xlink="http://www.w3.org/1999/xlink" x="0px" y="0px"
	 viewBox="0 0 77.922 95.731" style="enable-background:new 0 0 77.922 95.731;" xml:space="preserve">
<g>
	<path d="M38.586,95.731c-11.239,0-20.48-3.498-27.722-10.49C3.62,78.249,0,69.352,0,58.549c0-2.185,0.249-4.51,0.749-6.978
		c0.499-2.466,1.061-4.604,1.686-6.416c0.623-1.81,1.326-3.637,2.107-5.479c0.78-1.841,1.358-3.121,1.733-3.84
		c0.375-0.717,0.686-1.264,0.937-1.639c0.624-1.185,1.592-1.686,2.903-1.499c0.624,0.063,1.171,0.297,1.639,0.703
		c0.468,0.407,0.764,0.89,0.89,1.452c1.185,4.559,2.623,8.18,4.308,10.864c1.623,2.561,3.372,4.465,5.245,5.713
		c-1.812-7.68-2.029-15.109-0.655-22.29c0.811-4.309,2.168-8.256,4.074-11.848c1.904-3.59,3.824-6.369,5.76-8.335
		c1.935-1.967,4.042-3.7,6.322-5.198c2.278-1.498,3.901-2.435,4.87-2.81c0.967-0.375,1.763-0.655,2.388-0.843
		c0.499-0.125,0.998-0.141,1.499-0.047c0.499,0.094,0.967,0.328,1.405,0.703c0.811,0.749,1.092,1.686,0.843,2.81
		c-0.063,0.5-0.156,1.14-0.281,1.92c-0.126,0.781-0.25,2.374-0.375,4.776c-0.126,2.404-0.11,4.762,0.047,7.071
		c0.155,2.311,0.562,4.996,1.217,8.054c0.656,3.06,1.576,5.9,2.763,8.523c0.312,0.562,0.655,1.203,1.03,1.92
		c0.375,0.719,0.811,1.484,1.312,2.294c0.249-2.309,0.655-4.402,1.217-6.275c1.373-4.932,4.027-8.522,7.961-10.771
		c0.312-0.187,0.562-0.312,0.75-0.375c0.499-0.249,1.014-0.342,1.545-0.281c0.53,0.063,1.014,0.267,1.452,0.609
		c0.437,0.344,0.764,0.782,0.983,1.312c0.218,0.531,0.265,1.077,0.141,1.639c0,0.188-0.016,0.438-0.047,0.75
		c-0.032,0.313-0.016,0.937,0.047,1.873c0.062,0.937,0.202,1.905,0.421,2.903c0.218,1,0.624,2.248,1.218,3.746
		c0.593,1.499,1.358,2.997,2.294,4.496c2.122,3.559,3.574,6.79,4.355,9.693c0.78,2.903,1.171,6.603,1.171,11.099
		c0,4.247-0.625,8.289-1.873,12.128c-1.25,3.84-3.044,7.274-5.385,10.302c-2.342,3.029-5.121,5.652-8.335,7.867
		c-3.217,2.215-6.853,3.917-10.911,5.104C47.358,95.136,43.082,95.731,38.586,95.731z M9.366,43.751
		C7.118,49.37,5.994,54.273,5.994,58.455c0,9.117,3.059,16.609,9.179,22.478c6.118,5.87,13.922,8.804,23.414,8.804
		c9.677,0,17.654-2.934,23.929-8.804c6.275-5.868,9.413-13.361,9.413-22.478c0-2.623-0.141-4.854-0.421-6.696
		c-0.281-1.841-0.75-3.59-1.405-5.245c-0.656-1.653-1.608-3.542-2.856-5.666c-2.187-3.621-3.622-7.242-4.309-10.864
		c-0.688,1.063-1.217,2.248-1.592,3.559c-0.5,1.873-0.875,4.013-1.124,6.416c-0.25,2.404-0.36,4.137-0.328,5.198
		c0.031,1.063,0.077,1.812,0.14,2.248c0,0.688-0.172,1.312-0.515,1.874c-0.344,0.562-0.859,0.969-1.545,1.217
		c-0.313,0.063-0.625,0.11-0.937,0.141c-0.313,0.032-0.625-0.015-0.937-0.141c-0.313-0.125-0.594-0.281-0.843-0.468
		c-0.25-0.187-0.468-0.405-0.656-0.656c-3.746-5.306-6.401-9.614-7.96-12.924c-3.685-7.992-5.121-17.514-4.309-28.565
		c-1.437,0.875-2.81,1.873-4.121,2.997c-1.312,1.124-2.716,2.561-4.215,4.308c-1.499,1.749-2.826,3.934-3.98,6.556
		c-1.156,2.622-2.013,5.464-2.575,8.522c-0.438,2.374-0.656,4.886-0.656,7.54c0,2.655,0.125,4.964,0.375,6.931
		c0.249,1.967,0.593,3.872,1.03,5.713c0.436,1.843,0.764,3.138,0.983,3.887c0.218,0.75,0.389,1.25,0.515,1.499
		c0.125,0.25,0.188,0.515,0.188,0.796c0,0.281-0.016,0.547-0.047,0.796c-0.032,0.25-0.11,0.5-0.234,0.75
		c-0.125,0.25-0.281,0.5-0.468,0.749c-0.812,0.875-1.779,1.187-2.903,0.937c-0.313-0.062-0.702-0.171-1.17-0.328
		c-0.468-0.155-1.297-0.515-2.482-1.077c-1.187-0.562-2.327-1.218-3.418-1.967c-1.093-0.75-2.311-1.794-3.653-3.138
		c-1.343-1.342-2.545-2.824-3.606-4.449c-0.438-0.686-0.875-1.482-1.311-2.388C10.146,45.609,9.74,44.688,9.366,43.751z"/>
</g>
</svg>
