<?xml version="1.0" encoding="iso-8859-1"?>
<!-- Generator: Adobe Illustrator 24.0.1, SVG Export Plug-In . SVG Version: 6.00 Build 0)  -->
<svg version="1.1" id="icon" xmlns="http://www.w3.org/2000/svg" xmlns:xlink="http://www.w3.org/1999/xlink" x="0px" y="0px"
	 viewBox="0 0 95.904 74.925" style="enable-background:new 0 0 95.904 74.925;" xml:space="preserve">
<path d="M44.955,8.991h44.956c1.686,0,3.105,0.578,4.261,1.732c1.155,1.156,1.732,2.576,1.732,4.261v53.946
	c0,1.686-0.578,3.107-1.732,4.262c-1.156,1.156-2.576,1.732-4.261,1.732H5.994c-1.686,0-3.107-0.577-4.262-1.732
	C0.577,72.038,0,70.617,0,68.931V5.994c0-1.686,0.577-3.105,1.732-4.262C2.887,0.578,4.308,0,5.994,0h29.97L44.955,8.991z
	 M32.967,5.994H5.994v62.937h83.917V14.985H42.427l-1.874-1.779l-7.305-7.211H32.967z"/>
</svg>
