<?xml version="1.0" encoding="iso-8859-1"?>
<!-- Generator: Adobe Illustrator 24.0.1, SVG Export Plug-In . SVG Version: 6.00 Build 0)  -->
<svg version="1.1" id="icon" xmlns="http://www.w3.org/2000/svg" xmlns:xlink="http://www.w3.org/1999/xlink" x="0px" y="0px"
	 viewBox="0 0 95.904 74.925" style="enable-background:new 0 0 95.904 74.925;" xml:space="preserve">
<path d="M91.502,9.225c0.499,0.157,0.967,0.36,1.405,0.609c0.437,0.25,0.843,0.562,1.218,0.937s0.702,0.781,0.983,1.217
	c0.281,0.438,0.483,0.906,0.609,1.405c0.124,0.5,0.187,1.03,0.187,1.592v53.946c0,1.686-0.578,3.107-1.732,4.262
	c-1.156,1.156-2.576,1.732-4.261,1.732H5.994c-1.625,0-3.029-0.577-4.215-1.732C0.593,72.038,0,70.617,0,68.931V26.973v-5.994V5.994
	c0-1.686,0.593-3.105,1.779-4.262C2.965,0.578,4.37,0,5.994,0h29.97l8.991,8.991h44.956C90.472,8.991,91.002,9.07,91.502,9.225z
	 M5.994,5.994v14.985h83.917v-5.994H42.52l-1.873-1.779l-7.399-7.211H5.994z M89.911,68.931V26.973H5.994v41.958H89.911z"/>
</svg>
