<?xml version="1.0" encoding="iso-8859-1"?>
<!-- Generator: Adobe Illustrator 24.0.1, SVG Export Plug-In . SVG Version: 6.00 Build 0)  -->
<svg version="1.1" id="icon" xmlns="http://www.w3.org/2000/svg" xmlns:xlink="http://www.w3.org/1999/xlink" x="0px" y="0px"
	 viewBox="0 0 96 75" style="enable-background:new 0 0 96 75;" xml:space="preserve">
<path d="M22.821,1.082c0.592,0.594,0.889,1.392,0.889,2.202c0,0.811-0.297,1.375-0.889,1.967C22.228,5.843,21.527,6,20.717,6H6
	v15.336c0,0.811-0.419,1.513-1.011,2.104c-0.593,0.593-1.356,0.888-2.165,0.888c-0.811,0-1.428-0.295-2.02-0.888
	C0.21,22.848,0,22.146,0,21.336V3.381c0-0.81,0.18-1.705,0.773-2.299C1.365,0.49,1.951,0,2.762,0h17.955
	C21.527,0,22.228,0.49,22.821,1.082z M22.821,69.996c0.592,0.594,0.889,1.349,0.889,2.159c0,0.812-0.297,1.439-0.889,2.031
	C22.228,74.778,21.527,75,20.717,75H2.762c-0.811,0-1.397-0.194-1.989-0.787C0.18,73.621,0,73.02,0,72.209V54.254
	c0-0.81,0.18-1.511,0.773-2.104c0.592-0.592,1.236-0.888,2.047-0.888c0.81,0,1.605,0.296,2.198,0.888C5.61,52.743,6,53.444,6,54.254
	V69h14.717C21.527,69,22.228,69.404,22.821,69.996z M94.877,1.082C95.468,1.676,96,2.571,96,3.381v17.955
	c0,0.811-0.532,1.513-1.123,2.104c-0.593,0.593-1.412,0.888-2.221,0.888c-0.811,0-1.343-0.295-1.935-0.888
	C90.127,22.848,90,22.146,90,21.336V6H74.583c-0.811,0-1.513-0.109-2.104-0.701c-0.593-0.592-0.889-1.201-0.889-2.011
	c0-0.81,0.295-1.658,0.889-2.252C73.07,0.444,73.772,0,74.583,0h17.955C93.347,0,94.283,0.49,94.877,1.082z M96,54.254v17.955
	c0,0.812-0.532,1.412-1.123,2.004C94.283,74.806,93.347,75,92.538,75H74.583c-0.811,0-1.513-0.194-2.104-0.787
	c-0.593-0.592-0.889-1.243-0.889-2.054c0-0.81,0.295-1.594,0.889-2.188C73.07,69.379,73.772,69,74.583,69H90V54.254
	c0-0.81,0.068-1.511,0.661-2.104c0.592-0.592,1.179-0.888,1.99-0.888c0.81,0,1.689,0.296,2.282,0.888
	C95.525,52.743,96,53.444,96,54.254z"/>
</svg>
