<?xml version="1.0" encoding="iso-8859-1"?>
<!-- Generator: Adobe Illustrator 24.0.1, SVG Export Plug-In . SVG Version: 6.00 Build 0)  -->
<svg version="1.1" id="icon" xmlns="http://www.w3.org/2000/svg" xmlns:xlink="http://www.w3.org/1999/xlink" x="0px" y="0px"
	 viewBox="0 0 95.821 96.093" style="enable-background:new 0 0 95.821 96.093;" xml:space="preserve">
<path d="M75.304,9.912c1.309,0.624,3.086,1.528,5.331,2.712c2.244,1.186,3.974,2.198,5.19,3.04c1.216,0.841,2.586,1.886,4.115,3.133
	c1.527,1.247,2.666,2.431,3.414,3.553c0.748,1.123,1.371,2.401,1.87,3.835c0.499,1.435,0.686,2.898,0.561,4.395
	c-0.125,1.497-0.514,2.869-1.169,4.115c-0.654,1.248-1.403,2.338-2.244,3.273c-0.842,0.935-2.043,1.823-3.601,2.665
	c-1.559,0.842-2.931,1.512-4.115,2.011c-1.185,0.499-2.852,1.044-5.003,1.636c-2.151,0.594-3.82,1.029-5.003,1.31
	c-1.185,0.28-2.931,0.701-5.237,1.263c-2.432,0.5-4.208,0.904-5.331,1.216c-0.748,0.187-1.419,0.406-2.01,0.654
	c-0.593,0.25-1.216,0.624-1.871,1.122c-0.655,0.5-1.325,1.062-2.011,1.684c-0.687,0.624-1.528,1.435-2.525,2.432l-0.841,0.842
	l-0.375,0.374l-0.561,0.561c-1.996,1.996-3.398,3.554-4.208,4.676c-0.811,1.122-1.372,2.37-1.684,3.741
	c-0.25,0.935-0.654,2.712-1.215,5.33c-0.437,1.809-0.749,3.18-0.936,4.115c-0.187,0.935-0.5,2.244-0.935,3.928
	c-0.437,1.683-0.827,3.008-1.169,3.974c-0.343,0.968-0.795,2.167-1.356,3.601c-0.561,1.436-1.107,2.572-1.637,3.413
	c-0.53,0.842-1.169,1.777-1.917,2.806c-0.748,1.029-1.512,1.824-2.291,2.385c-0.78,0.562-1.683,1.117-2.712,1.523
	c-1.029,0.404-2.136,0.867-3.32,0.867c-0.25,0-0.531,0-0.842,0c-1.435,0-2.822-0.353-4.162-0.914
	c-1.341-0.562-2.557-1.269-3.647-2.047c-1.091-0.78-2.245-1.967-3.46-3.525c-1.216-1.558-2.23-2.939-3.04-4.124
	c-0.811-1.184-1.793-2.871-2.946-5.054c-1.154-2.182-2.026-3.913-2.618-5.193c-0.593-1.276-1.482-3.164-2.666-5.658
	c-1.435-3.054-2.494-5.299-3.18-6.734C0.645,56.236-0.585,50.188,0.256,44.7c0.842-5.485,3.849-10.816,9.024-15.991L28.639,9.258
	C34.811,3.086,41.325,0,48.184,0c2.306,0,4.66,0.327,7.061,0.981c2.399,0.654,4.91,1.637,7.528,2.946
	c1.309,0.623,3.554,1.715,6.733,3.272C72.061,8.386,73.995,9.29,75.304,9.912z M88.396,26.091c-0.935-1.371-2.073-2.603-3.414-3.694
	c-1.341-1.09-3.179-2.291-5.517-3.6c-2.338-1.31-4.428-2.399-6.266-3.273c-1.84-0.872-4.147-1.964-6.92-3.273
	c-2.775-1.309-4.879-2.338-6.313-3.086c-4.364-2.182-8.355-3.272-11.97-3.272c-5.175,0-10.256,2.524-15.243,7.574
	c-0.561,0.562-1.512,1.496-2.852,2.806c-1.341,1.31-2.261,2.214-2.759,2.712c-2.557,2.618-5.3,5.362-8.229,8.229
	c-3.242,3.306-5.082,5.144-5.518,5.518c-2.681,2.682-4.629,5.3-5.845,7.855c-1.216,2.557-1.73,5.471-1.543,8.744
	c0.187,3.272,1.247,6.843,3.18,10.707c0.685,1.436,1.667,3.507,2.946,6.219c1.277,2.712,2.353,4.973,3.226,6.78
	c0.873,1.809,1.948,3.866,3.227,6.172c1.277,2.308,2.462,4.147,3.554,5.518c1.09,1.372,2.291,2.716,3.6,3.713
	c1.309,0.998,2.586,1.655,3.834,1.655c0.187,0,0.342,0,0.467,0c0.997,0,1.948-0.672,2.853-1.328
	c0.903-0.654,1.698-1.669,2.384-2.885c0.686-1.216,1.31-2.532,1.871-3.874c0.561-1.34,1.09-2.965,1.59-4.836
	c0.498-1.87,0.903-3.531,1.216-4.966c0.311-1.434,0.685-3.138,1.122-5.102c0.436-1.964,0.81-3.509,1.122-4.631
	c0.311-1.371,0.826-2.698,1.543-3.976c0.716-1.277,1.497-2.4,2.338-3.367c0.842-0.966,2.011-2.229,3.507-3.788
	c0.125-0.061,0.281-0.201,0.468-0.42c0.187-0.218,0.311-0.358,0.374-0.421c0.124-0.062,0.234-0.141,0.327-0.234
	c0.094-0.094,0.187-0.187,0.281-0.28c0.093-0.094,0.202-0.202,0.327-0.327c0.873-0.873,1.621-1.604,2.245-2.198
	c0.623-0.592,1.309-1.199,2.057-1.823c0.748-0.622,1.45-1.122,2.104-1.496c0.655-0.374,1.371-0.732,2.151-1.075
	c0.779-0.343,1.604-0.639,2.478-0.889c1.122-0.249,2.914-0.654,5.377-1.216c2.462-0.562,4.489-1.028,6.079-1.402
	c1.59-0.375,3.46-0.903,5.611-1.59c2.151-0.686,3.881-1.371,5.19-2.058c1.309-0.686,2.446-1.543,3.414-2.572
	c0.966-1.028,1.48-2.135,1.543-3.319C89.736,28.772,89.331,27.463,88.396,26.091z M33.221,53.211
	c0.124,0.187,0.249,0.359,0.374,0.514c0.124,0.156,0.218,0.313,0.281,0.468c0.061,0.156,0.108,0.327,0.14,0.515
	c0.031,0.187,0.047,0.374,0.047,0.561c0,0.188-0.016,0.374-0.047,0.562c-0.032,0.187-0.079,0.374-0.14,0.562
	c-0.063,0.187-0.157,0.359-0.281,0.514c-0.125,0.156-0.25,0.297-0.374,0.421c-0.561,0.562-1.248,0.842-2.058,0.842
	c-0.811,0-1.496-0.28-2.057-0.842l-2.338-2.338l-2.245,2.244c-0.561,0.562-1.231,0.842-2.01,0.842c-0.78,0-1.45-0.28-2.011-0.842
	c-0.561-0.561-0.842-1.229-0.842-2.01c0-0.779,0.281-1.45,0.842-2.011l2.244-2.338l-2.244-2.245
	c-0.25-0.187-0.437-0.421-0.561-0.701c-0.126-0.28-0.219-0.575-0.281-0.889c-0.063-0.311-0.063-0.607,0-0.888
	c0.062-0.281,0.155-0.562,0.281-0.842c0.124-0.28,0.311-0.515,0.561-0.701c0.561-0.562,1.23-0.842,2.011-0.842
	c0.779,0,1.449,0.28,2.01,0.842l2.245,2.244l2.338-2.244c0.561-0.562,1.23-0.842,2.011-0.842c0.779,0,1.449,0.28,2.01,0.842
	c0.562,0.561,0.842,1.231,0.842,2.01c0,0.78-0.28,1.45-0.842,2.011l-2.244,2.245L33.221,53.211z M44.965,18.093h6v6h-6V18.093z
	 M44.965,27.093h6v6h-6V27.093z M53.965,18.093h6v6h-6V18.093z M53.965,27.093h6v6h-6V27.093z"/>
</svg>
