<?xml version="1.0" encoding="iso-8859-1"?>
<!-- Generator: Adobe Illustrator 24.0.1, SVG Export Plug-In . SVG Version: 6.00 Build 0)  -->
<svg version="1.1" id="icon" xmlns="http://www.w3.org/2000/svg" xmlns:xlink="http://www.w3.org/1999/xlink" x="0px" y="0px"
	 viewBox="0 0 95.948 95.762" style="enable-background:new 0 0 95.948 95.762;" xml:space="preserve">
<path d="M92.395,65.836c-2.37,5.737-5.564,10.724-9.585,14.963c-4.021,4.24-8.807,7.685-14.355,10.334
	c-5.549,2.648-11.409,4.161-17.581,4.535c-0.187,0-0.359,0.015-0.514,0.047c-0.156,0.03-0.328,0.047-0.515,0.047s-0.374,0-0.561,0
	c-0.063,0-0.219,0-0.467,0c-0.063,0-0.157,0-0.281,0c-0.25,0-0.437,0-0.561,0c-5.176,0-10.209-0.812-15.103-2.432
	c-4.895-1.622-9.305-3.912-13.232-6.874c-3.928-2.96-7.374-6.39-10.334-10.286c-2.961-3.896-5.253-8.291-6.873-13.187
	C0.81,58.09,0,53.057,0,47.881c0-6.483,1.263-12.687,3.788-18.609s5.938-11.02,10.24-15.29c4.302-4.27,9.413-7.669,15.337-10.193
	C35.287,1.263,41.489,0,47.974,0c0.062,0,0.14,0,0.234,0c0.093,0,0.202,0,0.327,0c0.124,0,0.218,0,0.281,0c0.061,0,0.14,0,0.233,0
	c0.094,0,0.171,0,0.234,0c0.249,0,0.499,0,0.748,0c0.249,0,0.529,0.032,0.842,0.094c4.115,0.25,8.12,1.015,12.017,2.291
	c3.896,1.278,7.496,2.979,10.801,5.097c3.304,2.12,6.343,4.629,9.118,7.528c2.773,2.899,5.127,6.063,7.061,9.492
	c1.932,3.429,3.428,7.14,4.489,11.128c1.06,3.991,1.59,8.075,1.59,12.251C95.948,54.116,94.763,60.101,92.395,65.836z M5.985,47.881
	c0,5.176,0.936,10.193,2.806,15.057c3.491-0.81,7.886-1.497,13.186-2.058c-0.748-4.302-1.123-8.635-1.123-12.999
	c0-1.745,0.047-3.475,0.141-5.19c0.093-1.714,0.264-3.413,0.514-5.097c-5.798-0.685-10.319-1.464-13.56-2.338
	C6.64,39.371,5.985,43.579,5.985,47.881z M19.826,16.833c-4.054,3.68-7.294,7.949-9.726,12.813
	c3.241,0.811,7.418,1.496,12.531,2.057c1.06-4.737,2.54-9.085,4.442-13.045c1.901-3.959,4.099-7.342,6.593-10.146
	C28.49,10.381,23.877,13.155,19.826,16.833z M20.854,79.863c3.802,3.243,8.073,5.705,12.812,7.388
	c-2.245-2.556-4.255-5.578-6.032-9.07c-1.777-3.491-3.227-7.325-4.349-11.503c-4.614,0.5-8.573,1.092-11.876,1.776
	C13.902,72.819,17.051,76.623,20.854,79.863z M27.774,60.318c5.361-0.436,11.066-0.685,17.114-0.748V38.81
	c-2.183,0-4.334-0.03-6.453-0.094c-2.121-0.061-4.068-0.14-5.845-0.233c-1.776-0.094-3.507-0.201-5.19-0.327
	c-0.125,1.061-0.234,2.12-0.327,3.18c-0.094,1.061-0.172,2.136-0.234,3.227c-0.063,1.091-0.094,2.197-0.094,3.319
	C26.746,52.121,27.088,56.267,27.774,60.318z M38.062,11.129c-2.183,2.37-4.101,5.362-5.751,8.978
	c-1.653,3.616-2.946,7.638-3.881,12.063c5.111,0.438,10.598,0.687,16.459,0.748V6.453C42.518,7.201,40.243,8.76,38.062,11.129z
	 M29.083,66.21c0.873,3.367,1.964,6.546,3.273,9.539c3.491,7.481,7.668,12.002,12.531,13.56V65.556
	C39.277,65.618,34.008,65.836,29.083,66.21z M50.873,32.918c2.119-0.062,4.162-0.124,6.125-0.187
	c1.964-0.062,3.787-0.141,5.471-0.234c1.683-0.093,3.304-0.201,4.863-0.327c-0.935-4.488-2.23-8.541-3.881-12.157
	c-1.653-3.615-3.554-6.623-5.705-9.024c-2.151-2.399-4.442-3.942-6.874-4.629V32.918z M67.893,60.318
	c0.686-4.052,1.029-8.197,1.029-12.438c0-3.304-0.219-6.577-0.655-9.819c-5.3,0.437-11.098,0.687-17.394,0.748V59.57
	C57.045,59.634,62.718,59.883,67.893,60.318z M60.131,81.688c2.805-4.146,4.987-9.306,6.546-15.478
	c-2.307-0.187-4.785-0.327-7.435-0.421c-2.65-0.093-5.44-0.171-8.37-0.233v23.847C54.24,88.406,57.326,85.834,60.131,81.688z
	 M76.964,17.581c-3.617-3.428-7.701-6.14-12.251-8.136c0.749,1.122,1.48,2.308,2.198,3.554c0.716,1.248,1.403,2.588,2.058,4.021
	c0.654,1.435,1.246,2.931,1.777,4.488c0.529,1.56,1.012,3.18,1.449,4.863c0.436,1.684,0.842,3.43,1.216,5.237
	c1.184-0.125,2.322-0.265,3.414-0.421c1.09-0.155,2.057-0.312,2.899-0.468c0.841-0.155,1.604-0.312,2.291-0.468
	c0.685-0.155,1.277-0.295,1.777-0.421c0.498-0.124,0.888-0.218,1.169-0.28c0.28-0.062,0.514-0.124,0.701-0.188
	C83.479,24.938,80.579,21.011,76.964,17.581z M84.352,68.735c-0.748-0.188-1.575-0.374-2.478-0.562
	c-0.905-0.187-2.183-0.404-3.834-0.654c-1.652-0.249-3.382-0.498-5.19-0.748c-0.874,3.928-2.011,7.544-3.414,10.848
	c-1.403,3.306-2.978,6.204-4.723,8.697C73.191,82.639,79.738,76.777,84.352,68.735z M89.215,55.783
	c0.499-2.587,0.748-5.221,0.748-7.902c0-5.611-1.061-10.972-3.179-16.085l1.122,3.086c-0.374,0.126-0.905,0.297-1.59,0.515
	c-0.687,0.219-2.183,0.547-4.489,0.981c-2.307,0.438-4.832,0.812-7.575,1.123c0.435,3.429,0.654,6.889,0.654,10.38
	c0,4.428-0.313,8.76-0.935,12.999c5.485,0.687,9.85,1.496,13.092,2.432C87.999,60.88,88.715,58.371,89.215,55.783z"/>
</svg>
