<?xml version="1.0" encoding="iso-8859-1"?>
<!-- Generator: Adobe Illustrator 24.0.1, SVG Export Plug-In . SVG Version: 6.00 Build 0)  -->
<svg version="1.1" id="icon" xmlns="http://www.w3.org/2000/svg" xmlns:xlink="http://www.w3.org/1999/xlink" x="0px" y="0px"
	 viewBox="0 0 95.785 74.86" style="enable-background:new 0 0 95.785 74.86;" xml:space="preserve">
<path d="M95.587,59.898c0,1.622-0.525,3.024-1.677,4.208c-1.155,1.185-2.545,1.776-4.229,1.776c-0.313,0-0.627-0.03-0.969-0.093
	c-0.343-0.062-0.648-0.141-0.928-0.234c-0.28-0.094-0.558-0.218-0.839-0.374c-0.28-0.154-0.545-0.327-0.793-0.514
	c-0.25-0.188-0.483-0.39-0.7-0.608c-0.219-0.218-0.42-0.451-0.607-0.701c-0.187-0.249-0.343-0.515-0.467-0.795
	c-0.126-0.28-0.234-0.562-0.328-0.842c-0.093-0.28-0.172-0.575-0.234-0.889c-0.063-0.311-0.093-0.622-0.093-0.935
	c0-0.748,0.124-1.45,0.374-2.104c0.249-0.654,0.479-1.246,0.916-1.776c0.436-0.529,1.477-0.982,1.477-1.356V33.713l-12.045,6.358
	c0.124,0.188,0.084,0.391,0.116,0.608c0.03,0.219-0.071,0.421-0.071,0.607v25.998c0,0.437,0.081,0.857-0.106,1.263
	c-0.187,0.406-0.381,0.733-0.755,0.981c-0.125,0.126-0.253,0.266-0.471,0.421c-0.219,0.156-0.571,0.391-1.101,0.701
	c-0.53,0.313-1.143,0.608-1.859,0.889c-0.717,0.28-1.57,0.577-2.566,0.889c-0.998,0.313-2.164,0.607-3.504,0.888
	c-1.341,0.281-2.804,0.547-4.394,0.795c-1.589,0.25-3.412,0.438-5.47,0.562c-2.057,0.126-4.24,0.187-6.546,0.187
	c-5.674,0-10.646-0.467-14.916-1.402c-4.271-0.936-7.014-1.73-8.229-2.385s-2.299-1.263-2.86-1.823
	c-0.687-0.562-1.223-1.31-1.223-2.244V41.661c0-0.498,0.319-0.966,0.569-1.402L1.516,29.785c-0.5-0.249-0.84-0.608-1.12-1.076
	C0.116,28.242,0,27.728,0,27.166c0-1.184,0.51-2.057,1.508-2.618L46.309,0.421c0.997-0.562,1.967-0.562,2.902,0l45.077,24.033
	c0.187,0.126,0.389,0.297,0.609,0.515c0.218,0.219,0.389,0.437,0.515,0.654c0.125,0.22,0.218,0.453,0.281,0.701
	c0.061,0.25,0.093,0.531,0.093,0.842c0,0.5-0.14,0.998-0.421,1.496c-0.28,0.5-0.776,0.874-1.274,1.123l-1.601,0.748V54.66
	C94.489,55.846,95.587,57.592,95.587,59.898z M86.434,27.073L47.811,6.406L9.189,27.073l38.529,20.479L86.434,27.073z
	 M68.489,43.157l-19.55,10.381l-1.312,0.374c-0.25,0-0.455-0.03-0.703-0.094c-0.25-0.062-0.632-0.154-0.819-0.28L26.489,43.251
	v22.164c5,2.307,11.627,3.46,21.042,3.46c3.865,0,7.465-0.218,10.614-0.655c3.147-0.435,5.303-0.872,6.739-1.309
	c1.434-0.436,2.606-0.903,3.606-1.403V43.157z"/>
</svg>
