<?xml version="1.0" encoding="iso-8859-1"?>
<!-- Generator: Adobe Illustrator 24.0.1, SVG Export Plug-In . SVG Version: 6.00 Build 0)  -->
<svg version="1.1" id="icon" xmlns="http://www.w3.org/2000/svg" xmlns:xlink="http://www.w3.org/1999/xlink" x="0px" y="0px"
	 viewBox="0 0 95.904 53.946" style="enable-background:new 0 0 95.904 53.946;" xml:space="preserve">
<g>
	<path d="M95.904,7.492c0,2.061-0.734,3.825-2.201,5.292c-1.468,1.468-3.231,2.201-5.292,2.201c-1.063,0-2.061-0.218-2.997-0.656
		L65.934,31.094c0,0.188,0,0.313,0,0.375c0,0.562-0.063,1.124-0.187,1.686c-0.126,0.562-0.313,1.093-0.562,1.592
		c-0.25,0.5-0.547,0.969-0.89,1.405c-0.344,0.438-0.735,0.828-1.171,1.17c-0.438,0.344-0.906,0.641-1.405,0.89
		c-0.5,0.25-1.03,0.438-1.592,0.562c-0.562,0.126-1.124,0.188-1.686,0.188c-1,0-1.967-0.202-2.903-0.609
		c-0.937-0.405-1.733-0.937-2.389-1.592c-0.655-0.656-1.187-1.436-1.592-2.342c-0.407-0.904-0.609-1.857-0.609-2.856l-13.955-7.024
		c-0.749,0.75-1.592,1.344-2.528,1.78c-0.937,0.438-1.937,0.656-2.997,0.656c-0.688,0-1.437-0.125-2.248-0.375L14.423,43.644
		c0.375,0.937,0.562,1.873,0.562,2.81c0,2.061-0.734,3.825-2.201,5.292c-1.468,1.468-3.231,2.201-5.292,2.201
		c-2.061,0-3.826-0.733-5.292-2.201C0.733,50.279,0,48.514,0,46.454s0.733-3.824,2.201-5.292c1.466-1.466,3.231-2.201,5.292-2.201
		c0.874,0,1.747,0.157,2.622,0.468l14.61-16.765c-0.5-1.061-0.749-2.122-0.749-3.184c0-1.373,0.328-2.637,0.983-3.793
		c0.656-1.155,1.56-2.061,2.716-2.716c1.155-0.656,2.419-0.983,3.793-0.983c1.998,0,3.699,0.672,5.104,2.014
		c1.405,1.343,2.169,2.982,2.295,4.917l14.329,7.211c1.499-1.436,3.246-2.154,5.245-2.154c1.686,0,3.246,0.562,4.683,1.686
		L81.388,9.927c-0.313-0.874-0.468-1.686-0.468-2.435c0-2.061,0.733-3.824,2.201-5.292C84.586,0.734,86.352,0,88.412,0
		c2.06,0,3.09,0,3.09,0s0.733,0.734,2.201,2.201C95.17,3.668,95.904,5.432,95.904,7.492z"/>
</g>
</svg>
