<?xml version="1.0" encoding="iso-8859-1"?>
<!-- Generator: Adobe Illustrator 24.0.1, SVG Export Plug-In . SVG Version: 6.00 Build 0)  -->
<svg version="1.1" id="icon" xmlns="http://www.w3.org/2000/svg" xmlns:xlink="http://www.w3.org/1999/xlink" x="0px" y="0px"
	 viewBox="0 0 95.761 95.762" style="enable-background:new 0 0 95.761 95.762;" xml:space="preserve">
<path d="M35.911,41.896H5.985c-1.683,0-3.102-0.575-4.255-1.729C0.576,39.013,0,37.594,0,35.911V5.985
	C0,4.302,0.576,2.885,1.73,1.73C2.883,0.577,4.302,0,5.985,0h29.926c1.683,0,3.101,0.577,4.255,1.73
	c1.153,1.154,1.73,2.571,1.73,4.255v29.926c0,1.683-0.577,3.102-1.73,4.255C39.011,41.32,37.594,41.896,35.911,41.896z
	 M35.911,95.762H5.985c-1.683,0-3.102-0.577-4.255-1.73C0.576,92.877,0,91.46,0,89.776V59.851c0-1.683,0.576-3.101,1.73-4.255
	c1.153-1.152,2.572-1.729,4.255-1.729h29.926c1.683,0,3.101,0.577,4.255,1.729c1.153,1.154,1.73,2.572,1.73,4.255v29.926
	c0,1.684-0.577,3.101-1.73,4.255C39.011,95.185,37.594,95.762,35.911,95.762z M35.911,5.985H5.985v29.926h29.926V5.985z
	 M35.911,59.851H5.985v29.926h29.926V59.851z M89.776,41.896H59.851c-1.683,0-3.102-0.575-4.255-1.729
	c-1.154-1.153-1.73-2.572-1.73-4.255V5.985c0-1.684,0.576-3.101,1.73-4.255C56.749,0.577,58.167,0,59.851,0h29.925
	c1.684,0,3.101,0.577,4.255,1.73c1.153,1.154,1.73,2.571,1.73,4.255v29.926c0,1.683-0.577,3.102-1.73,4.255
	C92.876,41.32,91.459,41.896,89.776,41.896z M89.776,95.762H59.851c-1.683,0-3.102-0.577-4.255-1.73
	c-1.154-1.154-1.73-2.571-1.73-4.255V59.851c0-1.683,0.576-3.101,1.73-4.255c1.153-1.152,2.572-1.729,4.255-1.729h29.925
	c1.684,0,3.101,0.577,4.255,1.729c1.153,1.154,1.73,2.572,1.73,4.255v29.926c0,1.684-0.577,3.101-1.73,4.255
	C92.876,95.185,91.459,95.762,89.776,95.762z M89.776,5.985H59.851v29.926h29.925V5.985z M89.776,59.851H59.851v29.926h29.925
	V59.851z"/>
</svg>
