<?xml version="1.0" encoding="iso-8859-1"?>
<!-- Generator: Adobe Illustrator 24.0.1, SVG Export Plug-In . SVG Version: 6.00 Build 0)  -->
<svg version="1.1" id="icon" xmlns="http://www.w3.org/2000/svg" xmlns:xlink="http://www.w3.org/1999/xlink" x="0px" y="0px"
	 viewBox="0 0 95.611 96.179" style="enable-background:new 0 0 95.611 96.179;" xml:space="preserve">
<path d="M93.984,93.703c-0.561,0.623-1.309,1.269-2.245,1.706c-0.935,0.436-2.12,0.77-3.554,0.77H6.546
	c-2.183,0-3.867-0.77-5.05-2.08c-1.248-1.372-1.714-3.363-1.402-5.856l7.201-47.255c0.124-0.936,0.374-1.885,0.748-2.82
	s0.842-1.815,1.403-2.625c0.561-0.81,1.216-1.561,1.964-2.248c0.748-0.686,1.558-1.265,2.431-1.732
	c0.873-0.468,1.808-0.762,2.806-1.043c0.997-0.28,1.995-0.342,2.993-0.342h6.927v-8.11c0-3.989,1.04-7.668,2.849-11.035
	c1.808-3.366,4.385-6.046,7.597-8.042C40.221,0.998,43.856,0,47.846,0c2.993,0,5.799,0.577,8.387,1.729
	c2.586,1.154,4.808,2.729,6.648,4.723c1.838,1.996,3.193,4.349,4.221,7.061c1.028,2.712,1.463,5.564,1.463,8.557v8.11h6.809
	c3.054,0,5.798,1.012,8.229,3.193c2.431,2.183,3.802,4.761,4.115,7.814l7.855,47.113C95.761,90.481,95.231,92.269,93.984,93.703z
	 M89.402,89.636c0.187-0.155,0.249-0.358,0.187-0.608l-7.762-47.039c-0.063-0.436-0.156-0.842-0.281-1.216
	c-0.125-0.374-0.28-0.748-0.467-1.122s-0.406-0.716-0.655-1.028c-0.25-0.312-0.514-0.592-0.795-0.842
	c-0.28-0.248-0.593-0.482-0.935-0.701c-0.343-0.218-0.701-0.405-1.076-0.562c-0.374-0.154-0.748-0.193-1.122-0.286
	s-0.748-0.052-1.122-0.052h-6.809v6.651c2,1.186,3.077,2.899,3.077,5.144c0,1.684-0.535,3.103-1.688,4.255
	c-1.154,1.154-2.55,1.73-4.234,1.73c-1.683,0-3.091-0.576-4.244-1.73c-1.154-1.152-1.817-2.571-1.817-4.255
	c0-2.244,0.906-3.958,2.906-5.144v-6.651h-30v6.651c2,1.186,3.122,2.899,3.122,5.144c0,1.684-0.512,3.103-1.665,4.255
	c-1.154,1.154-2.539,1.73-4.223,1.73c-1.684,0-3.086-0.576-4.239-1.73c-1.154-1.152-1.722-2.571-1.722-4.255
	c0-0.498,0.082-1.013,0.238-1.543c0.155-0.529,0.36-1.013,0.61-1.449c0.249-0.436,0.425-0.826,0.799-1.169
	c0.374-0.342,1.08-0.67,1.08-0.982v-6.651h-6.927c-0.748,0-1.497,0.069-2.245,0.379c-0.748,0.313-1.419,0.691-2.011,1.219
	c-0.593,0.53-1.075,1.132-1.449,1.848c-0.374,0.718-0.624,1.439-0.748,2.187L5.985,88.939c-0.125,0.688,0.188,1.027,0.936,1.027
	l81.546-0.095C88.902,89.871,89.215,89.792,89.402,89.636z M32.565,30.179h30v-8.11c0-2.182-0.267-4.255-0.983-6.219
	c-0.717-1.964-1.669-3.678-2.947-5.144c-1.278-1.464-2.829-2.618-4.7-3.46c-1.87-0.842-3.885-1.263-6.067-1.263
	c-4.364,0-8.088,1.56-10.924,4.676c-2.838,3.118-4.379,6.921-4.379,11.409V30.179z"/>
</svg>
