<?xml version="1.0" encoding="iso-8859-1"?>
<!-- Generator: Adobe Illustrator 24.0.1, SVG Export Plug-In . SVG Version: 6.00 Build 0)  -->
<svg version="1.1" id="Layer_1" xmlns="http://www.w3.org/2000/svg" xmlns:xlink="http://www.w3.org/1999/xlink" x="0px" y="0px"
	 viewBox="0 0 95.948 86.41" style="enable-background:new 0 0 95.948 86.41;" xml:space="preserve">
<path d="M26.933,0c6.172,0,13.186,3.867,21.041,11.597c3.304-3.367,6.78-6.141,10.427-8.323C62.048,1.092,65.523,0,68.828,0
	c3.678,0,7.061,0.671,10.146,2.011c3.086,1.342,6,3.383,8.744,6.126c5.485,5.424,8.229,12.002,8.229,19.731
	c0,7.731-2.744,14.341-8.229,19.826c-0.25,0.187-11.409,12.22-33.479,36.097c-1.746,1.745-3.85,2.619-6.312,2.619
	c-2.464,0-4.536-0.874-6.219-2.619c-4.24-4.612-7.902-8.634-10.988-12.063c-3.086-3.428-6.205-6.888-9.352-10.38
	c-3.149-3.491-5.985-6.624-8.51-9.398c-2.525-2.773-4.068-4.442-4.629-5.004c-2.681-2.68-4.722-5.766-6.125-9.258
	C0.701,34.197,0,30.689,0,27.167c0-3.521,0.701-7.028,2.104-10.521c1.403-3.491,3.444-6.577,6.125-9.258
	c2.556-2.556,5.392-4.427,8.51-5.611C19.856,0.594,23.253,0,26.933,0z M18.984,7.342c-2.37,0.904-4.552,2.323-6.546,4.255
	c-4.302,4.302-6.453,9.508-6.453,15.617c0,0.687,0.031,1.402,0.093,2.15c0.062,0.748,0.171,1.466,0.328,2.151
	c0.155,0.687,0.327,1.372,0.514,2.058c0.187,0.687,0.421,1.355,0.702,2.01c0.28,0.655,0.592,1.295,0.935,1.918
	c0.342,0.624,0.716,1.231,1.122,1.823c0.405,0.593,0.842,1.185,1.309,1.776c0.468,0.594,0.95,1.139,1.45,1.637
	c2.182,2.184,13.373,14.495,33.572,36.939c0.562,0.5,1.216,0.748,1.964,0.748c0.249,0,0.562-0.047,0.936-0.141
	c0.374-0.093,0.716-0.295,1.028-0.607c22.07-23.878,33.26-35.941,33.573-36.191c4.302-4.363,6.453-9.569,6.453-15.617
	c0-6.046-2.151-11.222-6.453-15.523c-4.24-4.239-9.134-6.359-14.682-6.359c-0.687,0-1.45,0.094-2.291,0.28
	c-0.842,0.188-1.7,0.484-2.572,0.889c-0.874,0.406-1.793,0.889-2.759,1.449c-0.967,0.562-1.949,1.216-2.946,1.964
	c-0.998,0.748-2.011,1.56-3.04,2.432c-1.028,0.874-2.01,1.81-2.946,2.806l-4.208,4.302l-4.302-4.208
	c-6.672-6.607-12.283-9.913-16.833-9.913C24.001,5.985,21.352,6.438,18.984,7.342z"/>
</svg>
