<?xml version="1.0" encoding="iso-8859-1"?>
<!-- Generator: Adobe Illustrator 24.0.1, SVG Export Plug-In . SVG Version: 6.00 Build 0)  -->
<svg version="1.1" id="icon" xmlns="http://www.w3.org/2000/svg" xmlns:xlink="http://www.w3.org/1999/xlink" x="0px" y="0px"
	 viewBox="0 0 96.08 95.762" style="enable-background:new 0 0 96.08 95.762;" xml:space="preserve">
<path d="M96.078,50.125c-0.032,0.812-0.328,1.528-0.889,2.151c-0.561,0.561-1.248,0.842-2.057,0.842
	c-0.874,0-1.59-0.312-2.151-0.936l-4.021-4.208v44.794c0,0.81-0.296,1.511-0.888,2.104c-0.593,0.592-1.295,0.889-2.104,0.889H63.019
	c-0.811,0-1.512-0.297-2.104-0.889c-0.593-0.594-0.888-1.295-0.888-2.104V62.844H36.18l-0.094,29.925
	c0,0.188-0.032,0.405-0.093,0.655c-0.063,0.248-0.141,0.467-0.234,0.654c-0.094,0.188-0.203,0.358-0.328,0.515
	c-0.125,0.154-0.28,0.311-0.467,0.468c-0.187,0.154-0.374,0.28-0.561,0.374c-0.187,0.093-0.39,0.171-0.608,0.233
	c-0.219,0.062-0.453,0.094-0.702,0.094H12.24c-0.874,0-1.59-0.297-2.151-0.889c-0.561-0.594-0.842-1.295-0.842-2.104V47.975
	l-4.115,4.208c-0.25,0.25-0.561,0.453-0.935,0.607c-0.374,0.157-0.748,0.25-1.122,0.281c-0.374,0.032-0.748-0.031-1.123-0.188
	c-0.374-0.154-0.717-0.357-1.028-0.607c-0.374-0.374-0.64-0.826-0.795-1.356c-0.155-0.528-0.171-1.043-0.047-1.543
	c0.124-0.498,0.374-0.966,0.748-1.402L45.999,0.936C46.622,0.313,47.339,0,48.15,0c0.436,0,0.842,0.079,1.216,0.234
	c0.374,0.156,0.686,0.39,0.935,0.701l44.982,47.039C95.844,48.599,96.108,49.315,96.078,50.125z M81.068,41.803L48.15,7.388
	L15.139,41.803c0.062,0.249,0.094,0.499,0.094,0.748v47.226h14.869l0.093-29.926c0-0.809,0.295-1.511,0.889-2.104
	c0.592-0.592,1.293-0.889,2.104-0.889h29.832c0.81,0,1.511,0.297,2.104,0.889c0.592,0.593,0.888,1.295,0.888,2.104v29.926h14.963
	V42.551C80.975,42.302,81.005,42.052,81.068,41.803z"/>
</svg>
