<?xml version="1.0" encoding="iso-8859-1"?>
<!-- Generator: Adobe Illustrator 24.0.1, SVG Export Plug-In . SVG Version: 6.00 Build 0)  -->
<svg version="1.1" id="Layer_1" xmlns="http://www.w3.org/2000/svg" xmlns:xlink="http://www.w3.org/1999/xlink" x="0px" y="0px"
	 viewBox="0 0 66.023 96" style="enable-background:new 0 0 66.023 96;" xml:space="preserve">
<path d="M63.03,6h-5.58v20.184c0,4.863-1.575,9.181-4.317,12.952c-2.744,3.773-7.054,7.093-12.726,9.96
	c3.989,1.996,7.15,4.178,9.582,6.546c2.431,2.37,4.213,4.988,5.399,7.855c1.184,2.868,1.764,6.3,1.764,9.978
	c0,5.861-0.045,11.524-0.106,16.524h5.985c0.81,0,1.511,0.136,2.104,0.73c0.592,0.592,0.889,1.23,0.889,2.071
	c0,0.842-0.297,1.67-0.889,2.231C64.541,95.593,63.84,96,63.03,96H2.993c-0.811,0-1.513-0.446-2.104-1.008
	C0.295,94.432,0,93.646,0,92.805c0-0.841,0.295-1.441,0.888-2.033C1.48,90.178,2.182,90,2.993,90h6.172
	c-0.063-6-0.093-10.974-0.093-16.524c0-5.485,1.324-10.226,3.974-14.06c2.649-3.834,6.874-7.288,12.672-10.28
	c-5.611-2.867-9.63-6.192-12.342-9.933c-2.712-3.74-3.925-8.093-3.925-13.019V6H2.993C2.182,6,1.48,5.745,0.888,5.151
	C0.295,4.559,0,3.861,0,3.02c0-0.842,0.295-1.58,0.888-2.141C1.48,0.317,2.182,0,2.993,0H63.03c0.311,0,0.623,0.094,0.935,0.187
	c0.312,0.093,0.592,0.257,0.842,0.444c0.249,0.187,0.468,0.418,0.655,0.666c0.187,0.25,0.327,0.52,0.42,0.801
	c0.094,0.28,0.141,0.61,0.141,0.984c0,0.812-0.297,1.475-0.889,2.067C64.541,5.743,63.84,6,63.03,6z M15.056,73.476
	c0,5.55,0.031,10.524,0.094,16.524h35.91c0.062-6,0.094-11.348,0.094-16.524c0-2.244-0.25-4.302-0.749-6.018
	c-0.5-1.714-1.388-3.5-2.665-5.276c-1.278-1.777-3.133-3.495-5.564-5.117c-2.432-1.621-5.487-3.19-9.165-4.686
	c-2.931,1.185-5.456,2.426-7.575,3.735c-2.12,1.31-3.85,2.601-5.19,3.878c-1.342,1.278-2.401,2.664-3.18,4.16
	c-0.78,1.497-1.309,3.041-1.59,4.474C15.196,70.063,15.056,71.732,15.056,73.476z M51.45,6h-36v20.184
	c0,1.684,0.051,3.243,0.458,4.676c0.404,1.436,1.108,3.04,2.263,4.816c1.153,1.777,2.955,3.539,5.48,5.284
	c2.525,1.746,5.639,3.398,9.38,4.956c3.802-1.558,6.973-3.21,9.53-4.956c2.556-1.745,4.39-3.507,5.512-5.284
	c1.123-1.776,2.094-3.381,2.531-4.816c0.436-1.433,0.848-2.992,0.848-4.676V6z"/>
</svg>
