<?xml version="1.0" encoding="iso-8859-1"?>
<!-- Generator: Adobe Illustrator 24.0.1, SVG Export Plug-In . SVG Version: 6.00 Build 0)  -->
<svg version="1.1" id="icon" xmlns="http://www.w3.org/2000/svg" xmlns:xlink="http://www.w3.org/1999/xlink" x="0px" y="0px"
	 viewBox="0 0 80.798 95.762" style="enable-background:new 0 0 80.798 95.762;" xml:space="preserve">
<path d="M72.896,7.902c5.268,5.27,7.902,11.628,7.902,19.077c0,7.451-2.635,13.811-7.902,19.078
	c-5.269,5.269-11.612,7.901-19.03,7.901c-6.733,0-12.625-2.212-17.675-6.64c0,0.375-0.079,0.765-0.234,1.169
	c-0.156,0.406-0.39,0.765-0.701,1.076L19.171,65.742l12.718,12.999c0.374,0.374,0.623,0.812,0.748,1.31
	c0.124,0.5,0.124,1.014,0,1.543c-0.125,0.53-0.374,0.981-0.748,1.355c-0.624,0.562-1.341,0.842-2.151,0.842
	c-0.811,0-1.497-0.28-2.058-0.842L14.962,70.044l-7.762,7.763l12.718,12.905c0.561,0.561,0.842,1.262,0.842,2.104
	s-0.297,1.543-0.889,2.104c-0.593,0.561-1.294,0.842-2.104,0.842c-0.811,0-1.496-0.281-2.057-0.842L1.029,79.957H0.935v-0.094
	C0.311,79.303,0,78.602,0,77.76s0.311-1.543,0.935-2.104l30.112-30.3c0.312-0.311,0.669-0.545,1.076-0.701
	c0.405-0.154,0.825-0.233,1.262-0.233c-4.302-4.987-6.453-10.816-6.453-17.487c0-2.058,0.234-4.099,0.702-6.126
	c0.467-2.025,1.137-3.928,2.01-5.704c0.873-1.777,1.932-3.444,3.18-5.003c1.247-1.558,2.649-2.946,4.208-4.162
	c1.558-1.216,3.21-2.275,4.956-3.18c1.745-0.902,3.631-1.59,5.658-2.057C49.672,0.234,51.745,0,53.866,0
	C61.284,0,67.627,2.635,72.896,7.902z M61.955,46.244c2.586-1.09,4.816-2.571,6.687-4.441c1.871-1.871,3.367-4.099,4.489-6.687
	c1.122-2.587,1.684-5.314,1.684-8.183c0-5.799-2.058-10.739-6.172-14.823c-4.115-4.082-9.057-6.125-14.822-6.125
	c-5.768,0-10.693,2.043-14.776,6.125c-4.084,4.084-6.125,9.024-6.125,14.823c0,3.803,0.935,7.31,2.805,10.521
	c1.871,3.211,4.41,5.751,7.622,7.621c3.21,1.87,6.717,2.806,10.521,2.806C56.671,47.881,59.367,47.336,61.955,46.244z"/>
</svg>
