<?xml version="1.0" encoding="iso-8859-1"?>
<!-- Generator: Adobe Illustrator 24.0.1, SVG Export Plug-In . SVG Version: 6.00 Build 0)  -->
<svg version="1.1" id="icon" xmlns="http://www.w3.org/2000/svg" xmlns:xlink="http://www.w3.org/1999/xlink" x="0px" y="0px"
	 viewBox="0 0 95.814 95.714" style="enable-background:new 0 0 95.814 95.714;" xml:space="preserve">
<path d="M95.342,47.506c0,1.216-0.531,2.104-1.59,2.665L48.864,74.392c-0.25,0.126-0.483,0.22-0.701,0.28
	c-0.219,0.063-0.453,0.094-0.702,0.094c-0.5,0-0.998-0.124-1.496-0.374L1.544,50.171c-1.061-0.562-1.575-1.449-1.543-2.665
	c0.031-1.216,0.576-2.104,1.636-2.665l9.445-4.676l6.359,3.46l-7.949,4.021l37.968,20.667l38.436-20.667l-7.481-3.835l6.359-3.46
	l8.884,4.489C94.781,45.402,95.342,46.291,95.342,47.506z M95.342,68.454c0,1.216-0.531,2.104-1.59,2.666L48.864,95.34
	c-0.25,0.124-0.483,0.218-0.701,0.28c-0.219,0.062-0.453,0.094-0.702,0.094c-0.187,0-0.359-0.017-0.514-0.047
	c-0.156-0.032-0.313-0.079-0.468-0.141c-0.156-0.063-0.327-0.125-0.514-0.187L1.544,71.12c-1.061-0.562-1.575-1.45-1.543-2.666
	c0.031-1.216,0.576-2.104,1.636-2.665l8.884-4.021l6.359,3.461l-7.388,3.366l37.968,20.667l38.436-20.667l-7.014-3.46l6.359-3.46
	l8.417,4.114C94.781,66.35,95.342,67.238,95.342,68.454z M0.516,25.483c0-0.561,0.155-1.075,0.468-1.543
	c0.311-0.468,0.716-0.825,1.216-1.075L47.087,0.327c0.873-0.436,1.777-0.436,2.712,0l44.42,22.538
	c0.499,0.25,0.889,0.607,1.169,1.075c0.281,0.468,0.421,0.982,0.421,1.543c0.062,1.248-0.437,2.151-1.496,2.712L49.332,52.416
	c-0.187,0.063-0.406,0.126-0.655,0.188c-0.25,0.063-0.5,0.094-0.748,0.094c-0.5,0-0.967-0.094-1.403-0.281L2.105,28.195
	C1.044,27.634,0.516,26.731,0.516,25.483z M9.961,25.67l37.968,20.667L86.364,25.67L48.396,6.312L9.961,25.67z"/>
</svg>
