<?xml version="1.0" encoding="iso-8859-1"?>
<!-- Generator: Adobe Illustrator 24.0.1, SVG Export Plug-In . SVG Version: 6.00 Build 0)  -->
<svg version="1.1" id="Layer_1" xmlns="http://www.w3.org/2000/svg" xmlns:xlink="http://www.w3.org/1999/xlink" x="0px" y="0px"
	 viewBox="0 0 95.761 95.762" style="enable-background:new 0 0 95.761 95.762;" xml:space="preserve">
<path d="M49.283,57.42c1.558,3.492,1.995,7.139,1.309,10.941c-0.687,3.803-2.463,7.139-5.331,10.006L33.198,90.057
	c-3.804,3.803-8.386,5.705-13.747,5.705c-5.362,0-9.945-1.902-13.747-5.705C1.901,86.255,0,81.673,0,76.31
	c0-5.36,1.901-9.943,5.704-13.746l11.783-12.157c3.802-3.803,8.384-5.705,13.747-5.705c2.867,0,5.611,0.624,8.229,1.87l-4.676,4.676
	c-1.31-0.374-2.494-0.561-3.554-0.561c-3.741,0-6.92,1.31-9.539,3.928L9.913,66.865c-2.619,2.557-3.928,5.704-3.928,9.444
	c0,3.741,1.309,6.921,3.928,9.539s5.798,3.928,9.539,3.928s6.92-1.31,9.539-3.928l12.064-11.689
	c1.683-1.684,2.805-3.554,3.367-5.611c0.561-2.058,0.592-4.208,0.093-6.452L49.283,57.42z M26.886,67.146
	c-0.156-0.498-0.156-1.013,0-1.543c0.155-0.529,0.421-0.982,0.795-1.356l36.191-36.472c0.623-0.622,1.34-0.935,2.151-0.935
	c0.81,0,1.511,0.297,2.104,0.889c0.592,0.593,0.889,1.294,0.889,2.104c0,0.812-0.281,1.528-0.842,2.151L31.889,68.454
	c-0.313,0.313-0.64,0.547-0.982,0.702c-0.344,0.156-0.734,0.233-1.169,0.233c-0.811,0-1.497-0.312-2.058-0.936
	C27.307,68.08,27.041,67.646,26.886,67.146z M95.761,19.452c0,5.362-1.902,9.944-5.705,13.747L77.993,45.263
	c-1.87,1.87-3.991,3.289-6.359,4.255c-2.37,0.967-4.833,1.449-7.388,1.449c-0.874,0-1.699-0.047-2.478-0.14
	c-0.78-0.094-1.59-0.234-2.432-0.421c-0.841-0.188-1.668-0.436-2.478-0.749l4.77-4.769c0.311,0.063,1.184,0.093,2.618,0.093
	c1.808,0,3.538-0.342,5.19-1.028c1.651-0.686,3.101-1.651,4.349-2.899l12.063-12.156c2.619-2.556,3.928-5.705,3.928-9.445
	c0-3.741-1.309-6.921-3.928-9.539S80.05,5.985,76.31,5.985c-0.874,0-1.746,0.079-2.619,0.233c-0.874,0.157-1.715,0.406-2.525,0.749
	c-0.811,0.343-1.59,0.764-2.338,1.262c-0.748,0.5-1.435,1.062-2.058,1.684L54.707,21.603c-1.746,1.81-2.915,3.928-3.507,6.359
	c-0.593,2.432-0.514,4.77,0.234,7.014l-4.676,4.676c-1.809-3.615-2.385-7.496-1.73-11.643c0.655-4.146,2.479-7.684,5.471-10.614
	L62.563,5.705C66.364,1.964,70.947,0.063,76.31,0c2.556,0,5.018,0.484,7.388,1.45c2.369,0.967,4.489,2.385,6.359,4.255
	C93.858,9.509,95.761,14.091,95.761,19.452z"/>
</svg>
