<?xml version="1.0" encoding="iso-8859-1"?>
<!-- Generator: Adobe Illustrator 24.0.1, SVG Export Plug-In . SVG Version: 6.00 Build 0)  -->
<svg version="1.1" id="icon" xmlns="http://www.w3.org/2000/svg" xmlns:xlink="http://www.w3.org/1999/xlink" x="0px" y="0px"
	 viewBox="0 0 71.821 95.433" style="enable-background:new 0 0 71.821 95.433;" xml:space="preserve">
<path d="M51.294,2.899c4.52,1.933,8.26,4.567,11.222,7.902c2.96,3.336,5.252,7.2,6.874,11.596c1.621,4.396,2.432,9.087,2.432,14.074
	c0,14.963-9.976,33.752-29.925,56.694c-1.372,1.62-2.931,2.267-4.676,2.267h-0.281c-0.748,0-1.528-0.055-2.338-0.491
	c-0.811-0.437-1.372-0.713-1.683-0.993c-0.313-0.28-0.531-0.474-0.655-0.66c-0.374-0.374-0.935-0.977-1.683-1.85
	c-2.495-2.867-4.428-5.101-5.798-6.723c-1.372-1.62-3.305-3.969-5.798-7.055c-2.494-3.086-4.474-5.702-5.938-7.853
	c-1.465-2.151-3.133-4.783-5.003-7.901c-1.871-3.116-3.305-5.952-4.302-8.509c-0.998-2.556-1.871-5.33-2.619-8.323
	C0.374,42.083,0,39.216,0,36.472c0-4.862,0.982-9.538,2.946-14.027s4.566-8.37,7.809-11.643c3.241-3.273,7.091-5.892,11.549-7.855
	C26.76,0.982,31.421,0,36.284,0C41.77,0,46.773,0.968,51.294,2.899z M65.835,36.472c0-3.928-0.593-7.668-1.776-11.222
	c-1.185-3.554-2.946-6.795-5.284-9.726c-2.338-2.93-5.44-5.252-9.305-6.968c-3.866-1.714-8.262-2.571-13.186-2.571
	c-5.424,0-10.459,1.372-15.103,4.115c-4.646,2.744-8.339,6.469-11.082,11.175c-2.744,4.708-4.115,9.772-4.115,15.196
	c0,2.432,0.342,5.003,1.029,7.715c0.686,2.713,1.511,5.237,2.478,7.575c0.966,2.338,2.353,4.956,4.162,7.855
	c1.808,2.899,3.397,5.362,4.77,7.388c1.371,2.026,3.241,4.505,5.611,7.435c2.369,2.932,4.208,5.159,5.518,6.687
	c1.309,1.528,3.147,3.663,5.518,6.406l1.59,1.776c0.124,0.126,0.248,0.25,0.374,0.374c0.187-0.124,0.311-0.248,0.374-0.374
	C56.358,67.552,65.835,49.938,65.835,36.472z M42.971,19.499c2.212,0.967,4.129,2.244,5.751,3.834
	c1.621,1.59,2.899,3.492,3.834,5.704c0.936,2.214,1.403,4.536,1.403,6.967c0,4.989-1.746,9.228-5.237,12.719
	c-3.492,3.492-7.715,5.236-12.671,5.236c-4.957,0-9.197-1.744-12.718-5.236c-3.523-3.491-5.284-7.729-5.284-12.719
	c0-1.932,0.295-3.802,0.888-5.61c0.592-1.808,1.45-3.46,2.572-4.957c1.122-1.496,2.416-2.789,3.881-3.881
	c1.464-1.09,3.117-1.947,4.957-2.571c1.838-0.623,3.725-0.936,5.658-0.936C38.435,18.049,40.757,18.532,42.971,19.499z
	 M40.633,47.039c1.464-0.622,2.727-1.48,3.788-2.571c1.059-1.09,1.901-2.385,2.525-3.881c0.623-1.497,0.935-3.055,0.935-4.676
	c0-3.304-1.169-6.126-3.507-8.464s-5.16-3.507-8.463-3.507c-3.305,0-6.125,1.169-8.463,3.507s-3.507,5.16-3.507,8.464
	c0,3.305,1.183,6.141,3.553,8.51c2.369,2.37,5.205,3.554,8.51,3.554C37.625,47.975,39.167,47.663,40.633,47.039z"/>
</svg>
