<?xml version="1.0" encoding="iso-8859-1"?>
<!-- Generator: Adobe Illustrator 24.0.1, SVG Export Plug-In . SVG Version: 6.00 Build 0)  -->
<svg version="1.1" id="Layer_1" xmlns="http://www.w3.org/2000/svg" xmlns:xlink="http://www.w3.org/1999/xlink" x="0px" y="0px"
	 viewBox="0 0 78 95.537" style="enable-background:new 0 0 78 95.537;" xml:space="preserve">
<path d="M74.345,39.829C76.683,42.167,78,44.775,78,48.079v35.91c0,3.306-1.317,5.914-3.655,8.252
	c-2.338,2.338-5.308,3.296-8.612,3.296H11.867c-3.305,0-6.074-0.958-8.412-3.296S0,87.295,0,83.989v-35.91
	c0-3.304,1.117-5.911,3.455-8.249s5.107-3.292,8.412-3.292h5.05l-1.216-5.638c-1.809-6.607-1.169-12.887,1.917-18.623
	c3.086-5.735,7.996-9.56,14.729-11.37c6.733-1.744,12.889-0.976,18.47,2.358c5.579,3.336,9.273,8.357,11.082,15.09l1.31,5.043
	c0.187,0.811,0.077,1.572-0.328,2.288c-0.406,0.718-1.014,1.167-1.823,1.355c-0.811,0.187-1.575,0.077-2.292-0.329
	c-0.717-0.404-1.169-1.013-1.356-1.824l-1.309-5.05c-1.309-5.05-4.053-8.852-8.229-11.409C43.693,5.872,39.034,5.28,33.89,6.651
	c-5.143,1.372-8.837,4.208-11.082,8.51c-2.244,4.302-2.712,9.192-1.403,14.242l1.59,7.134h42.737
	C69.036,36.537,72.006,37.492,74.345,39.829z M72,48.079c0-1.621-0.734-2.802-1.918-3.986c-1.185-1.184-2.729-1.556-4.349-1.556
	H11.867c-1.622,0-2.966,0.372-4.15,1.556C6.533,45.277,6,46.458,6,48.079v35.91c0,1.684,0.533,2.884,1.717,4.036
	c1.184,1.154,2.527,1.512,4.15,1.512h53.866c1.059,0,2.057-0.046,2.992-0.576c0.936-0.529,1.809-1.153,2.339-2.089
	C71.593,85.937,72,85.05,72,83.989V48.079z M44.889,60.049c0,2.308-0.889,4.021-2.889,5.144v9.819c0,0.811-0.4,1.513-0.992,2.104
	c-0.593,0.593-1.347,0.888-2.156,0.888c-0.811,0-1.442-0.295-2.034-0.888C36.225,76.524,36,75.822,36,75.011v-9.819
	c-2-1.122-3.089-2.836-3.089-5.144c0-1.62,0.528-3.023,1.682-4.208c1.153-1.184,2.548-1.777,4.231-1.777
	c1.684,0,3.141,0.594,4.295,1.777C44.272,57.025,44.889,58.428,44.889,60.049z"/>
</svg>
