<?xml version="1.0" encoding="iso-8859-1"?>
<!-- Generator: Adobe Illustrator 24.0.1, SVG Export Plug-In . SVG Version: 6.00 Build 0)  -->
<svg version="1.1" id="icon" xmlns="http://www.w3.org/2000/svg" xmlns:xlink="http://www.w3.org/1999/xlink" x="0px" y="0px"
	 viewBox="0 0 78 95.433" style="enable-background:new 0 0 78 95.433;" xml:space="preserve">
<path d="M74.464,39.179C76.802,41.517,78,44.577,78,47.881v35.91c0,3.306-1.198,5.962-3.536,8.299
	c-2.338,2.338-5.189,3.342-8.492,3.342H12.106c-3.305,0-6.194-1.005-8.531-3.342S0,87.097,0,83.791v-35.91
	c0-3.304,1.237-6.364,3.575-8.702s5.226-3.746,8.531-3.746H15V24.502c0-4.489,1.031-8.588,2.995-12.298
	c1.964-3.708,4.808-6.67,8.488-8.884C30.161,1.108,34.319,0,38.933,0c6.981,0,12.749,2.354,17.27,7.061
	C60.723,11.769,63,17.581,63,24.502v10.931h2.972C69.276,35.433,72.126,36.841,74.464,39.179z M72,47.881
	c0-1.62-0.615-3.255-1.798-4.439c-1.185-1.184-2.609-2.009-4.23-2.009H12.106c-1.622,0-3.086,0.825-4.269,2.009
	C6.652,44.626,6,46.261,6,47.881v35.91c0,1.622,0.652,2.854,1.837,4.037c1.184,1.185,2.647,1.605,4.269,1.605h53.866
	c1.059,0,2.057-0.093,2.992-0.623c0.936-0.529,1.689-1.177,2.219-2.111C71.713,85.763,72,84.853,72,83.791V47.881z M21,35.433h36
	V24.502c0-5.299-1.686-9.71-5.053-13.232c-3.366-3.521-7.702-5.284-13-5.284c-5.3,0-9.644,1.777-12.948,5.33
	C22.694,14.869,21,19.265,21,24.502V35.433z M45.008,59.851c0,2.245-1.008,3.96-3.008,5.144v9.819c0,0.812-0.281,1.513-0.872,2.104
	c-0.593,0.593-1.287,0.889-2.097,0.889c-0.811,0-1.532-0.296-2.123-0.889C36.314,76.326,36,75.625,36,74.813v-9.819
	c-2-1.184-2.969-2.898-2.969-5.144c0-1.683,0.587-3.101,1.742-4.255c1.153-1.152,2.578-1.729,4.261-1.729
	c1.684,0,3.096,0.577,4.25,1.729C44.436,56.75,45.008,58.168,45.008,59.851z"/>
</svg>
