<?xml version="1.0" encoding="iso-8859-1"?>
<!-- Generator: Adobe Illustrator 24.0.1, SVG Export Plug-In . SVG Version: 6.00 Build 0)  -->
<svg version="1.1" id="Layer_1" xmlns="http://www.w3.org/2000/svg" xmlns:xlink="http://www.w3.org/1999/xlink" x="0px" y="0px"
	 viewBox="0 0 95.761 95.762" style="enable-background:new 0 0 95.761 95.762;" xml:space="preserve">
<path d="M60.786,50.873H2.992c-0.811,0-1.512-0.295-2.104-0.888C0.295,49.394,0,48.676,0,47.834s0.295-1.543,0.888-2.104
	c0.592-0.562,1.293-0.842,2.104-0.842h57.606L49.844,34.04c-0.25-0.187-0.437-0.404-0.561-0.654
	c-0.126-0.248-0.219-0.498-0.281-0.748c-0.063-0.248-0.093-0.498-0.093-0.748c0-0.248,0.03-0.498,0.093-0.748
	c0.062-0.249,0.155-0.482,0.281-0.701c0.124-0.218,0.311-0.421,0.561-0.608c0.561-0.622,1.246-0.935,2.057-0.935
	c0.81,0,1.527,0.313,2.151,0.935l17.675,18.143L54.052,66.116c-0.624,0.562-1.341,0.842-2.151,0.842
	c-0.374,0-0.748-0.077-1.122-0.233c-0.374-0.155-0.687-0.358-0.935-0.608c-0.437-0.374-0.717-0.825-0.842-1.355
	c-0.125-0.529-0.125-1.043,0-1.543c0.125-0.498,0.405-0.966,0.842-1.403L60.786,50.873z M94.031,1.73
	c1.153,1.154,1.73,2.571,1.73,4.255v83.791c0,1.684-0.577,3.101-1.73,4.255c-1.154,1.153-2.572,1.73-4.255,1.73H35.91
	c-1.622,0-3.024-0.577-4.208-1.73c-1.185-1.154-1.777-2.571-1.777-4.255V62.75h6.079v23.379c0,0.998,0.342,1.856,1.028,2.572
	c0.686,0.717,1.527,1.075,2.525,1.075h46.571c0.997,0,1.854-0.358,2.572-1.075c0.716-0.716,1.076-1.574,1.076-2.572L89.682,9.633
	c0-0.997-0.359-1.854-1.075-2.572c-0.718-0.716-1.575-1.075-2.572-1.075H39.557c-0.624,0-1.215,0.173-1.777,0.515
	c-0.561,0.343-0.998,0.795-1.309,1.355c-0.313,0.562-0.467,1.154-0.467,1.777v23.285h-6.079V5.985c0-1.06,0.264-2.058,0.795-2.992
	c0.529-0.936,1.262-1.668,2.197-2.198C33.853,0.267,34.849,0,35.91,0h53.866C91.459,0,92.876,0.577,94.031,1.73z"/>
</svg>
