<?xml version="1.0" encoding="iso-8859-1"?>
<!-- Generator: Adobe Illustrator 24.0.1, SVG Export Plug-In . SVG Version: 6.00 Build 0)  -->
<svg version="1.1" id="icon" xmlns="http://www.w3.org/2000/svg" xmlns:xlink="http://www.w3.org/1999/xlink" x="0px" y="0px"
	 viewBox="0 0 95.761 95.762" style="enable-background:new 0 0 95.761 95.762;" xml:space="preserve">
<path d="M21.977,61.814c0.187,0.188,0.342,0.406,0.467,0.655c0.125,0.25,0.218,0.499,0.281,0.748c0.062,0.25,0.093,0.5,0.093,0.748
	c0,0.25-0.032,0.5-0.093,0.748c-0.063,0.25-0.156,0.5-0.281,0.748c-0.125,0.25-0.28,0.468-0.467,0.654
	c-0.624,0.562-1.341,0.842-2.151,0.842c-0.374,0-0.748-0.077-1.123-0.233c-0.374-0.155-0.717-0.358-1.028-0.608L0,47.975
	l17.675-18.143c0.374-0.374,0.825-0.639,1.356-0.795c0.529-0.154,1.043-0.154,1.543,0c0.498,0.156,0.966,0.421,1.403,0.795
	c0.561,0.562,0.841,1.263,0.841,2.104s-0.28,1.543-0.841,2.104L11.128,44.889H62.75c0.873,0,1.59,0.28,2.151,0.842
	c0.562,0.561,0.842,1.262,0.842,2.104s-0.28,1.56-0.842,2.151c-0.561,0.593-1.278,0.888-2.151,0.888H10.941L21.977,61.814z
	 M93.984,1.73c1.184,1.154,1.777,2.571,1.777,4.255v83.791c0,0.436-0.047,0.842-0.141,1.216c-0.093,0.374-0.219,0.748-0.374,1.122
	c-0.156,0.374-0.343,0.716-0.561,1.028c-0.219,0.312-0.453,0.608-0.701,0.889c-0.25,0.28-0.546,0.529-0.889,0.748
	c-0.343,0.218-0.687,0.389-1.028,0.515c-0.344,0.124-0.718,0.233-1.123,0.327c-0.406,0.094-0.795,0.141-1.169,0.141H38.903
	c-1.683,0-3.102-0.577-4.255-1.73c-1.154-1.154-1.73-2.571-1.73-4.255V62.75h5.985v23.379c0,0.998,0.358,1.856,1.076,2.572
	c0.716,0.717,1.574,1.075,2.572,1.075h43.579c0.997,0,1.838-0.358,2.525-1.075c0.686-0.716,1.029-1.574,1.029-2.572L89.589,9.633
	c0-0.997-0.343-1.854-1.028-2.572c-0.687-0.716-1.529-1.075-2.525-1.075H42.55c-0.687,0-1.31,0.173-1.871,0.515
	c-0.561,0.343-0.998,0.795-1.309,1.355c-0.313,0.562-0.468,1.154-0.468,1.777v23.285h-5.985V5.985c0-1.684,0.576-3.101,1.73-4.255
	C35.801,0.577,37.22,0,38.903,0h50.873C91.396,0,92.799,0.577,93.984,1.73z"/>
</svg>
