<?xml version="1.0" encoding="iso-8859-1"?>
<!-- Generator: Adobe Illustrator 24.0.1, SVG Export Plug-In . SVG Version: 6.00 Build 0)  -->
<svg version="1.1" id="icon" xmlns="http://www.w3.org/2000/svg" xmlns:xlink="http://www.w3.org/1999/xlink" x="0px" y="0px"
	 viewBox="0 0 96 76.959" style="enable-background:new 0 0 96 76.959;" xml:space="preserve">
<path d="M94.06,1.87C95.213,3.024,96,4.581,96,6.264V60.13c0,1.061-0.476,2.058-1.005,2.992c-0.53,0.936-1.367,1.611-2.302,2.141
	C91.757,65.793,90.654,66,89.595,66H47.979l7.201,6.51c0.435,0.438,0.701,0.964,0.795,1.525c0.093,0.562-0.079,1.076-0.515,1.511
	l-0.467,0.755c-0.437,0.437-0.967,0.658-1.59,0.658c-0.624,0-1.154-0.216-1.59-0.652l-11.97-10.754l-0.842-0.748
	c-0.187-0.248-0.343-0.498-0.467-0.748c-0.126-0.248-0.187-0.515-0.187-0.795s0.061-0.56,0.187-0.842
	c0.124-0.28,0.28-0.514,0.467-0.701l0.842-0.748l12.157-11.129c0.249-0.248,0.576-0.421,0.982-0.514
	c0.405-0.094,0.795-0.094,1.169,0c0.374,0.093,0.716,0.266,1.029,0.514l0.467,0.748c0.436,0.438,0.608,0.936,0.515,1.497
	c-0.094,0.561-0.36,1.043-0.795,1.478L48.26,60h37.687c0.997,0,2.057-0.324,2.775-1.01C89.438,58.304,90,57.48,90,56.482V9.911
	c0-0.685-0.359-1.293-0.671-1.823c-0.313-0.529-0.849-0.966-1.41-1.31c-0.561-0.342-1.236-0.514-1.921-0.514L9.476,6.357
	c-0.5,0-0.98,0.094-1.416,0.281C7.624,6.825,7.227,7.092,6.885,7.433C6.542,7.776,6.373,8.167,6.186,8.602
	C5.998,9.039,6,9.507,6,10.005v46.478c0,0.998,0.26,1.822,0.977,2.507C7.693,59.676,8.452,60,9.451,60h11.315
	c0.623,0,1.169,0.252,1.637,0.72c0.468,0.467,0.81,0.929,1.029,1.364c0.218,0.437,0.327,0.769,0.327,0.987
	c0,0.219-0.109,0.563-0.327,1.031c-0.219,0.468-0.577,0.865-1.076,1.299c-0.5,0.438-1.028,0.599-1.59,0.599H5.804
	c-1.683,0-3.011-0.534-4.164-1.72C0.485,63.097,0,61.752,0,60.13V6.264c0-1.684,0.485-3.24,1.639-4.394C2.792,0.717,4.12,0,5.804,0
	h83.791C91.278,0,92.905,0.717,94.06,1.87z"/>
</svg>
