<?xml version="1.0" encoding="iso-8859-1"?>
<!-- Generator: Adobe Illustrator 24.0.1, SVG Export Plug-In . SVG Version: 6.00 Build 0)  -->
<svg version="1.1" id="icon" xmlns="http://www.w3.org/2000/svg" xmlns:xlink="http://www.w3.org/1999/xlink" x="0px" y="0px"
	 viewBox="0 0 96.186 95.78" style="enable-background:new 0 0 96.186 95.78;" xml:space="preserve">
<path d="M95.854,43.223c-0.25,0.5-0.608,0.889-1.076,1.169c-0.467,0.28-0.982,0.421-1.543,0.421l-17.207,0.654L65.461,59.215
	c-0.624,0.812-1.435,1.216-2.432,1.216c-0.125,0-0.28-0.03-0.467-0.094c-1.122-0.187-1.902-0.81-2.338-1.87l-5.05-13.841
	c-0.126,0.25-0.281,0.468-0.468,0.655L5.143,94.938c-0.624,0.561-1.341,0.842-2.151,0.842c-0.811,0-1.528-0.281-2.151-0.842
	c-0.374-0.438-0.624-0.904-0.748-1.403s-0.124-1.014,0-1.543c0.124-0.53,0.374-0.981,0.748-1.355l49.657-49.564
	c0-0.061,0.094-0.154,0.281-0.28L37.874,36.21c-0.187-0.062-0.374-0.155-0.561-0.28s-0.359-0.265-0.515-0.421
	c-0.156-0.155-0.28-0.312-0.374-0.468c-0.093-0.155-0.187-0.342-0.28-0.562c-0.094-0.218-0.14-0.421-0.14-0.607
	c-0.126-0.562-0.079-1.09,0.14-1.59c0.218-0.498,0.514-0.903,0.888-1.216l13.747-10.754l0.468-17.395
	c0.061-1.184,0.622-2.041,1.683-2.572c1.06-0.528,2.058-0.451,2.993,0.234l14.495,9.632l16.646-4.862
	c1.122-0.312,2.104-0.047,2.946,0.795c0.841,0.842,1.106,1.823,0.795,2.945l-4.77,16.739l9.632,14.309
	C96.29,41.136,96.352,42.164,95.854,43.223z M87.812,39.015L80.237,27.98c-0.063-0.124-0.141-0.265-0.234-0.421
	c-0.094-0.155,0.046-0.327,0.015-0.515c-0.032-0.187,0.155-0.357,0.155-0.514c0-0.155,0-0.328,0-0.515
	c0-0.188-0.171-0.374-0.109-0.562l3.546-12.812l-12.863,3.741c-0.874,0.249-1.741,0.125-2.55-0.375l-11.047-7.48l-0.474,13.372
	c0,0.313-0.05,0.608-0.143,0.889c-0.094,0.28-0.221,0.53-0.376,0.748c-0.157,0.22-0.361,0.421-0.609,0.608l-10.475,8.229
	l12.531,4.582c0.873,0.313,1.464,0.904,1.777,1.776l4.582,12.531l8.229-10.567c0.561-0.748,1.309-1.122,2.244-1.122L87.812,39.015z"
	/>
</svg>
