<?xml version="1.0" encoding="iso-8859-1"?>
<!-- Generator: Adobe Illustrator 24.0.1, SVG Export Plug-In . SVG Version: 6.00 Build 0)  -->
<svg version="1.1" id="icon" xmlns="http://www.w3.org/2000/svg" xmlns:xlink="http://www.w3.org/1999/xlink" x="0px" y="0px"
	 viewBox="0 0 83.791 95.947" style="enable-background:new 0 0 83.791 95.947;" xml:space="preserve">
<path d="M83.791,53.771c0,5.737-1.091,11.208-3.273,16.412c-2.183,5.206-5.144,9.68-8.884,13.42
	c-3.74,3.74-8.215,6.733-13.419,8.978c-5.206,2.244-10.646,3.366-16.319,3.366c-3.866,0-7.607-0.514-11.222-1.543
	c-3.617-1.028-6.953-2.447-10.006-4.255c-3.056-1.808-5.877-4.005-8.463-6.593c-2.588-2.586-4.77-5.424-6.546-8.51
	c-1.777-3.086-3.165-6.453-4.162-10.1C0.499,61.3,0,57.575,0,53.771V15.43c0-0.062,0-0.124,0-0.187V2.992
	c0-0.81,0.281-1.511,0.842-2.104C1.403,0.296,2.119,0,2.993,0H23.94c0.873,0,1.59,0.296,2.151,0.888
	c0.561,0.594,0.842,1.295,0.842,2.104v2.712v46.665c0,4.552,1.511,8.416,4.536,11.596c3.023,3.18,6.78,4.77,11.269,4.77
	c4.363,0,7.809-1.543,10.333-4.629s3.788-6.998,3.788-11.736V15.243V2.992c0-0.81,0.281-1.511,0.842-2.104
	C58.261,0.296,58.977,0,59.851,0h20.948c0.872,0,1.589,0.296,2.151,0.888c0.561,0.594,0.841,1.295,0.841,2.104v2.712V53.771z
	 M5.985,5.984v12.063h14.962V5.984H5.985z M51.435,88.653c3.117-0.872,5.985-2.088,8.604-3.647c2.618-1.558,5.034-3.443,7.248-5.657
	c2.212-2.212,4.099-4.644,5.658-7.294c1.558-2.649,2.759-5.532,3.6-8.65c0.842-3.117,1.263-6.327,1.263-9.633V24.033H62.843v28.336
	c0,4.178-0.811,7.948-2.431,11.315c-1.622,3.366-3.975,6.048-7.061,8.042c-3.086,1.996-6.625,2.993-10.614,2.993
	c-6.111,0-11.269-2.166-15.477-6.5c-4.208-4.332-6.313-9.616-6.313-15.851V24.033H5.985v29.738c0,6.546,1.59,12.595,4.769,18.143
	c3.18,5.55,7.528,9.944,13.046,13.186c5.518,3.242,11.549,4.863,18.095,4.863C45.137,89.963,48.316,89.527,51.435,88.653z
	 M62.843,5.984v12.063h14.963V5.984H62.843z"/>
</svg>
