<?xml version="1.0" encoding="iso-8859-1"?>
<!-- Generator: Adobe Illustrator 24.0.1, SVG Export Plug-In . SVG Version: 6.00 Build 0)  -->
<svg version="1.1" id="Layer_1" xmlns="http://www.w3.org/2000/svg" xmlns:xlink="http://www.w3.org/1999/xlink" x="0px" y="0px"
	 viewBox="0 0 96.042 95.762" style="enable-background:new 0 0 96.042 95.762;" xml:space="preserve">
<path d="M96.042,92.722c0,0.842-0.296,1.558-0.888,2.151c-0.593,0.592-1.295,0.889-2.104,0.889c-0.811,0-1.529-0.313-2.151-0.936
	l-28.99-29.177c-7.046,6.11-15.213,9.164-24.501,9.164c-6.796,0-13.062-1.667-18.797-5.003c-5.737-3.334-10.272-7.87-13.607-13.606
	C1.667,50.469,0,44.203,0,37.407c0-6.795,1.667-13.061,5.003-18.797C8.337,12.875,12.873,8.34,18.61,5.004
	C24.345,1.669,30.595,0,37.36,0c6.764,0,13.03,1.669,18.797,5.004C61.923,8.34,66.474,12.875,69.81,18.61
	c3.334,5.736,5.003,12.002,5.003,18.797c0,9.04-2.899,17.02-8.697,23.94L95.2,90.618C95.761,91.179,96.042,91.881,96.042,92.722z
	 M47.272,67.332c3.21-1.059,6.109-2.571,8.697-4.535c2.586-1.964,4.847-4.223,6.78-6.78c1.932-2.556,3.428-5.438,4.489-8.65
	c1.06-3.21,1.59-6.529,1.59-9.959c0-5.673-1.403-10.926-4.208-15.758c-2.806-4.831-6.625-8.665-11.456-11.503
	c-4.832-2.836-10.1-4.255-15.804-4.255s-10.974,1.419-15.804,4.255c-4.832,2.838-8.65,6.672-11.456,11.503
	c-2.805,4.832-4.208,10.085-4.208,15.758c0,5.674,1.403,10.927,4.208,15.758c2.806,4.832,6.624,8.666,11.456,11.502
	c4.831,2.838,10.114,4.255,15.851,4.255C40.773,68.922,44.061,68.394,47.272,67.332z"/>
</svg>
