<?xml version="1.0" encoding="iso-8859-1"?>
<!-- Generator: Adobe Illustrator 24.0.1, SVG Export Plug-In . SVG Version: 6.00 Build 0)  -->
<svg version="1.1" id="Layer_1" xmlns="http://www.w3.org/2000/svg" xmlns:xlink="http://www.w3.org/1999/xlink" x="0px" y="0px"
	 viewBox="0 0 96 95.574" style="enable-background:new 0 0 96 95.574;" xml:space="preserve">
<path d="M94.416,13.326c0.436,0.406,0.869,0.874,1.119,1.402C95.784,15.26,96,15.805,96,16.365v76.684
	c0,0.686-0.294,1.247-0.699,1.684c-0.406,0.436-0.966,0.654-1.588,0.654c-0.25,0-0.522-0.031-0.771-0.093l-30.03-11.783
	L33.075,95.574L2.96,83.697c-0.811-0.248-1.527-0.731-2.088-1.449C0.311,81.532,0,80.737,0,79.863V2.244
	c0-0.248,0.059-0.498,0.122-0.748c0.062-0.248,0.169-0.468,0.295-0.654C0.541,0.654,0.705,0.5,0.892,0.374
	c0.187-0.124,0.392-0.218,0.612-0.28C1.721,0.032,1.957,0,2.207,0c0.248,0,0.499,0.032,0.749,0.094l30.113,11.783L62.9,0.094
	L92.92,12.531C93.481,12.657,93.979,12.922,94.416,13.326z M6,78.367l24,9.726v-71.26L6,8.043V78.367z M36,88.187l24-9.539V7.481
	l-24,9.352V88.187z M90,17.861L66,7.575v71.072l24,8.978V17.861z"/>
</svg>
