<?xml version="1.0" encoding="iso-8859-1"?>
<!-- Generator: Adobe Illustrator 24.0.1, SVG Export Plug-In . SVG Version: 6.00 Build 0)  -->
<svg version="1.1" id="icon" xmlns="http://www.w3.org/2000/svg" xmlns:xlink="http://www.w3.org/1999/xlink" x="0px" y="0px"
	 viewBox="0 0 93.423 73.13" style="enable-background:new 0 0 93.423 73.13;" xml:space="preserve">
<path d="M1.122,7.014c-0.25-0.248-0.468-0.529-0.655-0.842C0.28,5.86,0.155,5.533,0.093,5.19C0.031,4.849,0,4.458,0,4.021
	C0,2.838,0.374,1.87,1.122,1.122S2.836,0,4.021,0h85.381c1.184,0,2.151,0.374,2.899,1.122s1.123,1.716,1.123,2.899
	c0,1.185-0.375,2.167-1.123,2.945c-0.748,0.78-1.715,1.169-2.899,1.169H4.021C2.836,8.136,1.87,7.762,1.122,7.014z M92.301,33.666
	c0.748,0.748,1.123,1.716,1.123,2.899c0,1.185-0.375,2.15-1.123,2.898s-1.715,1.122-2.899,1.122H4.021
	c-1.185,0-2.151-0.374-2.899-1.122c-0.125-0.124-0.25-0.28-0.374-0.468c-0.125-0.187-0.234-0.374-0.327-0.561
	c-0.094-0.188-0.172-0.374-0.234-0.562c-0.063-0.187-0.11-0.389-0.14-0.607C0.015,37.049,0,36.814,0,36.565
	c0-1.184,0.374-2.151,1.122-2.899s1.714-1.122,2.899-1.122h85.381C90.585,32.544,91.553,32.918,92.301,33.666z M92.301,66.116
	c0.748,0.748,1.123,1.716,1.123,2.899c0,1.185-0.375,2.167-1.123,2.945c-0.748,0.78-1.715,1.169-2.899,1.169H4.021
	c-1.185,0-2.151-0.374-2.899-1.122c-0.125-0.124-0.234-0.265-0.327-0.421c-0.094-0.155-0.187-0.312-0.281-0.468
	c-0.093-0.154-0.172-0.311-0.234-0.468c-0.063-0.154-0.125-0.327-0.187-0.514C0.031,69.95,0,69.779,0,69.623
	c0-0.155,0-0.358,0-0.607c0-1.184,0.374-2.151,1.122-2.899s1.714-1.122,2.899-1.122h85.381
	C90.524,64.994,91.49,65.368,92.301,66.116z"/>
</svg>
