<?xml version="1.0" encoding="iso-8859-1"?>
<!-- Generator: Adobe Illustrator 24.0.1, SVG Export Plug-In . SVG Version: 6.00 Build 0)  -->
<svg version="1.1" id="icon" xmlns="http://www.w3.org/2000/svg" xmlns:xlink="http://www.w3.org/1999/xlink" x="0px" y="0px"
	 viewBox="0 0 60 96" style="enable-background:new 0 0 60 96;" xml:space="preserve">
<path d="M57.947,32.892c0.342,0.156,0.654,0.374,0.935,0.654s0.613,0.593,0.77,0.936C59.806,34.825,60,35.216,60,35.651v12.438
	c0,5.176-0.629,9.726-1.658,13.653c-1.028,3.928-2.428,7.061-4.079,9.398c-1.653,2.338-3.662,4.24-5.967,5.704
	c-2.307,1.466-4.582,2.679-6.794,3.177C39.288,80.521,36.889,81,34.333,81H33v9h14.8c0.81,0,1.511,0.053,2.104,0.647
	c0.592,0.592,0.888,1.172,0.888,1.983c0,0.81-0.296,1.699-0.888,2.293C49.311,95.514,48.61,96,47.8,96H11.889
	c-0.811,0-1.512-0.546-2.104-1.138c-0.593-0.594-0.889-1.419-0.889-2.229c0-0.811,0.295-1.332,0.889-1.924
	C10.377,90.115,11.078,90,11.889,90H27v-9h-1.55c-8.355,0-14.658-3.036-18.99-8.648C2.125,66.742,0,58.501,0,48.089V35.651
	c0-0.81,0.255-1.512,0.848-2.104c0.592-0.592,1.273-0.889,2.084-0.889c0.81,0,1.548,0.297,2.142,0.889
	C5.666,34.139,6,34.842,6,35.651v12.438c0,1.87,0.013,3.633,0.139,5.283c0.124,1.653,0.334,3.399,0.677,5.237
	c0.342,1.84,0.798,3.507,1.391,5.003c0.592,1.496,1.381,2.946,2.379,4.349c0.997,1.402,2.163,2.571,3.504,3.507
	c1.34,0.936,2.975,1.907,4.908,2.467C20.93,74.496,23.079,75,25.45,75h8.884c6.546,0,11.531-2.405,14.743-6.769
	C52.287,63.868,54,57.005,54,48.089V35.651c0-0.81,0.188-1.512,0.781-2.104c0.591-0.592,1.239-0.889,2.05-0.889
	C57.267,32.658,57.603,32.737,57.947,32.892z M19.196,61.627C16.359,58.853,15,55.165,15,50.987v-35.63
	c0-2.118,0.33-4.145,1.11-6.078c0.779-1.932,1.808-3.601,3.15-5.003c1.34-1.403,2.915-2.379,4.754-3.19
	C25.853,0.276,27.755,0,29.751,0h0.655c4.052,0,7.561,1.383,10.336,4.406C43.516,7.431,45,10.995,45,15.357v35.63
	c0,4.241-1.452,7.943-4.164,10.687C38.124,64.418,34.582,66,30.406,66h-0.655C25.511,66,22.032,64.401,19.196,61.627z M21,50.987
	c0,1.684,0.308,3.18,1.056,4.489c0.748,1.31,1.758,2.528,3.1,3.244c1.34,0.718,2.85,1.28,4.596,1.28h0.655
	c2.555,0,4.685-1,6.214-2.589c1.527-1.59,2.38-3.867,2.38-6.424v-35.63c0-2.742-0.884-4.896-2.473-6.736
	C34.937,6.784,32.837,6,30.406,6h-0.655c-2.432,0-4.454,0.798-6.199,2.668C21.806,10.538,21,12.677,21,15.357V50.987z"/>
</svg>
