<?xml version="1.0" encoding="iso-8859-1"?>
<!-- Generator: Adobe Illustrator 24.0.1, SVG Export Plug-In . SVG Version: 6.00 Build 0)  -->
<svg version="1.1" id="Layer_1" xmlns="http://www.w3.org/2000/svg" xmlns:xlink="http://www.w3.org/1999/xlink" x="0px" y="0px"
	 viewBox="0 0 95.761 95.762" style="enable-background:new 0 0 95.761 95.762;" xml:space="preserve">
<path d="M14.027,14.028C23.379,4.676,34.663,0,47.88,0c13.217,0,24.501,4.676,33.853,14.028
	c9.352,9.352,14.028,20.636,14.028,33.853c0,13.218-4.676,24.501-14.028,33.854c-9.352,9.352-20.636,14.027-33.853,14.027
	c-13.218,0-24.501-4.676-33.853-14.027C4.676,72.382,0,61.099,0,47.881C0,34.664,4.676,23.38,14.027,14.028z M18.283,77.525
	C26.48,85.755,36.346,89.87,47.88,89.87c11.533,0,21.399-4.115,29.598-12.345c8.197-8.229,12.297-18.109,12.297-29.645
	c0-11.533-4.1-21.399-12.297-29.598C69.28,10.086,59.414,5.985,47.88,5.985c-11.535,0-21.4,4.101-29.598,12.298
	C10.083,26.481,5.985,36.348,5.985,47.881C5.985,59.416,10.083,69.296,18.283,77.525z M44.607,50.873H26.933
	c-0.874,0-1.589-0.28-2.151-0.841c-0.561-0.562-0.841-1.277-0.841-2.151c0-0.872,0.28-1.59,0.841-2.15
	c0.562-0.562,1.277-0.842,2.151-0.842h17.769h24.127c0.873,0,1.59,0.28,2.151,0.842c0.561,0.561,0.842,1.278,0.842,2.15
	c0,0.874-0.281,1.59-0.842,2.151c-0.561,0.561-1.278,0.841-2.151,0.841H44.607z"/>
</svg>
