<?xml version="1.0" encoding="iso-8859-1"?>
<!-- Generator: Adobe Illustrator 24.0.1, SVG Export Plug-In . SVG Version: 6.00 Build 0)  -->
<svg version="1.1" id="icon" xmlns="http://www.w3.org/2000/svg" xmlns:xlink="http://www.w3.org/1999/xlink" x="0px" y="0px"
	 viewBox="0 0 89.864 95.762" style="enable-background:new 0 0 89.864 95.762;" xml:space="preserve">
<path d="M89.864,67.332c0,3.741-1.57,6.921-4.811,9.539c-3.242,2.618-7.113,3.928-11.663,3.928c-2.244,0-4.367-0.358-6.393-1.075
	c-2.027-0.716-3.781-1.668-5.277-2.853c-1.496-1.184-2.678-2.618-3.55-4.302c-0.874-1.684-1.307-3.428-1.307-5.237
	c0-3.74,1.621-6.92,4.864-9.538c3.241-2.619,7.025-3.928,11.577-3.928c3.928,0,7.362,0.998,10.362,2.992V7.014l-51,13.187v60.973
	c0,0.437,0.269,0.811,0.269,1.122c0,2.432-0.66,4.692-2.156,6.78c-1.497,2.088-3.463,3.725-5.988,4.909
	c-2.525,1.184-5.262,1.777-8.254,1.777c-4.552,0-8.438-1.31-11.679-3.928C1.615,89.215,0,86.036,0,82.295
	c0-3.74,1.623-6.92,4.866-9.539c3.241-2.618,7.14-3.927,11.691-3.927c1.932,0,3.619,0.266,5.428,0.794
	c1.808,0.531,3.68,1.263,4.68,2.198V18.33c0-0.499,0.308-0.967,0.558-1.403c0.312-1.06,1.088-1.714,2.149-1.964L85.34,0.374
	c0.187-0.124,0.444-0.218,0.724-0.28C86.345,0.032,86.621,0,86.871,0c0.749,0,1.392,0.234,1.923,0.702
	c0.529,0.467,0.754,1.044,0.88,1.729c0.061,0.313-0.009,0.654-0.009,1.028v62.376v0.094C89.665,66.366,89.801,66.834,89.864,67.332z
	 M24.273,87.392c0.903-0.716,1.844-1.527,2.374-2.432c0.529-0.902,1.018-1.791,1.018-2.665c0-0.062,0-0.124,0-0.187l-0.316-0.094
	c0-0.124-0.311-0.265-0.342-0.421c-0.032-0.155-0.342-0.295-0.342-0.421v-0.094c0-1.06-0.737-2.058-1.64-2.992
	c-0.904-0.936-2.028-1.714-3.555-2.338c-1.528-0.623-3.119-0.936-4.864-0.936c-1.996,0-3.796,0.374-5.448,1.122
	c-1.652,0.748-2.904,1.7-3.776,2.853c-0.874,1.154-1.303,2.323-1.303,3.507c0,0.874,0.268,1.763,0.798,2.665
	c0.529,0.904,1.248,1.716,2.152,2.432c0.903,0.718,2.026,1.537,3.367,1.972c1.34,0.437,2.76,0.896,4.256,0.896s2.245,0,2.245,0
	s0.669-0.46,2.01-0.896C22.247,88.928,23.369,88.109,24.273,87.392z M80.851,72.476c2.025-1.558,3.04-3.272,3.04-5.144
	c0-1.87-1.014-3.584-3.04-5.144c-2.026-1.558-4.505-2.338-7.435-2.338c-1.996,0-3.803,0.374-5.424,1.123
	c-1.622,0.748-2.868,1.699-3.741,2.852c-0.874,1.154-1.309,2.323-1.309,3.507c0,0.688,0.155,1.389,0.467,2.104
	c0.312,0.718,0.779,1.402,1.403,2.058c0.623,0.654,1.356,1.231,2.198,1.729c0.842,0.5,1.824,0.889,2.946,1.169
	c1.122,0.281,2.275,0.421,3.46,0.421C76.346,74.813,78.824,74.035,80.851,72.476z"/>
</svg>
