<?xml version="1.0" encoding="iso-8859-1"?>
<!-- Generator: Adobe Illustrator 24.0.1, SVG Export Plug-In . SVG Version: 6.00 Build 0)  -->
<svg version="1.1" id="Layer_1" xmlns="http://www.w3.org/2000/svg" xmlns:xlink="http://www.w3.org/1999/xlink" x="0px" y="0px"
	 viewBox="0 0 65.65 95.796" style="enable-background:new 0 0 65.65 95.796;" xml:space="preserve">
<g>
	<path d="M65.185,30.891c0.75,1.312,0.593,2.529-0.468,3.653c-0.313,0.25-0.656,0.454-1.03,0.609
		c-0.375,0.156-0.749,0.234-1.124,0.234c-0.375,0-0.75-0.078-1.124-0.234c-0.375-0.155-0.719-0.359-1.03-0.609L35.871,10.006v69.681
		c0.062,0.187,0.094,0.313,0.094,0.375c0,0.063,0,0.173,0,0.328c0,0.157,0,0.297,0,0.422c0,4.121-1.749,7.649-5.245,10.583
		c-3.497,2.934-7.727,4.402-12.69,4.402s-9.21-1.468-12.737-4.402C1.763,88.46,0,84.932,0,80.811c0-1.623,0.295-3.199,0.89-4.73
		c0.593-1.529,1.452-2.918,2.576-4.167c1.124-1.249,2.419-2.326,3.887-3.231c1.466-0.904,3.122-1.623,4.964-2.154
		c1.841-0.53,3.73-0.796,5.666-0.796c4.557,0,8.523,1.281,11.895,3.84V3.169c0-1.373,0.687-2.309,2.061-2.81
		c1.311-0.624,2.466-0.437,3.465,0.562l29.314,29.315C64.841,30.423,64.998,30.643,65.185,30.891z M26.317,87.086
		c2.31-1.811,3.527-3.808,3.653-5.994V80.53c-0.063-0.811-0.297-1.639-0.703-2.482c-0.407-0.843-0.969-1.639-1.686-2.388
		c-0.719-0.749-1.545-1.405-2.482-1.967s-2.03-1.014-3.278-1.358c-1.25-0.343-2.561-0.515-3.934-0.515
		c-3.372,0-6.214,0.937-8.523,2.81C7.055,76.502,5.9,78.563,5.9,80.811c0,1.437,0.499,2.826,1.499,4.167
		c0.998,1.343,2.435,2.482,4.308,3.418s3.934,1.405,6.182,1.405C21.197,89.802,24.007,88.897,26.317,87.086z"/>
</g>
</svg>
