<?xml version="1.0" encoding="iso-8859-1"?>
<!-- Generator: Adobe Illustrator 24.0.1, SVG Export Plug-In . SVG Version: 6.00 Build 0)  -->
<svg version="1.1" id="icon" xmlns="http://www.w3.org/2000/svg" xmlns:xlink="http://www.w3.org/1999/xlink" x="0px" y="0px"
	 viewBox="0 0 96.033 42.146" style="enable-background:new 0 0 96.033 42.146;" xml:space="preserve">
<g>
	<path d="M74.347,42.146c-2.248,0-4.34-0.218-6.275-0.656c-1.936-0.436-3.699-1.108-5.292-2.014
		c-1.592-0.904-2.826-1.67-3.699-2.294c-0.875-0.624-1.937-1.436-3.185-2.435c-0.812-0.687-1.967-1.686-3.465-2.997
		c-0.375-0.312-0.656-0.562-0.843-0.75c-0.188-0.187-0.454-0.421-0.796-0.702c-0.344-0.281-0.625-0.515-0.843-0.703
		c-0.219-0.187-0.454-0.375-0.702-0.562c-0.25-0.187-0.468-0.328-0.656-0.421s-0.313-0.171-0.375-0.234c-0.063,0-0.188,0-0.375,0
		c-0.063,0-0.187,0-0.375,0l-0.094,0.093c-0.313,0.126-1.468,1.063-3.465,2.81c-0.438,0.313-0.781,0.578-1.03,0.796
		c-0.25,0.22-0.562,0.5-0.937,0.843c-0.375,0.344-0.749,0.656-1.124,0.937c-0.375,0.281-0.75,0.578-1.124,0.89l-0.281,0.187
		c-1.437,1.124-2.592,1.983-3.465,2.576c-0.875,0.594-2.093,1.311-3.653,2.154c-1.562,0.843-3.263,1.452-5.104,1.826
		c-1.843,0.375-3.826,0.562-5.947,0.562c-3.311,0-6.495-0.703-9.553-2.107c-3.06-1.405-5.558-3.292-7.493-5.666
		c-3.809-4.745-5.025-10.551-3.652-17.42c0.249-1.124,0.89-1.873,1.92-2.248c1.03-0.375,1.981-0.188,2.856,0.562
		c1.499,1.062,3.339,1.592,5.526,1.592c1.747,0,3.527-0.405,5.338-1.217c0.937-0.375,1.826-0.983,2.669-1.826
		c0.843-0.843,1.779-1.951,2.81-3.325c1.03-1.373,1.763-2.278,2.201-2.716c1.061-1.186,1.92-2.107,2.576-2.763
		c0.656-0.655,1.545-1.419,2.669-2.294c1.124-0.874,2.309-1.529,3.559-1.967C33.918,0.22,35.26,0,36.697,0
		c2.061,0,4.011,0.391,5.854,1.171c1.841,0.782,3.606,1.92,5.292,3.418c1.623-1.499,3.356-2.623,5.198-3.372
		c1.841-0.749,3.761-1.124,5.76-1.124c1.499,0,2.871,0.204,4.121,0.609c1.248,0.407,2.45,1.046,3.605,1.92
		c1.155,0.875,2.061,1.639,2.716,2.294c0.655,0.656,1.545,1.608,2.669,2.857c0.436,0.438,1.171,1.327,2.201,2.669
		c1.03,1.343,1.981,2.435,2.856,3.278c0.874,0.843,1.779,1.452,2.716,1.826c1.81,0.812,3.589,1.217,5.338,1.217
		c2.497,0,4.433-0.562,5.807-1.686c0.937-0.624,1.904-0.75,2.903-0.375c0.998,0.438,1.623,1.187,1.873,2.248
		c0.312,2.186,0.452,4.106,0.421,5.76c-0.032,1.655-0.297,3.248-0.796,4.776c-0.5,1.531-1.03,2.795-1.592,3.793
		c-0.562,1-1.217,1.967-1.967,2.903c-1.311,1.624-2.889,3.029-4.729,4.214c-1.843,1.187-3.856,2.107-6.041,2.763
		C78.717,41.818,76.532,42.146,74.347,42.146z M47.281,22.431c0.249-0.031,0.375-0.047,0.375-0.047s0.078,0,0.234,0
		c0.155,0,0.296,0,0.421,0h0.469l0.281,0.094c0.687,0.063,1.436,0.344,2.248,0.843c0.811,0.5,1.529,1,2.154,1.499
		c0.624,0.5,1.592,1.311,2.903,2.435c1.311,1.187,2.403,2.124,3.278,2.81c1.124,0.937,2.028,1.655,2.716,2.154
		c0.686,0.5,1.669,1.109,2.95,1.826c1.279,0.719,2.669,1.25,4.167,1.592c1.499,0.344,3.122,0.515,4.87,0.515
		c1.623,0,3.246-0.234,4.87-0.703c1.623-0.468,3.105-1.138,4.449-2.014c1.342-0.874,2.497-1.904,3.465-3.09
		c0.967-1.186,1.701-2.466,2.201-3.84c0.499-1.373,0.749-2.871,0.749-4.495c-0.375,0.125-0.749,0.234-1.124,0.328
		c-0.375,0.094-0.766,0.173-1.171,0.234c-0.407,0.063-0.843,0.11-1.311,0.141c-0.468,0.032-0.953,0.047-1.452,0.047
		c-2.623,0-5.214-0.562-7.774-1.686c-0.812-0.375-1.608-0.843-2.388-1.405c-0.781-0.562-1.499-1.201-2.154-1.92
		c-0.656-0.717-1.265-1.389-1.827-2.014c-0.562-0.623-1.156-1.326-1.779-2.107c-0.625-0.78-1.156-1.389-1.592-1.827
		c-1.873-2.06-3.404-3.526-4.589-4.402c-1.187-0.874-2.529-1.311-4.027-1.311c-3.185,0-6.12,1.562-8.804,4.683
		c-0.126,0.187-0.25,0.328-0.375,0.421c-0.126,0.093-0.267,0.187-0.422,0.281c-0.156,0.094-0.313,0.173-0.468,0.234
		c-0.156,0.063-0.313,0.109-0.468,0.14c-0.156,0.032-0.328,0.047-0.515,0.047c-0.937,0-1.686-0.375-2.248-1.124
		c-1.187-1.312-2.482-2.435-3.887-3.372c-1.405-0.937-3.044-1.405-4.917-1.405c-1.499,0-2.842,0.438-4.027,1.312
		c-1.187,0.875-2.685,2.341-4.496,4.402c-0.375,0.438-1.016,1.217-1.92,2.341c-0.906,1.124-1.671,2.046-2.294,2.763
		c-0.625,0.719-1.452,1.499-2.482,2.341c-1.03,0.843-2.014,1.484-2.95,1.92c-2.623,1.124-5.214,1.686-7.773,1.686
		c-1.686,0-3.31-0.249-4.87-0.749c0,3.247,0.937,6.057,2.81,8.429c1.373,1.749,3.185,3.123,5.432,4.121
		c2.248,1,4.589,1.499,7.024,1.499c1.124,0,2.201-0.062,3.231-0.188c1.03-0.124,1.981-0.342,2.856-0.655
		c0.874-0.312,1.654-0.624,2.341-0.937c0.687-0.312,1.436-0.733,2.248-1.265c0.811-0.53,1.452-0.967,1.92-1.311
		c0.468-0.342,1.108-0.827,1.92-1.452l0.281-0.281c0.437-0.375,0.937-0.78,1.499-1.217c0.562-0.436,0.983-0.78,1.265-1.03
		c0.281-0.249,0.702-0.593,1.264-1.03c0.811-0.749,1.436-1.295,1.873-1.639c0.437-0.342,0.952-0.733,1.545-1.17
		c0.593-0.436,1.108-0.75,1.545-0.937c0.436-0.188,0.874-0.343,1.311-0.468h0.094c0.125,0,0.234,0,0.328,0
		C46.859,22.478,47.03,22.463,47.281,22.431z"/>
</g>
</svg>
