<?xml version="1.0" encoding="iso-8859-1"?>
<!-- Generator: Adobe Illustrator 24.0.1, SVG Export Plug-In . SVG Version: 6.00 Build 0)  -->
<svg version="1.1" id="Layer_1" xmlns="http://www.w3.org/2000/svg" xmlns:xlink="http://www.w3.org/1999/xlink" x="0px" y="0px"
	 viewBox="0 0 80.985 95.762" style="enable-background:new 0 0 80.985 95.762;" xml:space="preserve">
<path d="M78.367,2.619c1.745,1.746,2.618,3.866,2.618,6.358v77.807c0,2.494-0.874,4.612-2.618,6.358
	c-1.746,1.745-3.866,2.619-6.359,2.619H12.251c-1.497,0-2.885-0.453-4.162-1.356c-1.279-0.904-1.917-2.447-1.917-4.629V77.713H3.086
	c-0.748,0-1.418-0.295-2.01-0.889c-0.593-0.592-0.889-1.293-0.889-2.104c0-0.248,0.031-0.498,0.094-0.748
	c0.062-0.248,0.155-0.481,0.28-0.701c0.125-0.218,0.281-0.421,0.468-0.607c0.187-0.188,0.389-0.342,0.608-0.468
	c0.218-0.124,0.452-0.218,0.701-0.28c0.249-0.062,0.499-0.094,0.748-0.094h3.086V59.851H3.086c-0.748,0-1.418-0.295-2.01-0.888
	c-0.593-0.592-0.889-1.293-0.889-2.104c0-0.374,0.078-0.748,0.234-1.122c0.155-0.374,0.374-0.686,0.655-0.936
	c0.28-0.248,0.592-0.451,0.935-0.607c0.342-0.155,0.701-0.234,1.075-0.234h3.086V41.803H3.18c-0.811,0-1.496-0.281-2.057-0.842
	c-0.562-0.562-0.842-1.247-0.842-2.058c0-0.498,0.124-0.982,0.374-1.449c0.249-0.468,0.608-0.826,1.075-1.076
	c0.468-0.248,0.95-0.374,1.45-0.374h2.993V23.94H2.899c-0.5,0-0.982-0.124-1.449-0.374c-0.468-0.248-0.827-0.607-1.076-1.075
	C0.125,22.023,0,21.541,0,21.042c0-0.81,0.281-1.512,0.842-2.104c0.561-0.592,1.247-0.889,2.057-0.889h3.273V6.173
	c0-1.06,0.202-2.042,0.608-2.946C7.185,2.323,7.87,1.56,8.837,0.936C9.803,0.313,10.972,0,12.344,0h59.664
	C74.501,0,76.621,0.874,78.367,2.619z M60.038,89.776V5.985H12.344c-0.063,0-0.125,0-0.187,0v0.188v11.876h2.899
	c0.81,0,1.497,0.297,2.058,0.889c0.561,0.593,0.842,1.295,0.842,2.104c0,0.811-0.281,1.496-0.842,2.057
	c-0.561,0.562-1.248,0.842-2.058,0.842h-2.899v12.063h3.18c0.436,0,0.826,0.079,1.169,0.234c0.342,0.156,0.655,0.359,0.935,0.607
	c0.281,0.25,0.482,0.562,0.608,0.936c0.124,0.374,0.187,0.748,0.187,1.122c0,0.562-0.125,1.061-0.374,1.496
	c-0.25,0.438-0.593,0.78-1.029,1.029c-0.437,0.249-0.935,0.374-1.496,0.374h-3.18v12.156h3.086c0.81,0,1.511,0.281,2.104,0.842
	c0.592,0.562,0.888,1.248,0.888,2.058c0,0.562-0.14,1.061-0.421,1.496c-0.28,0.438-0.64,0.795-1.075,1.076
	c-0.437,0.28-0.935,0.42-1.497,0.42h-3.086v11.971h3.086c0.436,0,0.826,0.079,1.169,0.233c0.342,0.156,0.655,0.359,0.936,0.608
	c0.28,0.25,0.498,0.561,0.654,0.935c0.155,0.374,0.234,0.748,0.234,1.122c0,0.812-0.296,1.513-0.888,2.104
	c-0.593,0.594-1.295,0.889-2.104,0.889h-3.086v12.063H60.038z M75,8.978c0-0.81-0.296-1.511-0.888-2.104
	c-0.593-0.592-1.295-0.889-2.104-0.889h-5.985v83.791h5.985c0.81,0,1.511-0.295,2.104-0.889C74.704,88.296,75,87.595,75,86.784
	V8.978z"/>
</svg>
