<?xml version="1.0" encoding="iso-8859-1"?>
<!-- Generator: Adobe Illustrator 24.0.1, SVG Export Plug-In . SVG Version: 6.00 Build 0)  -->
<svg version="1.1" id="icon" xmlns="http://www.w3.org/2000/svg" xmlns:xlink="http://www.w3.org/1999/xlink" x="0px" y="0px"
	 viewBox="0 0 92.956 23.566" style="enable-background:new 0 0 92.956 23.566;" xml:space="preserve">
<path d="M10.567,0h2.525c0.061,0,0.124,0.032,0.187,0.094l0.374,0.094c1.807,0.25,3.444,0.873,4.91,1.87
	c1.464,0.998,2.649,2.261,3.553,3.787c0.903,1.528,1.387,3.165,1.45,4.91c0.187,2.868-0.484,5.439-2.011,7.715
	c-1.528,2.276-3.663,3.819-6.406,4.629c-0.187,0-0.874,0.156-2.057,0.468h-2.525c-0.063,0-0.156-0.03-0.28-0.094
	c-0.126-0.062-0.219-0.094-0.281-0.094c-4.801-0.872-7.981-3.678-9.539-8.416c-0.063-0.188-0.125-0.389-0.187-0.608
	c-0.063-0.217-0.109-0.451-0.14-0.701C0.108,13.405,0.062,13.218,0,13.093v-2.619l0.094-0.093c0.062-0.188,0.093-0.312,0.093-0.374
	c0.249-1.621,0.779-3.102,1.59-4.442c0.81-1.34,1.854-2.462,3.133-3.366C6.187,1.295,7.636,0.654,9.258,0.28
	C9.507,0.22,9.944,0.126,10.567,0z M45.169,0h2.618c0.312,0.126,0.499,0.188,0.561,0.188c2.68,0.437,4.971,1.668,6.874,3.693
	c1.901,2.027,2.914,4.349,3.04,6.967c0.124,2.993-0.624,5.628-2.245,7.902c-1.622,2.276-3.803,3.757-6.546,4.442
	c-0.374,0.063-0.936,0.187-1.684,0.374h-2.618c-0.063,0-0.126-0.03-0.187-0.094l-0.374-0.094c-2.682-0.374-4.973-1.59-6.874-3.646
	c-1.903-2.058-2.915-4.396-3.04-7.014c-0.063-1.184,0.031-2.322,0.281-3.414c0.248-1.09,0.623-2.118,1.122-3.086
	c0.498-0.966,1.106-1.838,1.824-2.618c0.716-0.779,1.543-1.434,2.478-1.964c0.935-0.529,1.964-0.95,3.086-1.263
	C43.859,0.313,44.42,0.188,45.169,0z M82.388,23.566h-2.525c-0.063,0-0.125-0.03-0.187-0.094c-0.187-0.062-0.313-0.094-0.374-0.094
	c-1.309-0.187-2.557-0.592-3.741-1.215c-1.185-0.623-2.213-1.403-3.086-2.339c-0.874-0.935-1.59-1.994-2.151-3.179
	c-0.561-1.184-0.874-2.432-0.935-3.741c-0.25-2.93,0.389-5.518,1.917-7.762c1.527-2.244,3.662-3.771,6.406-4.582
	c0.187-0.062,0.405-0.124,0.655-0.188c0.249-0.062,0.514-0.124,0.795-0.187C79.443,0.126,79.676,0.063,79.863,0h2.525h0.188
	l0.374,0.188c2.431,0.374,4.535,1.388,6.312,3.039c1.777,1.652,2.914,3.693,3.414,6.125l0.28,1.122v2.525c0,0.063,0,0.126,0,0.187
	c-0.063,0.188-0.125,0.313-0.187,0.374c-0.374,2.432-1.372,4.505-2.992,6.22c-1.622,1.715-3.617,2.852-5.985,3.413
	c-0.187,0.063-0.467,0.156-0.841,0.28C82.7,23.536,82.513,23.566,82.388,23.566z"/>
</svg>
