<?xml version="1.0" encoding="iso-8859-1"?>
<!-- Generator: Adobe Illustrator 24.0.1, SVG Export Plug-In . SVG Version: 6.00 Build 0)  -->
<svg version="1.1" id="icon" xmlns="http://www.w3.org/2000/svg" xmlns:xlink="http://www.w3.org/1999/xlink" x="0px" y="0px"
	 viewBox="0 0 23.566 92.955" style="enable-background:new 0 0 23.566 92.955;" xml:space="preserve">
<path d="M23.566,10.567v2.524c-0.063,0.313-0.126,0.5-0.187,0.562c-0.374,2.682-1.575,4.973-3.601,6.873
	c-2.027,1.902-4.349,2.915-6.967,3.04c-1.933,0.125-3.741-0.141-5.424-0.795c-1.683-0.655-3.118-1.637-4.302-2.946
	c-1.185-1.31-2.057-2.867-2.618-4.676c0-0.187-0.156-0.872-0.468-2.058v-2.524c0-0.062,0.031-0.155,0.094-0.281l0.093-0.28
	c0.873-4.8,3.678-7.979,8.417-9.538c0.249-0.062,0.608-0.155,1.076-0.281C10.146,0.063,10.411,0,10.474,0h2.618l0.094,0.094
	c0.187,0.063,0.311,0.093,0.374,0.093c2.431,0.374,4.52,1.372,6.266,2.993c1.745,1.621,2.899,3.646,3.46,6.078
	c0,0.126,0.031,0.266,0.094,0.421c0.061,0.156,0.093,0.28,0.093,0.374S23.503,10.318,23.566,10.567z M23.566,45.168v2.619
	c-0.126,0.313-0.187,0.499-0.187,0.561c-0.437,2.682-1.669,4.973-3.694,6.874c-2.027,1.902-4.349,2.915-6.967,3.039
	c-2.993,0.126-5.627-0.622-7.902-2.244C2.54,54.396,1.06,52.214,0.374,49.47C0.312,49.096,0.187,48.535,0,47.787v-2.619
	c0.125-0.311,0.187-0.498,0.187-0.561c0.374-2.68,1.59-4.971,3.647-6.874c2.057-1.9,4.395-2.913,7.014-3.039
	c2.992-0.124,5.625,0.624,7.902,2.244c2.275,1.622,3.755,3.804,4.442,6.547C23.253,43.859,23.379,44.42,23.566,45.168z M0,82.388
	v-2.524c0-0.062,0.031-0.124,0.094-0.188l0.093-0.374c0.374-2.68,1.558-4.971,3.554-6.873c1.995-1.901,4.302-2.914,6.92-3.04
	c2.93-0.248,5.517,0.391,7.762,1.918c2.245,1.528,3.771,3.663,4.583,6.405c0.061,0.063,0.108,0.156,0.14,0.281
	c0.031,0.125,0.062,0.233,0.093,0.327c0.031,0.093,0.047,0.187,0.047,0.28s0.015,0.203,0.047,0.327
	c0.031,0.126,0.062,0.234,0.093,0.327c0.031,0.094,0.062,0.203,0.094,0.327c0.031,0.126,0.047,0.22,0.047,0.281v2.524
	c-0.063,0.313-0.126,0.5-0.187,0.562c-0.374,2.432-1.388,4.535-3.04,6.313c-1.652,1.776-3.694,2.913-6.125,3.413
	c-0.188,0.062-0.437,0.124-0.749,0.188c-0.187,0.061-0.313,0.093-0.374,0.093h-2.525c-0.063,0-0.125,0-0.187,0
	c-0.187-0.063-0.313-0.125-0.374-0.187c-2.432-0.374-4.505-1.372-6.219-2.993c-1.715-1.62-2.853-3.614-3.414-5.984
	c-0.063-0.188-0.14-0.436-0.234-0.748C0.047,82.731,0,82.514,0,82.388z"/>
</svg>
