<?xml version="1.0" encoding="iso-8859-1"?>
<!-- Generator: Adobe Illustrator 24.0.1, SVG Export Plug-In . SVG Version: 6.00 Build 0)  -->
<svg version="1.1" id="icon" xmlns="http://www.w3.org/2000/svg" xmlns:xlink="http://www.w3.org/1999/xlink" x="0px" y="0px"
	 viewBox="0 0 95.761 95.854" style="enable-background:new 0 0 95.761 95.854;" xml:space="preserve">
<path d="M76.216,53.959h13.56c1.621,0,3.023,0.593,4.208,1.776c1.184,1.186,1.777,2.588,1.777,4.208v29.926
	c0,1.62-0.593,3.023-1.777,4.208c-1.185,1.184-2.588,1.777-4.208,1.777H59.851c-1.622,0-3.024-0.594-4.208-1.777
	c-1.185-1.185-1.777-2.588-1.777-4.208V59.943c0-1.62,0.592-3.022,1.777-4.208c1.184-1.184,2.586-1.776,4.208-1.776h10.567v-3.554
	H25.25v3.554h10.661c1.62,0,3.023,0.593,4.208,1.776c1.184,1.186,1.777,2.588,1.777,4.208v29.926c0,1.62-0.593,3.023-1.777,4.208
	c-1.185,1.184-2.588,1.777-4.208,1.777H5.985c-1.622,0-3.024-0.594-4.208-1.777C0.592,92.893,0,91.489,0,89.869V59.943
	c0-1.62,0.592-3.022,1.777-4.208c1.184-1.184,2.586-1.776,4.208-1.776h13.467v-5.611c0-0.936,0.498-1.684,1.496-2.244
	c0.997-0.562,2.151-0.842,3.46-0.842h20.574v-3.366H32.076c-1.622,0-3.024-0.592-4.208-1.777c-1.185-1.184-1.777-2.586-1.777-4.208
	V5.984c0-1.62,0.592-3.022,1.777-4.208C29.052,0.593,30.454,0,32.076,0h29.925c1.621,0,3.023,0.593,4.208,1.776
	c1.184,1.186,1.777,2.588,1.777,4.208V35.91c0,1.622-0.593,3.024-1.777,4.208c-1.185,1.186-2.588,1.777-4.208,1.777H50.967v3.46
	c2.556,0,5.922-0.015,10.1-0.047c4.176-0.031,7.575-0.047,10.193-0.047c1.309,0,2.462,0.266,3.46,0.795
	c0.997,0.53,1.497,1.295,1.497,2.291V53.959z M35.911,59.943H5.985v29.926h29.926V59.943z M62.001,5.984H32.076V35.91h29.925V5.984z
	 M89.776,59.943H59.851v29.926h29.925V59.943z"/>
</svg>
