<?xml version="1.0" encoding="iso-8859-1"?>
<!-- Generator: Adobe Illustrator 24.0.1, SVG Export Plug-In . SVG Version: 6.00 Build 0)  -->
<svg version="1.1" id="icon" xmlns="http://www.w3.org/2000/svg" xmlns:xlink="http://www.w3.org/1999/xlink" x="0px" y="0px"
	 viewBox="0 0 95.858 95.717" style="enable-background:new 0 0 95.858 95.717;" xml:space="preserve">
<g>
	<path d="M95.734,1.03c0.249,0.688,0.124,1.625-0.375,2.81L57.054,93.188c-0.688,1.686-1.655,2.529-2.904,2.529
		c-0.5,0-1-0.172-1.498-0.515c-0.5-0.344-0.969-0.859-1.405-1.545L36.074,68.838c-0.562-0.998-1.343-2.061-2.341-3.185
		c-1-1.124-2.061-2.185-3.184-3.184c-1.124-0.998-2.187-1.81-3.185-2.435L2.077,44.3c-0.937-0.624-1.562-1.311-1.874-2.061
		c-0.312-0.749-0.266-1.452,0.141-2.107c0.405-0.655,1.139-1.232,2.201-1.732L91.987,0.468C92.798,0.157,93.486,0,94.048,0
		C94.921,0,95.483,0.344,95.734,1.03z M34.482,57.786l44.299-45.049L10.038,41.958l20.511,12.737
		C31.734,55.445,33.045,56.475,34.482,57.786z M83.09,16.858L38.697,62.001c0.375,0.438,0.717,0.859,1.03,1.264
		c0.312,0.407,0.624,0.829,0.937,1.265c0.312,0.438,0.562,0.843,0.749,1.217l12.269,19.949L83.09,16.858z"/>
</g>
</svg>
