<?xml version="1.0" encoding="iso-8859-1"?>
<!-- Generator: Adobe Illustrator 24.0.1, SVG Export Plug-In . SVG Version: 6.00 Build 0)  -->
<svg version="1.1" id="icon" xmlns="http://www.w3.org/2000/svg" xmlns:xlink="http://www.w3.org/1999/xlink" x="0px" y="0px"
	 viewBox="0 0 95.948 92.78" style="enable-background:new 0 0 95.948 92.78;" xml:space="preserve">
<path d="M16.272,92.78c-4.178,0-7.888-1.622-11.128-4.863C1.714,84.489,0,80.327,0,75.432c0-4.894,1.714-9.056,5.144-12.484
	L58.916,5.902c2.743-2.805,5.906-4.612,9.492-5.424c3.584-0.81,7.216-0.592,10.895,0.655c3.678,1.247,7.075,3.398,10.193,6.452
	c0.997,1.061,1.917,2.229,2.759,3.507c0.841,1.278,1.527,2.619,2.057,4.021c0.529,1.402,0.935,2.885,1.216,4.442
	c0.281,1.559,0.421,3.118,0.421,4.676c-0.126,6.608-2.37,12.126-6.733,16.552l-40.68,43.205c-0.561,0.624-1.248,0.951-2.057,0.981
	c-0.811,0.032-1.513-0.233-2.104-0.794c-0.593-0.562-0.904-1.263-0.935-2.104c-0.032-0.842,0.234-1.574,0.795-2.197l40.68-43.205
	c3.304-3.367,4.987-7.543,5.05-12.531c0.062-4.987-1.528-9.071-4.769-12.251c-1.996-2.058-4.208-3.615-6.64-4.676
	c-2.432-1.06-5.05-1.402-7.855-1.028c-2.806,0.374-5.3,1.652-7.481,3.834L9.445,67.062c-2.307,2.308-3.46,5.082-3.46,8.323
	c0,3.242,1.153,6.018,3.46,8.323c1.059,1.061,2.212,1.855,3.46,2.385c1.247,0.53,2.556,0.733,3.928,0.607
	c2.743-0.124,5.298-1.402,7.668-3.834l42.737-45.449c0.312-0.312,0.608-0.639,0.889-0.982c0.28-0.342,0.576-0.748,0.888-1.215
	c0.312-0.468,0.562-0.966,0.749-1.497c0.187-0.528,0.311-1.059,0.374-1.59c0.061-0.528-0.032-1.075-0.281-1.636
	c-0.25-0.562-0.624-1.091-1.122-1.59c-1.185-1.247-2.338-1.808-3.46-1.684c-1.185,0.126-2.525,0.904-4.021,2.338L29.083,63.79
	c-0.374,0.374-0.811,0.64-1.309,0.795c-0.5,0.156-1.014,0.172-1.543,0.046c-0.53-0.124-0.982-0.374-1.356-0.748
	c-0.624-0.561-0.935-1.246-0.935-2.057c0-0.81,0.28-1.527,0.841-2.151l32.17-34.32c2.556-2.493,5.144-3.865,7.762-4.115
	c2.993-0.248,5.735,0.874,8.229,3.367c2.369,2.307,3.414,5.019,3.133,8.136c-0.28,3.118-1.793,6.048-4.536,8.79L28.803,87.075
	c-3.492,3.491-7.388,5.361-11.689,5.611c-0.126,0-0.266,0.015-0.421,0.047C16.537,92.764,16.396,92.78,16.272,92.78z"/>
</svg>
