<?xml version="1.0" encoding="iso-8859-1"?>
<!-- Generator: Adobe Illustrator 24.0.1, SVG Export Plug-In . SVG Version: 6.00 Build 0)  -->
<svg version="1.1" id="Layer_1" xmlns="http://www.w3.org/2000/svg" xmlns:xlink="http://www.w3.org/1999/xlink" x="0px" y="0px"
	 viewBox="0 0 82.052 96" style="enable-background:new 0 0 82.052 96;" xml:space="preserve">
<path d="M22.95,80H2.75c-0.374,0-0.748,0.141-1.122-0.015c-0.375-0.155-0.718-0.279-1.029-0.593c-0.5-0.685-0.687-1.409-0.561-2.283
	L12.943,6.812c0.374-1.932,1.293-3.701,2.759-4.855C17.166,0.804,18.896,0,20.892,0h31.047c6.234,0,11.269,2.064,15.103,5.711
	c3.834,3.647,5.751,8.553,5.751,14.476c0,2.057-0.25,4.347-0.748,6.747c-0.5,2.4-1.216,4.925-2.151,7.51
	c-0.935,2.588-2.183,5.098-3.741,7.496c-1.559,2.401-3.336,4.559-5.331,6.461c-1.996,1.902-4.395,3.603-7.201,4.726
	S47.825,55,44.645,55h-13.56l-5.424,23.566c-0.126,0.374-0.313,0.64-0.561,0.983c-0.25,0.343-0.562,0.327-0.936,0.483
	C23.791,80.188,23.385,80,22.95,80z M6.117,75h14.588l5.518-23.699c0.124-0.623,0.436-1.211,0.935-1.618
	C27.656,49.278,28.217,49,28.841,49h15.805c1.932,0,3.771-0.226,5.518-0.787c1.745-0.561,3.304-1.296,4.676-2.264
	c1.371-0.966,2.665-2.091,3.881-3.399c1.216-1.31,2.259-2.705,3.133-4.201c0.872-1.497,1.667-3.037,2.385-4.626
	c0.716-1.59,1.293-3.192,1.73-4.814c0.436-1.621,0.763-3.147,0.982-4.582c0.218-1.433,0.327-2.773,0.327-4.02
	c0-2.182-0.359-4.162-1.075-5.938c-0.718-1.777-1.746-3.273-3.086-4.489c-1.341-1.216-2.961-2.164-4.863-2.85
	C56.35,6.343,54.246,6,51.939,6H20.892c-1.435,0-2.276,0.694-2.525,2.003L6.117,75z M12.289,96c-0.811,0-1.496-0.206-2.057-0.861
	c-0.562-0.654-0.78-1.327-0.655-2.137l2.619-14.745c0.124-0.749,0.498-1.325,1.122-1.762c0.623-0.436,1.309-0.584,2.057-0.46
	c0.499,0.063,0.936,0.27,1.31,0.612c0.374,0.343,0.654,0.735,0.841,1.171c0.187,0.437,0.218,1.043,0.094,1.541L15.655,91h14.588
	l5.237-24.078c0.124-0.436,0.311-0.878,0.561-1.191c0.248-0.312,0.561-0.412,0.935-0.599C37.351,64.944,37.756,65,38.193,65h15.804
	c2.182,0,4.255-0.558,6.219-1.306c1.964-0.748,3.678-1.821,5.144-3.037c1.464-1.216,2.836-2.679,4.115-4.301
	c1.277-1.621,2.338-3.343,3.18-5.12c0.841-1.777,1.558-3.596,2.151-5.435c0.592-1.839,1.028-3.606,1.309-5.29
	s0.421-3.244,0.421-4.679c0-6.359-2.619-10.693-7.855-13c-0.748-0.311-1.263-0.826-1.543-1.544
	c-0.281-0.716-0.266-1.417,0.047-2.104c0.311-0.686,0.825-1.169,1.543-1.45c0.716-0.28,1.417-0.265,2.104,0.047
	c2.432,1.061,4.489,2.447,6.172,4.162c1.684,1.715,2.946,3.756,3.788,6.125c0.842,2.37,1.263,4.956,1.263,7.762
	c0,2.494-0.328,5.206-0.982,8.136c-0.655,2.932-1.73,5.955-3.227,9.071c-1.496,3.118-3.289,5.938-5.377,8.463
	c-2.09,2.525-4.739,4.524-7.949,6.145C61.306,69.266,57.799,70,53.997,70h-13.56L35.2,94.016c-0.125,0.623-0.437,1.053-0.935,1.46
	C33.765,95.88,33.173,96,32.488,96H12.289z M36.135,39h-5.424c-0.874,0-1.59-0.29-2.151-0.978c-0.125-0.124-0.234-0.254-0.327-0.442
	c-0.094-0.187-0.168-0.361-0.229-0.548c-0.063-0.188-0.089-0.376-0.089-0.595c0-0.217,0-0.42,0-0.607l3.643-20.106
	c0.061-0.374,0.185-0.701,0.372-0.981s0.388-0.515,0.607-0.701c0.217-0.188,0.481-0.535,0.794-0.661
	c0.311-0.124,0.622-0.38,0.934-0.38h8.791c3.428,0,5.985,1.222,7.668,3.279c1.87,2.184,2.462,5.366,1.777,9.355
	c-0.437,3.118-1.295,5.705-2.572,7.669c-1.279,1.964-3.04,3.387-5.284,4.321C42.401,38.56,39.563,39,36.135,39z M33.984,34h2.151
	c3.865,0,6.546-0.877,8.042-2.218c1.496-1.34,2.462-3.704,2.899-6.884c0.374-2.306,0.187-3.947-0.561-4.821
	c-0.25-0.248-0.577-0.493-0.982-0.68c-0.406-0.187-0.795-0.276-1.169-0.339C43.991,18.997,43.554,19,43.056,19h-6.453L33.984,34z"/>
</svg>
