<?xml version="1.0" encoding="iso-8859-1"?>
<!-- Generator: Adobe Illustrator 24.0.1, SVG Export Plug-In . SVG Version: 6.00 Build 0)  -->
<svg version="1.1" id="Layer_1" xmlns="http://www.w3.org/2000/svg" xmlns:xlink="http://www.w3.org/1999/xlink" x="0px" y="0px"
	 viewBox="0 0 95.979 95.947" style="enable-background:new 0 0 95.979 95.947;" xml:space="preserve">
<path d="M95.978,15.991c0.061,4.053-1.746,7.98-5.424,11.783c-1.497,1.559-10.006,10.022-25.53,25.39
	C49.5,68.533,38.184,79.738,31.077,86.783c-0.187,0.187-0.39,0.344-0.608,0.468c-0.219,0.125-0.453,0.219-0.701,0.28
	c-4.053,1.185-12.657,3.928-25.811,8.229c-0.25,0.124-0.561,0.187-0.935,0.187c-0.126,0-0.25-0.016-0.374-0.046
	c-0.126-0.032-0.25-0.063-0.374-0.094c-0.126-0.032-0.25-0.079-0.375-0.141c-0.125-0.063-0.233-0.125-0.327-0.187
	c-0.093-0.063-0.203-0.126-0.327-0.188c-0.126-0.063-0.219-0.156-0.281-0.28c-0.874-0.874-1.153-1.902-0.841-3.086
	C5.11,75.468,7.729,66.709,7.978,65.648c0.187-0.498,0.468-0.936,0.842-1.31C47.162,25.936,66.894,6.204,68.016,5.143
	C71.444,1.715,75.31,0,79.612,0c1.932,0,3.788,0.406,5.564,1.215c1.777,0.812,3.475,1.996,5.097,3.554
	C94.014,8.322,95.915,12.063,95.978,15.991z M10.316,78.787C8.82,83.433,7.791,86.689,7.23,88.56
	c2.058-0.685,5.438-1.808,10.146-3.366c4.707-1.558,7.683-2.556,8.931-2.992c-0.874-2.867-2.37-5.361-4.489-7.481
	c-2.682-2.68-5.55-4.426-8.604-5.237C12.778,71.042,11.813,74.144,10.316,78.787z M52.165,29.551
	c-6.516,6.485-13.405,13.373-20.667,20.667c-7.264,7.295-11.986,12.033-14.167,14.215c3.241,1.31,6.172,3.273,8.791,5.892
	c2.182,2.244,3.896,4.802,5.143,7.668C55.827,53.678,72.318,37.345,80.734,28.99c-0.126-0.623-0.297-1.294-0.515-2.011
	c-0.219-0.717-0.717-1.792-1.496-3.227c-0.78-1.434-1.73-2.712-2.852-3.834c-2.744-2.743-5.674-4.489-8.791-5.237
	C63.651,18.111,58.679,23.067,52.165,29.551z M88.964,19.731c0.622-1.246,0.935-2.432,0.935-3.554s-0.327-2.274-0.982-3.46
	c-0.655-1.184-1.606-2.368-2.853-3.554c-0.998-0.996-2.042-1.744-3.133-2.244c-1.091-0.498-2.197-0.748-3.32-0.748
	c-1.185,0-2.384,0.28-3.6,0.842c-1.216,0.561-2.058,1.028-2.525,1.402c-0.468,0.374-0.858,0.718-1.169,1.028l-0.187,0.188
	c-0.126,0.126-0.219,0.219-0.281,0.28c3.054,1.31,5.829,3.212,8.323,5.705c2.368,2.431,4.176,5.269,5.424,8.51
	c0.124-0.124,0.218-0.218,0.28-0.28c0.062-0.062,0.125-0.125,0.187-0.188c0.062-0.062,0.094-0.124,0.094-0.187
	C87.405,22.226,88.34,20.979,88.964,19.731z"/>
</svg>
