<?xml version="1.0" encoding="iso-8859-1"?>
<!-- Generator: Adobe Illustrator 24.0.1, SVG Export Plug-In . SVG Version: 6.00 Build 0)  -->
<svg version="1.1" id="Layer_1" xmlns="http://www.w3.org/2000/svg" xmlns:xlink="http://www.w3.org/1999/xlink" x="0px" y="0px"
	 viewBox="0 0 95.761 95.854" style="enable-background:new 0 0 95.761 95.854;" xml:space="preserve">
<path d="M70.044,78.366c0.187,0.063,0.421,0.173,0.702,0.328c0.28,0.156,0.607,0.343,0.982,0.561
	c0.374,0.22,0.748,0.483,1.122,0.795c0.374,0.313,0.701,0.624,0.982,0.936c0.28,0.313,0.514,0.67,0.701,1.075
	c0.187,0.406,0.281,0.795,0.281,1.169v7.575c0,1.433-0.5,2.633-1.497,3.6c-0.998,0.966-2.183,1.45-3.553,1.45H5.05
	c-1.372,0-2.557-0.484-3.554-1.45C0.498,93.438,0,92.237,0,90.805v-7.575c0-0.81,0.468-1.651,1.403-2.525
	c0.935-0.872,1.683-1.464,2.244-1.776c0.561-0.312,1.029-0.562,1.403-0.748l19.358-10.474c-3.179-2.556-5.549-6.047-7.107-10.475
	c-1.559-4.426-2.338-8.384-2.338-11.876V32.73c0-1.62,0.42-3.304,1.262-5.05c0.842-1.745,2.011-3.351,3.507-4.816
	c1.497-1.464,3.18-2.789,5.05-3.975c1.871-1.184,3.928-2.118,6.172-2.806c2.244-0.685,4.426-1.028,6.546-1.028
	c3.615,0,7.169,0.889,10.661,2.665c3.491,1.777,6.313,4.037,8.463,6.78c2.151,2.744,3.226,5.486,3.226,8.229v12.625
	c0,3.866-0.701,7.948-2.104,12.25s-3.663,7.701-6.78,10.193L69.764,78.18L70.044,78.366z M68.828,84.539
	c-0.5-0.374-0.967-0.655-1.402-0.842l-0.562-0.281l-18.797-10.38c-1.87-1.06-2.899-2.649-3.086-4.77
	c-0.187-2.118,0.561-3.864,2.245-5.236c2.306-1.808,3.989-4.442,5.05-7.902c1.06-3.46,1.59-6.718,1.59-9.772V32.73
	c0-2.432-1.7-4.987-5.097-7.668c-3.399-2.681-7.154-4.021-11.269-4.021c-3.99,0-7.747,1.355-11.269,4.067
	c-3.523,2.713-5.284,5.254-5.284,7.622v12.625c0,1.248,0.14,2.65,0.421,4.208c0.28,1.559,0.701,3.18,1.262,4.863
	c0.562,1.683,1.324,3.305,2.292,4.862c0.966,1.56,2.041,2.806,3.226,3.741c1.621,1.372,2.338,3.118,2.151,5.236
	c0,0.313-0.047,0.624-0.14,0.936c-0.094,0.313-0.203,0.624-0.327,0.935c-0.126,0.313-0.281,0.608-0.468,0.889
	s-0.39,0.53-0.608,0.748c-0.219,0.22-0.453,0.438-0.701,0.655c-0.25,0.219-0.531,0.39-0.842,0.514L7.855,83.51l-0.374,0.188
	c-0.5,0.187-0.998,0.468-1.497,0.842v5.33h62.843V84.539z M91.927,63.871c0.873,0.438,1.73,1.076,2.572,1.918
	c0.842,0.841,1.263,1.699,1.263,2.571v7.481c0,0.935-0.219,1.793-0.655,2.571c-0.437,0.78-1.045,1.389-1.824,1.824
	c-0.78,0.437-1.636,0.654-2.571,0.654h-9.913c-0.313-1.06-0.561-1.87-0.748-2.432c-0.187-0.561-0.484-1.184-0.888-1.87
	c-0.406-0.686-0.889-1.246-1.45-1.684h12.063v-5.33c-0.125-0.062-0.233-0.124-0.327-0.188c-0.094-0.062-0.203-0.124-0.327-0.187
	c-0.126-0.062-0.25-0.124-0.374-0.188c-0.126-0.062-0.234-0.124-0.328-0.187c-0.093-0.062-0.187-0.108-0.28-0.141
	c-0.094-0.03-0.203-0.077-0.328-0.141l-19.077-10.38c-0.374-0.248-0.717-0.498-1.029-0.748c-0.313-0.248-0.577-0.529-0.795-0.842
	c-0.219-0.312-0.421-0.639-0.608-0.981s-0.343-0.702-0.467-1.076c-0.126-0.374-0.187-0.748-0.187-1.122
	c-0.187-2.182,0.561-3.928,2.244-5.236c2.306-1.808,4.036-4.474,5.19-7.996c1.153-3.521,1.73-6.748,1.73-9.679V17.861
	c0-2.432-1.746-5.003-5.237-7.715c-3.493-2.712-7.294-4.068-11.409-4.068c-4.241,0-8.042,1.278-11.409,3.834
	c-0.437-0.124-0.904-0.233-1.403-0.327c-0.5-0.094-1.044-0.171-1.636-0.233c-0.593-0.062-1.076-0.108-1.45-0.141
	c-0.374-0.03-0.904-0.062-1.59-0.094c-0.687-0.03-1.185-0.047-1.496-0.047c2.244-2.618,5.097-4.783,8.557-6.499
	C51.2,0.857,54.675,0,58.167,0c2.743,0,5.501,0.546,8.276,1.636c2.773,1.092,5.19,2.479,7.248,4.162
	c2.057,1.683,3.755,3.601,5.096,5.751c1.34,2.151,2.011,4.255,2.011,6.313v12.625c0,1.622-0.156,3.383-0.467,5.283
	c-0.313,1.902-0.811,3.913-1.497,6.032c-0.687,2.12-1.652,4.161-2.899,6.125c-1.248,1.964-2.681,3.601-4.302,4.91l19.078,10.474
	L91.927,63.871z"/>
</svg>
