<?xml version="1.0" encoding="iso-8859-1"?>
<!-- Generator: Adobe Illustrator 24.0.1, SVG Export Plug-In . SVG Version: 6.00 Build 0)  -->
<svg version="1.1" id="icon" xmlns="http://www.w3.org/2000/svg" xmlns:xlink="http://www.w3.org/1999/xlink" x="0px" y="0px"
	 viewBox="0 0 93.086 92.769" style="enable-background:new 0 0 93.086 92.769;" xml:space="preserve">
<path d="M23.005,2.15c3.554,4.863,7.729,11.099,12.531,18.704c1.184,1.996,0.997,4.458-0.561,7.388
	c-0.5,0.998-1.996,3.772-4.489,8.323c0.498,0.748,1.075,1.528,1.73,2.338c0.654,0.811,1.356,1.668,2.104,2.571
	c0.748,0.904,1.558,1.823,2.432,2.759c0.872,0.936,1.791,1.917,2.758,2.945c0.966,1.029,1.979,2.074,3.04,3.133
	c5.485,5.487,10.037,9.539,13.653,12.157c4.052-2.368,6.827-3.928,8.323-4.676c1.558-0.872,3.054-1.309,4.489-1.309
	c1.122,0,2.088,0.25,2.899,0.748c5.548,3.366,11.844,7.544,18.89,12.531c1.247,0.998,1.995,2.307,2.245,3.928
	c0.187,1.683-0.343,3.492-1.59,5.424c-0.5,0.748-1.465,1.996-2.899,3.74c-1.309,1.622-3.289,3.68-5.938,6.173
	c-2.65,2.492-4.816,3.74-6.5,3.74h-0.187c-6.422-0.25-13.56-2.774-21.415-7.575c-7.855-4.8-16.459-11.844-25.811-21.135
	C10.068,45.355,0.499,29.614,0,16.833c0-1.684,1.247-3.896,3.741-6.64c2.432-2.618,4.457-4.582,6.079-5.892
	c1.621-1.246,2.93-2.212,3.928-2.899C15.056,0.468,16.583,0,18.33,0C20.324,0,21.883,0.718,23.005,2.15z M17.02,5.985
	c-2.431,1.746-4.801,3.772-7.107,6.078c-2.245,2.244-3.554,3.897-3.928,4.957c0.498,11.222,9.459,25.529,26.886,42.924
	c17.425,17.394,31.78,26.403,43.064,27.026c0.936-0.374,2.525-1.714,4.77-4.021c2.245-2.306,4.27-4.706,6.079-7.201
	c0.187-0.248,0.311-0.481,0.374-0.701c0.062-0.218,0.062-0.421,0-0.607c-7.17-4.987-13.218-9.039-18.142-12.157
	c-0.5,0-1.123,0.187-1.871,0.561c-0.25,0.126-1.248,0.688-2.992,1.684c-1.746,0.998-3.46,1.934-5.144,2.806l-3.086,1.87
	l-3.086-2.058c-3.928-2.68-8.76-6.95-14.495-12.812c-5.611-5.672-9.819-10.504-12.625-14.495l-2.245-2.898l1.871-3.273
	c2.306-4.176,3.802-6.888,4.489-8.136c0.374-0.748,0.561-1.371,0.561-1.87c-2.12-3.367-4.178-6.562-6.172-9.586
	c-1.996-3.023-3.897-5.845-5.705-8.463H18.33C17.83,5.611,17.394,5.736,17.02,5.985z"/>
</svg>
