<?xml version="1.0" encoding="iso-8859-1"?>
<!-- Generator: Adobe Illustrator 24.0.1, SVG Export Plug-In . SVG Version: 6.00 Build 0)  -->
<svg version="1.1" id="Layer_1" xmlns="http://www.w3.org/2000/svg" xmlns:xlink="http://www.w3.org/1999/xlink" x="0px" y="0px"
	 viewBox="0 0 96 81" style="enable-background:new 0 0 96 81;" xml:space="preserve">
<path d="M92.971,0.993c0.935,0.53,1.685,1.362,2.216,2.297C95.716,4.224,96,5.321,96,6.381v68.828c0,1.622-0.611,2.927-1.795,4.111
	C93.02,80.505,91.599,81,89.979,81H6.188c-1.622,0-3.126-0.495-4.309-1.68C0.693,78.136,0,76.831,0,75.209V6.381
	C0,4.76,0.693,3.16,1.878,1.975C3.062,0.791,4.566,0,6.188,0h83.791C91.038,0,92.036,0.464,92.971,0.993z M90,6H6v43.212
	l21.977-21.229c0.622-0.623,1.418-0.903,2.291-0.842c0.873,0.063,1.613,0.437,2.174,1.122l24.7,24.501l11.321-9.818
	c0.623-0.499,1.296-0.717,2.014-0.655c0.716,0.063,1.368,0.344,1.929,0.842L90,61.181V6z M90,69.691c0-0.124-0.23-0.187-0.291-0.187
	L70.065,49.212l-10.944,9.912c-0.687,0.5-1.42,0.765-2.199,0.795c-0.78,0.032-1.42-0.265-1.918-0.889L30.128,34.343L6,57.628V75h84
	V69.691z M64.823,28.591c-1.185-1.152-1.777-2.556-1.777-4.208c0-1.651,0.592-3.07,1.777-4.255c1.184-1.184,2.586-1.777,4.208-1.777
	c1.621,0,3.023,0.594,4.208,1.777c1.184,1.185,1.777,2.588,1.777,4.208c0,1.122-0.266,2.137-0.795,3.039
	c-0.53,0.904-1.263,1.622-2.198,2.151c-0.935,0.53-1.933,0.795-2.993,0.795C67.409,30.321,66.007,29.745,64.823,28.591z"/>
</svg>
