<?xml version="1.0" encoding="iso-8859-1"?>
<!-- Generator: Adobe Illustrator 24.0.1, SVG Export Plug-In . SVG Version: 6.00 Build 0)  -->
<svg version="1.1" id="Layer_1" xmlns="http://www.w3.org/2000/svg" xmlns:xlink="http://www.w3.org/1999/xlink" x="0px" y="0px"
	 viewBox="0 0 95.761 95.756" style="enable-background:new 0 0 95.761 95.756;" xml:space="preserve">
<path d="M44.724,42.732c-0.063,0.25-0.122,0.483-0.246,0.701c-0.125,0.22-0.263,0.421-0.45,0.608
	c-0.187,0.187-0.381,0.343-0.599,0.468c-0.219,0.125-0.449,0.404-0.697,0.466c-0.25,0.063-0.526,0.279-0.837,0.279H2.992
	c-0.811,0-1.512-0.467-2.104-1.027C0.295,43.665,0,42.857,0,41.983c0-5.735,1.106-11.236,3.32-16.412
	c2.212-5.174,5.174-9.639,8.884-13.349c3.708-3.708,8.151-6.682,13.326-8.895C30.704,1.114,36.159,0,41.895,0
	c0.873,0,1.52,0.294,2.081,0.886c0.562,0.594,0.772,1.292,0.772,2.102V41.89C44.748,42.203,44.785,42.483,44.724,42.732z
	 M38.748,6.073c-9,0.748-16.194,4.386-22.367,10.558c-6.172,6.173-9.554,13.623-10.303,22.623h32.67V6.073z M75.468,14.256
	c6.42,3.71,11.409,8.807,14.963,15.29c3.553,6.484,5.33,13.747,5.33,21.789c0,3.056-0.296,6.048-0.888,8.978
	c-0.593,2.932-1.45,5.705-2.572,8.323s-2.494,5.129-4.115,7.528c-1.622,2.4-3.429,4.599-5.424,6.593
	c-1.996,1.996-4.194,3.804-6.593,5.424c-2.4,1.62-4.91,2.992-7.528,4.115c-2.619,1.122-5.394,1.978-8.323,2.571
	c-2.931,0.592-5.923,0.889-8.978,0.889c-8.042,0-15.322-1.824-21.836-5.471c-6.516-3.647-11.612-8.712-15.29-15.196
	c-3.679-6.483-5.518-13.747-5.518-21.79c0-0.81,0.295-1.511,0.889-2.104c0.592-0.592,1.309-0.889,2.151-0.889
	c0.841,0,1.543,0.297,2.104,0.889c0.561,0.593,0.842,1.294,0.842,2.104c0,10.6,3.46,19.327,10.38,26.185
	c6.92,6.859,15.679,10.287,26.278,10.287c5.237,0,10.224-1.013,14.963-3.039c4.737-2.025,8.821-4.754,12.25-8.183
	c3.428-3.429,6.156-7.513,8.183-12.251c2.025-4.737,3.04-9.726,3.04-14.963c0-5.236-0.889-10.114-2.666-14.635
	c-1.776-4.52-4.224-8.385-7.341-11.597c-3.118-3.21-6.92-5.751-11.409-7.621c-4.489-1.871-9.321-2.806-14.495-2.806
	c-0.874,0-1.59-0.28-2.151-0.842s-0.841-1.263-0.841-2.104c0-0.841,0.28-1.558,0.841-2.15c0.561-0.592,1.277-0.889,2.151-0.889
	C61.845,8.691,69.046,10.547,75.468,14.256z"/>
</svg>
