<?xml version="1.0" encoding="iso-8859-1"?>
<!-- Generator: Adobe Illustrator 24.0.1, SVG Export Plug-In . SVG Version: 6.00 Build 0)  -->
<svg version="1.1" id="Layer_1" xmlns="http://www.w3.org/2000/svg" xmlns:xlink="http://www.w3.org/1999/xlink" x="0px" y="0px"
	 viewBox="0 0 95.76 95.755" style="enable-background:new 0 0 95.76 95.755;" xml:space="preserve">
<path d="M95.667,36.839c0.124,0.5,0.124,0.998,0,1.496c-0.25,1.062-0.905,1.777-1.964,2.151c-1.746,0.5-3.492,0.889-5.237,1.169
	c-1.747,0.28-3.46,0.421-5.144,0.421c-1.31,0-2.604-0.094-3.881-0.28c-1.279-0.188-2.541-0.468-3.788-0.842
	c-0.063,0-0.125,0.063-0.187,0.187L59.103,57.506c4.052,8.791,4.707,17.613,1.964,26.466c-0.126,0.313-0.297,0.607-0.515,0.889
	c-0.219,0.28-0.467,0.514-0.748,0.701c-0.281,0.187-0.577,0.343-0.888,0.468c-0.25,0.063-0.5,0.093-0.749,0.093
	c-0.811,0-1.528-0.311-2.151-0.935L35.349,64.333L5.985,93.417L0,95.755l2.431-6.547l28.709-29.083l-20.48-20.667
	c-0.374-0.375-0.64-0.81-0.795-1.31c-0.156-0.498-0.172-0.997-0.047-1.496c0.312-1.06,0.997-1.777,2.058-2.151
	c3.304-0.996,6.701-1.496,10.193-1.496c5.548,0,10.972,1.216,16.272,3.647l15.991-15.991c0.062-0.062,0.124-0.125,0.187-0.188
	c0.062-0.062,0.155-0.124,0.281-0.187c-1.622-5.485-1.403-11.534,0.654-18.143c0.125-0.374,0.295-0.686,0.515-0.936
	c0.217-0.248,0.467-0.482,0.748-0.701c0.28-0.218,0.576-0.358,0.888-0.421c1.122-0.248,2.088,0.032,2.899,0.842l34.415,34.602
	C95.293,35.905,95.542,36.341,95.667,36.839z M54.613,62.416c-1.746-4.894-4.489-9.212-8.229-12.952
	c-2.495-2.493-5.27-4.582-8.323-6.266c-3.055-1.684-6.235-2.867-9.539-3.554c-3.305-0.686-6.579-0.842-9.819-0.468L56.39,77.051
	C56.952,72.189,56.358,67.311,54.613,62.416z M69.67,38.523c-2.495-1.434-4.863-3.241-7.107-5.424
	c-2.183-2.182-3.96-4.489-5.331-6.921L43.766,39.645c1.247,0.811,2.446,1.684,3.601,2.618c1.153,0.936,2.228,1.934,3.226,2.993
	c0.561,0.499,1.09,1.028,1.59,1.59c0.498,0.561,0.966,1.122,1.403,1.683c0.436,0.562,0.872,1.139,1.309,1.73
	c0.436,0.593,0.842,1.201,1.216,1.823L69.67,38.523z M86.877,35.905L60.038,8.971c-1.185,7.545,1.09,14.153,6.827,19.826
	C72.662,34.595,79.333,36.965,86.877,35.905z"/>
</svg>
