<?xml version="1.0" encoding="iso-8859-1"?>
<!-- Generator: Adobe Illustrator 24.0.1, SVG Export Plug-In . SVG Version: 6.00 Build 0)  -->
<svg version="1.1" id="Layer_1" xmlns="http://www.w3.org/2000/svg" xmlns:xlink="http://www.w3.org/1999/xlink" x="0px" y="0px"
	 viewBox="0 0 95.594 95.387" style="enable-background:new 0 0 95.594 95.387;" xml:space="preserve">
<path d="M89.267,0.14c0.655,0.094,1.247,0.234,1.777,0.421c0.529,0.188,1.013,0.406,1.45,0.655c0.436,0.25,0.81,0.53,1.122,0.842
	c0.686,0.624,1.2,1.59,1.543,2.898c0.342,1.31,0.482,2.775,0.421,4.396c-0.063,1.622-0.546,3.383-1.449,5.283
	c-0.905,1.903-2.167,3.694-3.788,5.378L70.611,39.744c0.187,3.056,0.482,7.935,0.888,14.636c0.405,6.702,0.748,12.547,1.029,17.534
	c0.281,4.988,0.421,7.544,0.421,7.669c0.124,1.87-0.437,3.553-1.684,5.05c-0.561,0.687-1.388,1.636-2.478,2.852
	c-1.091,1.216-1.902,2.104-2.431,2.666c-0.531,0.561-0.952,0.996-1.263,1.309c-0.5,0.498-1.045,0.889-1.637,1.169
	c-0.593,0.281-1.169,0.421-1.73,0.421c-0.187,0-0.343,0-0.467,0c-1.372-0.187-2.338-0.998-2.899-2.432
	c-0.313-0.687-1.777-4.582-4.395-11.689c-2.619-7.107-4.645-12.625-6.079-16.552L35.729,74.158c-0.063,1.248-0.079,3.71-0.047,7.389
	c0.031,3.679,0.015,5.83-0.047,6.452c0.062,0.374,0.078,0.624,0.047,0.748c-0.032,0.126-0.063,0.327-0.093,0.608
	c-0.032,0.28-0.11,0.545-0.234,0.795c-0.125,0.248-0.281,0.561-0.468,0.935s-0.453,0.795-0.795,1.263
	c-0.343,0.468-0.733,0.95-1.169,1.449c-1.061,1.06-2.151,1.59-3.273,1.59h-0.093c-1.185-0.063-2.09-0.593-2.712-1.59
	c-0.125-0.187-1.061-1.715-2.805-4.582c-3.867-6.109-6.142-9.726-6.827-10.848C7.985,72.818,2.686,69.482,1.315,68.36
	c-0.935-0.748-1.372-1.651-1.309-2.712c0.061-1.06,0.529-2.058,1.402-2.992l0.281-0.28c0.436-0.375,0.856-0.702,1.262-0.982
	c0.405-0.28,0.763-0.515,1.076-0.701c0.311-0.188,0.623-0.358,0.935-0.515c0.312-0.154,0.561-0.265,0.748-0.327
	c0.187-0.062,0.389-0.108,0.608-0.141c0.218-0.03,0.374-0.047,0.468-0.047c0.093,0,0.218,0,0.374,0c0.155,0,0.265,0,0.327,0h0.655
	c0.623,0,2.353,0.017,5.19,0.047c2.836,0.032,4.91,0.047,6.219,0.047c0.124,0,0.248,0,0.374,0c0.124,0,0.264,0,0.421,0
	c0.155,0,0.295,0,0.42,0c0.125,0,0.234,0,0.328,0c0.093,0,0.202,0,0.327,0L33.204,47.6C18.179,42.114,8.703,38.592,4.775,37.032
	c-1.496-0.622-2.307-1.62-2.431-2.992c-0.187-1.371,0.311-2.649,1.496-3.834l6.827-6.173c0.561-0.498,1.153-0.872,1.777-1.122
	c0.623-0.248,1.137-0.404,1.543-0.467c0.405-0.062,0.795-0.094,1.169-0.094c0.062,0,0.14,0,0.234,0c0.093,0,0.171,0,0.234,0
	c0.124,0,1.23,0.063,3.32,0.187c2.088,0.126,4.753,0.297,7.996,0.515c3.241,0.219,6.607,0.437,10.1,0.654
	c3.491,0.22,6.998,0.438,10.521,0.655c3.521,0.219,6.28,0.39,8.276,0.514L75.567,5.236c1.808-1.807,3.725-3.133,5.751-3.974
	C83.344,0.421,85.324,0,87.257,0C87.942,0,88.613,0.047,89.267,0.14z M79.775,9.445L58.173,31.048l-2.712-0.188
	c-3.741-0.188-11.502-0.686-23.286-1.496c-10.787-0.686-16.397-1.029-16.833-1.029h-0.187l-0.655,0.375
	c-0.5,0.374-1.138,0.904-1.917,1.589c-0.78,0.688-1.606,1.466-2.478,2.338c9.974,3.741,18.36,6.859,25.156,9.353l8.791,3.179
	l-6.64,6.641L25.629,63.965l-1.684,1.684l-2.431,0.094c-0.562,0-1.216,0-1.964,0c-0.25,0-0.531,0-0.842,0c-0.313,0-0.577,0-0.795,0
	c-0.219,0-0.514,0-0.888,0c-0.375,0-0.671,0-0.889,0c-0.219,0-0.546-0.015-0.982-0.047c-0.437-0.03-0.733-0.047-0.888-0.047
	c-0.157,0-0.468,0-0.936,0c-0.467,0-0.764,0-0.888,0c-2.12,0-3.554,0-4.302,0H7.955l-0.094-0.094
	c-0.063-0.124-0.125-0.187-0.187-0.187c4.176,2.682,8.385,5.3,12.625,7.855l1.216,0.842l0.841,1.216
	c0.623,1.061,2.743,4.458,6.359,10.193c0.249,0.374,0.436,0.654,0.561,0.841c0.124,0.25,0.374,0.688,0.748,1.31l-0.187-0.094
	l-0.093-0.094c0-0.685,0-2.368,0-5.05c-0.063-4.426-0.063-7.231,0-8.416v-2.338l1.777-1.777l12.157-11.689l6.64-6.64l3.273,8.791
	c2.431,6.858,5.485,15.182,9.165,24.969c0.81-0.872,1.558-1.714,2.244-2.525c0.686-0.809,1.247-1.433,1.684-1.87
	c0.249-0.311,0.374-0.654,0.374-1.028c-0.063-0.312-0.374-5.485-0.935-15.524c-0.748-11.47-1.248-19.575-1.497-24.313l-0.187-2.619
	l21.603-21.603c0.997-0.996,1.792-2.024,2.385-3.086c0.592-1.059,0.935-2.024,1.029-2.898c0.093-0.873,0.124-1.59,0.093-2.151
	c-0.032-0.561-0.109-1.028-0.234-1.402c-0.561-0.188-1.248-0.28-2.057-0.28C84.575,5.985,82.081,7.14,79.775,9.445z"/>
</svg>
