<?xml version="1.0" encoding="iso-8859-1"?>
<!-- Generator: Adobe Illustrator 24.0.1, SVG Export Plug-In . SVG Version: 6.00 Build 0)  -->
<svg version="1.1" id="icon" xmlns="http://www.w3.org/2000/svg" xmlns:xlink="http://www.w3.org/1999/xlink" x="0px" y="0px"
	 viewBox="0 0 95.387 95.762" style="enable-background:new 0 0 95.387 95.762;" xml:space="preserve">
<path d="M0.889,5.097C0.295,4.505,0,3.804,0,2.993c0-0.81,0.295-1.511,0.889-2.104C1.48,0.297,2.182,0,2.993,0h41.896
	c0.81,0,1.511,0.297,2.104,0.889c0.592,0.594,0.888,1.295,0.888,2.104c0,0.811-0.296,1.512-0.888,2.104
	c-0.593,0.594-1.294,0.889-2.104,0.889H2.993C2.182,5.985,1.48,5.69,0.889,5.097z M0.889,23.052C0.295,22.46,0,21.759,0,20.948
	c0-0.81,0.295-1.511,0.889-2.104c0.591-0.592,1.293-0.889,2.104-0.889h41.896c0.81,0,1.511,0.297,2.104,0.889
	c0.592,0.594,0.888,1.295,0.888,2.104c0,0.811-0.296,1.512-0.888,2.104c-0.593,0.594-1.294,0.889-2.104,0.889H2.993
	C2.182,23.94,1.48,23.646,0.889,23.052z M44.888,41.896H2.993c-0.811,0-1.513-0.295-2.104-0.888C0.295,40.416,0,39.714,0,38.903
	c0-0.81,0.295-1.511,0.889-2.104c0.591-0.592,1.293-0.888,2.104-0.888h41.896c0.81,0,1.511,0.296,2.104,0.888
	c0.592,0.594,0.888,1.295,0.888,2.104c0,0.811-0.296,1.513-0.888,2.104C46.399,41.601,45.698,41.896,44.888,41.896z M95.387,32.45
	c0,0.812-0.281,1.529-0.842,2.151c-0.374,0.374-0.827,0.624-1.356,0.748c-0.53,0.126-1.045,0.126-1.543,0
	c-0.5-0.124-0.935-0.374-1.309-0.748L65.836,10.101v69.576c0,0.25,0,0.453,0,0.607c0,0.156,0,0.327,0,0.515
	c0,4.114-1.746,7.638-5.237,10.567c-3.492,2.93-7.715,4.396-12.671,4.396c-4.956,0-9.197-1.466-12.718-4.396
	c-3.523-2.93-5.284-6.453-5.284-10.567c0-4.115,1.761-7.637,5.284-10.567c3.521-2.93,7.746-4.396,12.671-4.396
	c4.55,0,8.541,1.248,11.97,3.741V3.367c0-0.686,0.187-1.277,0.561-1.777c0.374-0.498,0.842-0.842,1.403-1.028
	c0.561-0.312,1.169-0.421,1.824-0.327c0.655,0.093,1.2,0.39,1.637,0.888l29.271,29.271C95.106,30.954,95.387,31.642,95.387,32.45z
	 M59.851,80.519c-0.063-1.434-0.608-2.806-1.636-4.115c-1.029-1.309-2.464-2.399-4.302-3.272c-1.84-0.873-3.851-1.31-6.032-1.31
	c-3.429,0-6.297,0.935-8.604,2.806c-2.307,1.87-3.46,3.928-3.46,6.172s1.153,4.302,3.46,6.172c2.306,1.87,5.174,2.806,8.604,2.806
	c3.304,0,6.093-0.903,8.37-2.712c2.275-1.808,3.475-3.802,3.6-5.985V80.519z"/>
</svg>
