<?xml version="1.0" encoding="iso-8859-1"?>
<!-- Generator: Adobe Illustrator 24.0.1, SVG Export Plug-In . SVG Version: 6.00 Build 0)  -->
<svg version="1.1" id="Layer_1" xmlns="http://www.w3.org/2000/svg" xmlns:xlink="http://www.w3.org/1999/xlink" x="0px" y="0px"
	 viewBox="0 0 83.985 95.668" style="enable-background:new 0 0 83.985 95.668;" xml:space="preserve">
<path d="M79.493,34.602c4.363,8.666,5.548,17.8,3.554,27.4c-1.31,6.484-3.991,12.313-8.042,17.487
	c-4.054,5.176-8.978,9.165-14.776,11.971c-5.798,2.806-11.939,4.208-18.423,4.208c-1.435,0-2.852-0.079-4.255-0.233
	c-1.403-0.157-2.822-0.36-4.255-0.608c-11.098-2.308-19.858-8.354-26.278-18.143c-3.118-4.676-5.206-9.74-6.266-15.196
	c-1.061-5.454-0.998-10.956,0.187-16.506c1.309-6.546,3.989-12.391,8.042-17.534c4.052-5.144,9.132-9.148,15.243-12.017
	c0.748-0.374,1.511-0.421,2.291-0.141c0.779,0.281,1.34,0.795,1.684,1.543c0.342,0.748,0.374,1.513,0.093,2.291
	c-0.28,0.78-0.795,1.326-1.543,1.637c-2.557,1.248-4.942,2.744-7.154,4.489c-2.214,1.746-4.178,3.71-5.892,5.892
	c-1.715,2.183-3.165,4.552-4.349,7.107c-1.185,2.557-2.057,5.206-2.618,7.948c-0.936,4.739-0.952,9.445-0.047,14.121
	c0.903,4.676,2.665,9.041,5.284,13.093c5.548,8.416,13.06,13.592,22.538,15.523c6.42,1.31,12.671,0.936,18.75-1.122
	s11.269-5.471,15.57-10.24s7.107-10.364,8.417-16.786c1.684-8.229,0.655-16.068-3.086-23.52c-3.741-7.449-9.415-12.952-17.02-16.506
	c-0.437-0.248-0.811-0.592-1.122-1.028c-0.313-0.436-0.5-0.903-0.561-1.402c-0.063-0.499,0.03-0.997,0.28-1.497
	c0.249-0.498,0.592-0.902,1.029-1.216c0.436-0.311,0.903-0.481,1.403-0.514c0.498-0.031,1.028,0.047,1.59,0.233
	C68.551,19.515,75.128,25.937,79.493,34.602z M39.104,35.911V2.993c0-0.81,0.243-1.511,0.836-2.104C40.532,0.297,41.207,0,42.018,0
	c0.81,0,1.558,0.297,2.151,0.889c0.592,0.594,0.935,1.295,0.935,2.104v32.918c0,0.811-0.356,1.512-0.948,2.104
	c-0.593,0.594-1.325,0.889-2.134,0.889c-0.811,0-1.475-0.295-2.067-0.889C39.362,37.423,39.104,36.722,39.104,35.911z"/>
</svg>
