<?xml version="1.0" encoding="iso-8859-1"?>
<!-- Generator: Adobe Illustrator 24.0.1, SVG Export Plug-In . SVG Version: 6.00 Build 0)  -->
<svg version="1.1" id="Layer_1" xmlns="http://www.w3.org/2000/svg" xmlns:xlink="http://www.w3.org/1999/xlink" x="0px" y="0px"
	 viewBox="0 0 96 90.187" style="enable-background:new 0 0 96 90.187;" xml:space="preserve">
<path d="M96,45.187h-6v38.791c0,1.622-0.73,3.135-1.882,4.321c-1.154,1.184-2.724,1.888-4.407,1.888H11.983
	c-1.683,0-3.101-0.705-4.254-1.888C6.575,87.113,6,85.6,6,83.978V45.187H0V27.12c0-1.684,0.535-3.075,1.69-4.229
	c1.153-1.153,2.531-1.704,4.215-1.704h10.38c-2.931-3-4.395-6.322-4.395-10.313c0-1.87,0.342-3.597,1.029-5.157
	c0.685-1.558,1.917-2.905,3.694-4.027c1.777-1.123,3.974-1.687,6.593-1.687c2.556,0,5.144,0.622,7.762,1.868
	c2.619,1.248,5.018,2.884,7.201,4.909c2.181,2.026,4.036,3.959,5.564,5.797c1.527,1.84,2.946,3.757,4.255,5.751
	c0.436-0.748,0.903-1.464,1.403-2.15c0.499-0.686,1.076-1.45,1.73-2.292c0.655-0.841,1.324-1.65,2.011-2.431
	c0.686-0.779,1.417-1.59,2.198-2.432c0.779-0.842,1.59-1.62,2.431-2.338c0.842-0.716,1.714-1.418,2.619-2.104
	c0.903-0.686,1.838-1.293,2.806-1.823c0.966-0.529,1.948-1.013,2.946-1.449c0.997-0.436,2.041-0.763,3.133-0.982
	C70.352,0.109,71.428,0,72.488,0c2.619,0,4.816,0.561,6.593,1.684c1.776,1.122,3.007,2.463,3.694,4.021
	c0.685,1.56,1.028,3.346,1.028,5.216c0,3.991-1.435,7.266-4.302,10.266h10.193c0.436,0,0.842-0.026,1.216,0.068
	s0.748,0.182,1.122,0.338c0.374,0.156,0.716,0.325,1.029,0.542c0.312,0.22,0.608,0.459,0.889,0.74
	c0.28,0.28,0.529,0.573,0.748,0.883c0.218,0.313,0.389,0.638,0.514,0.98c0.125,0.343,0.394,0.716,0.487,1.121
	c0.094,0.406,0.3,0.794,0.3,1.168V45.187z M6,39.187h39v-12H6V39.187z M12,84.187h33v-39H12V84.187z M20.166,6.499
	c-0.78,0.344-1.356,0.858-1.73,1.543c-0.374,0.688-0.561,1.59-0.561,2.712c0,3.118,1.497,5.684,4.489,7.554
	c2.993,1.871,6.39,2.879,10.193,2.879h10.1c-2.682-4-5.751-7.491-9.211-10.547c-3.46-3.054-6.874-4.618-10.24-4.618
	C21.957,6.022,20.945,6.157,20.166,6.499z M90,27.187H51v12h39V27.187z M84,45.187H51v39h33V45.187z M65.147,8.604
	c-2.588,1.746-4.786,3.72-6.593,5.777c-1.809,2.058-3.553,3.806-5.237,6.806h10.1c2.431,0,4.722-0.447,6.873-1.195
	s3.942-1.953,5.377-3.543c1.434-1.59,2.151-3.463,2.151-5.583c0-3.24-1.777-4.871-5.331-4.871
	C70.181,5.994,67.734,6.858,65.147,8.604z"/>
</svg>
