<?xml version="1.0" encoding="iso-8859-1"?>
<!-- Generator: Adobe Illustrator 24.0.1, SVG Export Plug-In . SVG Version: 6.00 Build 0)  -->
<svg version="1.1" id="Layer_1" xmlns="http://www.w3.org/2000/svg" xmlns:xlink="http://www.w3.org/1999/xlink" x="0px" y="0px"
	 viewBox="0 0 96 96" style="enable-background:new 0 0 96 96;" xml:space="preserve">
<path d="M91.945,24.395c0.842,0.344,1.558,0.752,2.151,1.343c0.592,0.593,1.053,1.279,1.396,2.12C95.834,28.701,96,29.528,96,30.4
	v40.587c0,1.248-0.29,2.37-0.882,3.366c-0.593,0.998-1.4,1.949-2.428,2.571C91.661,77.549,90.557,78,89.373,78H78v18H18V78H6.892
	c-1.809,0-3.493-0.795-4.802-2.104C0.78,74.587,0,72.857,0,70.987V30.4c0-1.807,0.78-3.246,2.09-4.556
	C3.399,24.536,5.083,24,6.892,24H18V0h60v24h11.373C90.246,24,91.103,24.053,91.945,24.395z M90,30.4c0-0.435-0.191-0.4-0.627-0.4
	H6.892C6.455,30,6,29.966,6,30.4v40.587C6,71.424,6.455,72,6.892,72H18V51h60v21h11.373C89.809,72,90,71.487,90,70.987V30.4z M24,24
	h48V6H24V24z M72,57H24v33h48V57z M80.162,36.754c0.592,0.593,0.889,1.241,0.889,2.083s-0.297,1.651-0.889,2.213
	C79.569,41.611,78.867,42,78.058,42h-2.993c-0.811,0-1.512-0.423-2.104-0.984c-0.593-0.562-0.888-1.334-0.888-2.175
	s0.295-1.459,0.888-2.051c0.592-0.592,1.293-0.79,2.104-0.79h2.993C78.867,36,79.569,36.162,80.162,36.754z"/>
</svg>
