<?xml version="1.0" encoding="iso-8859-1"?>
<!-- Generator: Adobe Illustrator 24.0.1, SVG Export Plug-In . SVG Version: 6.00 Build 0)  -->
<svg version="1.1" id="icon" xmlns="http://www.w3.org/2000/svg" xmlns:xlink="http://www.w3.org/1999/xlink" x="0px" y="0px"
	 viewBox="0 0 95.761 95.762" style="enable-background:new 0 0 95.761 95.762;" xml:space="preserve">
<path d="M47.88,95.762c-0.25,0-0.484-0.017-0.702-0.047c-0.219-0.032-0.453-0.063-0.701-0.094c-0.25-0.032-0.483-0.079-0.701-0.141
	c-0.219-0.063-0.421-0.14-0.608-0.233s-0.39-0.187-0.608-0.28c-0.219-0.094-0.421-0.22-0.608-0.374
	c-0.187-0.156-0.374-0.297-0.561-0.421c-0.187-0.126-0.374-0.281-0.561-0.468L2.057,52.837C0.685,51.467,0,49.798,0,47.834
	s0.685-3.631,2.057-5.003L17.02,27.868c0.435-0.436,0.982-0.716,1.636-0.842c0.655-0.124,1.263-0.03,1.824,0.281
	c0.561,0.313,0.997,0.764,1.309,1.355c0.312,0.594,0.405,1.201,0.281,1.823c-0.126,0.438-0.203,0.827-0.234,1.169
	c-0.032,0.344-0.047,0.671-0.047,0.982c0,2.183,0.529,4.193,1.59,6.032c1.06,1.839,2.509,3.305,4.349,4.395
	c1.838,1.092,3.818,1.637,5.938,1.637c3.241,0,5.953-1.169,8.136-3.507c2.182-2.338,3.273-5.19,3.273-8.557
	c0-1.62-0.296-3.147-0.888-4.582c-0.593-1.434-1.388-2.696-2.385-3.788c-0.998-1.09-2.198-1.947-3.601-2.571
	c-1.402-0.623-2.915-0.936-4.535-0.936c-0.562,0-1.279,0.094-2.151,0.281c-1.435,0.249-2.495-0.281-3.18-1.59
	c-0.687-1.31-0.5-2.463,0.561-3.461L42.831,1.964c0.685-0.622,1.464-1.105,2.338-1.449C46.041,0.173,46.945,0,47.88,0
	s1.838,0.173,2.712,0.515c0.873,0.344,1.651,0.827,2.338,1.449l10.193,10.287c1.06-3.366,3.023-6.125,5.892-8.276
	c2.867-2.15,6.109-3.227,9.726-3.227c2.245,0,4.379,0.438,6.406,1.31c2.025,0.874,3.771,2.043,5.237,3.507
	c1.464,1.466,2.633,3.227,3.507,5.284c0.872,2.057,1.309,4.177,1.309,6.358c0,1.436-0.172,2.853-0.514,4.256
	c-0.343,1.402-0.858,2.697-1.543,3.881c-0.687,1.185-1.497,2.26-2.432,3.226c-0.935,0.968-1.996,1.824-3.18,2.572
	c-1.185,0.748-2.431,1.341-3.741,1.776l9.913,9.913c1.371,1.372,2.057,3.039,2.057,5.003s-0.687,3.633-2.057,5.003L52.93,93.704
	C51.495,95.074,49.812,95.762,47.88,95.762z M16.365,36.939l-10.1,10.1c-0.562,0.562-0.562,1.092,0,1.59l40.773,40.867
	c0.561,0.498,1.122,0.498,1.684,0l40.773-40.867c0.125-0.124,0.218-0.28,0.281-0.468c0.062-0.187,0.062-0.389,0-0.607
	c-0.063-0.218-0.156-0.389-0.281-0.515L75.094,32.638c-0.998-0.996-1.185-1.886-0.561-3.164c0.623-1.277,1.62-2.388,2.992-1.388
	h0.468h0.094c0.311,0,0.529,0,0.654,0c2.93,0,5.408-1.215,7.435-3.242c2.025-2.024,3.04-4.589,3.04-7.489
	c0-2.898-1.014-5.428-3.04-7.485c-2.026-2.057-4.505-3.111-7.435-3.111c-1.372,0-2.712,0.268-4.021,0.829
	c-1.31,0.562-2.432,1.303-3.367,2.238c-0.935,0.936-1.683,2.054-2.245,3.364c-0.561,1.309-0.841,2.649-0.841,4.019
	c0,0.188,0.031,0.437,0.093,0.747l0.094,0.561c0.061,0.374,0.031,0.764-0.094,1.169c-0.125,0.406-0.327,0.765-0.608,1.075
	c-0.28,0.313-0.608,0.561-0.982,0.748c-1.248,0.624-2.37,0.437-3.366-0.561L48.722,6.266c-0.126-0.124-0.25-0.218-0.374-0.28
	c-0.126-0.062-0.234-0.108-0.328-0.141c-0.093-0.03-0.187-0.03-0.28,0c-0.094,0.032-0.203,0.079-0.328,0.141
	c-0.125,0.063-0.25,0.156-0.374,0.28l-9.071,9.071c3.927,0.936,7.091,3.009,9.492,6.219c2.399,3.212,3.601,6.906,3.601,11.082
	c0,1.622-0.203,3.212-0.608,4.77c-0.406,1.559-0.982,2.992-1.73,4.302c-0.749,1.309-1.637,2.524-2.666,3.646
	c-1.029,1.123-2.183,2.074-3.46,2.853c-1.279,0.78-2.681,1.389-4.208,1.824c-1.528,0.437-3.102,0.654-4.722,0.654
	c-0.811,0-1.622-0.062-2.432-0.188c-0.811-0.124-1.606-0.295-2.385-0.514c-0.78-0.218-1.528-0.499-2.244-0.842
	c-0.718-0.342-1.403-0.716-2.058-1.122c-0.655-0.405-1.294-0.842-1.917-1.31c-0.624-0.468-1.201-0.981-1.73-1.543
	c-0.531-0.562-1.029-1.169-1.497-1.823c-0.467-0.655-0.904-1.324-1.309-2.011c-0.406-0.686-0.748-1.387-1.029-2.104
	C16.786,38.515,16.552,37.75,16.365,36.939z"/>
</svg>
