<?xml version="1.0" encoding="iso-8859-1"?>
<!-- Generator: Adobe Illustrator 24.0.1, SVG Export Plug-In . SVG Version: 6.00 Build 0)  -->
<svg version="1.1" id="Layer_1" xmlns="http://www.w3.org/2000/svg" xmlns:xlink="http://www.w3.org/1999/xlink" x="0px" y="0px"
	 viewBox="0 0 95.761 95.762" style="enable-background:new 0 0 95.761 95.762;" xml:space="preserve">
<path d="M66.49,3.788c5.922,2.524,11.019,5.924,15.29,10.193c4.27,4.271,7.668,9.367,10.193,15.29s3.788,12.126,3.788,18.609
	c0,6.484-1.263,12.688-3.788,18.609c-2.525,5.924-5.924,11.021-10.193,15.29c-4.271,4.271-9.368,7.669-15.29,10.193
	c-5.923,2.525-12.126,3.788-18.61,3.788c-8.666,0-16.678-2.137-24.034-6.406c-7.357-4.27-13.171-10.084-17.441-17.44
	C2.135,64.559,0,56.547,0,47.881c0-8.665,2.135-16.677,6.406-24.034c4.27-7.355,10.084-13.169,17.441-17.44
	C31.203,2.137,39.214,0,47.88,0C54.364,0,60.567,1.263,66.49,3.788z M64.152,86.55c5.174-2.212,9.632-5.204,13.373-8.978
	c3.741-3.771,6.717-8.244,8.931-13.42c2.212-5.174,3.32-10.598,3.32-16.271c0-5.672-1.107-11.097-3.32-16.271
	c-2.213-5.175-5.19-9.633-8.931-13.373c-3.741-3.741-8.199-6.718-13.373-8.931c-5.175-2.213-10.6-3.32-16.272-3.32
	c-5.674,0-11.098,1.107-16.271,3.32c-5.176,2.213-9.632,5.189-13.373,8.931c-3.741,3.74-6.719,8.198-8.931,13.373
	c-2.213,5.175-3.32,10.6-3.32,16.271c0,4.552,0.702,8.963,2.104,13.232c1.403,4.271,3.397,8.121,5.985,11.55
	c2.586,3.429,5.595,6.452,9.024,9.071c3.428,2.618,7.278,4.629,11.549,6.031c4.27,1.403,8.681,2.104,13.232,2.104
	C53.553,89.87,58.977,88.764,64.152,86.55z M58.962,24.596c2.649,2.431,3.974,5.83,3.974,10.192c0,3.18-0.841,6.079-2.525,8.697
	c-0.874,1.248-1.886,2.541-3.039,3.881c-1.154,1.342-2.417,2.697-3.788,4.068c-0.687,0.687-1.231,1.325-1.636,1.917
	c-0.406,0.594-0.671,1.343-0.795,1.841c-0.25,1.061-0.374,2.067-0.374,5.067h-7.201c0-4,0.295-6.127,0.889-7.499
	c0.592-1.37,2.135-3.282,4.629-5.526c2.369-2.867,4.083-5.101,5.144-6.597c0.498-0.81,0.872-1.694,1.122-2.598
	c0.249-0.902,0.374-1.93,0.374-3.052c0-2.556-0.687-4.526-2.057-5.898c-0.687-0.686-1.513-1.219-2.479-1.593
	c-0.967-0.374-2.104-0.562-3.413-0.562c-1.122,0-2.151,0.155-3.086,0.466c-0.936,0.313-1.777,0.78-2.525,1.403
	c-0.749,0.561-1.326,1.296-1.73,2.666c-0.406,1.372-0.608,2.789-0.608,3.789h-6.92l-0.094-0.048
	c-0.063-2.058,0.281-4.014,1.029-6.103c0.748-2.088,1.777-3.636,3.086-4.758c0.561-0.436,1.169-0.813,1.824-1.187
	s1.324-0.687,2.011-0.967c0.685-0.281,1.403-0.507,2.151-0.695c0.748-0.187,1.527-0.324,2.338-0.417
	c0.81-0.093,1.651-0.138,2.525-0.138C52.587,20.946,56.312,22.164,58.962,24.596z M43.603,67.26h7v8h-7V67.26z"/>
</svg>
