<?xml version="1.0" encoding="utf-8"?>
<!-- Generator: Adobe Illustrator 24.0.1, SVG Export Plug-In . SVG Version: 6.00 Build 0)  -->
<svg version="1.1" id="icon" xmlns="http://www.w3.org/2000/svg" xmlns:xlink="http://www.w3.org/1999/xlink" x="0px" y="0px"
	 viewBox="0 0 95.8 95.8" style="enable-background:new 0 0 95.8 95.8;" xml:space="preserve">
<path d="M89.4,23.8c4.3,7.4,6.4,15.4,6.4,24c0,8.7-2.1,16.7-6.4,24c-4.3,7.4-10.1,13.2-17.4,17.4c-7.4,4.3-15.4,6.4-24,6.4
	c-8.7,0-16.7-2.1-24-6.4c-7.4-4.3-13.2-10.1-17.4-17.4C2.1,64.6,0,56.5,0,47.9c0-8.7,2.1-16.7,6.4-24c4.3-7.4,10.1-13.2,17.4-17.4
	C31.2,2.1,39.2,0,47.9,0c8.7,0,16.7,2.1,24,6.4C79.3,10.7,85.1,16.5,89.4,23.8z M64.2,86.6c5.2-2.2,9.6-5.2,13.4-9
	c3.7-3.8,6.7-8.2,8.9-13.4c2.2-5.2,3.3-10.6,3.3-16.3c0-5.7-1.1-11.1-3.3-16.3c-2.2-5.2-5.2-9.6-8.9-13.4c-3.7-3.7-8.2-6.7-13.4-8.9
	C59,7.1,53.6,6,47.9,6c-5.7,0-11.1,1.1-16.3,3.3c-5.2,2.2-9.6,5.2-13.4,8.9c-3.7,3.7-6.7,8.2-8.9,13.4C7.1,36.8,6,42.2,6,47.9
	c0,4.6,0.7,9,2.1,13.2c1.4,4.3,3.4,8.1,6,11.6c2.6,3.4,5.6,6.5,9,9.1c3.4,2.6,7.3,4.6,11.5,6c4.3,1.4,8.7,2.1,13.2,2.1
	C53.6,89.9,59,88.8,64.2,86.6z"/>
</svg>
