<?xml version="1.0" encoding="iso-8859-1"?>
<!-- Generator: Adobe Illustrator 24.0.1, SVG Export Plug-In . SVG Version: 6.00 Build 0)  -->
<svg version="1.1" id="icon" xmlns="http://www.w3.org/2000/svg" xmlns:xlink="http://www.w3.org/1999/xlink" x="0px" y="0px"
	 viewBox="0 0 86.877 95.359" style="enable-background:new 0 0 86.877 95.359;" xml:space="preserve">
<path d="M74.158,12.286c3.865,3.866,6.951,8.479,9.258,13.84c2.306,5.363,3.46,10.974,3.46,16.833
	c0,6.859-1.513,13.326-4.536,19.405c-3.025,6.078-7.28,11.175-12.765,15.29c-0.687,0.5-1.435,0.687-2.244,0.561
	c-0.811-0.124-1.466-0.498-1.964-1.122c-0.313-0.436-0.5-0.919-0.562-1.449c-0.063-0.529,0-1.043,0.187-1.543
	c0.188-0.498,0.499-0.903,0.936-1.216c4.737-3.554,8.417-7.949,11.035-13.186c2.619-5.237,3.928-10.816,3.928-16.74
	c0-6.732-1.668-12.982-5.003-18.75c-3.336-5.766-7.888-10.317-13.653-13.653c-5.768-3.334-12.049-5.003-18.844-5.003
	c-5.05,0-9.882,0.982-14.495,2.946c-4.615,1.964-8.589,4.629-11.923,7.995c-3.336,3.367-6.001,7.357-7.996,11.971
	c-1.996,4.614-2.993,9.444-2.993,14.494c0,6.423,1.543,12.424,4.629,18.003c3.086,5.58,7.309,10.085,12.672,13.513
	c5.361,3.43,11.252,5.362,17.674,5.798l-5.143-8.136c-0.375-0.498-0.515-1.06-0.421-1.684c0.093-0.622,0.389-1.09,0.888-1.402
	l0.655-0.468c0.561-0.312,1.137-0.374,1.73-0.187c0.592,0.187,1.043,0.53,1.356,1.028l8.884,13.841L49.47,84.2
	c0.311,0.562,0.405,1.122,0.28,1.684c-0.063,0.187-0.14,0.359-0.233,0.515c-0.094,0.156-0.203,0.296-0.328,0.42
	c-0.125,0.126-0.28,0.42-0.467,0.544L47.786,88h0.287v-0.246l-14.498,7.294c-0.561,0.312-1.233,0.389-1.825,0.234
	c-0.593-0.156-1.092-0.515-1.404-1.075l-0.305-0.749c-0.313-0.561-0.371-1.122-0.152-1.683c0.218-0.562,0.602-0.968,1.163-1.216
	l8.601-4.396c-7.357-0.622-14.061-2.945-20.107-6.967C13.498,75.176,8.728,69.97,5.237,63.58C1.745,57.19,0,50.316,0,42.959
	c0-5.859,1.153-11.47,3.46-16.833c2.306-5.36,5.392-9.974,9.258-13.84c3.865-3.865,8.477-6.735,13.84-9.042
	C31.919,0.938,37.547,0,43.438,0s8.837,0,8.837,0s2.68,0.938,8.042,3.244C65.679,5.551,70.292,8.421,74.158,12.286z"/>
</svg>
