<?xml version="1.0" encoding="iso-8859-1"?>
<!-- Generator: Adobe Illustrator 24.0.1, SVG Export Plug-In . SVG Version: 6.00 Build 0)  -->
<svg version="1.1" id="Layer_1" xmlns="http://www.w3.org/2000/svg" xmlns:xlink="http://www.w3.org/1999/xlink" x="0px" y="0px"
	 viewBox="0 0 96.015 96.135" style="enable-background:new 0 0 96.015 96.135;" xml:space="preserve">
<path d="M95.969,5.424c0.061,1.061,0.061,2.899,0,5.518c-0.063,2.618-0.203,5.206-0.421,7.762c-0.219,2.557-0.64,5.424-1.263,8.604
	c-0.624,3.18-1.402,6.048-2.338,8.604c-1.122,3.056-2.4,5.658-3.834,7.809c-1.435,2.151-3.554,4.475-6.359,6.967
	c-1.248,1.122-3.008,2.354-5.284,3.694c-2.276,1.341-5.19,2.931-8.744,4.77c-3.554,1.84-5.892,3.102-7.014,3.787
	c-0.374,0.188-1.138,0.594-2.291,1.216c-1.154,0.624-2.058,1.122-2.712,1.496c-0.654,0.374-1.201,0.718-1.636,1.028v15.431
	c0,0.188-0.016,0.391-0.047,0.608c-0.032,0.219-0.093,0.42-0.187,0.607c-0.093,0.187-0.219,0.374-0.374,0.562
	c-0.156,0.187-0.297,0.343-0.421,0.467L41.917,95.387c-0.561,0.498-1.216,0.748-1.964,0.748c-0.063,0-0.156-0.016-0.281-0.047
	c-0.125-0.032-0.233-0.047-0.327-0.047c-0.093,0-0.172-0.031-0.234-0.093c-1.122-0.313-1.809-1.029-2.057-2.151l-3.647-15.43
	l-6.733-7.481c-3.554-3.928-5.705-6.359-6.453-7.295L2.359,59.477c-1.122-0.248-1.855-0.919-2.198-2.011
	c-0.342-1.09-0.14-2.041,0.608-2.853l10.941-11.97c0.623-0.623,1.371-0.936,2.245-0.936h16.646c0.187-0.311,0.374-0.639,0.561-0.981
	c0.187-0.342,0.374-0.716,0.561-1.122c0.187-0.405,0.374-0.763,0.561-1.076c0.187-0.311,0.405-0.731,0.655-1.262
	c0.249-0.529,0.436-0.92,0.561-1.169c0.124-0.249,0.342-0.686,0.655-1.31c0.187-0.374,0.654-1.293,1.402-2.759
	c0.749-1.464,1.277-2.509,1.59-3.133c0.312-0.622,0.795-1.573,1.45-2.853c0.655-1.276,1.2-2.274,1.637-2.992
	c0.435-0.716,0.935-1.574,1.496-2.571s1.106-1.854,1.637-2.572c0.529-0.716,1.075-1.387,1.636-2.011
	c4.426-5.174,9.507-8.821,15.243-10.941c2.182-0.81,4.473-1.526,6.874-2.15c2.399-0.623,4.613-1.106,6.64-1.45
	c2.025-0.342,4.083-0.622,6.172-0.842c2.088-0.217,3.849-0.357,5.284-0.42C86.648,0.032,88.051,0,89.423,0
	c1.371,0,2.259,0.016,2.666,0.047c0.405,0.032,0.732,0.047,0.982,0.047c0.748,0.063,1.387,0.359,1.917,0.888
	c0.529,0.53,0.826,1.169,0.888,1.917C95.875,3.522,95.906,4.364,95.969,5.424z M20.501,81.126c0.187-0.405,0.482-0.936,0.889-1.59
	c0.405-0.655,0.826-1.263,1.262-1.824l4.396,4.021c-0.437,0.811-1.122,2.183-2.058,4.115c-0.874,1.809-1.715,3.211-2.525,4.208
	c-0.811,0.996-1.996,1.979-3.554,2.945c-1.559,0.966-3.616,1.637-6.172,2.011c-2.557,0.374-5.768,0.562-9.632,0.562l-2.899,0.093
	l-0.093-3.086c0-4.862,0.374-8.711,1.122-11.549c0.748-2.836,1.73-4.878,2.946-6.126c1.216-1.246,3.007-2.462,5.377-3.646
	c2.306-1.184,3.928-2.119,4.863-2.806l3.647,4.676c-1.435,1.122-3.367,2.276-5.798,3.46c-0.935,0.5-1.636,0.889-2.104,1.169
	c-0.467,0.28-0.998,0.733-1.59,1.356c-0.593,0.624-1.014,1.341-1.262,2.15c-0.25,0.812-0.484,1.917-0.702,3.32
	c-0.219,1.402-0.359,3.102-0.421,5.097c2.556-0.062,4.629-0.265,6.219-0.608c1.59-0.342,2.867-0.872,3.834-1.59
	c0.966-0.716,1.637-1.355,2.011-1.917c0.374-0.561,0.872-1.496,1.496-2.806C20.064,82.077,20.314,81.532,20.501,81.126z
	 M89.984,5.985c-10.163-0.062-19.39,1.465-27.681,4.582c-4.802,1.746-9.071,4.802-12.812,9.164c-0.5,0.624-1.061,1.403-1.683,2.338
	c-0.624,0.936-1.169,1.793-1.637,2.572c-0.467,0.78-1.075,1.87-1.823,3.273c-0.749,1.402-1.279,2.431-1.59,3.086
	c-0.313,0.654-0.889,1.823-1.73,3.507c-0.841,1.683-1.356,2.681-1.543,2.992c-2.183,4.428-3.71,7.326-4.582,8.697
	c-0.126,0.187-0.234,0.343-0.328,0.468c-0.093,0.125-0.203,0.233-0.327,0.327c-0.125,0.094-0.266,0.187-0.421,0.28
	c-0.156,0.094-0.313,0.173-0.467,0.233c-0.157,0.063-0.328,0.11-0.515,0.141c-0.187,0.032-0.343,0.047-0.467,0.047h-17.02
	l-6.733,7.107l13.653,3.086c0.312,0.063,0.608,0.187,0.889,0.374c0.28,0.188,0.545,0.406,0.795,0.654
	C24.522,59.539,29.322,64.9,38.363,75c0.312,0.313,0.561,0.748,0.748,1.31l2.619,11.315l6.359-6.92V65.088
	c0-0.249,0.031-0.482,0.094-0.702c0.062-0.218,0.14-0.421,0.234-0.607c0.093-0.188,0.202-0.374,0.327-0.562
	c0.124-0.187,0.281-0.342,0.468-0.467c0.685-0.562,3.554-2.245,8.604-5.051c1.122-0.685,3.334-1.87,6.64-3.554
	c3.304-1.683,6.079-3.179,8.323-4.488c2.245-1.31,3.928-2.462,5.05-3.46c2.369-2.119,4.129-4.052,5.284-5.798
	c1.153-1.745,2.229-3.959,3.227-6.64C88.956,26.715,90.171,17.457,89.984,5.985z M69.831,18.47c1.216,0.406,2.322,0.967,3.32,1.683
	c0.997,0.718,1.854,1.575,2.572,2.572c0.716,0.998,1.277,2.104,1.684,3.319c0.405,1.216,0.608,2.479,0.608,3.788
	c0,2.183-0.531,4.193-1.59,6.031c-1.061,1.84-2.511,3.289-4.349,4.349c-1.84,1.061-3.85,1.59-6.032,1.59
	c-2.183,0-4.194-0.529-6.032-1.59c-1.84-1.06-3.29-2.509-4.349-4.349c-1.061-1.838-1.59-3.849-1.59-6.031
	c0-3.304,1.169-6.126,3.507-8.464s5.158-3.507,8.463-3.507C67.353,17.861,68.616,18.064,69.831,18.47z M72.029,29.832
	c0-1.06-0.266-2.058-0.795-2.993c-0.53-0.935-1.262-1.667-2.198-2.197c-0.935-0.529-1.933-0.795-2.992-0.795
	c-1.684,0-3.102,0.593-4.255,1.776c-1.154,1.186-1.73,2.588-1.73,4.209s0.576,3.024,1.73,4.208c1.153,1.185,2.556,1.776,4.208,1.776
	c1.651,0,3.07-0.592,4.255-1.776C71.436,32.856,72.029,31.453,72.029,29.832z"/>
</svg>
