<?xml version="1.0" encoding="iso-8859-1"?>
<!-- Generator: Adobe Illustrator 24.0.1, SVG Export Plug-In . SVG Version: 6.00 Build 0)  -->
<svg version="1.1" id="icon" xmlns="http://www.w3.org/2000/svg" xmlns:xlink="http://www.w3.org/1999/xlink" x="0px" y="0px"
	 viewBox="0 0 53.866 95.762" style="enable-background:new 0 0 53.866 95.762;" xml:space="preserve">
<path d="M49.377,1.216c1.371,0.812,2.462,1.902,3.273,3.273c0.81,1.372,1.216,2.868,1.216,4.488v77.807
	c0,2.494-0.874,4.612-2.619,6.358c-1.746,1.745-3.866,2.619-6.359,2.619H8.978c-2.494,0-4.614-0.874-6.359-2.619
	C0.873,91.396,0,89.278,0,86.784V8.978c0-1.62,0.405-3.116,1.216-4.488c0.81-1.371,1.901-2.462,3.273-3.273
	C5.859,0.406,7.355,0,8.978,0h35.911C46.508,0,48.005,0.406,49.377,1.216z M47.88,8.978c0-0.81-0.296-1.511-0.888-2.104
	c-0.593-0.592-1.294-0.889-2.104-0.889H8.978c-0.811,0-1.512,0.297-2.104,0.889C6.28,7.467,5.985,8.168,5.985,8.978v77.807
	c0,0.811,0.295,1.512,0.889,2.104c0.592,0.594,1.293,0.889,2.104,0.889h35.911c0.81,0,1.511-0.295,2.104-0.889
	c0.592-0.592,0.888-1.293,0.888-2.104V8.978z M35.022,9.866c0.592,0.594,0.889,1.295,0.889,2.104c0,0.811-0.297,1.512-0.889,2.104
	c-0.593,0.594-1.294,0.889-2.104,0.889h-11.97c-0.811,0-1.512-0.295-2.104-0.889c-0.593-0.592-0.889-1.293-0.889-2.104
	c0-0.81,0.295-1.511,0.889-2.104c0.592-0.592,1.293-0.889,2.104-0.889h11.97C33.728,8.978,34.429,9.274,35.022,9.866z
	 M32.918,80.799c0,1.061-0.266,2.058-0.795,2.992c-0.53,0.936-1.263,1.669-2.198,2.198c-0.935,0.53-1.933,0.795-2.993,0.795
	c-1.061,0-2.057-0.265-2.992-0.795c-0.936-0.529-1.669-1.263-2.198-2.198c-0.53-0.935-0.795-1.932-0.795-2.992
	c0-1.62,0.592-3.023,1.777-4.208c1.184-1.184,2.603-1.777,4.255-1.777c1.651,0,3.054,0.594,4.208,1.777
	C32.341,77.775,32.918,79.179,32.918,80.799z"/>
</svg>
