<?xml version="1.0" encoding="iso-8859-1"?>
<!-- Generator: Adobe Illustrator 24.0.1, SVG Export Plug-In . SVG Version: 6.00 Build 0)  -->
<svg version="1.1" id="Layer_1" xmlns="http://www.w3.org/2000/svg" xmlns:xlink="http://www.w3.org/1999/xlink" x="0px" y="0px"
	 viewBox="0 0 77.922 95.905" style="enable-background:new 0 0 77.922 95.905;" xml:space="preserve">
<g>
	<path d="M73.427,1.218c1.373,0.812,2.466,1.905,3.278,3.278c0.811,1.374,1.218,2.873,1.218,4.496v77.922
		c0,2.498-0.875,4.62-2.623,6.369c-1.749,1.748-3.872,2.623-6.369,2.623H8.991c-2.498,0-4.621-0.875-6.369-2.623
		C0.874,91.534,0,89.412,0,86.914V8.991C0,7.368,0.405,5.87,1.217,4.496C2.028,3.123,3.121,2.03,4.496,1.218
		C5.868,0.407,7.367,0,8.991,0h59.94C70.554,0,72.053,0.407,73.427,1.218z M71.928,8.991c0-0.811-0.297-1.513-0.89-2.107
		c-0.594-0.593-1.296-0.89-2.107-0.89H8.991c-0.812,0-1.515,0.297-2.107,0.89c-0.594,0.594-0.89,1.297-0.89,2.107v77.922
		c0,0.812,0.296,1.515,0.89,2.107c0.592,0.594,1.295,0.89,2.107,0.89h59.94c0.811,0,1.513-0.295,2.107-0.89
		c0.593-0.593,0.89-1.295,0.89-2.107V8.991z M47.063,9.881c0.593,0.594,0.89,1.296,0.89,2.107c0,0.812-0.297,1.515-0.89,2.107
		c-0.594,0.594-1.297,0.89-2.107,0.89H32.967c-0.812,0-1.514-0.296-2.107-0.89c-0.594-0.593-0.89-1.295-0.89-2.107
		c0-0.811,0.295-1.513,0.89-2.107c0.593-0.593,1.295-0.89,2.107-0.89h11.988C45.766,8.991,46.468,9.288,47.063,9.881z
		 M41.958,75.722c0.937,0.531,1.67,1.264,2.201,2.201c0.53,0.937,0.796,1.936,0.796,2.997c0,1.625-0.594,3.029-1.779,4.215
		c-1.187,1.187-2.592,1.779-4.215,1.779c-1.624,0-3.029-0.593-4.214-1.779c-1.187-1.186-1.78-2.59-1.78-4.215
		c0-1.623,0.593-3.027,1.78-4.214c1.185-1.186,2.59-1.779,4.214-1.779C40.022,74.926,41.021,75.192,41.958,75.722z"/>
</g>
</svg>
