<?xml version="1.0" encoding="iso-8859-1"?>
<!-- Generator: Adobe Illustrator 24.0.1, SVG Export Plug-In . SVG Version: 6.00 Build 0)  -->
<svg version="1.1" id="icon" xmlns="http://www.w3.org/2000/svg" xmlns:xlink="http://www.w3.org/1999/xlink" x="0px" y="0px"
	 viewBox="0 0 95.761 77.807" style="enable-background:new 0 0 95.761 77.807;" xml:space="preserve">
<path d="M93.984,1.73c1.184,1.154,1.777,2.571,1.777,4.255v50.873c0,1.622-0.593,3.024-1.777,4.208
	c-1.185,1.186-2.588,1.777-4.208,1.777H50.873v8.978h14.963c0.81,0,1.511,0.297,2.104,0.889c0.592,0.593,0.888,1.294,0.888,2.104
	c0,0.812-0.296,1.513-0.888,2.104c-0.593,0.593-1.294,0.889-2.104,0.889H29.925c-0.811,0-1.512-0.296-2.104-0.889
	c-0.593-0.592-0.889-1.293-0.889-2.104c0-0.81,0.295-1.511,0.889-2.104c0.592-0.592,1.293-0.889,2.104-0.889h14.963v-8.978H5.985
	c-1.622,0-3.024-0.592-4.208-1.777C0.592,59.883,0,58.48,0,56.858V5.985C0,4.302,0.592,2.885,1.777,1.73C2.96,0.577,4.363,0,5.985,0
	h83.791C91.396,0,92.799,0.577,93.984,1.73z M89.776,5.985H5.985v50.873h83.791V5.985z"/>
</svg>
