<?xml version="1.0" encoding="iso-8859-1"?>
<!-- Generator: Adobe Illustrator 24.0.1, SVG Export Plug-In . SVG Version: 6.00 Build 0)  -->
<svg version="1.1" id="icon" xmlns="http://www.w3.org/2000/svg" xmlns:xlink="http://www.w3.org/1999/xlink" x="0px" y="0px"
	 viewBox="0 0 95.761 95.762" style="enable-background:new 0 0 95.761 95.762;" xml:space="preserve">
<path d="M91.366,70.231c2.93,2.931,4.396,6.452,4.396,10.567c0,4.114-1.466,7.638-4.396,10.567
	c-2.931,2.93-6.453,4.396-10.567,4.396c-2.681,0-5.175-0.671-7.481-2.011c-2.307-1.342-4.13-3.165-5.471-5.471
	c-1.341-2.306-2.01-4.8-2.01-7.481c0-0.374,0.015-0.763,0.046-1.169c0.031-0.405,0.078-0.795,0.141-1.169
	c0.061-0.374,0.155-0.748,0.28-1.122l-39.651-20.2c-2.993,3.804-6.89,5.705-11.689,5.705c-4.115,0-7.638-1.464-10.567-4.396
	C1.464,55.519,0,51.996,0,47.881c0-4.114,1.464-7.636,4.396-10.567c2.93-2.93,6.453-4.396,10.567-4.396
	c2.181,0,4.223,0.438,6.125,1.31c1.901,0.874,3.538,2.09,4.91,3.647L66.21,18.33c0-0.188-0.032-0.375-0.094-0.562
	c-0.063-0.188-0.109-0.374-0.14-0.562c-0.032-0.187-0.047-0.374-0.047-0.561c0-0.188-0.016-0.374-0.047-0.562
	c-0.032-0.187-0.046-0.374-0.046-0.561c0-0.188,0-0.374,0-0.562c0-2.68,0.669-5.174,2.01-7.481c1.34-2.306,3.164-4.129,5.471-5.471
	C75.623,0.671,78.117,0,80.798,0c2.68,0,5.174,0.671,7.481,2.011c2.306,1.342,4.129,3.165,5.471,5.471
	c1.34,2.308,2.011,4.802,2.011,7.481c0,4.115-1.466,7.638-4.396,10.567c-2.931,2.932-6.453,4.396-10.567,4.396
	c-2.431,0-4.708-0.545-6.827-1.637c-2.12-1.09-3.866-2.603-5.237-4.535L29.083,43.018c0.249,0.749,0.452,1.544,0.608,2.385
	c0.155,0.842,0.234,1.669,0.234,2.479c0,1.31-0.187,2.618-0.561,3.928l39.464,20.106c1.371-1.871,3.101-3.351,5.19-4.442
	c2.088-1.09,4.349-1.637,6.78-1.637C84.913,65.836,88.435,67.302,91.366,70.231z M23.94,47.881c0-2.493-0.874-4.613-2.619-6.359
	c-1.746-1.744-3.866-2.618-6.359-2.618c-2.495,0-4.615,0.874-6.359,2.618c-1.746,1.746-2.619,3.866-2.619,6.359
	c0,2.494,0.873,4.614,2.619,6.359c1.745,1.746,3.865,2.618,6.359,2.618c2.493,0,4.613-0.872,6.359-2.618
	C23.066,52.495,23.94,50.375,23.94,47.881z M71.821,14.963c0,2.494,0.873,4.614,2.619,6.359c1.745,1.746,3.865,2.618,6.359,2.618
	c2.493,0,4.613-0.872,6.359-2.618c1.745-1.745,2.618-3.865,2.618-6.359c0-2.493-0.874-4.613-2.618-6.359
	c-1.746-1.744-3.867-2.618-6.359-2.618c-2.494,0-4.614,0.874-6.359,2.618C72.693,10.35,71.821,12.47,71.821,14.963z M89.776,80.799
	c0-2.493-0.874-4.613-2.618-6.359c-1.746-1.744-3.867-2.618-6.359-2.618c-2.494,0-4.614,0.874-6.359,2.618
	c-1.746,1.746-2.619,3.866-2.619,6.359c0,2.494,0.873,4.614,2.619,6.359c1.745,1.746,3.865,2.618,6.359,2.618
	c2.493,0,4.613-0.872,6.359-2.618C88.902,85.413,89.776,83.293,89.776,80.799z"/>
</svg>
