<?xml version="1.0" encoding="iso-8859-1"?>
<!-- Generator: Adobe Illustrator 24.0.1, SVG Export Plug-In . SVG Version: 6.00 Build 0)  -->
<svg version="1.1" id="Layer_1" xmlns="http://www.w3.org/2000/svg" xmlns:xlink="http://www.w3.org/1999/xlink" x="0px" y="0px"
	 viewBox="0 0 94.781 93.844" style="enable-background:new 0 0 94.781 93.844;" xml:space="preserve">
<path d="M83.917,46.735l5.994-5.713V87.85c0,1.686-0.594,3.105-1.78,4.261c-1.187,1.155-2.592,1.733-4.214,1.733H5.994
	c-1.124,0-2.14-0.267-3.044-0.796c-0.906-0.531-1.625-1.25-2.154-2.154C0.265,89.988,0,88.974,0,87.85V27.91
	c0-1.623,0.577-3.028,1.732-4.214c1.155-1.186,2.576-1.78,4.262-1.78h29.97l0.187,0.188l-6.087,5.807H5.994v59.94h77.922V46.735z
	 M34.793,39.523c5.275-7.305,11.956-13.065,20.042-17.28c8.085-4.215,16.779-6.322,26.083-6.322c0.188,0,0.421,0,0.702,0
	c0.281,0,0.515,0,0.703,0s0.421,0,0.703,0c0.281,0,0.515,0,0.702,0L72.865,5.058c-0.375-0.375-0.641-0.811-0.796-1.311
	c-0.157-0.499-0.157-1.014,0-1.545c0.155-0.53,0.421-0.983,0.796-1.358C73.427,0.281,74.129,0,74.972,0s1.545,0.281,2.107,0.843
	l17.701,18.169L77.08,37.182c-0.188,0.188-0.391,0.344-0.609,0.468c-0.22,0.126-0.454,0.22-0.703,0.281
	c-0.25,0.063-0.5,0.094-0.749,0.094c-0.438,0-0.843-0.062-1.218-0.188c-0.375-0.125-0.688-0.342-0.937-0.656
	c-0.187-0.187-0.344-0.405-0.468-0.655c-0.125-0.249-0.219-0.483-0.281-0.703c-0.063-0.218-0.094-0.468-0.094-0.749
	c0-0.281,0.031-0.546,0.094-0.796c0.062-0.249,0.155-0.483,0.281-0.702c0.125-0.218,0.281-0.421,0.468-0.609l10.958-10.958
	c-1.499-0.062-2.529-0.094-3.091-0.094c-8.18,0-15.844,1.843-22.993,5.526c-7.15,3.685-13.081,8.71-17.795,15.079
	c-4.715,6.369-7.759,13.486-9.131,21.354h-6.088C26.161,54.946,29.517,46.829,34.793,39.523z"/>
</svg>
