<?xml version="1.0" encoding="iso-8859-1"?>
<!-- Generator: Adobe Illustrator 24.0.1, SVG Export Plug-In . SVG Version: 6.00 Build 0)  -->
<svg version="1.1" id="icon" xmlns="http://www.w3.org/2000/svg" xmlns:xlink="http://www.w3.org/1999/xlink" x="0px" y="0px"
	 viewBox="0 0 77.922 95.717" style="enable-background:new 0 0 77.922 95.717;" xml:space="preserve">
<path d="M77.922,17.795V32.78c0,5.933-0.421,11.505-1.265,16.718c-0.843,5.214-1.952,9.726-3.325,13.534
	c-1.374,3.809-3.029,7.337-4.964,10.583c-1.936,3.247-3.856,5.947-5.76,8.102c-1.905,2.154-3.98,4.106-6.228,5.854
	c-2.248,1.749-4.215,3.074-5.9,3.98c-1.686,0.905-3.418,1.701-5.198,2.389c-1.779,0.686-3.013,1.124-3.699,1.311
	c-0.688,0.188-1.25,0.312-1.686,0.375c-0.375,0.062-0.718,0.094-1.03,0.094c-0.187,0-0.375,0-0.562,0
	c-0.188,0-0.375-0.032-0.562-0.094c-0.688-0.126-1.562-0.328-2.623-0.609c-1.063-0.281-2.889-1.046-5.479-2.294
	c-2.591-1.25-5.073-2.732-7.446-4.449c-2.374-1.716-4.963-4.245-7.773-7.586c-2.81-3.34-5.23-7.086-7.258-11.239
	c-2.03-4.152-3.731-9.413-5.104-15.781C0.686,47.297,0,40.335,0,32.78V17.795c0-1.686,0.623-3.122,1.873-4.308
	c0.562-0.562,1.201-0.983,1.92-1.265c0.717-0.281,1.452-0.421,2.201-0.421c0.062,0,0.125,0,0.188,0c0.062,0,0.125,0,0.188,0
	c0.062,0,0.124,0.016,0.187,0.047c0.062,0.032,0.171,0.047,0.328,0.047c0.155,0,0.328,0,0.515,0c0.187,0,0.421,0,0.702,0
	c0.281,0,0.546,0,0.796,0c4.557,0,8.584-0.436,12.082-1.311c0.998-0.249,2.014-0.609,3.044-1.077s1.998-0.983,2.903-1.545
	c0.904-0.562,1.794-1.155,2.669-1.78c0.874-0.623,1.654-1.248,2.342-1.873c0.686-0.623,1.295-1.17,1.826-1.639
	c0.53-0.468,1.108-1.014,1.732-1.639c0.499-0.375,1.03-0.64,1.592-0.796C37.65,0.079,38.243,0,38.867,0
	c1.186,0,2.279,0.344,3.278,1.03c0.187,0.126,1.232,0.983,3.137,2.576c1.904,1.592,3.887,3.044,5.947,4.355s3.995,2.186,5.807,2.623
	c3.496,0.875,7.493,1.311,11.988,1.311c0.188,0,0.375,0,0.562,0c0.187,0,0.358,0,0.515,0c0.155,0,0.312,0,0.468,0
	c0.155,0,0.281,0,0.375,0s0.188,0,0.281,0c0.094,0,0.202-0.031,0.328-0.094c0.062,0,0.125,0,0.187,0c0.062,0,0.125,0,0.188,0
	c0.75,0,1.482,0.141,2.201,0.421c0.717,0.281,1.358,0.672,1.92,1.171C77.297,14.58,77.922,16.047,77.922,17.795z M71.928,17.795
	h-0.281c-0.25,0.063-0.625,0.094-1.124,0.094c-0.5,0-1,0-1.499,0c-4.933,0-9.429-0.499-13.487-1.499
	c-2.435-0.562-5.12-1.794-8.054-3.7c-2.936-1.904-4.949-3.339-6.041-4.308c-1.093-0.967-1.952-1.763-2.576-2.388L36.62,8.148
	c-1.562,1.438-3.699,3.029-6.416,4.777c-2.716,1.749-5.292,2.903-7.727,3.465c-4.06,1-8.586,1.499-13.58,1.499
	c-0.25,0-0.484,0-0.703,0c-0.22,0-0.421,0-0.609,0c-0.187,0-0.375,0-0.562,0c-0.187,0-0.344,0-0.468,0
	c-0.125,0-0.234-0.015-0.328-0.047c-0.094-0.031-0.173-0.047-0.234-0.047V32.78c0,6.994,0.624,13.409,1.874,19.247
	c1.248,5.839,2.777,10.646,4.589,14.423c1.811,3.778,3.98,7.165,6.509,10.162s4.823,5.261,6.884,6.79
	c2.061,1.531,4.229,2.842,6.509,3.934c2.278,1.093,3.808,1.749,4.589,1.967c0.78,0.22,1.419,0.36,1.92,0.421
	c4.995-1.061,10.021-3.714,15.079-7.961C65.934,71.399,71.928,55.07,71.928,32.78C71.928,24.102,71.928,19.106,71.928,17.795z
	 M52.448,33.669c0.125,0.531,0.125,1.046,0,1.545c-0.126,0.5-0.375,0.937-0.75,1.312l-8.522,8.522l8.522,8.523
	c0.125,0.126,0.281,0.313,0.468,0.562c0.75,1.311,0.593,2.529-0.468,3.652c-0.625,0.562-1.343,0.843-2.154,0.843
	c-0.813,0-1.531-0.281-2.154-0.843l-8.429-8.522l-8.522,8.522c-0.562,0.562-1.265,0.843-2.107,0.843s-1.545-0.296-2.107-0.89
	c-0.562-0.592-0.843-1.295-0.843-2.107c0-0.811,0.281-1.499,0.843-2.061l8.523-8.523l-8.523-8.522
	c-0.375-0.375-0.625-0.811-0.749-1.312c-0.126-0.499-0.126-1.014,0-1.545c0.124-0.529,0.375-0.983,0.749-1.358
	c0.562-0.562,1.265-0.843,2.107-0.843s1.545,0.281,2.107,0.843l8.522,8.523l8.429-8.523c0.624-0.562,1.342-0.843,2.154-0.843
	c0.811,0,1.529,0.281,2.154,0.843C52.073,32.686,52.322,33.14,52.448,33.669z"/>
</svg>
