<?xml version="1.0" encoding="iso-8859-1"?>
<!-- Generator: Adobe Illustrator 24.0.1, SVG Export Plug-In . SVG Version: 6.00 Build 0)  -->
<svg version="1.1" id="icon" xmlns="http://www.w3.org/2000/svg" xmlns:xlink="http://www.w3.org/1999/xlink" x="0px" y="0px"
	 viewBox="0 0 95.343 81.763" style="enable-background:new 0 0 95.343 81.763;" xml:space="preserve">
<path d="M66.871,16.858L28.472,70.805H0v-5.994h25.381L63.78,10.864h21.635l-7.118-6.462c-0.438-0.436-0.688-0.937-0.75-1.498
	c-0.063-0.562,0.094-1.061,0.468-1.499l0.562-0.75C78.766,0.469,79,0.313,79.281,0.188C79.562,0.063,79.843,0,80.124,0
	c0.281,0,0.562,0.063,0.843,0.188c0.281,0.126,0.546,0.281,0.796,0.468l12.082,11.052v0.093h0.094l0.749,0.75
	c0.437,0.438,0.656,0.953,0.656,1.545c0,0.594-0.219,1.077-0.656,1.452l-0.749,0.749c0,0.063-0.032,0.094-0.094,0.094L81.95,27.161
	c-0.438,0.438-0.969,0.656-1.592,0.656c-0.625,0-1.156-0.218-1.592-0.656l-0.562-0.749c-0.375-0.436-0.531-0.937-0.468-1.499
	c0.062-0.562,0.312-1.061,0.749-1.499l7.306-6.556H66.871z M25.381,16.858H0v-5.994h28.472l12.644,17.233l-3.747,5.151
	L25.381,16.858z M94.687,66.497c0.437,0.438,0.656,0.953,0.656,1.545c0,0.594-0.219,1.077-0.656,1.452l-0.749,0.749
	c0,0.063-0.032,0.094-0.094,0.094L81.95,81.107c-0.25,0.249-0.515,0.421-0.796,0.515s-0.562,0.141-0.843,0.141
	c-0.281,0-0.562-0.047-0.843-0.141c-0.281-0.094-0.515-0.266-0.702-0.515l-0.562-0.749c-0.375-0.438-0.531-0.937-0.468-1.499
	c0.062-0.562,0.312-1.063,0.749-1.499l7.212-6.462L63.78,70.805L52.448,53.478l3.652-5.245l10.771,16.577l18.638,0.094l-7.211-6.556
	c-0.25-0.249-0.454-0.562-0.609-0.937c-0.157-0.375-0.204-0.749-0.141-1.124c0.062-0.375,0.218-0.687,0.468-0.937l0.562-0.75
	c0.249-0.249,0.577-0.436,0.983-0.562c0.405-0.124,0.796-0.124,1.171,0c0.375,0.126,0.717,0.313,1.03,0.562l12.082,11.052v0.093
	h0.094L94.687,66.497z"/>
</svg>
