<?xml version="1.0" encoding="iso-8859-1"?>
<!-- Generator: Adobe Illustrator 24.0.1, SVG Export Plug-In . SVG Version: 6.00 Build 0)  -->
<svg version="1.1" id="icon" xmlns="http://www.w3.org/2000/svg" xmlns:xlink="http://www.w3.org/1999/xlink" x="0px" y="0px"
	 viewBox="0 0 96.092 95.717" style="enable-background:new 0 0 96.092 95.717;" xml:space="preserve">
<path d="M36.058,31.563c0.624,0.562,0.937,1.264,0.937,2.107c0,0.843-0.297,1.562-0.89,2.154c-0.594,0.594-1.311,0.89-2.154,0.89
	s-1.545-0.312-2.107-0.937L6.088,10.208l0.093,14.517c0,0.375-0.093,0.734-0.281,1.077c-0.188,0.344-0.454,0.625-0.796,0.843
	c-0.344,0.219-0.703,0.328-1.077,0.328H2.341c-0.625-0.062-1.14-0.265-1.545-0.609c-0.407-0.342-0.641-0.796-0.702-1.358V3.372
	c0-0.062,0.031-0.094,0.094-0.094L0,2.154c0-0.312,0.047-0.593,0.141-0.843c0.094-0.249,0.234-0.468,0.421-0.655
	C0.998,0.22,1.499,0,2.061,0l1.124,0.094h0.093L24.819,0c0.624,0,1.155,0.22,1.592,0.656c0.436,0.438,0.656,0.969,0.656,1.592v1.498
	c-0.063,0.688-0.344,1.234-0.843,1.639c-0.5,0.407-1.063,0.609-1.686,0.609H10.396L36.058,31.563z M33.201,59.145
	c0.53-0.155,1.045-0.155,1.545,0c0.499,0.156,0.937,0.421,1.311,0.796c0.312,0.25,0.546,0.562,0.703,0.937
	c0.155,0.375,0.234,0.765,0.234,1.171c0,0.407-0.079,0.781-0.234,1.124c-0.157,0.344-0.391,0.672-0.703,0.983L10.396,89.723h14.142
	c0.624,0,1.186,0.202,1.686,0.609c0.499,0.405,0.78,0.951,0.843,1.639v1.499c0,0.623-0.22,1.154-0.656,1.592
	c-0.438,0.436-0.969,0.656-1.592,0.656L3.278,95.624H3.185l-1.124,0.094c-0.562,0-1.063-0.22-1.499-0.656
	c-0.188-0.187-0.328-0.407-0.421-0.655C0.047,94.156,0,93.875,0,93.563l0.188-1.124l-0.094-0.094V70.711
	c0.062-0.249,0.141-0.499,0.234-0.75c0.094-0.249,0.249-0.452,0.468-0.608c0.218-0.155,0.468-0.281,0.75-0.375
	c0.281-0.093,0.546-0.171,0.796-0.234h1.686c0.562,0,1.061,0.234,1.499,0.703c0.436,0.468,0.655,0.983,0.655,1.545L6.088,85.509
	L31.843,59.94C32.218,59.566,32.67,59.301,33.201,59.145z M62.235,36.713c-0.843,0-1.562-0.295-2.154-0.89
	c-0.594-0.593-0.89-1.311-0.89-2.154c0-0.843,0.312-1.545,0.937-2.107L85.79,5.994H71.647c-0.625,0-1.187-0.202-1.686-0.609
	c-0.5-0.405-0.781-0.951-0.843-1.639V2.248c0-0.312,0.062-0.609,0.188-0.89c0.124-0.281,0.281-0.515,0.468-0.702
	c0.187-0.188,0.421-0.343,0.702-0.468C70.758,0.063,71.053,0,71.367,0l21.447,0.094h0.094L94.031,0c0.562,0,1.061,0.22,1.499,0.656
	c0.375,0.375,0.562,0.875,0.562,1.499l-0.188,1.124l0.094,0.094v21.635c-0.063,0.562-0.297,1.016-0.702,1.358
	c-0.407,0.344-0.922,0.547-1.545,0.609h-1.592c-0.562,0-1.063-0.234-1.499-0.702c-0.438-0.469-0.655-0.983-0.655-1.545l0.093-14.517
	L64.342,35.777C63.78,36.402,63.078,36.713,62.235,36.713z M95.998,92.439h-0.094l0.188,1.124c0,0.624-0.188,1.124-0.562,1.499
	c-0.438,0.436-0.937,0.656-1.499,0.656l-1.124-0.094h-0.094l-21.447,0.094c-0.438,0-0.813-0.094-1.124-0.281
	c-0.313-0.188-0.578-0.454-0.796-0.796c-0.219-0.344-0.328-0.734-0.328-1.17v-1.499c0.062-0.438,0.218-0.843,0.468-1.218
	c0.249-0.375,0.546-0.641,0.89-0.796c0.343-0.155,0.733-0.234,1.171-0.234H85.79L60.127,64.155
	c-0.625-0.562-0.937-1.264-0.937-2.107c0-0.843,0.312-1.545,0.937-2.107c0.375-0.375,0.811-0.64,1.312-0.796
	c0.499-0.155,1.014-0.155,1.545,0c0.53,0.156,0.983,0.421,1.358,0.796l25.755,25.568l-0.093-14.517c0-0.623,0.218-1.154,0.655-1.592
	c0.436-0.436,0.937-0.656,1.499-0.656h1.592c0.624,0.063,1.139,0.266,1.545,0.609c0.405,0.344,0.639,0.796,0.702,1.358v21.635
	V92.439z"/>
</svg>
