<?xml version="1.0" encoding="iso-8859-1"?>
<!-- Generator: Adobe Illustrator 24.0.1, SVG Export Plug-In . SVG Version: 6.00 Build 0)  -->
<svg version="1.1" id="Layer_1" xmlns="http://www.w3.org/2000/svg" xmlns:xlink="http://www.w3.org/1999/xlink" x="0px" y="0px"
	 viewBox="0 0 96.092 95.717" style="enable-background:new 0 0 96.092 95.717;" xml:space="preserve">
<path d="M35.964,32.405h-0.094l0.187,1.124c0,0.313-0.046,0.609-0.14,0.89s-0.234,0.515-0.421,0.703
	c-0.438,0.375-0.937,0.562-1.499,0.562h-1.124H32.78l-21.447,0.094c-0.625,0-1.156-0.218-1.592-0.655
	c-0.438-0.437-0.656-0.968-0.656-1.592v-1.592c0.062-0.687,0.343-1.232,0.843-1.639c0.499-0.405,1.061-0.577,1.686-0.515
	l14.142-0.093L0.937,5.151C0.312,4.528,0,3.809,0,2.997C0,2.187,0.295,1.484,0.89,0.89C1.482,0.297,2.201,0,3.044,0
	s1.545,0.281,2.107,0.843l24.913,24.726L29.97,11.052c0-0.624,0.218-1.155,0.656-1.592c0.436-0.436,0.937-0.656,1.499-0.656h1.592
	c0.624,0,1.139,0.173,1.545,0.515c0.405,0.344,0.64,0.828,0.703,1.452V32.405z M36.058,62.095l-0.187,1.217h0.094v21.635
	c-0.063,0.625-0.297,1.109-0.703,1.452c-0.407,0.344-0.922,0.515-1.545,0.515h-1.592c-0.562,0-1.063-0.218-1.499-0.656
	c-0.438-0.436-0.656-0.967-0.656-1.592l0.094-14.61L5.151,94.875c-0.375,0.375-0.829,0.623-1.358,0.749
	c-0.531,0.125-1.046,0.125-1.545,0c-0.5-0.126-0.937-0.375-1.311-0.749c-0.375-0.375-0.641-0.829-0.796-1.358
	c-0.155-0.531-0.155-1.046,0-1.545c0.155-0.5,0.421-0.969,0.796-1.405l24.819-24.631l-14.142-0.094
	c-0.625,0.063-1.187-0.108-1.686-0.515c-0.5-0.405-0.782-0.951-0.843-1.639v-1.592c0-0.624,0.218-1.139,0.656-1.545
	c0.436-0.406,0.967-0.64,1.592-0.703L32.78,59.94h0.094h1.124c0.562,0,1.061,0.188,1.499,0.562
	C35.871,60.877,36.058,61.408,36.058,62.095z M95.155,90.566c0.624,0.624,0.937,1.342,0.937,2.154c0,0.811-0.313,1.529-0.937,2.154
	c-0.188,0.187-0.438,0.358-0.749,0.515c-0.313,0.155-0.609,0.249-0.89,0.281c-0.281,0.031-0.578,0.031-0.89,0
	c-0.313-0.032-0.609-0.126-0.89-0.281c-0.281-0.157-0.547-0.328-0.796-0.515L65.935,70.243l0.093,14.423
	c0,0.625-0.219,1.156-0.655,1.592c-0.438,0.438-0.937,0.656-1.499,0.656h-1.686c-0.625,0-1.14-0.171-1.545-0.515
	c-0.407-0.342-0.641-0.827-0.702-1.452V63.312h0.094l-0.188-1.124c0-0.686,0.188-1.217,0.562-1.592
	c0.562-0.499,1.061-0.75,1.499-0.75h1.311h0.094h21.447c0.624,0.063,1.155,0.297,1.592,0.703c0.436,0.407,0.656,0.922,0.656,1.545
	v1.592v0.281c-0.313,1.311-1.156,1.936-2.529,1.873l-14.142,0.094L95.155,90.566z M60.174,34.419c-0.093-0.281-0.14-0.577-0.14-0.89
	l0.187-1.124h-0.094V10.771c0.062-0.624,0.296-1.108,0.703-1.452c0.405-0.342,0.92-0.515,1.545-0.515h1.592
	c0.562,0,1.061,0.22,1.499,0.656c0.436,0.438,0.655,0.969,0.655,1.592l-0.094,14.517L90.941,0.843C91.502,0.281,92.205,0,93.048,0
	c0.843,0,1.56,0.297,2.154,0.89c0.593,0.594,0.89,1.297,0.89,2.107c0,0.812-0.313,1.531-0.937,2.154L70.336,29.689l14.142,0.093
	c0.624-0.062,1.185,0.11,1.686,0.515c0.499,0.407,0.78,0.953,0.843,1.639v1.592c0,0.375-0.11,0.734-0.328,1.077
	c-0.219,0.344-0.484,0.625-0.796,0.843c-0.313,0.219-0.688,0.328-1.124,0.328l-21.447-0.094h-0.094h-1.124
	c-0.562,0-1.062-0.187-1.499-0.562C60.409,34.934,60.268,34.7,60.174,34.419z"/>
</svg>
