<?xml version="1.0" encoding="iso-8859-1"?>
<!-- Generator: Adobe Illustrator 24.0.1, SVG Export Plug-In . SVG Version: 6.00 Build 0)  -->
<svg version="1.1" id="icon" xmlns="http://www.w3.org/2000/svg" xmlns:xlink="http://www.w3.org/1999/xlink" x="0px" y="0px"
	 viewBox="0 0 95.904 95.905" style="enable-background:new 0 0 95.904 95.905;" xml:space="preserve">
<path d="M63.031,2.435c4.87,1.625,9.272,3.919,13.206,6.884c3.934,2.966,7.383,6.416,10.349,10.349
	c2.964,3.934,5.259,8.335,6.883,13.206c1.623,4.87,2.435,9.897,2.435,15.079c0,6.494-1.264,12.69-3.793,18.591
	s-5.947,11.004-10.255,15.313c-4.308,4.309-9.413,7.727-15.313,10.256c-5.9,2.528-12.098,3.793-18.591,3.793
	c-6.495,0-12.69-1.265-18.591-3.793c-5.9-2.529-11.004-5.947-15.313-10.256C9.74,77.548,6.322,72.444,3.793,66.543
	S0,54.447,0,47.953c0-9.678,2.669-18.481,8.008-26.412C13.346,13.613,20.324,7.773,28.94,4.027l0.562-0.281
	c2.871-1.249,5.854-2.185,8.944-2.81C41.537,0.313,44.705,0,47.952,0C53.134,0,58.161,0.813,63.031,2.435z M9.038,63.64
	c2.028,4.963,4.885,9.351,8.569,13.159c0.874-1.56,1.951-3.152,3.231-4.777c1.279-1.623,3.027-3.573,5.245-5.854
	c2.215-2.278,5.011-4.557,8.382-6.837c3.372-2.278,7.055-4.323,11.051-6.134c0.562-0.249,1.108-0.483,1.639-0.703
	c0.53-0.218,1.045-0.436,1.545-0.655c0.499-0.218,1.014-0.422,1.545-0.609c0.529-0.188,1.061-0.375,1.592-0.562
	c0.53-0.188,1.045-0.342,1.545-0.468c-0.562-1.311-1.156-2.606-1.779-3.887c-0.625-1.279-1.25-2.543-1.873-3.793
	c-0.126-0.249-0.267-0.515-0.422-0.796c-0.156-0.281-0.297-0.546-0.421-0.796c-11.613,3.685-23.133,5.526-34.559,5.526
	c-2.997,0-5.745-0.155-8.242-0.468c-0.063,0.749-0.094,1.405-0.094,1.967C5.994,53.447,7.008,58.676,9.038,63.64z M14.704,22.431
	c-4.06,5.214-6.712,11.098-7.961,17.654c1.811,0.125,3.793,0.203,5.947,0.234c2.154,0.032,4.964-0.031,8.429-0.188
	c3.465-0.155,7.383-0.623,11.754-1.405c4.37-0.78,8.741-1.826,13.112-3.137c-2.435-4.37-4.839-8.444-7.211-12.222
	c-2.374-3.777-4.214-6.571-5.526-8.382c-1.311-1.811-2.529-3.372-3.652-4.683C23.726,13.175,18.762,17.218,14.704,22.431z
	 M47.952,89.911c2.81,0,5.557-0.281,8.242-0.843c2.684-0.562,5.276-1.342,7.774-2.342c-1.312-9.927-4.06-20.26-8.242-31
	c-0.875,0.25-1.732,0.531-2.575,0.843c-0.843,0.313-1.702,0.641-2.576,0.983c-0.875,0.344-1.718,0.703-2.529,1.077
	c-4.06,1.812-7.759,3.903-11.098,6.275c-3.341,2.374-6.01,4.683-8.008,6.931c-1.999,2.248-3.481,4.043-4.449,5.385
	c-0.969,1.343-1.765,2.576-2.388,3.699C29.72,86.914,38.336,89.911,47.952,89.911z M66.777,10.49
	c-2.81-1.436-5.823-2.543-9.038-3.325c-3.216-0.78-6.478-1.171-9.787-1.171c-4.308,0-8.492,0.656-12.55,1.967
	c5.058,6.432,10.52,14.985,16.39,25.662c3.122-1.124,5.978-2.419,8.57-3.887c2.59-1.466,4.667-2.841,6.228-4.121
	c1.56-1.279,2.95-2.606,4.168-3.98c1.217-1.373,2.091-2.497,2.622-3.372c0.53-0.874,0.983-1.747,1.358-2.623
	C72.24,13.643,69.587,11.927,66.777,10.49z M79.233,20.042c-1.749,3.248-4.574,6.556-8.476,9.928
	c-3.903,3.372-9.288,6.369-16.156,8.991c0.062,0.126,0.14,0.266,0.234,0.421c0.094,0.157,0.141,0.266,0.141,0.328
	c0.436,0.75,0.843,1.499,1.217,2.248c0.375,0.749,0.733,1.499,1.077,2.248c0.343,0.75,0.687,1.484,1.03,2.201
	c0.342,0.718,0.67,1.452,0.983,2.201c10.677-2.372,20.854-2.248,30.532,0.375c0-0.061,0.015-0.218,0.047-0.468
	c0.031-0.249,0.047-0.436,0.047-0.562C89.911,37.338,86.352,28.036,79.233,20.042z M78.765,76.331
	c2.684-2.934,4.932-6.212,6.744-9.834c1.81-3.621,3.058-7.46,3.746-11.52c-1.063-0.249-2.294-0.515-3.699-0.796
	c-1.405-0.281-3.341-0.562-5.807-0.843c-2.467-0.281-5.308-0.359-8.522-0.234c-3.217,0.126-6.416,0.5-9.6,1.124
	c3.934,10.115,6.618,19.981,8.055,29.595C73.052,81.763,76.08,79.266,78.765,76.331z"/>
</svg>
