<?xml version="1.0" encoding="iso-8859-1"?>
<!-- Generator: Adobe Illustrator 24.0.1, SVG Export Plug-In . SVG Version: 6.00 Build 0)  -->
<svg version="1.1" id="icon" xmlns="http://www.w3.org/2000/svg" xmlns:xlink="http://www.w3.org/1999/xlink" x="0px" y="0px"
	 viewBox="0 0 95.948 69.016" style="enable-background:new 0 0 95.948 69.016;" xml:space="preserve">
<path d="M92.301,10.334c1.123,2.774,1.917,5.877,2.385,9.305c0.468,3.43,0.779,6.313,0.935,8.65
	c0.155,2.338,0.265,4.567,0.328,6.687c-0.063,2.37-0.172,4.755-0.328,7.154c-0.156,2.4-0.483,5.189-0.982,8.369
	c-0.5,3.18-1.309,6.048-2.431,8.604c-1.122,2.558-2.494,4.428-4.115,5.611c-4.053,2.868-17.426,4.302-40.119,4.302
	c-21.759,0-34.727-1.246-38.903-3.741c-1.809-1.122-3.367-3.039-4.676-5.751c-1.31-2.712-2.245-5.766-2.806-9.164
	c-0.561-3.397-0.951-6.266-1.169-8.604C0.202,39.417,0.062,37.189,0,35.069c0.062-1.684,0.155-3.461,0.281-5.331
	C1.277,15.399,4.239,6.766,9.165,3.834C13.341,1.278,26.278,0,47.974,0c7.168,0,13.357,0.141,18.563,0.421
	c5.205,0.28,9.211,0.654,12.017,1.122c2.805,0.468,4.894,0.921,6.266,1.356c1.371,0.437,2.462,0.935,3.273,1.496
	C89.776,5.58,91.179,7.561,92.301,10.334z M88.28,51.668c1.06-4.396,1.621-9.959,1.683-16.692c-0.063-3.428-0.25-6.671-0.561-9.726
	c-0.313-3.055-0.717-5.658-1.216-7.809c-0.5-2.151-1.061-3.942-1.683-5.378c-0.624-1.433-1.278-2.368-1.964-2.805
	c-0.561-0.436-1.622-0.856-3.18-1.263c-1.559-0.405-5.284-0.842-11.175-1.31c-5.891-0.468-13.295-0.701-22.21-0.701
	c-8.667,0-15.867,0.219-21.603,0.654c-5.736,0.438-9.384,0.842-10.941,1.216c-1.559,0.374-2.618,0.718-3.18,1.028
	c-1.559,0.936-2.961,3.851-4.208,8.744c-1.248,4.896-1.933,10.708-2.058,17.441c0.125,6.672,0.795,12.282,2.011,16.833
	s2.603,7.294,4.162,8.229c0.623,0.374,1.714,0.733,3.273,1.075c1.558,0.343,5.205,0.733,10.941,1.169
	c5.735,0.437,12.936,0.654,21.603,0.654c8.915,0,16.319-0.233,22.21-0.701c5.892-0.468,9.616-0.903,11.175-1.31
	c1.558-0.404,2.619-0.795,3.18-1.169C85.973,58.791,87.219,56.063,88.28,51.668z M68.08,32.638c0.187,0.187,0.342,0.39,0.468,0.607
	c0.124,0.22,0.218,0.453,0.28,0.701c0.062,0.25,0.094,0.5,0.094,0.749c0,1.122-0.5,1.995-1.496,2.618L40.493,53.772
	c-0.187,0.187-0.421,0.313-0.701,0.374c-0.281,0.063-0.547,0.094-0.795,0.094c-0.5,0-0.998-0.125-1.497-0.374
	c-0.998-0.562-1.496-1.434-1.496-2.619V18.236c0-1.184,0.499-2.072,1.496-2.666c0.997-0.592,1.995-0.575,2.993,0.047L67.426,32.17
	C67.674,32.296,67.893,32.45,68.08,32.638z M60.131,34.695L41.989,23.473v22.444L60.131,34.695z"/>
</svg>
