<?xml version="1.0" encoding="iso-8859-1"?>
<!-- Generator: Adobe Illustrator 24.0.1, SVG Export Plug-In . SVG Version: 6.00 Build 0)  -->
<svg version="1.1" id="Layer_1" xmlns="http://www.w3.org/2000/svg" xmlns:xlink="http://www.w3.org/1999/xlink" x="0px" y="0px"
	 viewBox="0 0 96.181 91.56" style="enable-background:new 0 0 96.181 91.56;" xml:space="preserve">
<path d="M13.373,25.537h-0.093c-3.867,0-7.046-1.353-9.539-3.754C1.246,19.384,0,16.283,0,12.635c0-3.646,1.277-6.693,3.834-9.063
	C6.39,1.205,9.632,0,13.56,0c3.802,0,6.951,1.159,9.445,3.497c2.493,2.338,3.771,5.342,3.834,9.02c0,3.68-1.262,6.869-3.787,9.269
	C20.527,24.186,17.3,25.537,13.373,25.537z M23.099,91.537H3.647c-0.687,0-1.249-0.141-1.747-0.609
	c-0.5-0.468-0.718-0.953-0.718-1.638V30.748c0-0.686,0.219-1.12,0.718-1.62c0.498-0.498,1.06-0.591,1.747-0.591h19.452
	c0.685,0,1.056,0.093,1.555,0.591c0.499,0.5,0.527,0.935,0.527,1.62v58.541C25.181,90.911,24.782,91.537,23.099,91.537z
	 M13.56,4.938c-2.557,0-4.629,0.701-6.219,2.104c-1.59,1.403-2.385,3.259-2.385,5.564c0,2.244,0.779,4.215,2.338,5.649
	c1.558,1.435,3.554,2.282,5.985,2.282h0.093c1.684,0,3.164-0.459,4.442-1.113c1.277-0.654,2.275-1.623,2.992-2.778
	c0.716-1.153,1.076-2.511,1.076-4.007c-0.063-2.306-0.842-4.178-2.338-5.581C18.048,5.656,16.053,4.938,13.56,4.938z M6.181,86.537
	h14v-53h-14V86.537z M73.878,91.537c-0.687,0-1.364-0.141-1.863-0.609c-0.5-0.468-0.834-0.953-0.834-1.638V57.961
	c0-2.058-0.117-3.802-0.522-5.236c-0.406-1.434-0.831-2.493-1.36-3.18c-0.53-0.686-1.18-1.23-1.989-1.637
	c-0.811-0.405-1.408-0.623-1.813-0.654c-0.406-0.031-0.915-0.047-1.538-0.047c-1.497,0-2.835,0.374-4.019,1.122
	c-1.185,0.748-2.009,1.481-2.477,2.197c-0.468,0.718-0.857,1.449-1.168,2.198c-0.125,0.374-0.057,0.888-0.151,1.543
	c-0.094,0.654,0.036,1.419,0.036,2.291v32.73c0,0.686-0.426,1.138-0.924,1.638c-0.5,0.498-1.267,0.609-1.953,0.609H33.853
	c-0.313,0-0.624,0.076-0.936-0.048c-0.313-0.125-0.713-0.243-0.961-0.491c-0.5-0.5-0.775-1.022-0.775-1.708c0-3.241,0-6.109,0-8.604
	c0-2.492-0.032-5.392,0-8.697c0.031-3.304,0-6.67,0-10.1c0-3.428,0-6.873,0-10.333c0-3.461,0-6.594,0-9.398
	c0-2.806,0.151-5.237,0.12-7.295c-0.032-2.058,0.037-3.397,0.037-4.021c-0.063-0.685,0.197-1.136,0.697-1.666
	c0.498-0.529,1.132-0.638,1.819-0.638h19.451c0.374,0,0.716-0.093,1.029,0.031c0.311,0.125,0.576,0.217,0.795,0.435
	c0.218,0.22,0.565,0.445,0.69,0.756c0.125,0.313,0.363,0.616,0.363,0.99v1.402c4-3.554,8.832-5.33,14.88-5.33
	c7.793,0,14.009,2.557,18.405,7.668c4.396,5.113,6.715,12.189,6.715,21.229v33.572c0,0.312-0.273,0.623-0.397,0.936
	c-0.125,0.311-0.402,0.575-0.619,0.795c-0.219,0.218-0.536,0.297-0.847,0.422c-0.313,0.125-0.677,0.095-0.988,0.095H73.878z
	 M91.181,86.537v-30.82c0-7.605-1.919-13.481-5.379-17.628c-3.46-4.146-8.464-6.219-14.823-6.219
	c-6.485,0-11.582,2.605-15.196,7.965c-0.313,1.186-1.139,1.701-2.385,1.701h-0.187c-0.936,0-1.499-0.359-1.997-1.233
	c-0.374-0.622-1.033-1.201-0.033-1.887v-4.88H36.378c0.124,7,0.124,24,0,53h14.803V56.559c0-2.432,0.126-4.333,0.687-5.705
	c0.436-1.059,0.889-2.041,1.513-2.945c0.623-0.903,1.285-1.714,2.065-2.432c0.779-0.716,1.601-1.31,2.506-1.776
	c0.903-0.468,1.86-0.842,2.889-1.122c1.028-0.281,2.067-0.421,3.128-0.421c2.618,0,4.844,0.623,6.684,1.87
	c1.838,1.248,3.175,3.039,4.143,5.377c0.966,2.338,1.384,5.19,1.384,8.557v28.575H91.181z"/>
</svg>
