<?xml version="1.0" encoding="iso-8859-1"?>
<!-- Generator: Adobe Illustrator 24.0.1, SVG Export Plug-In . SVG Version: 6.00 Build 0)  -->
<svg version="1.1" id="icon" xmlns="http://www.w3.org/2000/svg" xmlns:xlink="http://www.w3.org/1999/xlink" x="0px" y="0px"
	 viewBox="0 0 95.013 95.762" style="enable-background:new 0 0 95.013 95.762;" xml:space="preserve">
<path d="M95.013,67.987c0,7.668-2.712,14.214-8.136,19.638c-5.424,5.425-11.97,8.137-19.638,8.137
	c-5.424,0-10.413-1.466-14.963-4.396c-0.811,0.124-1.653,0.218-2.525,0.28c-0.874,0.062-1.746,0.094-2.619,0.094
	c-4.801,0-9.461-0.748-13.98-2.244c-4.521-1.496-8.604-3.615-12.251-6.359c-3.647-2.743-6.843-5.938-9.585-9.586
	c-2.744-3.646-4.863-7.729-6.359-12.25c-1.497-4.52-2.245-9.18-2.245-13.981c0-1.122,0.047-2.228,0.141-3.319
	c0.093-1.09,0.201-2.197,0.327-3.32C1.06,36.691,0,32.39,0,27.774c0-7.668,2.712-14.214,8.136-19.638C13.56,2.712,20.106,0,27.774,0
	c4.676,0,9.071,1.092,13.186,3.273c2.119-0.248,4.176-0.374,6.172-0.374c5.985,0,11.72,1.169,17.207,3.507
	c5.485,2.338,10.208,5.486,14.168,9.445c3.958,3.96,7.122,8.683,9.492,14.168c2.369,5.486,3.554,11.254,3.554,17.3
	c0,1.062-0.046,2.121-0.14,3.18c-0.093,1.062-0.203,2.12-0.327,3.18C93.704,58.106,95.013,62.876,95.013,67.987z M82.388,83.137
	c4.176-4.176,6.266-9.226,6.266-15.149c0-1.995-0.266-3.942-0.795-5.845c-0.53-1.901-1.325-3.725-2.385-5.471l-1.028-1.59
	l0.28-1.871c0.125-0.622,0.218-1.262,0.281-1.917c0.061-0.654,0.108-1.323,0.14-2.011c0.031-0.685,0.047-1.34,0.047-1.964
	c0-5.174-0.998-10.1-2.993-14.775c-0.935-2.306-2.089-4.473-3.46-6.499c-1.372-2.025-2.931-3.912-4.676-5.658
	c-3.554-3.49-7.607-6.202-12.157-8.136c-4.676-1.994-9.602-2.992-14.776-2.992c-0.935,0-1.886,0.032-2.852,0.093
	c-0.967,0.063-1.887,0.157-2.759,0.281l-1.777,0.28l-1.496-0.842c-1.622-0.872-3.32-1.543-5.097-2.011s-3.57-0.701-5.377-0.701
	c-2.868,0-5.596,0.53-8.183,1.59c-2.588,1.061-4.91,2.618-6.967,4.676c-4.178,4.178-6.266,9.228-6.266,15.149
	c0,1.81,0.217,3.586,0.654,5.331c0.436,1.746,1.09,3.398,1.964,4.956l0.842,1.496l-0.281,1.684
	c-0.313,1.996-0.467,4.021-0.467,6.078c0,5.176,0.997,10.101,2.992,14.776c1.932,4.552,4.66,8.589,8.183,12.11
	c3.521,3.522,7.559,6.251,12.11,8.183c4.676,1.996,9.6,2.992,14.775,2.992c1.684,0,3.304-0.124,4.863-0.374l1.871-0.187l1.59,1.028
	c3.554,2.37,7.481,3.554,11.783,3.554c2.867,0,5.595-0.545,8.183-1.637C78.008,86.676,80.331,85.133,82.388,83.137z M66.023,56.765
	c0,4.428-1.622,7.949-4.863,10.567c-1.684,1.436-3.741,2.511-6.172,3.227c-2.431,0.718-5.206,1.075-8.323,1.075
	c-6.235,0-11.191-1.37-14.869-4.114c-3.18-2.244-4.77-4.831-4.77-7.762c0-0.686,0.094-1.294,0.281-1.824
	c0.187-0.528,0.498-1.013,0.935-1.449c0.872-0.81,1.964-1.216,3.273-1.216c1.496,0,2.867,0.748,4.115,2.244
	c1.932,2.37,3.117,3.71,3.554,4.021c1.87,1.496,4.363,2.244,7.481,2.244c2.618,0,4.737-0.654,6.359-1.964
	c1.497-1.184,2.245-2.618,2.245-4.302c0-2.492-1.528-4.114-4.583-4.862l-12.157-3.086c-7.668-1.932-11.502-6.233-11.502-12.905
	c0-2.432,0.498-4.566,1.496-6.406c0.997-1.838,2.493-3.413,4.489-4.723c1.684-1.122,3.601-1.947,5.751-2.479
	c2.151-0.528,4.503-0.795,7.061-0.795c4.489,0,8.604,1.062,12.344,3.18c3.989,2.184,5.985,4.77,5.985,7.763
	c0,1.372-0.467,2.431-1.402,3.179c-0.5,0.374-1.045,0.655-1.637,0.842c-0.593,0.188-1.201,0.281-1.824,0.281
	c-1.309,0-2.557-0.623-3.741-1.871c-1.746-1.87-2.868-2.96-3.367-3.272c-0.935-0.623-1.979-1.091-3.133-1.403
	c-1.154-0.311-2.447-0.468-3.881-0.468c-2.494,0-4.395,0.5-5.705,1.497c-0.687,0.561-1.201,1.169-1.543,1.823
	c-0.343,0.654-0.514,1.388-0.514,2.197c0,1.186,0.608,2.198,1.824,3.04c1.215,0.841,3.07,1.543,5.564,2.104l8.978,2.058
	C62.001,45.075,66.084,49.597,66.023,56.765z"/>
</svg>
