<?xml version="1.0" encoding="iso-8859-1"?>
<!-- Generator: Adobe Illustrator 24.0.1, SVG Export Plug-In . SVG Version: 6.00 Build 0)  -->
<svg version="1.1" id="icon" xmlns="http://www.w3.org/2000/svg" xmlns:xlink="http://www.w3.org/1999/xlink" x="0px" y="0px"
	 viewBox="0 0 70.205 89.87" style="enable-background:new 0 0 70.205 89.87;" xml:space="preserve">
<path d="M68.704,42.036c-1.061,3.96-2.588,7.606-4.583,10.941c-1.996,3.336-4.629,6.142-7.902,8.416
	c-3.273,2.277-6.906,3.633-10.895,4.068c-5.736,0.624-10.537-0.529-14.401-3.46c-0.935,4.053-1.996,7.731-3.18,11.035
	c-1.185,3.305-2.65,6.328-4.395,9.07c-0.126,0.25-0.344,0.624-0.655,1.123c-0.561,0.935-1.014,1.652-1.356,2.15
	c-0.343,0.5-0.874,1.107-1.59,1.823c-0.717,0.717-1.481,1.23-2.291,1.543l-2.619,1.123l-0.561-2.899
	c-0.437-2.493-0.687-5.05-0.748-7.668c-0.063-2.619-0.016-4.94,0.14-6.968c0.155-2.024,0.514-4.409,1.076-7.153
	c0.561-2.743,1.043-4.878,1.449-6.406c0.405-1.527,0.982-3.725,1.73-6.593c0.436-1.496,0.763-2.68,0.982-3.554
	c0.218-0.872,0.499-1.948,0.842-3.227c0.342-1.277,0.608-2.446,0.795-3.507c-0.624-1.744-1.061-3.521-1.309-5.33
	c-0.25-1.808-0.281-3.601-0.094-5.378c0.187-1.776,0.561-3.428,1.122-4.956c0.561-1.526,1.417-2.883,2.572-4.067
	c1.153-1.184,2.509-2.089,4.068-2.713c0.562-0.187,1.137-0.342,1.73-0.467c0.592-0.125,1.169-0.188,1.73-0.188
	c2.244,0,4.239,0.748,5.985,2.244c1.745,1.497,2.773,3.336,3.086,5.518c0.187,1.31,0.155,2.744-0.093,4.302
	c-0.25,1.56-0.53,2.838-0.842,3.835c-0.313,0.997-0.78,2.369-1.403,4.114c-1.559,4.115-2.307,7.107-2.244,8.978
	c0.061,1.31,0.623,2.464,1.683,3.46c1.06,0.998,2.462,1.496,4.208,1.496c0.187,0,0.358-0.015,0.514-0.046
	c0.155-0.031,0.311-0.047,0.468-0.047c0.155,0,0.327-0.031,0.514-0.094c1.247-0.188,2.556-0.872,3.928-2.058l0.281-0.28
	c0.561-0.498,1.09-1.028,1.589-1.59c0.499-0.562,0.95-1.169,1.356-1.823c0.404-0.655,0.794-1.356,1.169-2.104
	c0.374-0.748,0.716-1.527,1.028-2.338c0.312-0.81,0.592-1.651,0.842-2.525c0.249-0.872,0.468-1.761,0.655-2.665
	c0.187-0.902,0.327-1.838,0.42-2.806c0.094-0.966,0.155-1.947,0.188-2.945c0.03-0.997,0.014-1.995-0.047-2.992
	c-0.25-4.737-1.98-8.525-5.19-11.362c-3.211-2.837-7.404-4.256-12.578-4.256c-0.749,0-1.435,0.032-2.058,0.094
	c-4.988,0.374-9.274,2.12-12.858,5.237c-3.586,3.118-5.814,7.014-6.687,11.689c-0.313,1.934-0.313,3.928,0,5.985
	c0.311,2.057,0.903,3.772,1.777,5.144l0.28,0.28c0.312,0.313,0.562,0.577,0.749,0.795c0.187,0.219,0.405,0.577,0.654,1.075
	c0.249,0.5,0.405,0.998,0.468,1.496c0.124,0.998-0.032,2.167-0.468,3.507c-0.437,1.342-0.841,2.323-1.216,2.946
	c-0.374,0.624-0.687,1.154-0.935,1.59l-0.935,1.309l-1.59-0.374c-3.492-0.872-6.313-2.712-8.463-5.518
	c-2.151-2.805-3.523-5.922-4.115-9.352c-0.593-3.428-0.64-6.95-0.14-10.567c1.122-7.168,4.396-13.31,9.819-18.423
	c5.424-5.111,12.001-8.197,19.732-9.258C32.076,0.156,34.196,0,36.253,0c9.663,0,17.689,2.838,24.081,8.51
	c6.39,5.674,9.679,12.845,9.866,21.509C70.261,34.072,69.763,38.077,68.704,42.036z M24.376,46.15
	c-0.374,1.466-0.654,2.588-0.841,3.367c-0.187,0.78-0.531,2.073-1.029,3.881c-1.122,3.928-1.949,7.014-2.478,9.258
	c-0.531,2.244-1.014,5.159-1.45,8.744c-0.437,3.586-0.53,6.937-0.281,10.053c0.062-0.124,0.155-0.28,0.281-0.468
	c0.124-0.187,0.234-0.357,0.327-0.514c0.094-0.155,0.171-0.296,0.234-0.421c0.062-0.125,0.155-0.281,0.281-0.468
	c1.246-1.995,2.399-4.349,3.46-7.061c1.06-2.712,1.885-5.144,2.478-7.294c0.592-2.151,1.23-4.848,1.917-8.09l0.935-4.114
	l2.992,2.992c1.745,1.746,3.414,3.009,5.003,3.787c1.59,0.78,3.568,1.169,5.938,1.169c0.374,0,0.794-0.015,1.262-0.046
	s0.919-0.078,1.356-0.141c4.426-0.498,8.26-2.353,11.502-5.564c3.241-3.21,5.611-7.014,7.107-11.409s2.212-8.961,2.151-13.7
	c-0.187-7.355-3.024-13.434-8.51-18.235c-5.487-4.8-12.407-7.201-20.761-7.201c-1.871,0-3.773,0.126-5.705,0.374
	c-6.672,0.936-12.36,3.586-17.067,7.949c-4.708,4.364-7.528,9.632-8.463,15.805c-0.624,4.177-0.313,8.151,0.935,11.923
	c1.247,3.772,3.46,6.345,6.64,7.715c0.187-0.435,0.374-0.855,0.561-1.262c0.187-0.405,0.311-0.779,0.374-1.122
	c0.061-0.343,0.061-0.639,0-0.889c0-0.062-0.187-0.28-0.561-0.655c-0.374-0.374-0.655-0.748-0.842-1.122
	c-1.185-1.808-1.996-4.035-2.432-6.687c-0.437-2.648-0.437-5.221,0-7.715c0.249-1.31,0.592-2.556,1.029-3.74
	c0.436-1.184,0.935-2.322,1.496-3.414c0.562-1.09,1.2-2.15,1.917-3.179c0.716-1.029,1.511-1.964,2.384-2.806
	c0.873-0.842,1.808-1.637,2.806-2.385c0.997-0.748,2.042-1.434,3.133-2.058c1.09-0.622,2.229-1.153,3.414-1.59
	c1.184-0.436,2.415-0.795,3.694-1.075c1.277-0.28,2.603-0.482,3.975-0.608c6.981-0.498,12.779,1.108,17.394,4.816
	c4.613,3.71,7.075,8.776,7.388,15.196c0.249,5.3-0.406,10.24-1.964,14.822c-1.559,4.583-3.834,8.152-6.827,10.708l-0.281,0.28
	c-0.437,0.438-0.811,0.765-1.122,0.982c-0.313,0.219-0.733,0.515-1.263,0.889c-0.53,0.374-1.138,0.67-1.823,0.888
	c-0.687,0.22-1.403,0.391-2.151,0.515c-0.748,0.126-1.466,0.187-2.151,0.187c-3.118,0-5.643-0.966-7.575-2.898
	c-1.933-1.932-2.931-4.115-2.992-6.546c-0.063-2.432,0.748-6.017,2.431-10.755c0.623-1.62,1.06-2.836,1.31-3.647
	c0.248-0.81,0.482-1.823,0.701-3.039c0.218-1.216,0.265-2.321,0.14-3.319c-0.063-0.686-0.313-1.31-0.748-1.871
	c-0.437-0.561-0.967-0.996-1.59-1.309c-0.624-0.312-1.309-0.468-2.057-0.468c-0.313,0-0.608,0.016-0.889,0.047
	c-0.28,0.032-0.577,0.109-0.888,0.233c-1.746,0.687-3.025,1.964-3.834,3.834c-0.811,1.871-1.169,3.96-1.075,6.266
	c0.093,2.308,0.576,4.615,1.449,6.921l0.281,0.654l-0.093,0.654C25.062,43.361,24.75,44.687,24.376,46.15z"/>
</svg>
