<?xml version="1.0" encoding="iso-8859-1"?>
<!-- Generator: Adobe Illustrator 24.0.1, SVG Export Plug-In . SVG Version: 6.00 Build 0)  -->
<svg version="1.1" id="icon" xmlns="http://www.w3.org/2000/svg" xmlns:xlink="http://www.w3.org/1999/xlink" x="0px" y="0px"
	 viewBox="0 0 95.796 77.992" style="enable-background:new 0 0 95.796 77.992;" xml:space="preserve">
<path d="M67.835,0.28c1.247,0.187,2.478,0.483,3.694,0.889c1.216,0.406,2.385,0.904,3.507,1.496c1.123,0.593,2.182,1.263,3.18,2.011
	c2.245-0.623,4.333-1.527,6.266-2.712c0.249-0.125,0.499-0.234,0.748-0.328c0.249-0.093,0.499-0.171,0.748-0.233
	c0.249-0.062,0.499-0.108,0.749-0.141c0.248-0.03,0.498-0.046,0.748-0.046c1.433,0,2.712,0.437,3.834,1.309
	c0.623,0.5,1.122,1.107,1.497,1.824c0.374,0.717,0.592,1.449,0.654,2.197c0.062,0.748,0,1.528-0.187,2.338
	c1.684,1.185,2.525,2.806,2.525,4.863c0,0.687-0.093,1.341-0.28,1.964s-0.5,1.185-0.936,1.683c-2.057,2.993-4.489,5.644-7.294,7.949
	c-0.063,5.237-0.921,10.396-2.572,15.477c-1.653,5.082-4.053,9.852-7.201,14.309c-3.149,4.458-6.874,8.401-11.175,11.83
	s-9.384,6.125-15.243,8.089c-5.861,1.964-12.096,2.945-18.704,2.945c-10.724,0-20.574-2.805-29.551-8.416
	c-1.185-0.686-2.011-1.698-2.478-3.039c-0.468-1.34-0.482-2.666-0.047-3.975c0.436-1.184,1.169-2.151,2.198-2.899
	s2.198-1.122,3.507-1.122l0.655,0.094c1.059,0.126,2.212,0.187,3.46,0.187c1.06,0,2.135-0.061,3.226-0.187
	c1.09-0.124,2.166-0.312,3.227-0.562c-3.242-2.742-5.55-6.14-6.92-10.193c-0.125-0.498-0.203-1.013-0.233-1.543
	c-0.032-0.528,0.16-1.043,0.286-1.543c-4.115-4.363-6.026-9.507-6.026-15.43v-0.188c0-1.496,0.352-2.836,1.35-4.021
	c-0.936-2.492-1.476-5.08-1.476-7.762c0-4.114,1.022-7.948,3.143-11.502c1.059-1.745,2.6-2.681,4.657-2.806l0.458-0.094
	c1.871,0,3.393,0.718,4.578,2.151c6.42,7.668,14.648,12.5,24.686,14.494c0.748-5.548,3.303-10.207,7.667-13.98
	C53.122,1.886,58.203,0,64.001,0C65.31,0,66.587,0.093,67.835,0.28z M51.844,10.848c-3.367,3.242-5.05,7.17-5.05,11.783
	c0,1.309,0.155,2.588,0.467,3.834c-7.046-0.374-13.639-2.088-19.779-5.144c-6.141-3.054-11.362-7.169-15.664-12.344
	c-0.748,1.248-1.325,2.588-1.73,4.021c-0.406,1.436-0.608,2.899-0.608,4.396c0,1.87,0.328,3.694,0.982,5.471
	c0.655,1.777,1.543,3.367,2.666,4.77c1.122,1.402,2.616,2.604,4.175,3.601c-2.744-0.062-5.608-0.748-7.608-2.058v0.188
	c0,4.053,1.155,7.606,3.774,10.66c2.618,3.056,5.815,4.957,9.743,5.705c-1.435,0.437-2.97,0.654-4.528,0.654
	c-0.374,0-0.767-0.015-1.141-0.047c-0.374-0.03-0.743-0.077-1.085-0.14c-0.344-0.062-0.706-0.125-1.08-0.188
	c1.122,3.367,3.145,6.125,6.076,8.276c2.93,2.15,6.264,3.259,10.005,3.319c-6.235,4.802-13.343,7.201-21.322,7.201
	c-0.748,0-1.45-0.03-2.104-0.094c-0.655-0.062-1.326-0.124-2.011-0.187c8.042,4.988,16.833,7.481,26.372,7.481
	c5.111,0,9.959-0.655,14.542-1.964c4.582-1.31,8.634-3.117,12.157-5.424c3.521-2.307,6.701-4.987,9.539-8.043
	c2.836-3.054,5.174-6.359,7.014-9.913c1.838-3.553,3.241-7.2,4.208-10.941c0.966-3.74,1.449-7.449,1.449-11.128
	c0-0.686-0.032-1.403-0.093-2.151c1.122-0.81,2.198-1.667,3.226-2.571c1.029-0.903,1.995-1.87,2.899-2.899
	c0.903-1.028,1.73-2.104,2.478-3.226c-3.118,1.372-6.391,2.244-9.819,2.618c3.678-2.119,6.172-5.174,7.481-9.165
	c-3.367,1.934-6.983,3.273-10.848,4.021c-3.429-3.491-7.638-5.237-12.625-5.237C59.262,5.984,55.21,7.606,51.844,10.848z"/>
</svg>
