<?xml version="1.0" encoding="iso-8859-1"?>
<!-- Generator: Adobe Illustrator 24.0.1, SVG Export Plug-In . SVG Version: 6.00 Build 0)  -->
<svg version="1.1" id="icon" xmlns="http://www.w3.org/2000/svg" xmlns:xlink="http://www.w3.org/1999/xlink" x="0px" y="0px"
	 viewBox="0 0 47.673 92.255" style="enable-background:new 0 0 47.673 92.255;" xml:space="preserve">
<path d="M30.944,0.255h7.668c1.621,0,3.255,0.415,4.41,1.569C44.175,2.978,45,4.233,45,5.916c0,0.063,0,0.156,0,0.28v8.697
	c0,1.622-0.841,3.212-2.025,4.396c-1.185,1.186-2.836,1.965-4.456,1.965H33v6h8.699c1.995,0,3.584,0.553,4.77,2.143
	c1.184,1.59,1.496,3.231,0.935,5.162l-2.057,8.917c-0.375,1.248-1.092,2.014-2.151,2.824c-1.061,0.812-2.277,0.954-3.647,0.954H33
	v39.273c0,1.684-0.826,2.971-2.01,4.126c-1.185,1.153-2.821,1.601-4.441,1.601h-8.978c-1.683,0-2.895-0.448-4.048-1.601
	C12.369,89.499,12,88.211,12,86.528V47.255H5.601c-1.622,0-2.833-0.36-4.017-1.545C0.4,44.526,0,43.355,0,41.733v-8.978
	c0-1.62,0.4-2.781,1.585-3.966c1.184-1.184,2.394-1.535,4.017-1.535H12v-8.433c0-7.481,2.536-12.873,8.023-16.179
	C23.076,0.773,26.433,0,30.3,0C30.548,0,30.694,0.255,30.944,0.255z M28.326,5.963c-0.624,0.094-1.465,0.266-2.525,0.515
	c-1.061,0.249-2.026,0.687-2.899,1.309c-0.874,0.624-1.73,1.372-2.572,2.244c-0.841,0.874-1.298,2.074-1.796,3.601
	C18.034,15.16,18,16.89,18,18.822v14.433H6v8h12v45h9v-45h12.548l2.151-8H27V18.541v-0.188c0-0.062-0.211-0.171-0.179-0.327
	c0.031-0.155-0.051-0.312-0.019-0.468c0.031-0.154,0.037-0.342,0.131-0.561c0.093-0.218,0.19-0.421,0.346-0.608
	c0.155-0.187,0.328-0.374,0.547-0.561c0.218-0.188,0.445-0.358,0.695-0.515c0.248-0.155,0.572-0.084,0.978-0.147
	c0.404-0.062,0.822,0.087,1.259,0.087H39v-9h-8.243l-0.561-0.263C29.572,5.992,28.948,5.87,28.326,5.963z"/>
</svg>
