<?xml version="1.0" encoding="iso-8859-1"?>
<!-- Generator: Adobe Illustrator 24.0.1, SVG Export Plug-In . SVG Version: 6.00 Build 0)  -->
<svg version="1.1" id="icon" xmlns="http://www.w3.org/2000/svg" xmlns:xlink="http://www.w3.org/1999/xlink" x="0px" y="0px"
	 viewBox="0 0 95.505 79.97" style="enable-background:new 0 0 95.505 79.97;" xml:space="preserve">
<path d="M88.258,28.349c1.464,0.624,2.727,1.435,3.787,2.432c1.06,0.998,1.901,2.214,2.525,3.647
	c0.623,1.435,0.936,2.898,0.936,4.395c0,0.936-0.141,1.887-0.421,2.853c-0.281,0.968-0.655,1.887-1.122,2.759
	c-0.468,0.874-1.192,1.669-1.783,2.385c-0.593,0.718-1.017,1.325-2.017,1.823v2.432c0,1.56,0.007,3.086-0.368,4.582
	c-0.374,1.497-0.824,2.946-1.54,4.349c-0.717,1.403-1.558,2.791-2.617,4.162c-1.061,1.372-2.237,2.681-3.576,3.928
	c-1.341,1.247-2.809,2.431-4.43,3.554c-3.866,2.681-8.396,4.738-13.601,6.172c-5.206,1.435-10.674,2.15-16.409,2.15
	c-11.783,0-21.744-2.773-29.787-8.322C9.418,66.223,5.162,59.366,5.162,51.074v-2.338c-2-0.936-2.928-2.229-3.831-3.881
	C0.426,43.204,0,41.411,0,39.478c0-3.18,1.135-5.876,3.379-8.09c2.245-2.212,4.931-3.319,8.049-3.319c2.369,0,4.71,0.718,7.017,2.15
	c8.042-4.862,17.146-7.355,27.309-7.481l6.173-19.077c0.062-0.686,0.374-1.492,0.936-1.958c0.561-0.468,1.153-0.931,1.777-0.931
	h0.188l15.617,4.157c0.374-0.748,0.872-1.318,1.496-1.942c0.623-0.623,1.309-1.112,2.058-1.579c0.748-0.468,1.574-0.798,2.478-1.047
	C77.378,0.111,78.266,0,79.14,0c2.556,0,4.8,0.974,6.733,2.906c1.932,1.934,2.899,4.181,2.899,6.737
	c0,2.557-0.967,4.804-2.899,6.735c-1.933,1.933-4.178,2.899-6.733,2.899c-2.494,0-4.676-0.872-6.546-2.618
	c-1.871-1.745-2.899-3.834-3.086-6.265l-13.093-3.18l-4.676,15.617c10.161,0.748,18.484,3.18,24.969,7.295
	c2.119-1.808,4.489-2.712,7.107-2.712C85.312,27.415,86.792,27.727,88.258,28.349z M11.434,33.305c-1.185,0-2.244,0.267-3.18,0.795
	c-0.935,0.531-1.652,1.263-2.151,2.198c-0.5,0.935-0.748,1.996-0.748,3.18c0,0.811,0.436,1.933,1.31,3.366
	c1.807-3.678,4.239-6.764,7.294-9.258C13.522,33.399,12.68,33.305,11.434,33.305z M73.997,34.895
	c-3.554-2.368-7.685-4.191-12.391-5.471c-4.708-1.276-9.555-1.917-14.542-1.917c-4.926,0-9.648,0.641-14.167,1.917
	c-4.521,1.279-8.589,3.103-12.204,5.471c-7.107,4.739-10.661,10.133-10.661,16.179c0,6.048,3.554,11.441,10.661,16.179
	c3.554,2.37,7.668,4.208,12.344,5.518c4.676,1.309,9.539,1.964,14.588,1.964c9.85,0,18.828-2.493,26.933-7.481
	c6.733-4.863,10.1-10.255,10.1-16.179C84.657,45.089,81.104,39.697,73.997,34.895z M38.741,51.589
	c-1.435,1.466-3.149,2.197-5.144,2.197c-1.309,0-2.525-0.342-3.647-1.028c-2.432-1.434-3.647-3.554-3.647-6.359
	c0-2.058,0.732-3.881,2.198-5.471c1.464-1.59,3.164-2.385,5.097-2.385c1.247,0,2.432,0.374,3.554,1.122s2.025,1.73,2.712,2.946
	c0.685,1.216,1.029,2.478,1.029,3.787C40.892,48.394,40.174,50.124,38.741,51.589z M63.523,61.735
	c0.374,0.437,0.561,0.998,0.561,1.684c0,0.687-0.219,1.278-0.654,1.776c-3.306,3.306-8.573,4.956-15.805,4.956
	c-3.366,0-6.344-0.404-8.931-1.216c-2.588-0.809-4.879-2.057-6.874-3.74c-0.313-0.312-0.53-0.686-0.655-1.122
	c-0.125-0.436-0.125-0.889,0-1.356c0.125-0.467,0.342-0.855,0.655-1.169c0.124-0.124,0.295-0.233,0.514-0.327
	c0.218-0.094,0.421-0.171,0.608-0.233c0.187-0.062,0.405-0.094,0.655-0.094c0.249,0,0.482,0.032,0.701,0.094
	c0.218,0.063,0.421,0.14,0.608,0.233s0.342,0.203,0.468,0.327c2.182,2.184,6.079,3.273,11.689,3.273c2.743,0,5.097-0.28,7.061-0.842
	c1.964-0.561,3.475-1.37,4.536-2.432l0.093-0.093c1.31-0.873,2.432-1.184,3.367-0.936C62.681,60.645,63.149,61.049,63.523,61.735z
	 M64.411,39.712c0.903,0.406,1.683,0.936,2.338,1.59c0.654,0.654,1.184,1.435,1.589,2.338c0.405,0.904,0.608,1.823,0.608,2.759
	c0,1.31-0.343,2.525-1.028,3.647c-1.435,2.494-3.523,3.74-6.266,3.74c-0.998,0-1.949-0.201-2.853-0.607
	c-0.904-0.405-1.683-0.936-2.338-1.59c-0.654-0.655-1.185-1.434-1.59-2.338c-0.406-0.903-0.608-1.854-0.608-2.853
	c0-1.246,0.342-2.462,1.029-3.647c1.434-2.431,3.554-3.646,6.359-3.646C62.587,39.104,63.506,39.307,64.411,39.712z M76.007,12.779
	c0.842,0.842,1.885,1.263,3.133,1.263c0.561,0,1.123-0.108,1.684-0.327c0.561-0.218,1.028-0.529,1.403-0.936
	c0.374-0.405,0.669-0.872,0.888-1.403c0.218-0.528,0.327-1.105,0.327-1.729c0-0.81-0.187-1.543-0.561-2.197
	c-0.374-0.655-0.888-1.169-1.543-1.544c-0.655-0.374-1.388-0.561-2.198-0.561c-0.624,0-1.201,0.109-1.73,0.327
	c-0.53,0.219-0.998,0.515-1.403,0.889c-0.406,0.374-0.717,0.842-0.935,1.402c-0.219,0.562-0.327,1.122-0.327,1.684
	C74.745,10.894,75.166,11.937,76.007,12.779z M88.211,35.036c-1.122-1.153-2.588-1.73-4.396-1.73c-0.874,0-1.715,0.188-2.525,0.562
	c3.554,3.118,5.892,6.204,7.014,9.258c1.06-1.184,1.59-2.398,1.59-3.646C89.894,37.671,89.333,36.19,88.211,35.036z"/>
</svg>
