<?xml version="1.0" encoding="iso-8859-1"?>
<!-- Generator: Adobe Illustrator 24.0.1, SVG Export Plug-In . SVG Version: 6.00 Build 0)  -->
<svg version="1.1" id="icon" xmlns="http://www.w3.org/2000/svg" xmlns:xlink="http://www.w3.org/1999/xlink" x="0px" y="0px"
	 viewBox="0 0 96.742 62.189" style="enable-background:new 0 0 96.742 62.189;" xml:space="preserve">
<path d="M96.416,31.89c0.124,1.061,0.218,2.291,0.28,3.694c0.062,1.402,0.062,2.978,0,4.722v3.647h-0.28l-0.281,2.058
	c-0.374,3.18-1.964,6.234-4.769,9.164c-4.241,4.677-10.1,7.015-17.582,7.015c-6.11,0-11.535-1.901-16.271-5.705
	c-1.185-0.936-2.23-2.025-3.133-3.273c-0.905-1.246-1.669-2.648-2.292-4.208c-0.374,0.812-0.811,1.622-1.309,2.432
	c-0.624,1.061-1.325,2.026-2.104,2.899c-0.78,0.873-1.637,1.652-2.572,2.338c-1.061,0.811-2.214,1.496-3.46,2.057
	c-1.248,0.562-2.588,0.998-4.021,1.31C36.065,60.6,33.292,60.88,30.3,60.88H0V0h32.17c7.73,0.126,13.31,2.525,16.74,7.201
	c2.057,2.932,3.086,6.359,3.086,10.287c0,4.178-1.092,7.574-3.273,10.193c-0.063,0.125-0.126,0.203-0.188,0.233
	c-0.063,0.032-0.125,0.079-0.187,0.141c0.499,0.437,0.95,0.888,1.356,1.355c0.405,0.468,0.795,0.951,1.169,1.45
	c0.935-4.676,2.867-8.479,5.798-11.409c1.309-1.31,2.712-2.432,4.208-3.367V0.936h25.156v15.057
	c0.872,0.499,1.698,1.061,2.478,1.683c0.779,0.624,1.511,1.31,2.198,2.058c0.685,0.748,1.34,1.56,1.964,2.432
	C94.607,25.032,95.855,28.274,96.416,31.89z M45.823,25.344c1.621-1.995,2.432-4.613,2.432-7.855c0-0.499-0.016-0.997-0.047-1.496
	c-0.032-0.499-0.093-0.982-0.187-1.45c-0.093-0.468-0.219-0.935-0.374-1.402c-0.156-0.468-0.313-0.919-0.468-1.356
	c-0.156-0.436-0.359-0.842-0.607-1.216c-0.25-0.374-0.5-0.748-0.749-1.122c-2.681-3.678-7.264-5.578-13.747-5.704H3.834v53.305H30.3
	c2.743,0,5.268-0.218,7.575-0.655c2.306-0.498,4.302-1.402,5.985-2.712c1.497-1.122,2.743-2.524,3.741-4.208
	c0.499-0.81,0.935-1.667,1.31-2.571c0.374-0.903,0.638-1.854,0.794-2.853c0.155-0.997,0.234-1.995,0.234-2.992
	c0-3.055-0.687-5.658-2.057-7.81c-1.372-2.15-3.399-3.693-6.079-4.629l-0.374-0.187l0.28-0.094
	C43.516,27.4,44.888,26.404,45.823,25.344z M29.832,24.876H14.215V12.813h14.308c2.556,0,4.676,0.28,6.359,0.842
	c1.995,0.811,2.993,2.494,2.993,5.05c0,1.185-0.187,2.183-0.561,2.992c-0.374,0.811-0.935,1.435-1.684,1.87
	C34.134,24.44,32.201,24.876,29.832,24.876z M35.443,34.414c1.184,0.5,2.058,1.248,2.619,2.245c0.561,0.998,0.842,2.214,0.842,3.646
	c0,3.367-1.185,5.644-3.554,6.827c-0.687,0.313-1.482,0.547-2.385,0.701c-0.904,0.156-1.949,0.234-3.133,0.234H14.215V33.479h15.804
	c0.374,0,0.748,0.016,1.122,0.047c0.374,0.032,0.716,0.063,1.029,0.094c0.311,0.031,0.623,0.063,0.935,0.093
	c0.312,0.032,0.608,0.094,0.889,0.188c0.28,0.094,0.545,0.172,0.795,0.233C35.037,34.197,35.256,34.29,35.443,34.414z
	 M34.041,18.704c0-0.249-0.016-0.468-0.047-0.655c-0.032-0.187-0.063-0.327-0.094-0.421c-0.032-0.093-0.079-0.171-0.14-0.233
	c-0.063-0.062-0.125-0.124-0.187-0.188c-1.309-0.435-2.993-0.654-5.05-0.654H18.049v4.582h11.783c1.683,0,2.96-0.28,3.834-0.841
	C33.915,20.106,34.041,19.577,34.041,18.704z M18.049,44.233h11.783c0.374,0,0.732,0,1.076,0c0.342,0,0.638-0.015,0.888-0.046
	c0.249-0.031,0.482-0.078,0.701-0.141c0.218-0.062,0.405-0.108,0.562-0.141c0.155-0.03,0.28-0.062,0.374-0.094
	c0.093-0.03,0.171-0.077,0.233-0.14c0.997-0.498,1.497-1.621,1.497-3.367c0-1.246-0.437-2.057-1.31-2.431
	c-0.313-0.188-0.78-0.328-1.402-0.421c-0.624-0.094-1.435-0.171-2.432-0.234h-11.97V44.233z M64.153,40.306v-0.093h28.803
	c0.061-3.367-0.063-5.953-0.375-7.762c-0.437-3.117-1.465-5.829-3.086-8.137c-0.874-1.309-1.886-2.445-3.039-3.413
	c-1.154-0.966-2.417-1.761-3.788-2.385c-0.998-0.436-2.042-0.81-3.133-1.122c-1.091-0.312-2.26-0.529-3.507-0.654h-5.144
	c-4.614,0.499-8.449,2.307-11.502,5.424c-3.616,3.616-5.424,8.822-5.424,15.617c0,7.294,1.995,12.563,5.985,15.805
	c0.561,0.437,1.137,0.857,1.73,1.262c0.592,0.406,1.2,0.78,1.824,1.122c0.623,0.344,1.263,0.641,1.917,0.889
	c0.655,0.25,1.324,0.468,2.011,0.654c0.685,0.188,1.371,0.36,2.057,0.515c0.686,0.156,1.387,0.266,2.104,0.327
	c0.716,0.063,1.449,0.094,2.197,0.094c6.359,0,11.316-1.932,14.869-5.798c2.182-2.306,3.428-4.613,3.741-6.92H82.108
	c-0.187,0.437-0.406,0.811-0.655,1.122c-0.25,0.313-0.5,0.607-0.748,0.888c-0.25,0.281-0.5,0.515-0.748,0.702
	c-0.374,0.313-0.78,0.593-1.216,0.841c-0.437,0.25-0.888,0.453-1.356,0.608c-0.468,0.156-0.982,0.266-1.543,0.327
	c-0.561,0.063-1.122,0.094-1.683,0.094c-2.245,0-4.178-0.498-5.798-1.496c-0.687-0.436-1.278-0.919-1.777-1.45
	c-0.5-0.528-0.92-1.152-1.262-1.87c-0.344-0.716-0.624-1.511-0.842-2.385C64.261,42.239,64.153,41.304,64.153,40.306z
	 M81.687,29.738c0.468,1.062,0.732,2.308,0.795,3.741l0.094,0.187H64.34v-0.187c0.374-2.618,1.309-4.707,2.805-6.266
	c0.749-0.748,1.651-1.31,2.712-1.684c1.059-0.374,2.275-0.561,3.647-0.561c0.81,0,1.574,0.078,2.291,0.233
	c0.716,0.156,1.403,0.391,2.058,0.701c0.654,0.313,1.262,0.718,1.823,1.216C80.549,27.807,81.219,28.68,81.687,29.738z
	 M76.31,12.999h5.985V4.676H64.714v8.323h5.985c0.81-0.062,1.745-0.094,2.806-0.094C74.252,12.905,75.188,12.938,76.31,12.999z
	 M78.741,43.953H68.735c0.374,0.624,0.903,1.186,1.59,1.684c0.374,0.187,0.748,0.343,1.122,0.468s0.779,0.233,1.216,0.327
	c0.436,0.094,0.935,0.14,1.497,0.14c1.496,0,2.649-0.342,3.46-1.028C77.993,45.169,78.367,44.64,78.741,43.953z M77.058,29.832
	c-0.935-0.748-2.12-1.122-3.554-1.122c-1.622,0-2.806,0.374-3.554,1.122H77.058z"/>
</svg>
