<?xml version="1.0" encoding="iso-8859-1"?>
<!-- Generator: Adobe Illustrator 24.0.1, SVG Export Plug-In . SVG Version: 6.00 Build 0)  -->
<svg version="1.1" id="icon" xmlns="http://www.w3.org/2000/svg" xmlns:xlink="http://www.w3.org/1999/xlink" x="0px" y="0px"
	 viewBox="0 0 94.826 94.826" style="enable-background:new 0 0 94.826 94.826;" xml:space="preserve">
<path d="M47.413,0c7.979,0,14.495,0.094,19.545,0.281c4.302,0.187,8.136,0.935,11.502,2.244c3.241,1.248,6.046,3.056,8.417,5.424
	c2.369,2.37,4.176,5.176,5.424,8.417c1.309,3.366,2.057,7.2,2.244,11.502c0.187,5.05,0.281,11.565,0.281,19.545
	c0,7.981-0.094,14.495-0.281,19.545c-0.187,4.302-0.935,8.137-2.244,11.503c-1.248,3.242-3.056,6.048-5.424,8.416
	c-2.37,2.37-5.175,4.177-8.417,5.425c-3.367,1.309-7.201,2.057-11.502,2.244c-5.05,0.187-11.565,0.28-19.545,0.28
	c-7.981,0-14.495-0.094-19.545-0.28c-4.302-0.188-8.136-0.936-11.503-2.244c-3.242-1.248-6.048-3.055-8.417-5.425
	c-2.37-2.368-4.177-5.174-5.424-8.416c-1.309-3.366-2.057-7.201-2.244-11.503C0.094,61.908,0,55.395,0,47.413
	c0-7.979,0.094-14.495,0.281-19.545c0.187-4.302,0.935-8.136,2.244-11.502c1.247-3.241,3.054-6.047,5.424-8.417
	c2.369-2.368,5.174-4.176,8.417-5.424c3.367-1.31,7.201-2.058,11.503-2.244C32.918,0.094,39.432,0,47.413,0z M47.413,6.173
	c-8.292,0-15.056,0.093-20.293,0.28c-3.367,0.126-6.485,0.718-9.352,1.776c-4.489,1.871-7.668,5.05-9.539,9.539
	c-1.061,2.868-1.653,5.985-1.777,9.352c-0.187,5.237-0.28,12.002-0.28,20.293c0,8.293,0.093,15.057,0.28,20.293
	c0.124,3.367,0.716,6.485,1.777,9.353c1.87,4.488,5.05,7.668,9.539,9.538c2.867,1.061,5.985,1.652,9.352,1.777
	c5.237,0.187,12,0.28,20.293,0.28c8.291,0,15.056-0.094,20.293-0.28c3.367-0.125,6.483-0.717,9.352-1.777
	c4.489-1.87,7.668-5.05,9.539-9.538c1.059-2.867,1.651-5.985,1.777-9.353c0.187-5.236,0.28-12,0.28-20.293
	c0-8.291-0.093-15.056-0.28-20.293c-0.126-3.366-0.718-6.483-1.777-9.352c-1.871-4.489-5.05-7.668-9.539-9.539
	c-2.868-1.059-5.985-1.65-9.352-1.776C62.469,6.266,55.704,6.173,47.413,6.173z M30.206,30.206
	c4.737-4.737,10.474-7.107,17.207-7.107c6.733,0,12.468,2.37,17.207,7.107c4.737,4.739,7.107,10.474,7.107,17.207
	s-2.37,12.47-7.107,17.207c-4.739,4.739-10.474,7.107-17.207,7.107c-6.733,0-12.47-2.368-17.207-7.107
	c-4.739-4.737-7.107-10.474-7.107-17.207S25.467,34.945,30.206,30.206z M33.993,60.833c3.708,3.71,8.183,5.564,13.42,5.564
	s9.709-1.854,13.419-5.564c3.708-3.709,5.564-8.183,5.564-13.42c0-5.236-1.856-9.709-5.564-13.419
	c-3.71-3.709-8.183-5.564-13.419-5.564s-9.711,1.855-13.42,5.564c-3.71,3.71-5.564,8.183-5.564,13.419
	C28.429,52.65,30.283,57.124,33.993,60.833z M76.73,18.096c1.153,1.154,1.73,2.511,1.73,4.068c0,1.559-0.561,2.884-1.683,3.975
	s-2.494,1.636-4.115,1.636c-1.559,0-2.884-0.545-3.975-1.636c-1.091-1.091-1.636-2.416-1.636-3.975c0-1.621,0.545-2.993,1.636-4.115
	c1.09-1.122,2.416-1.683,3.975-1.683C74.22,16.366,75.576,16.943,76.73,18.096z"/>
</svg>
