<?xml version="1.0" encoding="iso-8859-1"?>
<!-- Generator: Adobe Illustrator 24.0.1, SVG Export Plug-In . SVG Version: 6.00 Build 0)  -->
<svg version="1.1" id="icon" xmlns="http://www.w3.org/2000/svg" xmlns:xlink="http://www.w3.org/1999/xlink" x="0px" y="0px"
	 viewBox="0 0 74.753 95.768" style="enable-background:new 0 0 74.753 95.768;" xml:space="preserve">
<path d="M4.381,48.916c-1.309,0-2.12-0.592-2.432-1.776c-0.748-2.244-1.278-4.753-1.589-7.528c-0.313-2.773-0.421-5.579-0.328-8.416
	c0.094-2.837,0.529-5.596,1.31-8.276c0.779-2.68,1.885-4.831,3.32-6.453c-0.437-1.744-0.655-3.537-0.655-5.377
	c0-1.838,0.218-3.662,0.655-5.471c0.435-1.808,1.059-3.304,1.87-4.489C7.03,0.32,7.778-0.055,8.777,0.007
	c1.62,0.063,3.163,0.267,4.629,0.608c1.464,0.343,2.852,0.827,4.162,1.449c1.309,0.624,2.399,1.186,3.273,1.684
	c0.872,0.5,1.932,1.185,3.18,2.058c5.424-1.434,11.252-1.964,17.487-1.59c1.06,0.063,2.556,0.313,4.489,0.748
	c1.808,0.374,2.96,0.546,3.46,0.514c0.498-0.03,1.496-0.575,2.992-1.636c1.31-0.873,2.338-1.465,3.086-1.777
	c2.805-1.246,5.892-1.932,9.258-2.058c0.749,0,1.371,0.234,1.871,0.702c0.498,0.467,0.763,1.061,0.795,1.776
	c0.031,0.718-0.187,1.325-0.655,1.823c-0.467,0.5-1.075,0.78-1.824,0.842c-2.744,0.063-5.206,0.594-7.388,1.59
	c-0.5,0.188-1.248,0.624-2.244,1.31c-2.245,1.559-4.054,2.4-5.424,2.524c-1.122,0.126-2.805-0.093-5.05-0.654
	c-1.746-0.374-2.962-0.592-3.647-0.654c-6.111-0.312-11.783,0.28-17.02,1.776c-0.748,0.188-1.435,0.063-2.058-0.374L21.495,10.2
	c-1.559-0.996-2.744-1.744-3.554-2.244c-0.811-0.498-1.949-1.028-3.414-1.59c-1.465-0.561-2.946-0.936-4.442-1.122
	C9.462,6.74,9.134,8.563,9.104,10.715c-0.032,2.15,0.234,3.975,0.795,5.471c0.498,1.122,0.28,2.09-0.655,2.899
	C7,20.955,5.658,24.774,5.223,30.54c-0.437,5.768,0.093,10.771,1.59,15.01C7,46.173,6.937,46.812,6.626,47.466
	c-0.313,0.654-0.811,1.075-1.497,1.263C4.879,48.855,4.63,48.916,4.381,48.916z M19.063,92.869c-0.125,0-0.281-0.032-0.468-0.094
	c-0.687-0.125-1.231-0.467-1.636-1.028c-0.406-0.562-0.546-1.185-0.421-1.87c0.311-1.621,1.371-2.961,3.18-4.021
	c0.561-0.312,0.872-0.562,0.935-0.748c0.436-0.872,0.561-3.21,0.374-7.014c-0.125-1.434-0.187-2.525-0.187-3.273
	c-2.058,0.313-4.037,0.515-5.938,0.608c-1.902,0.093-3.741-0.249-5.518-1.029c-1.776-0.778-3.195-2.071-4.255-3.881
	c-0.437-0.686-0.951-1.761-1.543-3.227c-0.593-1.464-1.075-2.445-1.449-2.945c-0.437-0.562-0.624-1.184-0.562-1.87
	c0.062-0.686,0.374-1.263,0.936-1.73c0.561-0.468,1.184-0.654,1.87-0.561c0.686,0.093,1.247,0.39,1.683,0.888
	c0.81,0.936,1.59,2.401,2.338,4.396c0.125,0.374,0.234,0.671,0.328,0.889c0.093,0.219,0.202,0.483,0.327,0.795
	c0.125,0.313,0.249,0.561,0.374,0.748c0.873,1.435,2.399,2.229,4.583,2.385c2.182,0.156,5.174-0.202,8.978-1.075
	c0.81-0.188,1.543,0.016,2.198,0.607c0.654,0.593,0.919,1.325,0.795,2.197c-0.063,0.998-0.032,2.932,0.093,5.799
	c0.187,4.676-0.093,7.824-0.842,9.444c-0.561,1.186-1.559,2.184-2.992,2.993c-0.437,0.312-0.687,0.468-0.748,0.468
	c-0.063,0.622-0.328,1.137-0.795,1.543C20.232,92.666,19.686,92.869,19.063,92.869z M23.833,74.166l-0.561-0.094
	c-0.687-0.124-1.232-0.482-1.637-1.075c-0.406-0.592-0.514-1.263-0.327-2.011l0.187-0.654c0.872-3.928,1.651-6.795,2.338-8.604
	c-5.237-1.06-9.726-2.82-13.467-5.284c-3.74-2.462-6.515-5.438-8.323-8.931c-0.312-0.622-0.359-1.277-0.14-1.964
	c0.218-0.686,0.638-1.184,1.262-1.496c0.623-0.312,1.277-0.358,1.964-0.141c0.686,0.22,1.184,0.641,1.497,1.263
	c1.62,3.18,4.302,5.814,8.042,7.902c3.741,2.089,8.291,3.507,13.654,4.255c1.122,0.187,1.838,0.811,2.151,1.87
	c0.248,1.122-0.063,2.026-0.935,2.712c-0.811,0.748-1.84,3.897-3.086,9.445l-0.187,0.748c-0.125,0.624-0.421,1.122-0.888,1.496
	C24.908,73.978,24.394,74.166,23.833,74.166z M28.415,95.768c-0.935,0-1.652-0.374-2.151-1.122
	c-0.374-0.624-0.483-1.279-0.327-1.964c0.155-0.688,0.514-1.216,1.075-1.59c0.562-0.25,1.527-1.434,2.899-3.554
	c0.748-2.119,1.34-10.349,1.777-24.688c0.061-0.686,0.342-1.277,0.841-1.777c0.499-0.498,1.106-0.731,1.824-0.701
	c0.716,0.032,1.309,0.297,1.777,0.795c0.467,0.5,0.701,1.122,0.701,1.87c-0.5,16.272-1.341,25.313-2.525,27.12
	c-1.746,2.68-3.242,4.426-4.489,5.237C29.381,95.642,28.913,95.768,28.415,95.768z M47.866,95.768c-0.5,0-0.967-0.126-1.403-0.374
	c-1.248-0.812-2.744-2.558-4.489-5.237c-1.185-1.808-2.027-10.848-2.525-27.12c-0.063-0.498,0.015-0.949,0.234-1.355
	c0.218-0.405,0.529-0.716,0.935-0.936c0.405-0.218,0.826-0.357,1.262-0.421c0.686,0,1.293,0.25,1.824,0.748
	c0.529,0.5,0.795,1.092,0.795,1.777c0.436,14.214,1.06,22.443,1.871,24.688c1.371,2.12,2.306,3.304,2.805,3.554
	c0.623,0.374,1.013,0.902,1.169,1.59c0.155,0.685,0.015,1.34-0.421,1.964C49.487,95.394,48.801,95.768,47.866,95.768z
	 M56.283,92.401c-0.935,0-1.653-0.406-2.151-1.216c-0.126-0.187-0.468-0.467-1.029-0.841c-1.309-0.936-2.244-1.932-2.806-2.993
	c-0.687-1.37-1.075-3.163-1.169-5.377c-0.093-2.212-0.046-4.379,0.141-6.499c0.187-3.803,0.187-6.483,0-8.043
	c-0.187-1.246-0.811-2.556-1.871-3.928c-0.874-1.184-1.496-2.118-1.87-2.806c-0.374-0.81-0.313-1.62,0.187-2.431
	c0.436-0.749,1.09-1.153,1.964-1.216c4.8-0.374,9.024-1.637,12.671-3.788c3.647-2.15,6.374-5.033,8.183-8.65
	c0.312-0.622,0.795-1.043,1.45-1.262c0.655-0.218,1.309-0.171,1.964,0.14c0.654,0.313,1.09,0.812,1.309,1.496
	c0.218,0.688,0.171,1.342-0.14,1.964c-1.933,3.804-4.692,6.968-8.276,9.492c-3.586,2.525-7.747,4.255-12.484,5.19
	c1.06,1.559,1.714,3.273,1.964,5.144c0.249,1.87,0.28,4.862,0.093,8.978c-0.25,4.988-0.093,8.074,0.468,9.258
	c0.124,0.188,0.249,0.359,0.374,0.515c0.124,0.156,0.374,0.359,0.748,0.607c1.06,0.688,1.871,1.436,2.432,2.245
	c0.374,0.623,0.482,1.278,0.327,1.964c-0.156,0.685-0.514,1.215-1.075,1.59c-0.25,0.124-0.484,0.233-0.702,0.327
	C56.765,92.354,56.531,92.401,56.283,92.401z M70.778,48.355c-0.187,0-0.406-0.031-0.655-0.094
	c-0.687-0.187-1.201-0.592-1.543-1.216c-0.343-0.622-0.421-1.277-0.234-1.964c1.434-4.924,1.73-10.13,0.889-15.617
	c-0.842-5.485-2.479-9.289-4.91-11.409c-0.874-0.748-1.122-1.683-0.748-2.806c0.498-1.807,0.638-3.787,0.42-5.938
	c-0.219-2.151-0.701-4.068-1.449-5.752c-0.25-0.622-0.25-1.263,0-1.917c0.249-0.654,0.701-1.122,1.356-1.402
	c0.655-0.281,1.309-0.296,1.964-0.047c0.655,0.25,1.106,0.687,1.356,1.31c0.873,1.933,1.464,4.1,1.777,6.499
	c0.311,2.4,0.249,4.849-0.187,7.341c1.995,2.184,3.491,5.113,4.489,8.791c0.997,3.679,1.48,7.481,1.449,11.409
	c-0.032,3.928-0.514,7.574-1.449,10.941c-0.125,0.313-0.266,0.577-0.421,0.795c-0.156,0.219-0.343,0.406-0.561,0.561
	c-0.219,0.156-0.453,0.28-0.702,0.374C71.37,48.308,71.089,48.355,70.778,48.355z"/>
</svg>
