<?xml version="1.0" encoding="iso-8859-1"?>
<!-- Generator: Adobe Illustrator 24.0.1, SVG Export Plug-In . SVG Version: 6.00 Build 0)  -->
<svg version="1.1" id="icon" xmlns="http://www.w3.org/2000/svg" xmlns:xlink="http://www.w3.org/1999/xlink" x="0px" y="0px"
	 viewBox="0 0 94.219 72.958" style="enable-background:new 0 0 94.219 72.958;" xml:space="preserve">
<path d="M22.197,72.958c-6.12,0-11.349-2.185-15.688-6.556C2.169,62.033,0,56.788,0,50.668V38.212c0-0.562,0.202-1.061,0.609-1.499
	c0.405-0.436,0.92-0.656,1.545-0.656h15.36c0.375,0,0.717,0.094,1.03,0.281c0.312,0.188,0.577,0.454,0.796,0.796
	c0.218,0.344,0.328,0.703,0.328,1.077v12.363c0,0.688,0.249,1.296,0.75,1.826c0.499,0.531,1.124,0.796,1.873,0.796
	c0.436,0,0.857-0.125,1.264-0.375c0.405-0.249,0.733-0.577,0.983-0.983c0.249-0.405,0.375-0.827,0.375-1.264V21.541
	c0.062-2.435,0.483-4.744,1.265-6.931c0.78-2.185,1.857-4.151,3.231-5.9c1.373-1.747,2.965-3.278,4.777-4.589
	c1.81-1.312,3.824-2.326,6.041-3.044C42.441,0.36,44.736,0,47.109,0c3.934,0,7.586,0.953,10.958,2.856
	c3.372,1.905,6.056,4.496,8.055,7.773c1.997,3.278,3.058,6.916,3.184,10.911v6.462c0,1.063-0.531,1.749-1.592,2.061l-9.178,2.716
	c-0.5,0.126-1,0.094-1.499-0.094l-6.088-2.903c-0.875-0.375-1.311-1.03-1.311-1.967v-5.525c0-0.437-0.11-0.858-0.328-1.265
	c-0.22-0.405-0.531-0.733-0.937-0.983c-0.407-0.249-0.859-0.375-1.358-0.375c-0.688,0-1.296,0.266-1.826,0.796
	c-0.531,0.531-0.796,1.14-0.796,1.827v28.659c-0.063,6.057-2.264,11.239-6.603,15.547C33.45,70.805,28.252,72.958,22.197,72.958z
	 M4.309,40.366v10.302c0,4.996,1.747,9.241,5.245,12.737c3.496,3.498,7.71,5.245,12.644,5.245c1.935,0,3.808-0.295,5.62-0.89
	c1.81-0.593,3.449-1.436,4.917-2.529c1.466-1.092,2.763-2.372,3.887-3.84c1.124-1.466,1.981-3.091,2.575-4.87
	c0.593-1.78,0.921-3.637,0.983-5.573V22.291c0-0.375,0.031-0.78,0.094-1.218c0.062-0.436,0.171-0.827,0.328-1.171
	c0.155-0.342,0.328-0.686,0.515-1.03c0.188-0.343,0.406-0.67,0.656-0.983c0.249-0.312,0.53-0.593,0.843-0.843
	c0.312-0.249,0.64-0.483,0.983-0.702c0.343-0.218,0.703-0.39,1.077-0.515c0.375-0.125,0.764-0.218,1.171-0.281
	c0.405-0.062,0.827-0.094,1.264-0.094c1.873,0,3.48,0.672,4.823,2.014c1.342,1.344,2.014,2.95,2.014,4.824v4.214l4.215,1.873
	l6.837-1.967v-4.776c-0.126-4.87-1.92-8.975-5.385-12.316c-3.465-3.339-7.633-5.011-12.503-5.011s-9.038,1.671-12.503,5.011
	c-3.465,3.341-5.261,7.415-5.385,12.222v29.034c0,1.873-0.688,3.481-2.061,4.823c-1.374,1.343-2.997,2.014-4.87,2.014
	c-1.25,0-2.404-0.312-3.465-0.937c-1.063-0.624-1.905-1.452-2.529-2.482c-0.625-1.03-0.937-2.169-0.937-3.418V40.366H4.309z
	 M71.929,72.958c-6.057,0-11.255-2.154-15.594-6.462c-4.34-4.308-6.541-9.521-6.603-15.641v-12.55c0-0.75,0.328-1.342,0.983-1.779
	c0.656-0.437,1.326-0.469,2.014-0.094l5.432,2.529l8.429-2.529c0.686-0.188,1.311-0.094,1.873,0.281
	c0.562,0.438,0.843,1.03,0.843,1.78v12.644c0,0.688,0.249,1.296,0.749,1.826c0.499,0.531,1.124,0.796,1.874,0.796
	c0.749,0,1.373-0.265,1.873-0.796c0.499-0.53,0.749-1.139,0.749-1.826V38.212c0-0.562,0.218-1.061,0.656-1.499
	c0.375-0.436,0.874-0.656,1.499-0.656h15.36c0.562,0,1.061,0.22,1.499,0.656c0.436,0.438,0.655,0.937,0.655,1.499v12.457
	c0,6.12-2.186,11.365-6.556,15.734C83.292,70.774,78.047,72.958,71.929,72.958z M53.946,41.677v9.178
	c0.062,4.933,1.857,9.132,5.385,12.597c3.527,3.465,7.727,5.198,12.597,5.198c3.246,0,6.259-0.796,9.038-2.388
	c2.778-1.592,4.964-3.777,6.556-6.556c1.592-2.777,2.388-5.791,2.388-9.038V40.366H78.766v10.771c0,1.873-0.672,3.481-2.014,4.823
	c-1.343,1.343-2.966,2.014-4.87,2.014c-1.905,0-3.528-0.67-4.87-2.014c-1.344-1.342-2.014-2.95-2.014-4.823v-9.834l-6.369,1.967
	c-0.562,0.126-1.093,0.094-1.592-0.094L53.946,41.677z"/>
</svg>
