<?xml version="1.0" encoding="iso-8859-1"?>
<!-- Generator: Adobe Illustrator 24.0.1, SVG Export Plug-In . SVG Version: 6.00 Build 0)  -->
<svg version="1.1" id="Layer_1" xmlns="http://www.w3.org/2000/svg" xmlns:xlink="http://www.w3.org/1999/xlink" x="0px" y="0px"
	 viewBox="0 0 95.574 89.027" style="enable-background:new 0 0 95.574 89.027;" xml:space="preserve">
<path d="M81.593,13.98c4.27,4.271,7.668,9.368,10.193,15.29c2.525,5.924,3.787,12.096,3.787,18.517
	c0,8.416-2.01,16.225-6.032,23.426c-4.021,7.2-9.585,12.984-16.693,17.348c-0.5,0.311-1.028,0.467-1.59,0.467
	c-0.313,0-0.624-0.063-0.935-0.187c-0.313-0.126-0.608-0.297-0.888-0.515c-0.281-0.219-0.515-0.453-0.702-0.701
	c-0.437-0.748-0.561-1.511-0.374-2.291c0.187-0.779,0.623-1.387,1.31-1.824c5.237-3.24,9.539-7.355,12.905-12.344l-2.993-1.777
	c-0.374-0.187-0.671-0.435-0.889-0.748c-0.219-0.311-0.39-0.654-0.514-1.028c-0.125-0.374-0.156-0.763-0.093-1.169
	c0.061-0.404,0.187-0.763,0.374-1.075c0.435-0.748,1.043-1.23,1.823-1.45c0.779-0.217,1.543-0.107,2.292,0.328l2.992,1.519
	c2.245-4.737,3.554-9.219,3.928-15.219h-3.273c-0.811,0-1.512-0.131-2.104-0.725c-0.593-0.592-0.889-1.211-0.889-2.023
	c0-0.81,0.295-1.641,0.889-2.233c0.592-0.592,1.293-1.019,2.104-1.019h3.273c-0.374-5-1.746-10.364-4.115-15.166l-2.805,1.675
	c-0.25,0.126-0.5,0.262-0.749,0.323c-0.25,0.063-0.5,0.115-0.748,0.115c-0.5,0-0.982-0.113-1.449-0.363
	c-0.468-0.248-0.858-0.617-1.169-1.117c-0.187-0.312-0.313-0.666-0.374-1.073c-0.063-0.405-0.032-0.794,0.093-1.168
	c0.124-0.374,0.295-0.715,0.514-1.029c0.218-0.311,0.515-0.56,0.889-0.748l2.806-1.682c-2.993-4.363-6.703-8.073-11.129-11.129
	l-1.589,2.806c-0.126,0.25-0.297,0.468-0.515,0.654c-0.219,0.188-0.437,0.344-0.654,0.468c-0.219,0.126-0.453,0.248-0.702,0.31
	c-0.25,0.063-0.5,0.123-0.748,0.123c-0.125,0-0.25,0-0.374,0c-0.125,0-0.25-0.044-0.374-0.076c-0.126-0.03-0.25-0.092-0.374-0.154
	c-0.126-0.062-0.25-0.132-0.374-0.195c-0.187-0.062-0.344-0.159-0.468-0.284c-0.125-0.124-0.234-0.251-0.327-0.376
	c-0.094-0.124-0.187-0.266-0.281-0.422c-0.093-0.155-0.172-0.312-0.234-0.468c-0.063-0.155-0.109-0.327-0.14-0.515
	c-0.032-0.187-0.047-0.358-0.047-0.514c0-0.155,0.015-0.328,0.047-0.515c0.031-0.188,0.078-0.358,0.14-0.515
	c0.062-0.154,0.125-0.327,0.187-0.514l1.931-2.806c-4.863-2.369-10.183-3.741-15.183-4.115v3.741c0,0.873-0.528,1.59-1.089,2.15
	c-0.561,0.562-1.387,0.842-2.228,0.842c-0.842,0-1.381-0.28-1.972-0.842c-0.593-0.561-0.71-1.277-0.71-2.15V6.078
	c-3,0.25-5.43,0.701-7.955,1.356c-2.525,0.654-5.093,1.543-7.461,2.665l1.623,2.899c0.249,0.374,0.359,0.764,0.391,1.169
	c0.031,0.406-0.015,0.78-0.108,1.122c-0.094,0.343-0.274,0.687-0.522,1.028c-0.25,0.344-0.534,0.608-0.845,0.795
	c-0.5,0.25-1,0.374-1.498,0.374c-1.185,0-2.058-0.498-2.619-1.496l-1.684-2.899c-4.427,2.993-8.168,6.703-11.222,11.129l2.992,1.776
	c0.686,0.374,1.137,0.968,1.356,1.777c0.218,0.811,0.108,1.559-0.327,2.244c-0.561,0.998-1.403,1.496-2.525,1.496
	c-0.561,0-1.061-0.124-1.496-0.374l-2.993-1.9c-2.432,4.862-3.834,10.306-4.208,15.306h3.273c0.872,0,1.59,0.421,2.151,1.013
	c0.561,0.594,0.841,1.357,0.841,2.166c0,0.811-0.28,1.426-0.841,2.018c-0.561,0.594-1.279,0.803-2.151,0.803H6.078
	c0.188,3,0.623,5.416,1.31,7.972c0.685,2.557,1.59,5.078,2.712,7.446l3.18-1.747c0.685-0.436,1.433-0.53,2.244-0.314
	c0.81,0.22,1.417,0.695,1.824,1.411c0.405,0.718,0.498,1.485,0.28,2.295c-0.219,0.811-0.67,1.404-1.356,1.778l-3.179,1.872
	c3.304,4.862,7.481,8.884,12.531,12.064c0.685,0.437,1.122,1.061,1.309,1.87c0.187,0.812,0.062,1.558-0.374,2.244
	c-0.437,0.686-1.061,1.123-1.871,1.31c-0.811,0.188-1.559,0.062-2.244-0.374C15.398,83.947,9.896,78.149,5.938,70.979
	C1.978,63.811,0,56.109,0,47.88c0-6.483,1.262-12.686,3.787-18.609c2.525-5.922,5.922-11.019,10.193-15.29
	c4.27-4.27,9.352-7.668,15.243-10.193C35.115,1.263,41.302,0,47.787,0C54.27,0,60.458,1.263,66.35,3.787
	C72.241,6.313,77.322,9.711,81.593,13.98z M53.678,47.88c0,1.622-0.593,3.025-1.777,4.209c-1.185,1.185-2.587,1.776-4.208,1.776
	c-1.061,0-2.058-0.265-2.993-0.795c-0.935-0.528-1.668-1.263-2.198-2.197c-0.53-0.936-0.795-1.932-0.795-2.993
	c0-1.62,0.592-3.022,1.777-4.208c1.184-1.184,2.586-1.776,4.208-1.776c0.997,0,1.964,0.28,2.899,0.842l16.272-9.445
	c0.748-0.374,1.511-0.452,2.291-0.234c0.779,0.22,1.387,0.671,1.824,1.356c0.249,0.5,0.374,0.998,0.374,1.496
	c0,0.5-0.125,0.981-0.374,1.449c-0.25,0.468-0.624,0.858-1.122,1.169L53.678,47.88z"/>
</svg>
