<?xml version="1.0" encoding="iso-8859-1"?>
<!-- Generator: Adobe Illustrator 24.0.1, SVG Export Plug-In . SVG Version: 6.00 Build 0)  -->
<svg version="1.1" id="icon" xmlns="http://www.w3.org/2000/svg" xmlns:xlink="http://www.w3.org/1999/xlink" x="0px" y="0px"
	 viewBox="0 0 95.761 83.791" style="enable-background:new 0 0 95.761 83.791;" xml:space="preserve">
<path d="M91.646,0.28c0.623,0.188,1.184,0.468,1.683,0.842c0.499,0.374,0.935,0.812,1.309,1.31c0.375,0.5,0.655,1.045,0.842,1.637
	c0.187,0.593,0.281,1.231,0.281,1.917v53.959c0,1.684-0.577,3.102-1.73,4.255c-1.155,1.154-2.572,1.73-4.255,1.73h-49.47
	l-17.301,17.02c-0.561,0.562-1.248,0.842-2.057,0.842c-0.25,0-0.468-0.015-0.655-0.047c-0.187-0.03-0.374-0.077-0.561-0.141
	c-0.25-0.124-0.5-0.28-0.748-0.467c-0.25-0.188-0.453-0.405-0.608-0.655c-0.156-0.248-0.266-0.514-0.327-0.795
	c-0.063-0.28-0.094-0.575-0.094-0.888V65.93H5.985c-1.683,0-3.102-0.576-4.255-1.73C0.576,63.046,0,61.628,0,59.944V5.985
	C0,4.302,0.576,2.885,1.73,1.73C2.883,0.577,4.302,0,5.985,0h83.791C90.398,0,91.022,0.094,91.646,0.28z M89.776,5.985H5.985v53.959
	H23.94v13.747l13.934-13.747h51.902V5.985z M18.844,23.146c-0.593-0.592-0.889-1.293-0.889-2.104c0-0.81,0.295-1.511,0.889-2.104
	c0.592-0.592,1.293-0.889,2.104-0.889h53.866c0.81,0,1.511,0.297,2.104,0.889c0.592,0.593,0.888,1.294,0.888,2.104
	c0,0.812-0.296,1.513-0.888,2.104c-0.593,0.593-1.294,0.889-2.104,0.889H20.948C20.137,24.034,19.436,23.738,18.844,23.146z
	 M18.844,35.115c-0.593-0.592-0.889-1.293-0.889-2.104c0-0.81,0.295-1.511,0.889-2.104c0.592-0.592,1.293-0.889,2.104-0.889h53.866
	c0.81,0,1.511,0.297,2.104,0.889c0.592,0.594,0.888,1.295,0.888,2.104c0,0.811-0.296,1.512-0.888,2.104
	c-0.593,0.594-1.294,0.889-2.104,0.889H20.948C20.137,36.004,19.436,35.709,18.844,35.115z M18.844,47.086
	c-0.593-0.592-0.889-1.293-0.889-2.104c0-0.81,0.295-1.511,0.889-2.104c0.592-0.592,1.293-0.889,2.104-0.889h35.911
	c0.809,0,1.511,0.297,2.104,0.889c0.592,0.593,0.888,1.294,0.888,2.104c0,0.812-0.296,1.513-0.888,2.104
	c-0.593,0.593-1.295,0.888-2.104,0.888H20.948C20.137,47.974,19.436,47.679,18.844,47.086z"/>
</svg>
