<?xml version="1.0" encoding="iso-8859-1"?>
<!-- Generator: Adobe Illustrator 24.0.1, SVG Export Plug-In . SVG Version: 6.00 Build 0)  -->
<svg version="1.1" id="Layer_1" xmlns="http://www.w3.org/2000/svg" xmlns:xlink="http://www.w3.org/1999/xlink" x="0px" y="0px"
	 viewBox="0 0 95.904 95.905" style="enable-background:new 0 0 95.904 95.905;" xml:space="preserve">
<path d="M81.856,14.049c9.366,9.366,14.048,20.667,14.048,33.904c0,13.238-4.683,24.538-14.048,33.903
	c-9.366,9.366-20.667,14.049-33.904,14.049c-13.238,0-24.538-4.683-33.904-14.049C4.683,72.491,0,61.19,0,47.953
	c0-13.236,4.683-24.538,14.048-33.904c1.56-1.56,3.168-2.997,4.823-4.309c1.654-1.311,3.372-2.482,5.151-3.512
	c1.779-1.03,3.62-1.935,5.526-2.716c1.904-0.78,3.84-1.436,5.807-1.967c1.967-0.53,4.011-0.92,6.134-1.17
	C43.612,0.126,45.766,0,47.952,0C61.188,0,72.49,4.683,81.856,14.049z M77.642,77.735c8.179-8.242,12.269-18.169,12.269-29.783
	c0-11.614-4.09-21.509-12.269-29.689C69.461,10.084,59.565,5.994,47.952,5.994s-21.51,4.09-29.689,12.269
	c-8.181,8.18-12.269,18.076-12.269,29.689c0,11.613,4.088,21.541,12.269,29.783c8.179,8.242,18.076,12.363,29.689,12.363
	S69.461,85.977,77.642,77.735z M39.148,29.127c7.68,0.188,14.36,0.828,20.042,1.92c5.681,1.093,10.989,2.889,15.922,5.385
	c0.937,0.438,1.747,0.922,2.435,1.452c0.686,0.531,1.154,1.109,1.405,1.733c0.249,0.625,0.312,1.452,0.187,2.481
	c-0.125,1.03-0.438,1.702-0.937,2.014c-0.313,0.25-0.702,0.454-1.17,0.609c-0.468,0.157-0.937,0.281-1.405,0.375
	c-0.468,0.094-0.937,0.11-1.405,0.047c-0.468-0.062-0.89-0.155-1.264-0.281c-9.74-5.058-20.979-7.336-33.716-6.837
	c-3.31,0.126-8.024,0.781-14.142,1.967c-3.498,0.688-5.62-0.281-6.369-2.903c-0.313-0.998-0.297-1.904,0.047-2.716
	c0.342-0.811,0.874-1.419,1.592-1.826c0.717-0.405,1.576-0.703,2.576-0.89C24.07,31.407,29.47,30.564,39.148,29.127z M41.303,43.363
	c5.432,0.375,10.551,1.17,15.359,2.388c4.808,1.218,9.333,3.044,13.581,5.479c0.249,0.126,0.53,0.313,0.843,0.562
	c0.312,0.25,0.593,0.531,0.843,0.843c0.249,0.313,0.483,0.641,0.703,0.983c0.218,0.344,0.389,0.688,0.515,1.03
	c0.124,0.344,0.187,0.672,0.187,0.983c0.125,1.374-0.468,2.264-1.779,2.669c-1.311,0.407-2.81,0.173-4.496-0.702
	c-10.99-5.807-23.166-7.586-36.526-5.338c-0.188,0-0.813,0.172-1.874,0.515c-1.062,0.344-1.842,0.454-2.341,0.328
	c-0.187-0.062-0.391-0.125-0.609-0.188c-0.219-0.061-0.421-0.14-0.608-0.234c-0.188-0.094-0.375-0.188-0.562-0.281
	c-0.188-0.093-0.375-0.202-0.562-0.328c-0.188-0.125-0.391-0.249-0.609-0.375c-0.219-0.125-0.407-0.234-0.562-0.328
	c-0.156-0.094-0.344-0.202-0.562-0.328c-0.219-0.125-0.421-0.218-0.608-0.281c0.187-0.312,0.468-0.857,0.843-1.639
	c0.375-0.78,0.733-1.405,1.077-1.873c0.342-0.468,0.702-0.733,1.077-0.796c1.623-0.437,3.309-0.811,5.057-1.124
	c1.748-0.312,3.887-0.67,6.416-1.077C38.633,43.848,40.366,43.551,41.303,43.363z M39.336,57.693
	c10.614,0.187,19.293,2.186,26.037,5.994c0.623,0.313,1.107,0.609,1.452,0.89c0.342,0.281,0.702,0.625,1.077,1.03
	c0.375,0.407,0.53,0.859,0.468,1.358c-0.063,0.5-0.313,1-0.749,1.499c-0.313,0.5-1.063,0.781-2.248,0.843
	c-1.187,0.063-2.093-0.094-2.716-0.468c-8.18-4.37-18.076-5.837-29.689-4.402c-0.438,0.063-0.983,0.173-1.639,0.328
	c-0.656,0.157-1.264,0.297-1.826,0.421c-0.562,0.126-1.093,0.157-1.592,0.094c-0.5-0.062-0.983-0.187-1.452-0.375
	s-1.03-0.452-1.686-0.796c-0.655-0.343-1.109-0.577-1.358-0.703c0.125-0.249,0.312-0.53,0.562-0.843
	c0.249-0.312,0.452-0.609,0.609-0.89c0.155-0.281,0.342-0.562,0.562-0.843c0.218-0.281,0.452-0.515,0.702-0.702
	c0.249-0.188,0.468-0.312,0.656-0.375c1.499-0.312,3.044-0.608,4.636-0.89c1.592-0.281,3.293-0.53,5.104-0.749
	C38.055,57.896,39.085,57.756,39.336,57.693z"/>
</svg>
