<?xml version="1.0" encoding="iso-8859-1"?>
<!-- Generator: Adobe Illustrator 24.0.1, SVG Export Plug-In . SVG Version: 6.00 Build 0)  -->
<svg version="1.1" id="Layer_1" xmlns="http://www.w3.org/2000/svg" xmlns:xlink="http://www.w3.org/1999/xlink" x="0px" y="0px"
	 viewBox="0 0 95.996 92.936" style="enable-background:new 0 0 95.996 92.936;" xml:space="preserve">
<path d="M50.523,0.467c0.81,0.313,1.543,0.748,2.198,1.31c0.654,0.562,1.169,1.248,1.543,2.058l10.848,22.537l24.969,3.647
	c1.247,0.187,2.369,0.687,3.367,1.496c0.997,0.811,1.714,1.84,2.151,3.086c0.872,2.558,0.311,4.832-1.684,6.827L75.679,59.663
	l4.208,25.343c0.249,1.248,0.108,2.464-0.421,3.647c-0.53,1.184-1.325,2.151-2.385,2.899c-1.185,0.81-2.525,1.216-4.021,1.216
	c-0.561,0-1.122-0.063-1.684-0.188c-0.561-0.126-1.122-0.344-1.683-0.654L47.998,80.237L26.209,92.01
	c-0.998,0.561-2.089,0.925-3.273,0.925c-0.25,0-0.5,0-0.748,0c-0.25,0-0.484-0.116-0.702-0.177
	c-0.219-0.063-0.437-0.168-0.654-0.229c-0.219-0.063-0.437-0.161-0.655-0.254c-0.219-0.094-0.437-0.214-0.655-0.338
	c-0.219-0.126-0.42-0.255-0.608-0.379c-1.061-0.748-1.855-1.718-2.384-2.902c-0.531-1.184-0.671-2.401-0.421-3.649l4.208-25.343
	L2.081,41.428c-1.996-1.995-2.555-4.27-1.683-6.827c0.436-1.246,1.153-2.275,2.151-3.086c0.997-0.81,2.119-1.31,3.367-1.496
	l24.969-3.647L41.733,3.834c0.561-1.184,1.403-2.119,2.525-2.806C45.38,0.343,46.626,0,47.998,0C48.87,0,49.712,0.156,50.523,0.467z
	 M37.057,28.429l-1.964,4.021L5.916,36.752l21.135,21.135l-0.655,4.208l-4.302,25.249l25.904-13.84l25.904,13.84l-4.302-25.249
	l-0.655-4.208l21.135-21.135L60.81,32.45L47.998,5.704L37.057,28.429z"/>
</svg>
