<?xml version="1.0" encoding="iso-8859-1"?>
<!-- Generator: Adobe Illustrator 24.0.1, SVG Export Plug-In . SVG Version: 6.00 Build 0)  -->
<svg version="1.1" id="Layer_1" xmlns="http://www.w3.org/2000/svg" xmlns:xlink="http://www.w3.org/1999/xlink" x="0px" y="0px"
	 viewBox="0 0 95.904 95.905" style="enable-background:new 0 0 95.904 95.905;" xml:space="preserve">
<path d="M89.489,23.883c4.276,7.368,6.415,15.392,6.415,24.07c0,8.679-2.139,16.703-6.415,24.069
	c-4.278,7.368-10.101,13.191-17.467,17.467c-7.368,4.276-15.392,6.416-24.07,6.416c-8.679,0-16.703-2.14-24.07-6.416
	C16.514,85.213,10.691,79.39,6.416,72.022C2.138,64.655,0,56.632,0,47.953c0-8.678,2.138-16.702,6.416-24.07
	c4.276-7.367,10.099-13.19,17.467-17.467C31.249,2.14,39.273,0,47.952,0c8.678,0,16.702,2.14,24.07,6.416
	C79.389,10.693,85.211,16.516,89.489,23.883z M6.462,53.946h18.263c-0.5-1.998-0.75-3.995-0.75-5.994
	c0-1.998,0.281-3.995,0.843-5.994H6.462c-0.063,0.5-0.126,1-0.188,1.499c-0.063,0.5-0.11,1-0.141,1.499
	c-0.032,0.5-0.063,1-0.093,1.499c-0.032,0.5-0.047,1-0.047,1.499C5.994,49.826,6.149,51.825,6.462,53.946z M18.357,18.31
	c-4.996,5.027-8.523,10.911-10.583,17.654h19.48c1.061-1.81,2.326-3.449,3.793-4.917c1.466-1.466,3.105-2.73,4.917-3.793V7.773
	C29.221,9.772,23.351,13.285,18.357,18.31z M35.964,68.65c-3.685-2.122-6.588-5.025-8.71-8.71H7.773
	c1.998,6.743,5.51,12.629,10.537,17.654c5.025,5.027,10.911,8.539,17.654,10.537V68.65z M64.998,42.286
	c-0.625-1.841-1.484-3.496-2.576-4.964c-1.093-1.466-2.374-2.747-3.84-3.84c-1.468-1.092-3.123-1.951-4.964-2.576
	c-1.843-0.623-3.732-0.937-5.667-0.937c-4.933,0-9.164,1.765-12.69,5.292c-3.528,3.528-5.292,7.759-5.292,12.691
	c0,3.247,0.811,6.26,2.435,9.038c1.623,2.779,3.808,4.964,6.556,6.556c2.747,1.592,5.744,2.388,8.991,2.388
	c4.932,0,9.163-1.748,12.69-5.245c3.527-3.496,5.292-7.742,5.292-12.737C65.935,46.018,65.621,44.128,64.998,42.286z M41.958,24.819
	c2.061-0.562,4.074-0.843,6.041-0.843s3.948,0.281,5.947,0.843V6.462c-1.999-0.312-3.997-0.468-5.994-0.468
	c-1.999,0-3.997,0.157-5.994,0.468V24.819z M53.946,71.179c-1.999,0.5-3.98,0.75-5.947,0.75s-3.98-0.249-6.041-0.75v18.263
	c1.998,0.313,3.995,0.468,5.994,0.468c1.998,0,3.995-0.155,5.994-0.468V71.179z M59.94,27.254c3.683,2.123,6.586,5.026,8.71,8.71
	h19.48c-1-3.372-2.404-6.556-4.214-9.553c-1.812-2.997-3.919-5.697-6.322-8.101c-2.404-2.403-5.104-4.51-8.102-6.322
	c-2.997-1.81-6.181-3.215-9.553-4.215V27.254z M72.35,82.09c3.777-2.716,7.008-5.962,9.693-9.74
	c2.684-3.777,4.713-7.914,6.087-12.41H68.65c-2.124,3.685-5.027,6.588-8.71,8.71v19.481C64.436,86.82,68.571,84.806,72.35,82.09z
	 M89.442,53.946c0.312-2.122,0.468-4.121,0.468-5.994c0-1.874-0.157-3.871-0.468-5.994H71.085c0.562,1.999,0.843,3.997,0.843,5.994
	c0,0.999-0.063,1.999-0.187,2.997c-0.126,1-0.313,1.999-0.562,2.997H89.442z"/>
</svg>
