<?xml version="1.0" encoding="iso-8859-1"?>
<!-- Generator: Adobe Illustrator 24.0.1, SVG Export Plug-In . SVG Version: 6.00 Build 0)  -->
<svg version="1.1" id="Layer_1" xmlns="http://www.w3.org/2000/svg" xmlns:xlink="http://www.w3.org/1999/xlink" x="0px" y="0px"
	 viewBox="0 0 95.717 96.092" style="enable-background:new 0 0 95.717 96.092;" xml:space="preserve">
<g>
	<path d="M95.624,3.278l0.094,0.094L95.624,31c0,0.313-0.063,0.594-0.188,0.843c-0.125,0.25-0.281,0.454-0.468,0.608
		c-0.187,0.157-0.421,0.281-0.702,0.375c-0.281,0.093-0.578,0.14-0.89,0.14h-1.498c-0.375,0-0.735-0.094-1.077-0.281
		c-0.344-0.188-0.609-0.468-0.796-0.843c-0.187-0.375-0.281-0.75-0.281-1.124l0.094-20.511l-24.07,23.882
		c6.118,7.057,9.178,15.235,9.178,24.538c0,6.806-1.671,13.081-5.011,18.825c-3.341,5.745-7.899,10.288-13.674,13.627
		c-5.776,3.339-12.035,5.011-18.778,5.011c-5.12,0-9.99-0.983-14.61-2.95c-4.621-1.967-8.602-4.636-11.941-8.008
		C7.57,81.763,4.917,77.768,2.95,73.146C0.983,68.526,0,63.687,0,58.629c0-6.805,1.669-13.08,5.011-18.825
		c3.339-5.744,7.882-10.286,13.627-13.627c5.744-3.339,12.019-5.011,18.825-5.011c9.053,0,17.046,2.903,23.977,8.71l24.07-23.789
		l-20.23-0.094c-0.625,0.063-1.171-0.108-1.639-0.515c-0.468-0.405-0.734-0.983-0.796-1.732V2.248c0-0.624,0.218-1.155,0.655-1.592
		C63.935,0.22,64.436,0,64.998,0l27.535,0.094h0.094h1.03c0.624-0.062,1.155,0.126,1.592,0.562c0.187,0.188,0.312,0.421,0.375,0.703
		c0.062,0.281,0.094,0.578,0.094,0.89L95.624,3.278z M67.339,48.655c-1.063-3.215-2.561-6.102-4.496-8.663
		c-1.936-2.56-4.2-4.823-6.79-6.79c-2.592-1.967-5.479-3.48-8.664-4.542c-3.184-1.061-6.495-1.592-9.928-1.592
		c-5.745,0-11.037,1.405-15.875,4.215c-4.839,2.81-8.664,6.649-11.473,11.52S5.9,52.949,5.9,58.629
		c0,4.247,0.827,8.321,2.482,12.222c1.653,3.903,3.901,7.258,6.743,10.068c2.84,2.81,6.196,5.042,10.068,6.696
		c3.871,1.655,7.961,2.482,12.269,2.482c5.681,0,10.942-1.405,15.781-4.215c4.838-2.81,8.664-6.633,11.473-11.473
		c2.81-4.838,4.214-10.099,4.214-15.781C68.931,55.196,68.4,51.872,67.339,48.655z"/>
</g>
</svg>
