<?xml version="1.0" encoding="iso-8859-1"?>
<!-- Generator: Adobe Illustrator 24.0.1, SVG Export Plug-In . SVG Version: 6.00 Build 0)  -->
<svg version="1.1" id="icon" xmlns="http://www.w3.org/2000/svg" xmlns:xlink="http://www.w3.org/1999/xlink" x="0px" y="0px"
	 viewBox="0 0 95.904 95.905" style="enable-background:new 0 0 95.904 95.905;" xml:space="preserve">
<g>
	<path d="M94.406,45.377c0.436,0.281,0.796,0.641,1.077,1.077c0.281,0.438,0.421,0.937,0.421,1.499c0,0.812-0.297,1.514-0.89,2.107
		c-0.594,0.594-1.296,0.89-2.107,0.89h-9.084c-0.75,8.743-4.23,16.219-10.443,22.431c-6.213,6.213-13.69,9.663-22.431,10.349v9.178
		c0,0.811-0.297,1.513-0.89,2.107c-0.594,0.592-1.297,0.89-2.107,0.89c-0.812,0-1.515-0.297-2.107-0.89
		c-0.594-0.594-0.89-1.297-0.89-2.107v-9.178c-8.742-0.687-16.219-4.136-22.431-10.349c-6.213-6.212-9.693-13.688-10.443-22.431
		H2.997c-0.813,0-1.515-0.295-2.107-0.89C0.295,49.467,0,48.765,0,47.953c0-0.811,0.295-1.513,0.89-2.107
		c0.593-0.593,1.295-0.89,2.107-0.89h9.084c0.499-5.744,2.248-11.036,5.245-15.875c2.997-4.838,6.915-8.757,11.754-11.754
		c4.838-2.997,10.129-4.713,15.875-5.151V2.997c0-0.811,0.296-1.513,0.89-2.107C46.438,0.297,47.14,0,47.952,0
		c0.811,0,1.513,0.297,2.107,0.89c0.593,0.594,0.89,1.297,0.89,2.107v9.178c8.741,0.688,16.217,4.137,22.431,10.349
		c6.212,6.214,9.693,13.69,10.443,22.431h9.084C93.469,44.956,93.968,45.096,94.406,45.377z M32.077,22.524
		c-3.903,2.467-7.087,5.652-9.553,9.553c-2.467,3.903-3.919,8.195-4.355,12.878h26.786V18.169
		C40.272,18.607,35.979,20.059,32.077,22.524z M26.786,69.119c5.058,5.058,11.113,7.93,18.169,8.617V50.949H18.169
		C18.855,58.006,21.729,64.062,26.786,69.119z M77.735,44.956c-0.187-2.31-0.671-4.573-1.452-6.791
		c-0.781-2.215-1.765-4.261-2.95-6.134c-1.187-1.873-2.591-3.621-4.214-5.245c-1.625-1.623-3.372-3.028-5.245-4.215
		c-1.874-1.185-3.919-2.168-6.135-2.95c-2.217-0.78-4.481-1.264-6.79-1.452v26.786H77.735z M69.119,69.119
		c5.058-5.057,7.929-11.113,8.616-18.169H50.949v26.786C58.004,77.049,64.061,74.176,69.119,69.119z"/>
</g>
</svg>
