<?xml version="1.0" encoding="iso-8859-1"?>
<!-- Generator: Adobe Illustrator 24.0.1, SVG Export Plug-In . SVG Version: 6.00 Build 0)  -->
<svg version="1.1" id="icon" xmlns="http://www.w3.org/2000/svg" xmlns:xlink="http://www.w3.org/1999/xlink" x="0px" y="0px"
	 viewBox="0 0 78.11 96.092" style="enable-background:new 0 0 78.11 96.092;" xml:space="preserve">
<g>
	<path d="M77.22,15.875c0.593,0.594,0.89,1.296,0.89,2.107c0,0.562-0.141,1.063-0.421,1.499c-0.281,0.438-0.656,0.796-1.124,1.077
		c-0.468,0.281-0.953,0.421-1.452,0.421h-4.121l-7.024,69.306c-0.125,1.623-0.796,2.997-2.013,4.121
		c-1.218,1.124-2.639,1.686-4.262,1.686H20.417c-1.624,0-3.044-0.562-4.261-1.686c-1.218-1.124-1.92-2.498-2.107-4.121L7.118,20.979
		H2.997c-0.813,0-1.515-0.296-2.107-0.89C0.295,19.497,0,18.794,0,17.982c0-0.811,0.295-1.513,0.89-2.107
		c0.593-0.593,1.295-0.89,2.107-0.89H24.07V6.837c0-1.935,0.686-3.559,2.061-4.871C27.503,0.656,29.127,0,31,0h16.109
		c1.248,0,2.403,0.297,3.465,0.89c1.061,0.594,1.904,1.421,2.529,2.482c0.623,1.062,0.937,2.217,0.937,3.465v8.148h21.073
		C75.923,14.985,76.626,15.282,77.22,15.875z M64.904,20.979H13.206l6.837,68.744c0.062,0.25,0.188,0.375,0.375,0.375h37.275
		c0.188,0,0.312-0.125,0.375-0.375L64.904,20.979z M30.064,14.985h17.982V6.837c0-0.624-0.313-0.937-0.937-0.937H31
		c-0.625,0-0.937,0.313-0.937,0.937V14.985z"/>
</g>
</svg>
