<?xml version="1.0" encoding="iso-8859-1"?>
<!-- Generator: Adobe Illustrator 24.0.1, SVG Export Plug-In . SVG Version: 6.00 Build 0)  -->
<svg version="1.1" id="icon" xmlns="http://www.w3.org/2000/svg" xmlns:xlink="http://www.w3.org/1999/xlink" x="0px" y="0px"
	 viewBox="0 0 95.761 95.762" style="enable-background:new 0 0 95.761 95.762;" xml:space="preserve">
<path d="M95.761,47.694c0,0.811-0.28,1.755-0.841,2.347c-0.562,0.594-1.279,1.132-2.151,1.132H50.853v29.812
	c0,2.682-0.692,5.144-2.001,7.389c-1.309,2.244-3.121,4.035-5.395,5.377c-2.277,1.34-4.764,2.011-7.444,2.011
	c-4.054,0-7.533-1.45-10.432-4.349c-2.899-2.899-4.351-6.374-4.351-10.428c0-0.809,0.294-1.511,0.888-2.104
	c0.592-0.592,1.292-0.889,2.103-0.889c0.561,0,1.075,0.126,1.543,0.374c0.468,0.25,0.826,0.608,1.075,1.075
	c0.249,0.468,0.374,0.982,0.374,1.543c0,2.432,0.856,4.505,2.572,6.22c1.714,1.715,3.788,2.571,6.219,2.571
	c2.431,0,4.502-0.856,6.248-2.571c1.745-1.715,2.601-3.788,2.601-6.22V51.173H2.992c-0.561,0-1.075-0.384-1.543-0.664
	c-0.467-0.28-0.827-0.776-1.075-1.244C0.124,48.797,0,48.254,0,47.755c0-7.669,1.791-14.401,5.377-20.137
	c3.584-5.735,8.726-10.223,15.46-13.435c6.733-3.21,15.016-4.986,24.016-5.298V2.993c0-0.374,0.095-0.748,0.251-1.122
	c0.155-0.374,0.367-0.702,0.617-0.982c0.249-0.28,0.565-0.498,0.939-0.654C47.034,0.079,47.441,0,47.878,0
	c0.81,0,1.534,0.297,2.095,0.889c0.562,0.594,0.88,1.295,0.88,2.104v5.892c14,0.499,24.993,4.193,32.974,11.081
	C91.807,26.855,95.761,36.098,95.761,47.694z M86.035,32.359c-2.058-3.708-4.863-6.959-8.417-9.516
	c-3.554-2.556-7.841-4.579-12.858-5.951c-5.02-1.37-10.646-2.086-16.88-2.086c-12.531,0-22.444,2.855-29.738,8.123
	c-7.294,5.27-11.315,12.245-12.064,22.245h83.604C89.308,40.173,88.092,36.069,86.035,32.359z"/>
</svg>
