<?xml version="1.0" encoding="iso-8859-1"?>
<!-- Generator: Adobe Illustrator 24.0.1, SVG Export Plug-In . SVG Version: 6.00 Build 0)  -->
<svg version="1.1" id="Layer_1" xmlns="http://www.w3.org/2000/svg" xmlns:xlink="http://www.w3.org/1999/xlink" x="0px" y="0px"
	 viewBox="0 0 95.761 95.762" style="enable-background:new 0 0 95.761 95.762;" xml:space="preserve">
<path d="M90.431,75.281c3.553,1.684,5.33,3.96,5.33,6.827v7.948c0,1.621-0.577,2.977-1.73,4.068
	c-1.154,1.09-2.572,1.637-4.255,1.637H5.985c-0.811,0-1.59-0.141-2.338-0.421S2.259,94.67,1.73,94.172
	c-0.531-0.5-0.951-1.107-1.263-1.824C0.155,91.631,0,90.866,0,90.057v-7.948c0-0.936,0.217-1.808,0.654-2.619
	c0.436-0.81,0.919-1.464,1.45-1.964c0.529-0.498,1.137-0.966,1.823-1.402c0.686-0.436,1.153-0.701,1.403-0.795
	c0.249-0.094,0.468-0.171,0.655-0.233L31.982,62.75c-0.687-0.374-2.042-0.763-4.068-1.169c-2.027-0.404-3.991-0.763-5.892-1.075
	c-1.902-0.312-3.679-0.732-5.331-1.263c-1.652-0.529-2.604-1.169-2.852-1.917l1.403-2.338c0.935-1.558,1.948-3.912,3.039-7.061
	c1.09-3.147,1.854-6.313,2.291-9.492c0.125-0.996,0.312-2.446,0.562-4.349c0.248-1.9,0.529-3.975,0.841-6.219
	c0.312-2.244,0.592-4.488,0.842-6.733c0.436-4.052,1.808-7.698,4.115-10.941c2.306-3.24,5.284-5.751,8.931-7.527
	C39.511,0.889,43.516,0,47.88,0c6.607,0,12.265,1.98,16.973,5.938c4.707,3.96,7.402,9.024,8.089,15.196
	c0.374,2.993,0.826,6.453,1.356,10.381c0.529,3.928,0.826,6.234,0.888,6.92c0.249,1.996,0.669,4.021,1.263,6.079
	c0.592,2.057,1.153,3.787,1.683,5.189c0.529,1.403,1.137,2.775,1.824,4.115c0.686,1.341,1.137,2.214,1.356,2.618
	c0.218,0.406,0.421,0.701,0.608,0.889c-0.25,0.748-1.201,1.388-2.852,1.917c-1.653,0.53-3.43,0.951-5.331,1.263
	c-1.902,0.313-3.866,0.671-5.892,1.075c-2.027,0.406-3.383,0.795-4.068,1.169l25.998,12.345
	C89.963,75.157,90.181,75.22,90.431,75.281z M89.776,89.776v-7.668c-0.063-0.188-0.313-0.421-0.748-0.702
	c-0.437-0.28-0.874-0.514-1.31-0.701l-0.467-0.187L61.16,68.08c-0.313-0.124-0.624-0.295-0.935-0.514
	c-0.313-0.218-0.593-0.468-0.842-0.748c-0.25-0.281-0.483-0.576-0.701-0.889c-0.219-0.312-0.39-0.639-0.515-0.982
	c-0.125-0.342-0.219-0.701-0.28-1.075c-0.063-0.374-0.094-0.748-0.094-1.122c-0.063-0.748,0.047-1.464,0.328-2.15
	c0.28-0.686,0.669-1.31,1.169-1.871c0.498-0.561,1.09-1.028,1.777-1.402c1.433-0.686,4.395-1.434,8.884-2.244
	c1.434-0.249,2.649-0.468,3.647-0.655c-2.245-5.111-3.68-10.224-4.302-15.337c-0.063-0.311-0.109-0.669-0.14-1.075
	c-0.032-0.404-0.079-0.842-0.14-1.309c-0.063-0.468-0.125-0.889-0.187-1.263c-0.063-0.374-0.125-0.842-0.187-1.403
	c-0.687-4.55-1.216-8.604-1.59-12.157c-0.561-4.676-2.619-8.493-6.172-11.455c-3.553-2.961-7.887-4.442-12.999-4.442
	c-5.113,0-9.445,1.481-12.999,4.442c-3.554,2.962-5.611,6.779-6.172,11.455c-0.25,2.184-0.5,4.241-0.748,6.173
	c-0.25,1.933-0.531,3.928-0.842,5.984c-0.313,2.308-0.53,3.991-0.655,5.05c-0.624,5.113-2.057,10.226-4.302,15.337
	c0.997,0.188,2.212,0.406,3.647,0.655c4.489,0.811,7.449,1.559,8.884,2.244c0.249,0.126,0.468,0.266,0.655,0.421
	c0.187,0.156,0.374,0.313,0.561,0.468c0.187,0.156,0.374,0.327,0.561,0.514c0.187,0.188,0.342,0.374,0.468,0.562
	c0.124,0.187,0.249,0.39,0.374,0.607c0.124,0.22,0.234,0.453,0.327,0.702c0.094,0.249,0.171,0.483,0.234,0.701
	c0.062,0.219,0.108,0.453,0.14,0.701c0.031,0.25,0.015,0.5-0.046,0.748c0,1.186-0.313,2.261-0.936,3.227
	c-0.624,0.967-1.435,1.669-2.431,2.104L8.51,80.425l-0.468,0.28c-0.5,0.188-0.967,0.438-1.402,0.748
	c-0.437,0.313-0.655,0.53-0.655,0.655v7.668H89.776z"/>
</svg>
