<?xml version="1.0" encoding="iso-8859-1"?>
<!-- Generator: Adobe Illustrator 24.0.1, SVG Export Plug-In . SVG Version: 6.00 Build 0)  -->
<svg version="1.1" id="icon" xmlns="http://www.w3.org/2000/svg" xmlns:xlink="http://www.w3.org/1999/xlink" x="0px" y="0px"
	 viewBox="0 0 95.83 95.762" style="enable-background:new 0 0 95.83 95.762;" xml:space="preserve">
<path d="M60.879,89.776l4.863,5.985H5.891c-1.622,0-3.008-0.594-4.161-1.777C0.576,92.8,0,91.396,0,89.776v-8.978
	c0-0.498,0.108-0.966,0.327-1.402c0.218-0.436,0.482-0.842,0.795-1.216c0.311-0.374,0.701-0.748,1.169-1.123
	c0.467-0.374,0.888-0.685,1.262-0.935c0.374-0.248,0.779-0.482,1.216-0.701c0.436-0.218,0.716-0.374,0.842-0.468
	c0.124-0.094,0.218-0.141,0.28-0.141l26.278-12.438c-3.741-2.992-6.562-7.122-8.463-12.391c-1.902-5.268-2.852-9.96-2.852-14.074
	V20.948c0-3.241,1.309-6.483,3.928-9.726C27.4,7.981,30.828,5.3,35.068,3.18C39.308,1.062,43.563,0,47.833,0
	c4.27,0,8.51,1.062,12.718,3.18c4.208,2.12,7.622,4.802,10.24,8.043c2.618,3.242,3.928,6.484,3.928,9.726v14.963
	c0,4.427-0.905,9.211-2.712,14.354c-1.809,5.144-4.583,9.211-8.323,12.204l16.179,7.574l-3.554,5.051l-15.15-7.201
	c-0.935-0.436-1.715-1.075-2.338-1.917c-0.624-0.842-0.998-1.792-1.122-2.853c-0.063-0.686-0.016-1.355,0.14-2.011
	c0.155-0.654,0.405-1.277,0.748-1.87c0.342-0.592,0.795-1.106,1.356-1.543c2.867-2.244,5.05-5.548,6.546-9.913
	c1.496-4.363,2.244-8.322,2.244-11.876V20.948c0-2.119-1.014-4.333-3.039-6.64c-2.027-2.306-4.708-4.27-8.042-5.892
	c-3.336-1.621-6.625-2.432-9.866-2.432c-1.622,0-3.289,0.233-5.003,0.701c-1.715,0.468-3.336,1.076-4.863,1.824
	c-1.528,0.748-2.978,1.621-4.349,2.618c-1.372,0.998-2.541,2.043-3.507,3.133c-0.967,1.092-1.746,2.229-2.338,3.413
	c-0.593,1.186-0.889,2.276-0.889,3.273v14.963c0,3.429,0.81,7.356,2.432,11.783c1.621,4.427,3.865,7.762,6.733,10.006
	c1.683,1.435,2.399,3.242,2.151,5.424c-0.25,2.184-1.403,3.741-3.46,4.676L8.417,80.237c-1.622,0.748-2.432,1.903-2.432,3.461v6.078
	H60.879z M95.808,69.67c0.094,0.812-0.109,1.528-0.608,2.151L80.892,93.61c-0.125,0.374-0.313,0.686-0.561,0.936
	c-0.624,0.561-1.341,0.842-2.151,0.842c-0.811,0-1.528-0.281-2.151-0.842L65.461,83.979c-0.25-0.249-0.437-0.515-0.561-0.795
	c-0.125-0.28-0.219-0.576-0.281-0.889c-0.063-0.312-0.063-0.622,0-0.935c0.062-0.312,0.155-0.608,0.281-0.889
	c0.124-0.281,0.311-0.515,0.561-0.701c0.623-0.623,1.34-0.936,2.151-0.936c0.81,0,1.496,0.313,2.058,0.936l7.949,7.948
	l12.812-19.545c0.248-0.248,0.498-0.468,0.748-0.654c0.248-0.188,0.529-0.312,0.841-0.374c0.312-0.062,0.608-0.094,0.889-0.094
	c0.28,0,0.576,0.047,0.888,0.141c0.312,0.093,0.592,0.266,0.842,0.514C95.324,68.206,95.714,68.86,95.808,69.67z"/>
</svg>
