<?xml version="1.0" encoding="iso-8859-1"?>
<!-- Generator: Adobe Illustrator 24.0.1, SVG Export Plug-In . SVG Version: 6.00 Build 0)  -->
<svg version="1.1" id="Layer_1" xmlns="http://www.w3.org/2000/svg" xmlns:xlink="http://www.w3.org/1999/xlink" x="0px" y="0px"
	 viewBox="0 0 95.667 95.668" style="enable-background:new 0 0 95.667 95.668;" xml:space="preserve">
<path d="M47.88,0c3.18,0,6.421,0.624,9.726,1.871c3.304,1.247,6.203,2.868,8.697,4.862c2.493,1.996,4.536,4.255,6.125,6.78
	c1.59,2.524,2.385,5.003,2.385,7.435v14.963c0,4.364-0.921,9.134-2.759,14.308c-1.84,5.176-4.629,9.228-8.37,12.157l26.091,12.438
	l0.561,0.188c0.436,0.187,0.936,0.468,1.497,0.842s1.137,0.795,1.73,1.262c0.592,0.468,1.09,1.029,1.496,1.684
	c0.405,0.654,0.608,1.295,0.608,1.917v9.071c0,1.62-0.577,3.007-1.73,4.161c-1.154,1.153-2.541,1.73-4.162,1.73H5.985
	c-1.683,0-3.102-0.577-4.255-1.73C0.576,92.783,0,91.396,0,89.776v-9.071c0-0.561,0.218-1.169,0.655-1.823
	c0.435-0.654,0.919-1.2,1.449-1.637c0.529-0.436,1.137-0.872,1.824-1.31c0.685-0.436,1.153-0.716,1.403-0.841
	c0.248-0.125,0.467-0.218,0.654-0.281l26.278-12.438c-3.741-3.054-6.562-7.216-8.463-12.484c-1.902-5.268-2.852-9.928-2.852-13.98
	V20.948c0-3.241,1.309-6.5,3.928-9.772c2.619-3.273,6.032-5.953,10.24-8.043C39.324,1.045,43.579,0,47.88,0z M38.062,8.417
	c-3.306,1.622-5.985,3.601-8.042,5.938c-2.058,2.338-3.086,4.535-3.086,6.593v14.963c0,3.429,0.795,7.341,2.385,11.736
	c1.59,4.395,3.818,7.747,6.687,10.053c1.745,1.372,2.478,3.165,2.198,5.377c-0.281,2.214-1.419,3.788-3.414,4.723L8.51,80.237
	c-1.684,0.748-2.525,1.903-2.525,3.461v6.078l83.698-0.094v-5.798c0-0.436-0.032-0.842-0.094-1.216
	c-0.063-0.374-0.172-0.686-0.327-0.935c-0.156-0.249-0.313-0.452-0.468-0.608c-0.156-0.155-0.327-0.295-0.514-0.421
	c-0.187-0.124-0.343-0.218-0.468-0.28c-0.125-0.062-0.313-0.124-0.561-0.188L61.16,67.894c-1.996-0.936-3.149-2.525-3.46-4.77
	c-0.063-0.686-0.016-1.355,0.14-2.011c0.155-0.654,0.421-1.277,0.795-1.87c0.375-0.592,0.81-1.106,1.31-1.543
	c2.93-2.244,5.143-5.548,6.64-9.913c1.496-4.363,2.244-8.322,2.244-11.876V20.948c0-1.558-0.624-3.227-1.87-5.003
	c-1.248-1.777-2.838-3.397-4.77-4.863c-1.933-1.464-4.193-2.68-6.78-3.647c-2.588-0.966-5.097-1.449-7.528-1.449
	C44.638,5.985,41.365,6.796,38.062,8.417z"/>
</svg>
