<?xml version="1.0" encoding="iso-8859-1"?>
<!-- Generator: Adobe Illustrator 24.0.1, SVG Export Plug-In . SVG Version: 6.00 Build 0)  -->
<svg version="1.1" id="icon" xmlns="http://www.w3.org/2000/svg" xmlns:xlink="http://www.w3.org/1999/xlink" x="0px" y="0px"
	 viewBox="0 0 95.761 95.762" style="enable-background:new 0 0 95.761 95.762;" xml:space="preserve">
<path d="M5.985,89.776h65.836v5.985H5.985c-1.622,0-3.024-0.594-4.208-1.777C0.592,92.8,0,91.396,0,89.776v-8.978
	c0.062-1.371,1.06-2.806,2.993-4.302l2.992-1.684l26.278-12.438c-3.741-2.992-6.562-7.122-8.463-12.391
	c-1.902-5.268-2.852-9.96-2.852-14.074V20.948c0-3.241,1.309-6.5,3.928-9.772c2.619-3.273,6.032-5.953,10.24-8.043
	C39.324,1.045,43.579,0,47.88,0c2.556,0,5.158,0.406,7.809,1.216c2.649,0.812,5.097,1.917,7.341,3.32
	c2.244,1.402,4.255,2.978,6.032,4.723c1.777,1.746,3.18,3.646,4.208,5.704c1.028,2.058,1.543,4.054,1.543,5.985v14.963
	c0,4.427-0.921,9.211-2.759,14.354c-1.84,5.144-4.629,9.211-8.37,12.204l7.949,3.646l-1.496,5.985l-8.978-4.208
	c-0.936-0.436-1.716-1.075-2.338-1.917c-0.624-0.842-0.998-1.792-1.122-2.853c-0.063-0.686-0.016-1.355,0.14-2.011
	c0.155-0.654,0.421-1.277,0.795-1.87c0.375-0.592,0.81-1.106,1.31-1.543c2.93-2.244,5.143-5.548,6.64-9.913
	c1.496-4.363,2.244-8.322,2.244-11.876V20.948c0-1.06-0.296-2.166-0.888-3.32c-0.593-1.152-1.372-2.274-2.338-3.366
	c-0.967-1.09-2.12-2.151-3.46-3.18c-1.342-1.028-2.775-1.917-4.302-2.665c-1.528-0.748-3.165-1.34-4.909-1.777
	c-1.747-0.436-3.43-0.654-5.05-0.654c-1.622,0-3.305,0.233-5.05,0.701c-1.746,0.468-3.383,1.076-4.91,1.824
	c-1.528,0.748-2.978,1.621-4.349,2.618c-1.372,0.998-2.541,2.043-3.507,3.133c-0.967,1.092-1.73,2.229-2.291,3.413
	c-0.561,1.186-0.842,2.276-0.842,3.273v14.963c0,3.429,0.81,7.341,2.432,11.736c1.621,4.395,3.834,7.747,6.64,10.053
	c1.745,1.372,2.493,3.18,2.245,5.424c-0.126,0.998-0.5,1.917-1.123,2.759c-0.624,0.842-1.403,1.481-2.338,1.917L8.51,80.237
	c-1.684,0.748-2.525,1.903-2.525,3.461V89.776z M94.873,78.694c0.592,0.594,0.889,1.295,0.889,2.104
	c0,0.811-0.297,1.513-0.889,2.104c-0.593,0.593-1.294,0.888-2.104,0.888h-8.978v8.978c0,0.81-0.297,1.511-0.889,2.104
	c-0.593,0.592-1.294,0.889-2.104,0.889c-0.811,0-1.512-0.297-2.104-0.889c-0.593-0.594-0.889-1.295-0.889-2.104v-8.978h-8.978
	c-0.811,0-1.512-0.295-2.104-0.888c-0.593-0.592-0.888-1.294-0.888-2.104c0-0.562,0.14-1.075,0.42-1.543
	c0.281-0.468,0.639-0.826,1.076-1.075c0.436-0.249,0.935-0.374,1.496-0.374h8.978v-8.978c0-0.562,0.141-1.076,0.421-1.544
	c0.281-0.467,0.639-0.825,1.076-1.075c0.436-0.248,0.935-0.374,1.496-0.374c0.81,0,1.511,0.297,2.104,0.889
	c0.592,0.593,0.889,1.295,0.889,2.104v8.978h8.978C93.578,77.807,94.279,78.103,94.873,78.694z"/>
</svg>
