<?xml version="1.0" encoding="iso-8859-1"?>
<!-- Generator: Adobe Illustrator 24.0.1, SVG Export Plug-In . SVG Version: 6.00 Build 0)  -->
<svg version="1.1" id="icon" xmlns="http://www.w3.org/2000/svg" xmlns:xlink="http://www.w3.org/1999/xlink" x="0px" y="0px"
	 viewBox="0 0 95.854 95.762" style="enable-background:new 0 0 95.854 95.762;" xml:space="preserve">
<path d="M72.102,50.266c-1.809,5.144-4.615,9.181-8.417,12.11l1.87,1.402l-2.619,4.863l-1.683-0.748
	c-0.935-0.436-1.715-1.075-2.338-1.917c-0.624-0.842-0.998-1.792-1.122-2.853c-0.25-2.244,0.498-4.052,2.244-5.424
	c2.867-2.244,5.05-5.548,6.546-9.913c1.496-4.363,2.244-8.322,2.244-11.876V20.948c0-2.119-1.014-4.349-3.039-6.687
	c-2.027-2.338-4.708-4.302-8.042-5.892c-3.336-1.59-6.625-2.385-9.866-2.385c-3.179,0-6.438,0.811-9.772,2.432
	c-3.336,1.622-6.032,3.601-8.089,5.938c-2.058,2.338-3.086,4.535-3.086,6.593v14.963c0,3.429,0.81,7.341,2.432,11.736
	c1.621,4.395,3.865,7.747,6.733,10.053c0.374,0.313,0.716,0.671,1.028,1.075c0.312,0.406,0.561,0.842,0.748,1.31
	c0.188,0.468,0.312,0.967,0.375,1.496c0.061,0.53,0.061,1.045,0,1.543c-0.126,0.998-0.5,1.917-1.123,2.759
	c-0.624,0.842-1.403,1.481-2.338,1.917L8.51,80.237c-1.684,0.748-2.525,1.903-2.525,3.461v6.078h56.858v5.985H5.985
	c-1.622,0-3.024-0.594-4.208-1.777C0.592,92.8,0,91.396,0,89.776v-8.978c0-0.622,0.218-1.263,0.655-1.917
	c0.435-0.654,0.919-1.2,1.449-1.637c0.529-0.436,1.137-0.872,1.824-1.31c0.685-0.436,1.169-0.716,1.45-0.841
	c0.28-0.125,0.482-0.218,0.607-0.281l26.278-12.438c-3.741-3.054-6.562-7.201-8.463-12.438c-1.902-5.237-2.852-9.913-2.852-14.027
	V20.948c0-3.241,1.309-6.5,3.928-9.772c2.619-3.273,6.046-5.953,10.287-8.043C39.401,1.045,43.656,0,47.927,0
	c4.27,0,8.51,1.045,12.718,3.133c4.208,2.09,7.622,4.77,10.24,8.043c2.618,3.272,3.928,6.531,3.928,9.772v14.963
	C74.813,40.338,73.909,45.122,72.102,50.266z M95.013,90.618c0.561,0.622,0.841,1.34,0.841,2.15c0,0.81-0.28,1.511-0.841,2.104
	c-0.562,0.592-1.263,0.889-2.104,0.889c-0.841,0-1.543-0.281-2.104-0.842l-8.51-8.51l-8.417,8.51
	c-0.562,0.561-1.263,0.842-2.104,0.842c-0.841,0-1.559-0.297-2.151-0.889c-0.593-0.594-0.888-1.295-0.888-2.104
	c0-0.811,0.311-1.528,0.935-2.15l8.417-8.417l-8.417-8.51c-0.624-0.561-0.935-1.263-0.935-2.104c0-0.841,0.295-1.543,0.888-2.104
	c0.592-0.562,1.31-0.842,2.151-0.842c0.842,0,1.543,0.28,2.104,0.842l8.417,8.51l8.51-8.51c0.561-0.562,1.263-0.842,2.104-0.842
	c0.842,0,1.543,0.28,2.104,0.842c0.561,0.561,0.841,1.263,0.841,2.104c0,0.842-0.28,1.544-0.841,2.104l-8.417,8.51L95.013,90.618z"
	/>
</svg>
