<?xml version="1.0" encoding="iso-8859-1"?>
<!-- Generator: Adobe Illustrator 24.0.1, SVG Export Plug-In . SVG Version: 6.00 Build 0)  -->
<svg version="1.1" id="Layer_1" xmlns="http://www.w3.org/2000/svg" xmlns:xlink="http://www.w3.org/1999/xlink" x="0px" y="0px"
	 viewBox="0 0 95.761 65.836" style="enable-background:new 0 0 95.761 65.836;" xml:space="preserve">
<path d="M94.265,48.302c0.436,0.28,0.795,0.64,1.075,1.075c0.281,0.437,0.421,0.936,0.421,1.496v11.971
	c0,0.811-0.296,1.512-0.888,2.104c-0.593,0.594-1.295,0.889-2.104,0.889h-11.97c-0.811,0-1.513-0.295-2.104-0.889
	c-0.593-0.592-0.888-1.293-0.888-2.104V50.873c0-0.81,0.295-1.511,0.888-2.104c0.592-0.592,1.293-0.889,2.104-0.889h2.992v-0.188
	c0-4.052-0.687-7.995-2.057-11.829c-1.372-3.835-3.242-7.263-5.611-10.287c-2.37-3.023-5.223-5.626-8.557-7.809
	c-3.336-2.182-6.905-3.771-10.708-4.77v1.964c0,0.811-0.296,1.513-0.888,2.104c-0.593,0.593-1.295,0.888-2.104,0.888h-11.97
	c-0.811,0-1.512-0.295-2.104-0.888c-0.593-0.592-0.888-1.294-0.888-2.104v-1.964c-7.794,1.996-14.231,6.219-19.312,12.672
	c-5.082,6.452-7.622,13.793-7.622,22.022v0.188h2.993c0.81,0,1.511,0.297,2.104,0.889c0.592,0.593,0.889,1.294,0.889,2.104v11.971
	c0,0.811-0.297,1.512-0.889,2.104c-0.593,0.594-1.294,0.889-2.104,0.889H2.992c-0.811,0-1.512-0.295-2.104-0.889
	C0.295,64.355,0,63.654,0,62.844V50.873c0-0.81,0.295-1.511,0.888-2.104c0.592-0.592,1.293-0.889,2.104-0.889h2.993v-0.188
	c0-7.418,1.824-14.292,5.471-20.62c3.647-6.327,8.557-11.362,14.729-15.103H11.128c-1.185,1.995-2.899,2.992-5.144,2.992
	c-1.683,0-3.102-0.576-4.255-1.73C0.576,12.08,0,10.661,0,8.978s0.576-3.101,1.73-4.255c1.153-1.153,2.572-1.73,4.255-1.73
	c2.244,0,3.958,0.998,5.144,2.993h27.774V2.992c0-0.809,0.295-1.511,0.888-2.104C40.383,0.297,41.084,0,41.895,0h11.97
	c0.81,0,1.511,0.297,2.104,0.889c0.592,0.593,0.888,1.295,0.888,2.104v2.993h27.774c1.184-1.995,2.899-2.993,5.144-2.993
	c1.683,0,3.101,0.577,4.255,1.73c1.153,1.154,1.73,2.571,1.73,4.255s-0.577,3.103-1.73,4.255c-1.154,1.154-2.572,1.73-4.255,1.73
	c-1.061,0-2.058-0.265-2.993-0.795c-0.935-0.529-1.652-1.263-2.151-2.197H69.576c2.432,1.496,4.676,3.195,6.733,5.097
	c2.057,1.902,3.912,4.006,5.564,6.312c1.651,2.308,3.07,4.755,4.255,7.342c1.184,2.588,2.088,5.315,2.712,8.183
	c0.622,2.868,0.935,5.798,0.935,8.79v0.188h2.993C93.33,47.881,93.828,48.021,94.265,48.302z M11.97,53.866H5.985v5.984h5.985
	V53.866z M50.873,5.985h-5.985v5.985h5.985V5.985z M89.776,53.866h-5.985v5.984h5.985V53.866z"/>
</svg>
