<?xml version="1.0" encoding="iso-8859-1"?>
<!-- Generator: Adobe Illustrator 24.0.1, SVG Export Plug-In . SVG Version: 6.00 Build 0)  -->
<svg version="1.1" id="icon" xmlns="http://www.w3.org/2000/svg" xmlns:xlink="http://www.w3.org/1999/xlink" x="0px" y="0px"
	 viewBox="0 0 78.11 84.296" style="enable-background:new 0 0 78.11 84.296;" xml:space="preserve">
<path d="M53.291,1.034c0.249,0.25,0.436,0.547,0.562,0.89c0.125,0.344,0.188,0.702,0.188,1.077v78.297
	c0,1.187-0.531,2.061-1.592,2.622c-0.438,0.249-0.906,0.375-1.405,0.375c-0.313,0-0.609-0.047-0.89-0.141
	c-0.281-0.094-0.547-0.234-0.796-0.421l-29.97-23.602H9.459c-2.561,0-4.746-0.796-6.556-2.388c-1.812-1.592-2.716-3.512-2.716-5.76
	L0,32.222c0-2.248,0.904-4.152,2.716-5.713c1.811-1.56,3.995-2.341,6.556-2.341h10.021L49.357,0.566
	c0.998-0.686,2.028-0.749,3.091-0.187C52.759,0.566,53.041,0.786,53.291,1.034z M48.046,8.621L21.822,29.6
	c-0.5,0.375-1.03,0.562-1.592,0.562H9.272c-0.937,0-1.718,0.22-2.341,0.656c-0.625,0.438-0.937,0.906-0.937,1.405l0.187,19.761
	c0,0.562,0.312,1.063,0.937,1.499c0.624,0.438,1.405,0.656,2.342,0.656h10.864c0.188,0,0.343,0,0.468,0
	c0.125,0,0.265,0.032,0.422,0.094c0.155,0.063,0.295,0.126,0.421,0.188c0.125,0.063,0.249,0.125,0.375,0.187l26.037,21.073V8.621z
	 M74.41,32.222c2.466,2.997,3.7,6.495,3.7,10.489c0,3.81-1.218,7.212-3.653,10.209c-2.435,2.997-5.526,4.87-9.272,5.619
	c-0.188,0.063-0.407,0.094-0.656,0.094c-0.688,0-1.311-0.234-1.873-0.703s-0.906-1.045-1.03-1.732
	c-0.126-0.562-0.094-1.092,0.094-1.592c0.188-0.499,0.483-0.92,0.89-1.264c0.405-0.343,0.857-0.577,1.358-0.703
	c1.56-0.312,2.965-0.951,4.215-1.92c1.248-0.967,2.215-2.154,2.903-3.559c0.687-1.405,1.03-2.887,1.03-4.449
	c0-2.559-0.75-4.776-2.248-6.649s-3.435-2.997-5.807-3.372c-0.812-0.125-1.452-0.53-1.92-1.218
	c-0.468-0.686-0.641-1.436-0.515-2.248c0.125-0.811,0.53-1.466,1.218-1.967c0.686-0.499,1.436-0.656,2.248-0.468
	C68.838,27.415,71.943,29.225,74.41,32.222z"/>
</svg>
