<?xml version="1.0" encoding="iso-8859-1"?>
<!-- Generator: Adobe Illustrator 24.0.1, SVG Export Plug-In . SVG Version: 6.00 Build 0)  -->
<svg version="1.1" id="icon" xmlns="http://www.w3.org/2000/svg" xmlns:xlink="http://www.w3.org/1999/xlink" x="0px" y="0px"
	 viewBox="0 0 93.095 84.296" style="enable-background:new 0 0 93.095 84.296;" xml:space="preserve">
<path d="M53.244,1.034c0.218,0.25,0.389,0.547,0.515,0.89c0.124,0.344,0.187,0.702,0.187,1.077v78.297
	c0,0.562-0.141,1.077-0.421,1.545s-0.672,0.828-1.171,1.077c-0.125,0.063-0.266,0.126-0.421,0.188
	c-0.156,0.062-0.313,0.108-0.468,0.141c-0.156,0.031-0.328,0.047-0.515,0.047c-0.562,0-1.093-0.188-1.592-0.562l-29.97-23.602H9.459
	c-2.561,0-4.746-0.796-6.556-2.388c-1.812-1.592-2.716-3.512-2.716-5.76L0,32.222c0-2.248,0.904-4.152,2.716-5.713
	c1.81-1.56,3.995-2.341,6.556-2.341H19.2L49.357,0.566c0.998-0.686,1.997-0.749,2.997-0.187C52.729,0.566,53.024,0.786,53.244,1.034
	z M47.952,8.621L21.822,29.6c-0.5,0.375-1.063,0.562-1.686,0.562H9.272c-0.5,0-0.953,0.063-1.358,0.188
	c-0.407,0.125-0.749,0.281-1.03,0.468c-0.281,0.187-0.5,0.407-0.656,0.655c-0.156,0.25-0.234,0.5-0.234,0.75l0.188,19.761
	c0,0.375,0.124,0.719,0.375,1.03c0.249,0.313,0.639,0.578,1.17,0.796c0.53,0.219,1.108,0.328,1.733,0.328h10.864
	c0.623,0,1.185,0.157,1.686,0.468l25.943,21.073V8.621z M74.364,52.921c-2.435,2.997-5.526,4.87-9.272,5.619
	c-0.187,0.063-0.375,0.094-0.562,0.094c-0.688,0-1.312-0.234-1.874-0.703c-0.562-0.468-0.906-1.045-1.03-1.732
	c-0.063-0.436-0.063-0.843,0-1.218c0.061-0.375,0.202-0.717,0.421-1.03c0.218-0.312,0.499-0.592,0.843-0.843
	c0.342-0.249,0.703-0.405,1.077-0.468c2.372-0.436,4.308-1.607,5.807-3.512c1.499-1.904,2.248-4.042,2.248-6.416
	c0-2.559-0.734-4.776-2.201-6.649c-1.468-1.873-3.388-2.997-5.76-3.372c-0.813-0.125-1.452-0.53-1.92-1.218
	c-0.468-0.686-0.641-1.436-0.515-2.248c0.124-0.811,0.515-1.466,1.17-1.967c0.656-0.499,1.419-0.656,2.294-0.468
	c2.435,0.375,4.651,1.327,6.65,2.856c1.998,1.531,3.543,3.435,4.636,5.713c1.092,2.28,1.639,4.73,1.639,7.352
	C78.016,46.521,76.799,49.924,74.364,52.921z M87.85,25.948c3.496,5.057,5.245,10.63,5.245,16.717
	c0,6.088-1.749,11.661-5.245,16.718c-3.498,5.058-8.086,8.649-13.768,10.771c-0.188,0.063-0.36,0.11-0.515,0.141
	c-0.157,0.032-0.328,0.047-0.515,0.047c-0.625,0-1.187-0.171-1.686-0.515c-0.5-0.342-0.875-0.796-1.124-1.358
	c-0.313-0.811-0.297-1.592,0.047-2.341c0.342-0.75,0.92-1.249,1.732-1.499c4.496-1.748,8.132-4.636,10.911-8.664
	c2.777-4.027,4.168-8.443,4.168-13.252c0-2.435-0.36-4.791-1.077-7.071c-0.719-2.279-1.733-4.37-3.044-6.275
	c-1.311-1.904-2.919-3.606-4.823-5.104c-1.905-1.499-3.95-2.653-6.135-3.465c-0.812-0.312-1.39-0.843-1.732-1.592
	c-0.344-0.749-0.375-1.513-0.094-2.294c0.281-0.78,0.811-1.342,1.592-1.686c0.78-0.342,1.545-0.358,2.294-0.046
	C79.764,17.3,84.353,20.89,87.85,25.948z"/>
</svg>
