<?xml version="1.0" encoding="iso-8859-1"?>
<!-- Generator: Adobe Illustrator 24.0.1, SVG Export Plug-In . SVG Version: 6.00 Build 0)  -->
<svg version="1.1" id="icon" xmlns="http://www.w3.org/2000/svg" xmlns:xlink="http://www.w3.org/1999/xlink" x="0px" y="0px"
	 viewBox="0 0 95.904 86.914" style="enable-background:new 0 0 95.904 86.914;" xml:space="preserve">
<path d="M95.904,77.922c0,2.498-0.875,4.622-2.622,6.369c-1.749,1.748-3.872,2.623-6.369,2.623H8.991
	c-2.498,0-4.621-0.875-6.369-2.623C0.874,82.544,0,80.42,0,77.922V29.97c0-2.435,0.874-4.526,2.622-6.275
	c1.748-1.748,3.84-2.653,6.275-2.716h2.997V8.991c0-1.623,0.405-3.122,1.217-4.496c0.811-1.373,1.904-2.466,3.278-3.278
	C17.763,0.407,19.261,0,20.885,0l67.714,13.487c1.56,0.438,2.871,1.062,3.934,1.873c1.061,0.812,1.81,1.702,2.248,2.669
	c0.436,0.969,0.733,1.812,0.89,2.529c0.155,0.719,0.234,1.421,0.234,2.107V77.922z M89.911,77.922V23.976
	c0,0.937-0.594,1.671-1.78,2.201c-1.187,0.531-2.592,0.796-4.214,0.796H8.991c-0.812,0-1.514,0.297-2.107,0.89
	c-0.594,0.594-0.89,1.297-0.89,2.107v47.952c0,0.813,0.295,1.515,0.89,2.107c0.593,0.594,1.295,0.89,2.107,0.89h77.923
	c0.811,0,1.513-0.295,2.107-0.89C89.613,79.437,89.911,78.735,89.911,77.922z M23.976,53.993c0,1.655-0.594,3.06-1.779,4.214
	c-1.187,1.156-2.608,1.733-4.262,1.733c-1.655,0-3.06-0.577-4.214-1.733c-1.156-1.154-1.733-2.559-1.733-4.214
	c0-1.654,0.577-3.075,1.733-4.261c1.154-1.186,2.56-1.78,4.214-1.78c1.654,0,3.075,0.594,4.262,1.78
	C23.382,50.918,23.976,52.339,23.976,53.993z M17.888,20.979h66.028c0.686,0.063,1.264-0.047,1.732-0.328s0.857-0.703,1.171-1.264
	L20.698,5.994c-0.813,0.063-1.484,0.375-2.014,0.937c-0.531,0.562-0.796,1.25-0.796,2.061V20.979z"/>
</svg>
