<?xml version="1.0" encoding="iso-8859-1"?>
<!-- Generator: Adobe Illustrator 24.0.1, SVG Export Plug-In . SVG Version: 6.00 Build 0)  -->
<svg version="1.1" id="Layer_1" xmlns="http://www.w3.org/2000/svg" xmlns:xlink="http://www.w3.org/1999/xlink" x="0px" y="0px"
	 viewBox="0 0 95.761 95.589" style="enable-background:new 0 0 95.761 95.589;" xml:space="preserve">
<path d="M95.761,22.645c0,2.183-0.016,3.851-0.046,5.003c-0.032,1.154-0.157,3.103-0.375,5.845c-0.219,2.744-0.546,5.02-0.982,6.827
	c-0.437,1.809-1.122,3.787-2.057,5.938c-0.935,2.15-2.089,3.881-3.46,5.189l-1.216,1.31c-4.615,4.676-10.069,7.014-16.366,7.014
	c-0.935,0-1.917-0.077-2.946-0.233c-1.028-0.155-2.042-0.358-3.039-0.608c-0.998-0.248-1.98-0.561-2.946-0.935
	c-0.967-0.374-1.886-0.779-2.759-1.216l-34.975,35.35c-2.37,2.306-5.19,3.46-8.463,3.46s-6.095-1.154-8.463-3.46L3.46,87.827
	C1.153,85.458,0,82.605,0,79.269c0-3.334,1.153-6.187,3.46-8.557l34.601-35.256c-1.248-2.93-1.933-6.031-2.057-9.305
	c-0.126-3.273,0.374-6.499,1.496-9.679s2.773-5.892,4.957-8.136l1.309-1.31c1.496-1.558,3.475-2.853,5.938-3.881
	c2.462-1.029,5.158-1.761,8.089-2.198c2.93-0.435,5.548-0.645,7.855-0.801C67.954-0.007,70.386,0,72.943,0h0.748
	c0.561,0,1.076,0.054,1.543,0.334c0.468,0.281,0.826,0.628,1.076,1.126c0.498,1.122,0.342,2.13-0.468,3.064L62.375,20.038
	L76.029,34.06l15.056-13.562c0.436-0.374,0.919-0.61,1.45-0.704c0.529-0.093,1.043-0.015,1.543,0.234
	C95.137,20.588,95.698,21.462,95.761,22.645z M87.578,42.237c0.779-2.275,1.324-4.442,1.637-6.499
	c0.311-2.058,0.561-4.27,0.748-6.64L77.712,40.133c-0.561,0.5-1.215,0.734-1.963,0.702c-0.749-0.031-1.403-0.328-1.964-0.889
	L56.484,22.178c-0.5-0.498-0.764-1.137-0.795-1.917c-0.032-0.778,0.202-1.449,0.701-2.011L67.332,5.626
	c-3.928,0.249-7.748,0.78-11.456,1.589c-3.71,0.812-6.406,2.09-8.089,3.835l-1.309,1.309c-1.435,1.497-2.541,3.353-3.32,5.564
	c-0.78,2.214-1.185,4.411-1.216,6.593c-0.032,2.184,0.171,4.302,0.608,6.359c0.561,2.183,1.434,4.146,2.619,5.892l-37.5,38.248
	c-0.748,0.748-1.262,1.653-1.543,2.712c-0.28,1.062-0.28,2.104,0,3.133c0.281,1.029,0.795,1.917,1.543,2.666l4.208,4.302
	c1.184,1.185,2.603,1.776,4.255,1.776c1.651,0,3.07-0.592,4.255-1.776L58.728,49.11c1.558,1.436,3.273,2.558,5.144,3.367
	c0.997,0.374,2.182,0.687,3.554,0.935c1.371,0.25,2.649,0.374,3.834,0.374c1.558,0,3.054-0.187,4.489-0.561
	c1.433-0.374,2.82-0.936,4.161-1.684c1.34-0.748,2.572-1.683,3.694-2.806l1.123-1.309C85.848,46.244,86.798,44.513,87.578,42.237z"
	/>
</svg>
