<?xml version="1.0" encoding="iso-8859-1"?>
<!-- Generator: Adobe Illustrator 24.0.1, SVG Export Plug-In . SVG Version: 6.00 Build 0)  -->
<svg version="1.1" id="icon" xmlns="http://www.w3.org/2000/svg" xmlns:xlink="http://www.w3.org/1999/xlink" x="0px" y="0px"
	 viewBox="0 0 95.966 96.279" style="enable-background:new 0 0 95.966 96.279;" xml:space="preserve">
<path d="M95.888,70.383c-0.156,0.594-0.484,1.046-0.983,1.358l-0.843,0.375c-0.5,0.313-1.03,0.36-1.592,0.14
	c-0.562-0.218-1-0.608-1.311-1.17l-4.496-8.335c-1.374,9.616-5.729,17.607-13.065,23.976c-7.337,6.369-15.875,9.553-25.615,9.553
	s-18.279-3.184-25.615-9.553c-7.337-6.369-11.692-14.36-13.065-23.976l-4.496,8.335c-0.313,0.562-0.749,0.953-1.311,1.17
	c-0.562,0.22-1.093,0.173-1.592-0.14l-0.843-0.375c-0.5-0.312-0.829-0.764-0.983-1.358c-0.155-0.593-0.079-1.17,0.234-1.732
	l7.68-14.142l0.562-1.03c0.188-0.249,0.39-0.452,0.609-0.609c0.218-0.155,0.483-0.265,0.796-0.328
	c0.562-0.188,1.091-0.094,1.592,0.281l0.937,0.562l13.674,9.272c0.249,0.126,0.452,0.313,0.608,0.562
	c0.155,0.25,0.265,0.515,0.328,0.796c0.062,0.281,0.077,0.578,0.047,0.89c-0.032,0.313-0.11,0.594-0.234,0.843l-0.656,0.655
	c-0.25,0.5-0.688,0.782-1.311,0.843c-0.625,0.063-1.187-0.062-1.686-0.375l-8.148-5.619c0.998,7.806,4.292,14.392,9.881,19.762
	c5.587,5.371,12.253,8.429,19.996,9.178V30.063H32.998c-0.813,0-1.515-0.295-2.107-0.89c-0.594-0.593-0.89-1.295-0.89-2.107
	c0-0.811,0.295-1.513,0.89-2.107c0.593-0.593,1.295-0.89,2.107-0.89H45.08l0.094-0.094c0-0.062,0-0.125,0-0.188
	c-2.686-0.624-4.902-2.028-6.65-4.214c-1.749-2.185-2.622-4.683-2.622-7.493c0-3.309,1.185-6.149,3.559-8.523
	C41.833,1.187,44.689,0,48.03,0c3.339,0,6.181,1.187,8.523,3.559c2.341,2.374,3.512,5.214,3.512,8.523
	c0,2.81-0.875,5.308-2.622,7.493c-1.749,2.186-3.966,3.622-6.65,4.308v0.094l0.094,0.094h12.082c0.811,0,1.513,0.297,2.107,0.89
	c0.593,0.594,0.89,1.296,0.89,2.107c0,0.813-0.297,1.515-0.89,2.107c-0.594,0.594-1.296,0.89-2.107,0.89H50.98v60.128
	c7.741-0.75,14.423-3.824,20.042-9.225c5.62-5.4,8.897-11.972,9.834-19.715l-8.148,5.619c-0.5,0.313-1.063,0.438-1.686,0.375
	c-0.625-0.062-1.063-0.343-1.311-0.843l-0.656-0.655c-0.188-0.375-0.281-0.75-0.281-1.124s0.093-0.75,0.281-1.124
	s0.436-0.655,0.75-0.843l13.674-9.178v-0.094l0.937-0.562c0.249-0.188,0.515-0.295,0.796-0.328c0.281-0.031,0.546-0.015,0.796,0.047
	c0.623,0.125,1.091,0.438,1.405,0.937l0.562,1.03l7.68,14.142C95.966,69.212,96.044,69.79,95.888,70.383z M42.177,13.721
	c0.125,0.531,0.328,1.016,0.609,1.452c0.281,0.438,0.608,0.843,0.983,1.217c0.375,0.375,0.78,0.688,1.217,0.937
	c0.436,0.25,0.92,0.454,1.452,0.609c0.53,0.157,1.045,0.234,1.545,0.234c0.687,0,1.342-0.108,1.967-0.328
	c0.624-0.218,1.186-0.515,1.686-0.89c0.499-0.375,0.937-0.811,1.311-1.311c0.375-0.499,0.67-1.045,0.89-1.639
	c0.218-0.593,0.328-1.232,0.328-1.92c0-1.686-0.608-3.122-1.826-4.308c-1.217-1.186-2.654-1.78-4.308-1.78
	c-1.655,0-3.076,0.594-4.261,1.78c-1.187,1.187-1.78,2.622-1.78,4.308C41.989,12.644,42.051,13.191,42.177,13.721z"/>
</svg>
