<?xml version="1.0" encoding="iso-8859-1"?>
<!-- Generator: Adobe Illustrator 24.0.1, SVG Export Plug-In . SVG Version: 6.00 Build 0)  -->
<svg version="1.1" id="icon" xmlns="http://www.w3.org/2000/svg" xmlns:xlink="http://www.w3.org/1999/xlink" x="0px" y="0px"
	 viewBox="0 0 78 95" style="enable-background:new 0 0 78 95;" xml:space="preserve">
<path d="M76.165,16.578C77.319,17.733,78,18.998,78,20.681V89.51c0,1.621-0.681,2.776-1.835,3.961C75.011,94.654,73.49,95,71.806,95
	H5.971c-1.684,0-3.095-0.346-4.248-1.53C0.569,92.286,0,91.131,0,89.51V20.681c0-1.684,0.569-2.949,1.723-4.103
	C2.876,15.425,4.287,15,5.971,15H24V8.898c0-0.935,0.165-1.87,0.477-2.806c0.311-0.935,0.753-1.761,1.314-2.478
	s1.202-1.356,1.919-1.917c0.716-0.562,1.545-0.957,2.48-1.27C31.126,0.117,32.062,0,32.997,0h11.97c1.621,0,3.117,0.367,4.489,1.176
	c1.371,0.811,2.49,1.883,3.301,3.254C53.567,5.802,54,7.278,54,8.898V15h17.806C73.49,15,75.011,15.425,76.165,16.578z M72,21H54
	v5.853v0.281c0,0.187-0.168,0.437-0.261,0.748c-0.094,0.313-0.248,0.607-0.435,0.888c-0.187,0.281-0.491,0.531-0.896,0.748
	c-0.406,0.22-0.892,0.328-1.453,0.328c-0.624,0-1.14-0.108-1.545-0.328c-0.406-0.217-0.703-0.467-0.89-0.748
	c-0.187-0.28-0.307-0.592-0.401-0.935C48.027,27.494,48,27.26,48,27.135s0-0.218,0-0.281V21H30v5.853v0.748
	c0,0.5-0.248,0.998-0.746,1.497c-0.5,0.499-1.247,0.748-2.243,0.748c-0.935,0-1.636-0.281-2.103-0.842
	c-0.468-0.562-0.743-1.013-0.804-1.356C24.04,27.306,24,27.041,24,26.853V21H6v69h66V21z M30,15h18V8.898
	c0-0.81-0.316-1.464-0.908-2.057C46.498,6.25,45.777,6,44.967,6h-11.97c-0.811,0-1.515,0.25-2.106,0.842
	C30.297,7.434,30,8.089,30,8.898V15z"/>
</svg>
