<?xml version="1.0" encoding="iso-8859-1"?>
<!-- Generator: Adobe Illustrator 24.0.1, SVG Export Plug-In . SVG Version: 6.00 Build 0)  -->
<svg version="1.1" id="icon" xmlns="http://www.w3.org/2000/svg" xmlns:xlink="http://www.w3.org/1999/xlink" x="0px" y="0px"
	 viewBox="0 0 95.267 93.093" style="enable-background:new 0 0 95.267 93.093;" xml:space="preserve">
<path d="M95.106,28.098L80.798,70.18c-0.187,0.562-0.546,0.956-1.076,1.33C79.192,71.886,78.615,72,77.993,72H37.593
	c-0.624,0-1.201-0.129-1.73-0.535c-0.53-0.405-0.888-0.884-1.075-1.507L18.235,9.19c-0.187-0.686-0.406-1.238-0.654-1.675
	c-0.25-0.436-0.5-0.728-0.748-0.884c-0.25-0.154-0.453-0.369-0.608-0.432C16.068,6.137,15.897,6,15.71,6H2.899
	c-0.5,0-0.982-0.017-1.45-0.267C0.982,5.485,0.622,5.18,0.374,4.712C0.124,4.244,0,3.789,0,3.289c0-0.872,0.28-1.738,0.841-2.3
	C1.402,0.429,2.088,0,2.899,0H15.71c0.623,0,1.247,0.24,1.871,0.395c0.623,0.156,1.356,0.534,2.198,0.97
	c0.841,0.437,1.636,1.225,2.384,2.285c0.749,1.061,1.34,2.32,1.777,3.816L28.803,24h7.668L55.268,7.766
	c0.81-0.81,1.73-1.321,2.759-1.571c1.029-0.248,2.042-0.238,3.04,0.01c0.996,0.25,1.901,0.747,2.712,1.556L82.949,24h9.352
	c0.997,0,1.792,0.459,2.385,1.301C95.277,26.142,95.417,27.101,95.106,28.098z M87.999,30H30.393l9.539,36h36.004L87.999,30z
	 M44.794,78.316c0.561,0.126,1.09,0.313,1.59,0.562c0.498,0.25,0.966,0.546,1.402,0.889c0.436,0.343,0.826,0.733,1.169,1.169
	c0.342,0.437,0.639,0.904,0.889,1.402c0.249,0.5,0.436,1.028,0.561,1.59c0.124,0.562,0.187,1.122,0.187,1.684
	c0,2.057-0.733,3.817-2.198,5.283c-1.465,1.464-3.226,2.198-5.284,2.198c-2.057,0-3.819-0.734-5.284-2.198
	c-1.465-1.466-2.197-3.227-2.197-5.283c0-1.371,0.327-2.619,0.982-3.741c0.654-1.122,1.558-2.025,2.712-2.712
	c1.153-0.686,2.415-1.028,3.787-1.028C43.672,78.13,44.233,78.192,44.794,78.316z M45.262,24h28.523L59.57,11.843L45.262,24z
	 M72.943,78.737c0.935,0.406,1.73,0.936,2.385,1.59c0.654,0.654,1.184,1.449,1.59,2.385c0.405,0.936,0.607,1.902,0.607,2.899
	c0,2.057-0.733,3.817-2.197,5.283c-1.466,1.464-3.227,2.198-5.284,2.198c-2.058,0-3.82-0.734-5.284-2.198
	c-1.466-1.466-2.198-3.227-2.198-5.283c0-2.058,0.732-3.818,2.198-5.284c1.464-1.464,3.226-2.197,5.284-2.197
	C71.041,78.13,72.008,78.333,72.943,78.737z"/>
</svg>
