<?xml version="1.0" encoding="iso-8859-1"?>
<!-- Generator: Adobe Illustrator 24.0.1, SVG Export Plug-In . SVG Version: 6.00 Build 0)  -->
<svg version="1.1" id="icon" xmlns="http://www.w3.org/2000/svg" xmlns:xlink="http://www.w3.org/1999/xlink" x="0px" y="0px"
	 viewBox="0 0 95.761 83.362" style="enable-background:new 0 0 95.761 83.362;" xml:space="preserve">
<path d="M89.355,17.908c4.27,5.518,6.406,11.519,6.406,18.002c0,6.485-2.136,12.484-6.406,18.002
	c-4.271,5.518-10.085,9.653-17.44,12.863c-7.357,3.212-15.369,4.587-24.034,4.587c-0.313,0-0.748,0-1.309,0s-0.967,0-1.216,0
	c-1.87,0-3.616,0.105-5.237-0.144c-0.811,0.997-2.26,2.422-4.349,4.043c-2.089,1.621-4.785,3.147-8.089,4.893
	c-3.306,1.746-6.392,3.209-9.258,3.209c-0.063,0-0.156,0-0.281,0c-0.25,0-0.406,0-0.467,0c-0.748,0-1.388-0.05-1.917-0.58
	c-0.53-0.529-0.794-1.062-0.794-1.81c0-0.374,0.061-0.662,0.187-0.975c3.179-5.485,4.769-10.228,4.769-14.282
	c0-0.062,0.015-0.095,0.047-0.127c0.031-0.03,0.047-0.07,0.047-0.133c-6.359-3.241-11.285-7.431-14.776-12.575
	C1.745,47.737,0,42.082,0,35.909c0-6.483,2.135-12.484,6.406-18.001c4.27-5.518,10.084-9.879,17.441-13.091
	C31.203,1.605,39.214,0,47.88,0c8.665,0,16.677,1.606,24.034,4.817C79.27,8.028,85.084,12.391,89.355,17.908z M11.596,20.902
	c-3.741,4.582-5.611,9.585-5.611,15.009c0,4.989,1.464,9.602,4.396,13.841c2.93,4.24,6.803,7.7,12.102,10.38l3.031,1.684v4.208
	l0.149,0.188c0,1.496-0.066,3.056-0.44,4.676c-0.375,1.622-0.814,3.212-1.436,4.77c1.309-0.623,2.68-1.356,4.052-2.198
	c1.371-0.841,2.571-1.636,3.568-2.385c0.997-0.748,1.862-1.417,2.579-2.01c0.716-0.592,1.234-1.044,1.547-1.356l2.153-2.618
	l3.274,0.468c0.81,0.125,1.527-0.034,2.151-0.004c0.623,0.032,1.371-0.19,2.245-0.19h2.525c7.543,0,14.542-1.103,20.995-3.784
	c6.453-2.68,11.549-6.194,15.29-10.776s5.611-9.527,5.611-14.95s-1.87-10.397-5.611-14.979c-3.741-4.583-8.837-8.199-15.29-10.881
	c-6.453-2.68-13.452-4.013-20.995-4.013c-7.544,0-14.542,1.345-20.994,4.024C20.434,12.684,15.337,16.319,11.596,20.902z"/>
</svg>
