<?xml version="1.0" encoding="UTF-8" standalone="no"?>
<!DOCTYPE svg PUBLIC "-//W3C//DTD SVG 1.1//EN" "http://www.w3.org/Graphics/SVG/1.1/DTD/svg11.dtd">
<svg id="icon" viewBox="0 0 96 96" version="1.1" xmlns="http://www.w3.org/2000/svg" xmlns:xlink="http://www.w3.org/1999/xlink">
    <path d="M92.9,0.8C93.8,1.3 94.6,2.1 95.1,3C95.6,3.9 95.9,4.9 95.9,6L95.9,89.9C95.9,91.5 95.3,92.9 94.1,94.1C92.9,95.3 91.5,95.9 89.9,95.9L6,95.9C4.4,95.9 3,95.3 1.8,94.1C0.6,92.9 0,91.5 0,89.9L0,6C0,4.4 0.6,3 1.8,1.8C3,0.6 4.4,0 6,0L89.9,0C91,0 92,0.3 92.9,0.8ZM89.9,6L6,6L6,89.9L89.9,89.9L89.9,6Z"/>
    <path d="M70.591,29.757C72.109,29.897 72.211,30.264 72.623,30.705C73.683,31.84 73.839,33.474 72.561,34.865L42.43,65.249C41.925,65.721 41.798,65.755 41.508,65.883C40.404,66.368 39.079,66.093 38.178,65.257L23.354,50.414C22.319,49.294 22.488,48.952 22.477,48.349C22.434,46.01 25.663,44.377 27.599,46.174L40.293,58.884L68.301,30.641C68.301,30.641 69.556,29.742 70.591,29.757Z"/>
</svg>
