<?xml version="1.0" encoding="iso-8859-1"?>
<!-- Generator: Adobe Illustrator 24.0.1, SVG Export Plug-In . SVG Version: 6.00 Build 0)  -->
<svg version="1.1" id="icon" xmlns="http://www.w3.org/2000/svg" xmlns:xlink="http://www.w3.org/1999/xlink" x="0px" y="0px"
	 viewBox="0 0 95.761 83.23" style="enable-background:new 0 0 95.761 83.23;" xml:space="preserve">
<path d="M88.701,26.652c4.707,4.989,7.061,10.88,7.061,17.675c0,3.306-0.546,6.546-1.637,9.726c-1.091,3.18-2.604,6.095-4.536,8.744
	c-1.933,2.65-4.427,4.802-7.481,6.452c-3.055,1.653-6.391,2.541-10.006,2.666c-0.811,0-1.513-0.296-2.104-0.889
	c-0.593-0.592-0.888-1.293-0.888-2.104c0-0.436,0.078-0.825,0.234-1.169c0.155-0.342,0.374-0.654,0.654-0.935
	c0.281-0.281,0.608-0.499,0.982-0.655c0.374-0.154,0.749-0.233,1.123-0.233h0.841c1.684,0,3.304-0.295,4.863-0.889
	c1.558-0.592,2.946-1.402,4.162-2.432c1.216-1.028,2.338-2.244,3.367-3.646c1.029-1.403,1.87-2.899,2.525-4.489
	s1.169-3.241,1.543-4.956c0.374-1.714,0.561-3.444,0.561-5.19c0-3.615-0.967-6.998-2.899-10.146
	c-1.933-3.147-4.489-5.626-7.668-7.435c-3.179-1.808-6.609-2.742-10.287-2.806l-2.151-0.094l-0.655-2.057
	C63.061,11.255,55.86,5.985,44.701,5.985c-7.357,0-13.28,2.4-17.769,7.201S20.2,24.097,20.2,31.516h0.093l0.187,2.806l-2.712,0.467
	c-3.305,0.562-6.111,2.338-8.417,5.331c-2.307,2.992-3.46,6.359-3.46,10.1c0,4.24,1.417,7.918,4.255,11.035
	c2.836,3.118,6.187,4.676,10.053,4.676h2.618c0.873,0,1.59,0.297,2.151,0.889c0.562,0.593,0.842,1.294,0.842,2.104
	c0,0.374-0.079,0.748-0.234,1.122c-0.156,0.374-0.359,0.702-0.608,0.982c-0.25,0.28-0.561,0.5-0.935,0.654
	c-0.374,0.156-0.78,0.234-1.216,0.234H20.2c-5.487,0-10.226-2.151-14.215-6.453C1.995,61.16,0,56.08,0,50.219
	c0-4.8,1.34-9.118,4.021-12.952c2.68-3.834,6.109-6.437,10.287-7.809C14.869,20.98,17.939,13.95,23.52,8.37
	C29.098,2.791,36.159,0,44.701,0c6.607,0,12.171,1.59,16.692,4.77c4.52,3.18,7.839,7.607,9.959,13.279
	C78.21,18.797,83.993,21.665,88.701,26.652z M61.16,66.865c0.935,0.935,0.935,1.87,0,2.805L50.125,81.734v0.093l-0.748,0.748
	c-0.437,0.438-0.951,0.655-1.543,0.655c-0.593,0-1.108-0.218-1.543-0.655l-0.749-0.748v-0.093L34.695,69.857
	c-0.437-0.436-0.655-0.966-0.655-1.59c0-0.622,0.218-1.153,0.655-1.59l0.748-0.468c0.436-0.374,0.95-0.545,1.543-0.514
	c0.592,0.031,1.106,0.266,1.543,0.701l6.359,7.107V43.392c0-0.809,0.28-1.511,0.841-2.104c0.562-0.592,1.277-0.889,2.151-0.889
	c0.187,0,0.374,0.017,0.562,0.047c0.187,0.032,0.374,0.094,0.561,0.188c0.187,0.093,0.358,0.187,0.514,0.28
	c0.155,0.094,0.295,0.203,0.421,0.327c0.124,0.126,0.249,0.28,0.374,0.468c0.124,0.187,0.218,0.359,0.281,0.514
	c0.061,0.157,0.124,0.344,0.187,0.562c0.061,0.219,0.093,0.421,0.093,0.607v30.113l6.546-7.295c0.435-0.436,0.95-0.654,1.543-0.654
	c0.592,0,1.075,0.219,1.449,0.654L61.16,66.865z"/>
</svg>
