<?xml version="1.0" encoding="iso-8859-1"?>
<!-- Generator: Adobe Illustrator 24.0.1, SVG Export Plug-In . SVG Version: 6.00 Build 0)  -->
<svg version="1.1" id="icon" xmlns="http://www.w3.org/2000/svg" xmlns:xlink="http://www.w3.org/1999/xlink" x="0px" y="0px"
	 viewBox="0 0 95.904 95.905" style="enable-background:new 0 0 95.904 95.905;" xml:space="preserve">
<path d="M95.015,75.815c0.593,0.594,0.89,1.296,0.89,2.107c0,0.813-0.297,1.515-0.89,2.107c-0.594,0.594-1.296,0.89-2.107,0.89
	H80.919v11.988c0,0.811-0.297,1.513-0.89,2.107c-0.594,0.592-1.297,0.89-2.107,0.89c-0.812,0-1.515-0.297-2.107-0.89
	c-0.594-0.594-0.89-1.297-0.89-2.107V80.919H17.982c-0.126,0-0.375-0.062-0.749-0.187h-0.094c-0.126,0-0.22,0-0.281,0
	c-0.375-0.188-0.702-0.421-0.983-0.703c-0.281-0.281-0.515-0.609-0.702-0.983v-0.187v-0.188l-0.094-0.094
	c-0.063-0.312-0.094-0.53-0.094-0.656V20.979H2.997c-0.813,0-1.515-0.296-2.107-0.89C0.295,19.497,0,18.794,0,17.982
	c0-0.811,0.295-1.513,0.89-2.107c0.593-0.593,1.295-0.89,2.107-0.89h11.988V2.997c0-0.811,0.296-1.513,0.89-2.107
	C16.467,0.297,17.17,0,17.982,0c0.811,0,1.513,0.297,2.107,0.89c0.593,0.594,0.89,1.297,0.89,2.107v11.988h55.819L87.85,3.934
	c0.623-0.623,1.342-0.937,2.154-0.937c0.811,0,1.499,0.313,2.061,0.937c0.436,0.375,0.717,0.813,0.843,1.312
	c0.125,0.5,0.125,1.016,0,1.545c-0.125,0.531-0.407,0.983-0.843,1.358L80.919,19.293v55.632h11.988
	C93.718,74.926,94.42,75.223,95.015,75.815z M20.979,20.979v49.731l49.732-49.731H20.979z M74.925,74.926V25.288L25.193,74.926
	H74.925z"/>
</svg>
