<?xml version="1.0" encoding="iso-8859-1"?>
<!-- Generator: Adobe Illustrator 24.0.1, SVG Export Plug-In . SVG Version: 6.00 Build 0)  -->
<svg version="1.1" id="icon" xmlns="http://www.w3.org/2000/svg" xmlns:xlink="http://www.w3.org/1999/xlink" x="0px" y="0px"
	 viewBox="0 0 83.917 96.092" style="enable-background:new 0 0 83.917 96.092;" xml:space="preserve">
<g>
	<path d="M66.216,8.055c2.871-0.624,5.259-1.342,7.164-2.154C75.284,5.09,77.157,4.168,79,3.138c1.841-1.03,3.044-1.747,3.605-2.154
		C83.167,0.578,83.604,0.25,83.917,0v50.95l-1.124,0.937c-0.813,0.625-1.999,1.374-3.56,2.248c-1.562,0.875-3.324,1.765-5.291,2.669
		c-1.967,0.906-4.341,1.655-7.118,2.248c-2.779,0.594-5.572,0.89-8.382,0.89c-3.311,0-6.589-0.468-9.834-1.405
		c-3.248-0.937-6.041-1.967-8.383-3.091c-2.341-1.124-5.401-2.154-9.179-3.09c-3.778-0.937-7.789-1.405-12.034-1.405
		c-4.683,0-9.023,1.311-13.019,3.934v38.212c0,0.811-0.297,1.513-0.89,2.107c-0.594,0.593-1.297,0.89-2.107,0.89
		c-0.562,0-1.063-0.141-1.498-0.422c-0.438-0.281-0.797-0.655-1.077-1.124C0.141,94.079,0,93.594,0,93.095V9.272l0.843-0.937
		c0.563-0.623,1.436-1.389,2.623-2.294c1.185-0.904,2.528-1.81,4.027-2.716c1.498-0.904,3.339-1.686,5.525-2.342
		C15.203,0.328,17.451,0,19.762,0c2.935,0,5.713,0.234,8.336,0.703c2.622,0.468,4.823,1.03,6.603,1.686
		c1.779,0.655,3.62,1.374,5.525,2.154c1.904,0.782,3.637,1.499,5.198,2.154c1.56,0.655,3.418,1.203,5.572,1.639
		c2.154,0.438,4.386,0.656,6.696,0.656C60.502,8.991,63.343,8.68,66.216,8.055z M77.923,10.396
		c-6.743,3.06-13.487,4.589-20.23,4.589c-2.561,0-5.089-0.249-7.586-0.75c-2.498-0.499-4.434-1.014-5.807-1.545
		c-1.374-0.53-3.217-1.295-5.525-2.295C37.025,9.647,35.667,9.085,34.7,8.71c-0.969-0.375-2.295-0.811-3.98-1.312
		c-1.686-0.499-3.419-0.857-5.198-1.077c-1.779-0.218-3.699-0.328-5.76-0.328c-4.996,0-9.585,1.905-13.768,5.713v36.245
		c4.121-1.998,8.46-2.997,13.019-2.997c2.622,0,5.104,0.141,7.445,0.421c2.342,0.281,4.604,0.734,6.79,1.358
		c2.186,0.625,3.901,1.171,5.151,1.639c1.248,0.468,2.935,1.109,5.058,1.92c1.124,0.438,1.967,0.765,2.528,0.983
		c0.563,0.219,1.312,0.5,2.248,0.843c0.937,0.344,1.747,0.609,2.435,0.796c0.687,0.187,1.467,0.375,2.342,0.562
		c0.874,0.188,1.764,0.313,2.669,0.375c0.904,0.063,1.827,0.094,2.764,0.094c6.805,0,13.299-1.998,19.48-5.994V10.396z"/>
</g>
</svg>
