<?xml version="1.0" encoding="iso-8859-1"?>
<!-- Generator: Adobe Illustrator 24.0.1, SVG Export Plug-In . SVG Version: 6.00 Build 0)  -->
<svg version="1.1" id="icon" xmlns="http://www.w3.org/2000/svg" xmlns:xlink="http://www.w3.org/1999/xlink" x="0px" y="0px"
	 viewBox="0 0 78 95.804" style="enable-background:new 0 0 78 95.804;" xml:space="preserve">
<path d="M66.584,12.204C74.19,20.34,78,30.145,78,41.615v51.153c0,0.623-0.194,1.184-0.568,1.684
	c-0.374,0.498-0.845,0.872-1.406,1.122c-0.561,0.249-1.156,0.295-1.779,0.141c-0.624-0.156-1.123-0.483-1.497-0.982L61.715,82.389
	l-8.978,12.157c-0.187,0.248-0.406,0.468-0.655,0.654c-0.25,0.188-0.53,0.327-0.842,0.421c-0.313,0.094-0.624,0.141-0.935,0.141
	c-0.998,0-1.777-0.406-2.338-1.216l-8.791-11.877l-8.791,11.877c-0.313,0.374-0.671,0.669-1.076,0.889
	c-0.406,0.217-0.857,0.327-1.356,0.327c-0.998,0-1.809-0.406-2.431-1.216l-8.791-12.251L5.417,94.826
	c-0.561,0.623-1.309,0.936-2.244,0.936c-0.374,0-0.717-0.063-1.029-0.188c-0.561-0.25-1.119-0.624-1.493-1.122
	C0.277,93.952,0,93.392,0,92.769V41.615c0-7.481,1.835-14.433,5.327-20.854c3.491-6.42,8.258-11.486,14.213-15.196
	C25.493,1.856,32.018,0,39.064,0C49.787,0,58.977,4.068,66.584,12.204z M72,84.913V41.615c0-6.421-1.481-12.375-4.441-17.861
	c-2.962-5.485-6.967-9.819-12.017-12.999s-10.536-4.77-16.459-4.77c-5.923,0-11.409,1.59-16.459,4.77
	c-5.05,3.18-9.139,7.514-12.099,12.999C7.563,29.24,6,35.194,6,41.615v43.392l8.686-9.259C15.247,75.126,16.046,75,16.92,75
	c0.061,0,0.124,0,0.187,0c0.187,0,0.374-0.171,0.561-0.14s0.358-0.001,0.514,0.093c0.155,0.094,0.295,0.141,0.421,0.234
	c0.124,0.094,0.265,0.18,0.421,0.305c0.155,0.125,0.265,0.237,0.327,0.362l8.604,11.87l8.884-11.879
	c0.623-0.81,1.434-1.217,2.431-1.217c0.997,0,1.777,0.406,2.338,1.215l8.697,11.876l8.791-11.876
	c0.249-0.374,0.576-0.67,0.982-0.889c0.405-0.218,0.826-0.327,1.263-0.327c0.935-0.062,1.713,0.28,2.337,1.028L72,84.913z
	 M25.477,33.105c0.467,0.125,0.888,0.28,1.262,0.468c0.375,0.187,0.732,0.42,1.076,0.701c0.342,0.28,0.655,0.593,0.935,0.935
	c0.281,0.344,0.515,0.702,0.702,1.076s0.342,0.795,0.467,1.262c0.125,0.468,0.187,0.921,0.187,1.356
	c0,1.622-0.593,3.024-1.777,4.208c-1.185,1.186-2.587,1.777-4.208,1.777c-1.622,0-3.025-0.592-4.208-1.777
	c-1.185-1.184-1.777-2.586-1.777-4.208c0-1.62,0.592-3.023,1.777-4.208c1.184-1.184,2.586-1.777,4.208-1.777
	C24.556,32.918,25.009,32.981,25.477,33.105z M56.384,33.386c0.748,0.313,1.387,0.733,1.917,1.263
	c0.529,0.53,0.95,1.169,1.263,1.917c0.311,0.748,0.467,1.528,0.467,2.338c0,1.622-0.593,3.024-1.777,4.208
	c-1.185,1.186-2.587,1.777-4.208,1.777c-0.811,0-1.59-0.155-2.338-0.468c-0.748-0.312-1.388-0.732-1.917-1.263
	c-0.531-0.529-0.951-1.169-1.263-1.917c-0.313-0.748-0.467-1.527-0.467-2.338c0-1.06,0.264-2.058,0.794-2.992
	c0.529-0.936,1.263-1.668,2.198-2.198c0.935-0.528,1.932-0.795,2.993-0.795C54.856,32.918,55.636,33.074,56.384,33.386z"/>
</svg>
