<?xml version="1.0" encoding="iso-8859-1"?>
<!-- Generator: Adobe Illustrator 24.0.1, SVG Export Plug-In . SVG Version: 6.00 Build 0)  -->
<svg version="1.1" id="icon" xmlns="http://www.w3.org/2000/svg" xmlns:xlink="http://www.w3.org/1999/xlink" x="0px" y="0px"
	 viewBox="0 0 78.086 95.762" style="enable-background:new 0 0 78.086 95.762;" xml:space="preserve">
<path d="M63.264,51.809c-1.715,4.054-4.053,7.544-7.014,10.474c-2.962,2.932-6.469,5.27-10.521,7.014
	c-4.053,1.746-8.323,2.619-12.812,2.619c-5.985,0-11.502-1.465-16.552-4.396c-5.05-2.93-9.041-6.92-11.97-11.971
	C1.464,50.499,0,44.981,0,38.997c0-4.426,0.856-8.682,2.571-12.766c1.714-4.082,4.052-7.605,7.014-10.567
	c2.96-2.96,6.467-5.314,10.521-7.061c4.052-1.744,8.323-2.618,12.812-2.618c3.554,0,7.014,0.562,10.38,1.684
	c3.367,1.122,6.406,2.697,9.118,4.723c2.712,2.026,5.081,4.395,7.107,7.107c2.025,2.712,3.584,5.751,4.676,9.117
	c1.09,3.367,1.636,6.827,1.636,10.381C65.835,43.485,64.978,47.757,63.264,51.809z M13.84,58.027
	c5.298,5.27,11.657,7.902,19.077,7.902c3.678,0,7.169-0.716,10.474-2.151c3.304-1.433,6.172-3.351,8.604-5.751
	c2.432-2.399,4.349-5.251,5.751-8.557c1.402-3.304,2.104-6.795,2.104-10.474c0-7.419-2.635-13.778-7.902-19.078
	c-5.269-5.298-11.612-7.948-19.031-7.948c-4.863,0-9.368,1.216-13.513,3.646c-4.146,2.432-7.435,5.721-9.866,9.866
	c-2.432,4.147-3.647,8.65-3.647,13.514C5.892,46.417,8.541,52.76,13.84,58.027z M67.191,69.109
	c-7.264,8.229-16.692,13.031-28.289,14.401v6.266h9.071c0.872,0,1.604,0.28,2.197,0.842c0.592,0.561,0.889,1.263,0.889,2.104
	c0,0.842-0.297,1.558-0.889,2.151c-0.593,0.592-1.325,0.889-2.197,0.889h-23.66c-0.874,0-1.622-0.297-2.244-0.889
	c-0.624-0.594-0.935-1.31-0.935-2.151c0-0.841,0.311-1.543,0.935-2.104c0.623-0.562,1.371-0.842,2.244-0.842h8.697v-5.892h-0.094
	c-5.861,0-11.472-1.09-16.833-3.273c-0.748-0.311-1.294-0.855-1.636-1.636c-0.343-0.779-0.359-1.543-0.047-2.292
	c0.311-0.748,0.856-1.276,1.637-1.589c0.779-0.312,1.543-0.312,2.291,0c0.748,0.313,1.527,0.593,2.338,0.841
	c0.81,0.25,1.604,0.484,2.385,0.702c0.779,0.219,1.574,0.406,2.385,0.561c0.81,0.156,1.636,0.28,2.478,0.374
	s1.683,0.173,2.525,0.234c0.842,0.063,1.667,0.093,2.478,0.093c5.611,0,10.832-0.981,15.664-2.945
	c4.831-1.964,8.978-4.66,12.438-8.089s6.172-7.575,8.136-12.438c1.964-4.862,2.946-10.1,2.946-15.711
	c0-6.794-1.715-13.123-5.143-18.983c-3.43-5.859-8.168-10.567-14.215-14.121c-0.687-0.436-1.138-1.043-1.356-1.823
	c-0.219-0.779-0.109-1.543,0.327-2.291c0.249-0.436,0.608-0.795,1.076-1.076C53.258,0.141,53.756,0,54.286,0
	c0.529,0,1.043,0.156,1.543,0.468c1.932,1.186,3.788,2.479,5.564,3.881c1.777,1.403,3.414,2.915,4.91,4.536
	c1.496,1.622,2.867,3.336,4.115,5.144c1.246,1.809,2.338,3.679,3.273,5.61c0.935,1.934,1.73,3.944,2.385,6.032
	c0.655,2.089,1.153,4.224,1.496,6.405c0.342,2.184,0.515,4.396,0.515,6.64C78.086,50.749,74.454,60.88,67.191,69.109z"/>
</svg>
