<?xml version="1.0" encoding="iso-8859-1"?>
<!-- Generator: Adobe Illustrator 24.0.1, SVG Export Plug-In . SVG Version: 6.00 Build 0)  -->
<svg version="1.1" id="icon" xmlns="http://www.w3.org/2000/svg" xmlns:xlink="http://www.w3.org/1999/xlink" x="0px" y="0px"
	 viewBox="0 0 95.761 95.762" style="enable-background:new 0 0 95.761 95.762;" xml:space="preserve">
<path d="M76.216,9.259c3.928,2.931,7.355,6.358,10.287,10.286c2.93,3.928,5.205,8.34,6.827,13.233
	c1.621,4.895,2.432,9.929,2.432,15.103c0,6.484-1.263,12.688-3.788,18.609c-2.525,5.924-5.924,11.021-10.193,15.29
	c-4.271,4.271-9.368,7.669-15.29,10.193c-5.923,2.525-12.126,3.788-18.61,3.788c-6.484,0-12.688-1.263-18.61-3.788
	c-5.923-2.524-11.02-5.922-15.29-10.193c-4.271-4.27-7.668-9.366-10.193-15.29C1.263,60.568,0,54.365,0,47.881
	c0-5.174,0.81-10.208,2.432-15.103c1.62-4.894,3.896-9.306,6.827-13.233c2.93-3.928,6.359-7.355,10.287-10.286
	c3.928-2.93,8.338-5.205,13.233-6.827C37.671,0.812,42.705,0,47.88,0c5.174,0,10.208,0.812,15.103,2.432
	C67.877,4.054,72.289,6.329,76.216,9.259z M64.152,86.55c5.174-2.212,9.632-5.204,13.373-8.978c3.741-3.771,6.717-8.244,8.931-13.42
	c2.212-5.174,3.32-10.598,3.32-16.271c0-5.672-1.107-11.097-3.32-16.271c-2.213-5.175-5.19-9.633-8.931-13.373
	c-3.741-3.741-8.199-6.718-13.373-8.931c-5.175-2.213-10.6-3.32-16.272-3.32c-5.674,0-11.098,1.107-16.271,3.32
	c-5.176,2.213-9.632,5.189-13.373,8.931c-3.741,3.74-6.719,8.198-8.931,13.373c-2.213,5.175-3.32,10.6-3.32,16.271
	c0,4.552,0.702,8.963,2.104,13.232c1.403,4.271,3.397,8.121,5.985,11.55c2.586,3.429,5.595,6.452,9.024,9.071
	c3.428,2.618,7.278,4.629,11.549,6.031c4.27,1.403,8.681,2.104,13.232,2.104C53.553,89.87,58.977,88.764,64.152,86.55z
	 M55.97,69.717c0.592,0.594,0.889,1.295,0.889,2.104c0,0.811-0.297,1.513-0.889,2.104c-0.593,0.594-1.294,0.889-2.104,0.889h-11.97
	c-0.811,0-1.512-0.295-2.104-0.889c-0.593-0.591-0.889-1.293-0.889-2.104c0-0.81,0.295-1.511,0.889-2.104
	c0.592-0.592,1.293-0.888,2.104-0.888h2.993v-23.94h-2.993c-0.811,0-1.512-0.296-2.104-0.889c-0.593-0.592-0.889-1.293-0.889-2.104
	c0-0.81,0.295-1.511,0.889-2.104c0.592-0.592,1.293-0.889,2.104-0.889h5.985c0.81,0,1.511,0.297,2.104,0.889
	c0.592,0.593,0.888,1.294,0.888,2.104v0.094v0.094v26.746h2.993C54.675,68.829,55.376,69.125,55.97,69.717z M41.896,26.934
	c0-1.684,0.576-3.102,1.73-4.256c1.153-1.152,2.572-1.729,4.255-1.729c1.684,0,3.101,0.577,4.255,1.729
	c1.153,1.154,1.73,2.572,1.73,4.256c0,1.683-0.577,3.102-1.73,4.255c-1.154,1.154-2.572,1.729-4.255,1.729
	c-1.683,0-3.102-0.575-4.255-1.729C42.471,30.035,41.896,28.616,41.896,26.934z"/>
</svg>
