<?xml version="1.0" encoding="iso-8859-1"?>
<!-- Generator: Adobe Illustrator 24.0.1, SVG Export Plug-In . SVG Version: 6.00 Build 0)  -->
<svg version="1.1" id="icon" xmlns="http://www.w3.org/2000/svg" xmlns:xlink="http://www.w3.org/1999/xlink" x="0px" y="0px"
	 viewBox="0 0 95.95 95.762" style="enable-background:new 0 0 95.95 95.762;" xml:space="preserve">
<path d="M57.045,95.762c-6.733,0-11.986-0.063-15.758-0.188c-3.773-0.125-6.672-0.39-8.697-0.795
	c-2.026-0.406-3.305-0.748-3.834-1.028c-0.53-0.28-1.388-0.827-2.572-1.637c-0.935-0.748-2.634-1.356-5.097-1.823
	c-2.463-0.468-6.562-0.889-12.297-1.263c-0.998-0.062-1.777-0.436-2.338-1.122c-0.125-0.188-0.374-0.592-0.748-1.216
	c-0.374-0.623-0.905-1.667-1.59-3.133c-0.687-1.464-1.325-3.07-1.917-4.816c-0.593-1.744-1.108-3.928-1.543-6.546
	C0.218,69.577,0,66.928,0,64.246c0-9.102,1.527-16.085,4.583-20.947c0.622-0.936,1.496-1.403,2.618-1.403
	c5.237,0,10.988-3.18,17.254-9.538C30.72,25.998,36.128,17.363,40.68,6.453c0.125-0.188,0.327-0.623,0.608-1.31
	c0.281-0.686,0.452-1.122,0.514-1.309c0.062-0.188,0.234-0.546,0.515-1.076c0.28-0.528,0.529-0.872,0.748-1.028
	c0.218-0.155,0.514-0.389,0.888-0.701c0.375-0.312,0.763-0.515,1.169-0.608c0.405-0.094,0.903-0.187,1.497-0.28
	C47.21,0.047,47.88,0,48.629,0c1.122,0,2.275,0.25,3.46,0.748c1.184,0.5,2.275,1.169,3.273,2.011
	c0.997,0.842,1.808,1.793,2.432,2.853c1.184,1.934,1.87,4.708,2.057,8.323c0.187,3.616,0.078,6.982-0.327,10.1
	c-0.406,3.118-0.951,6.11-1.637,8.978c11.097-0.062,18.641-0.094,22.631-0.094c3.678,0,6.654,0.998,8.931,2.993
	c2.275,1.996,3.444,4.614,3.507,7.855c0.062,2.744-0.219,4.832-0.842,6.266c1.06,1.061,1.948,2.166,2.666,3.319
	c0.716,1.154,1.106,2.447,1.169,3.881c0.061,2.932-1.372,5.924-4.302,8.978c0.061,0.126,0.187,0.421,0.374,0.889
	s0.327,0.857,0.421,1.169c0.093,0.313,0.171,0.701,0.234,1.169c0.061,0.468,0.093,0.921,0.093,1.355
	c-0.125,3.43-2.12,6.485-5.985,9.165c0.311,2.058,0.28,3.897-0.094,5.518C85.194,92.332,75.312,95.762,57.045,95.762z M10.38,82.949
	c10.224,0.812,16.708,2.245,19.452,4.302c0.996,0.749,1.87,1.248,2.618,1.497s2.993,0.483,6.733,0.701
	c3.741,0.219,9.693,0.327,17.862,0.327c2.555,0,4.877-0.062,6.967-0.188c2.088-0.124,4.503-0.342,7.248-0.654
	c2.743-0.312,4.957-0.872,6.64-1.684c1.683-0.809,2.68-1.838,2.993-3.086c0.248-1.309-0.344-2.712-1.777-4.208
	c-0.313-0.748-0.313-1.395,0-2.176c0.311-0.779,0.81-1.521,1.496-1.521h0.094c0.311,0,0.685-0.396,1.122-0.583
	c0.436-0.187,1.075-0.586,1.917-1.086c0.842-0.498,1.543-1.135,2.104-1.852c0.562-0.717,0.873-1.432,0.936-2.119
	c0-0.248-0.016-0.49-0.047-0.708c-0.032-0.218-0.063-0.424-0.094-0.612c-0.032-0.187-0.093-0.376-0.187-0.562
	c-0.093-0.188-0.172-0.343-0.234-0.469c-0.063-0.124-0.14-0.248-0.233-0.374c-0.094-0.124-0.172-0.235-0.234-0.327
	c-0.063-0.094-0.125-0.171-0.187-0.234c-0.063-0.062-0.126-0.154-0.187-0.28c-0.25-0.312-0.406-0.654-0.468-1.028
	c-0.063-0.374-0.063-0.748,0-1.122c0.062-0.375,0.202-0.732,0.421-1.076c0.218-0.342,0.482-0.639,0.795-0.888
	c0.374-0.188,0.779-0.452,1.216-0.795c0.436-0.343,0.982-0.982,1.636-1.918c0.655-0.935,0.982-1.87,0.982-2.805
	c-0.063-1.558-1.248-3.023-3.553-4.396c-0.375-0.248-0.687-0.545-0.936-0.889c-0.25-0.342-0.437-0.731-0.561-1.169
	c-0.063-0.248-0.079-0.515-0.047-0.795c0.031-0.28,0.094-0.561,0.187-0.842c0.094-0.28,0.234-0.545,0.421-0.795
	c0.062-0.061,0.125-0.14,0.187-0.233c0.062-0.094,0.187-0.327,0.374-0.701s0.342-0.732,0.468-1.076
	c0.124-0.342,0.234-0.763,0.327-1.262c0.094-0.499,0.141-0.966,0.141-1.403c-0.063-1.122-0.359-2.057-0.889-2.806
	c-0.53-0.748-1.216-1.262-2.057-1.543c-0.842-0.28-1.513-0.273-2.011-0.335c-0.5-0.062-0.998,0.085-1.496,0.085
	c-2.245,0-5.611,0-10.1,0s-8.417,0-11.783,0l-5.05-0.085c-0.25,0-0.5-0.12-0.748-0.183c-0.25-0.062-0.483-0.2-0.701-0.325
	c-0.219-0.125-0.421-0.287-0.608-0.443c-0.187-0.155-0.344-0.37-0.468-0.62c-0.561-0.81-0.655-1.75-0.28-2.811
	c0.996-2.866,1.791-6.018,2.384-9.447c0.592-3.429,0.873-6.703,0.842-9.821c-0.032-3.117-0.483-5.393-1.356-6.828
	c-0.063-0.124-0.187-0.342-0.374-0.655c-0.187-0.312-0.313-0.529-0.374-0.655c-0.063-0.124-0.203-0.295-0.421-0.514
	c-0.219-0.218-0.437-0.374-0.655-0.468c-0.219-0.094-0.514-0.188-0.888-0.28c-0.374-0.094-0.811-0.141-1.309-0.141
	c-0.187,0-0.375,0.062-0.562,0.187S47.6,6.579,47.226,7.014c-0.374,0.438-0.718,1.029-1.029,1.777
	c-4.801,11.596-10.6,20.84-17.394,27.728c-6.796,6.89-13.373,10.646-19.732,11.269c-0.5,1.122-0.936,2.245-1.31,3.367
	s-0.764,2.898-1.169,5.33c-0.406,2.432-0.608,5.02-0.608,7.762c0,2.806,0.281,5.597,0.842,8.37c0.561,2.774,1.137,4.956,1.73,6.546
	C9.148,80.752,9.756,82.015,10.38,82.949z"/>
</svg>
