<?xml version="1.0" encoding="iso-8859-1"?>
<!-- Generator: Adobe Illustrator 24.0.1, SVG Export Plug-In . SVG Version: 6.00 Build 0)  -->
<svg version="1.1" id="icon" xmlns="http://www.w3.org/2000/svg" xmlns:xlink="http://www.w3.org/1999/xlink" x="0px" y="0px"
	 viewBox="0 0 95.761 59.852" style="enable-background:new 0 0 95.761 59.852;" xml:space="preserve">
<path d="M11.082,0.889c0.592,0.594,0.889,1.295,0.889,2.104v5.985c0,0.811-0.297,1.512-0.889,2.104
	c-0.593,0.594-1.294,0.889-2.104,0.889H2.993c-0.811,0-1.513-0.295-2.104-0.889C0.295,10.49,0,9.789,0,8.979V2.993
	c0-0.81,0.295-1.511,0.888-2.104C1.48,0.297,2.182,0,2.993,0h5.985C9.787,0,10.488,0.297,11.082,0.889z M11.082,24.829
	c0.592,0.594,0.889,1.295,0.889,2.104v5.984c0,0.812-0.297,1.513-0.889,2.104c-0.593,0.593-1.294,0.889-2.104,0.889H2.993
	c-0.811,0-1.513-0.296-2.104-0.889C0.295,34.431,0,33.729,0,32.918v-5.984c0-0.81,0.295-1.511,0.888-2.104
	c0.592-0.592,1.293-0.889,2.104-0.889h5.985C9.787,23.94,10.488,24.237,11.082,24.829z M11.082,48.77
	c0.592,0.593,0.889,1.295,0.889,2.104v5.984c0,0.812-0.297,1.513-0.889,2.104c-0.593,0.593-1.294,0.889-2.104,0.889H2.993
	c-0.811,0-1.513-0.296-2.104-0.889C0.295,58.371,0,57.67,0,56.858v-5.984c0-0.81,0.295-1.512,0.888-2.104
	c0.592-0.592,1.293-0.889,2.104-0.889h5.985C9.787,47.881,10.488,48.178,11.082,48.77z M27.821,8.09
	c-0.593-0.592-0.889-1.293-0.889-2.104c0-0.81,0.295-1.511,0.889-2.104c0.592-0.592,1.293-0.889,2.104-0.889h62.843
	c0.81,0,1.511,0.297,2.104,0.889c0.592,0.593,0.889,1.294,0.889,2.104c0,0.812-0.297,1.513-0.889,2.104
	c-0.593,0.593-1.294,0.889-2.104,0.889H29.925C29.114,8.979,28.413,8.683,27.821,8.09z M94.873,27.821
	c0.592,0.594,0.889,1.295,0.889,2.104c0,0.811-0.297,1.513-0.889,2.104c-0.593,0.593-1.294,0.888-2.104,0.888H29.925
	c-0.811,0-1.512-0.295-2.104-0.888c-0.593-0.592-0.889-1.294-0.889-2.104c0-0.81,0.295-1.511,0.889-2.104
	c0.592-0.592,1.293-0.888,2.104-0.888h62.843C93.578,26.934,94.279,27.229,94.873,27.821z M94.873,51.762
	c0.592,0.594,0.889,1.295,0.889,2.104c0,0.811-0.297,1.513-0.889,2.104c-0.593,0.594-1.294,0.889-2.104,0.889H29.925
	c-0.811,0-1.512-0.295-2.104-0.889c-0.593-0.591-0.889-1.293-0.889-2.104c0-0.81,0.295-1.511,0.889-2.104
	c0.592-0.592,1.293-0.888,2.104-0.888h62.843C93.578,50.874,94.279,51.17,94.873,51.762z"/>
</svg>
