<?xml version="1.0" encoding="iso-8859-1"?>
<!-- Generator: Adobe Illustrator 24.0.1, SVG Export Plug-In . SVG Version: 6.00 Build 0)  -->
<svg version="1.1" id="icon" xmlns="http://www.w3.org/2000/svg" xmlns:xlink="http://www.w3.org/1999/xlink" x="0px" y="0px"
	 viewBox="0 0 96.042 95.738" style="enable-background:new 0 0 96.042 95.738;" xml:space="preserve">
<path d="M96.042,92.722c0,0.842-0.28,1.544-0.841,2.104c-0.25,0.248-0.515,0.451-0.795,0.608c-0.281,0.154-0.577,0.248-0.889,0.28
	c-0.313,0.03-0.624,0.03-0.935,0c-0.313-0.032-0.608-0.126-0.889-0.28c-0.28-0.157-0.546-0.36-0.794-0.608L64.526,68.268
	c-7.357,6.422-15.897,9.632-25.624,9.632c-7.046,0-13.56-1.729-19.545-5.189C13.373,69.249,8.65,64.526,5.19,58.542
	C1.73,52.557,0,46.026,0,38.95c0-7.075,1.73-13.606,5.19-19.592C8.65,13.373,13.373,8.65,19.358,5.19S31.857,0,38.903,0
	c5.298,0,10.348,1.029,15.15,3.086c4.8,2.058,8.931,4.833,12.391,8.323c3.46,3.492,6.219,7.638,8.276,12.438
	c2.058,4.802,3.086,9.852,3.086,15.15c0,9.414-3.024,17.737-9.071,24.969L95.2,90.618C95.761,91.179,96.042,91.881,96.042,92.722z
	 M67.379,55.362c2.96-5.05,4.442-10.535,4.442-16.459c0-5.922-1.481-11.409-4.442-16.459c-2.962-5.05-6.967-9.055-12.017-12.017
	c-5.05-2.961-10.553-4.442-16.506-4.442c-5.954,0-11.456,1.481-16.505,4.442c-5.05,2.962-9.041,6.967-11.97,12.017
	c-2.931,5.05-4.396,10.537-4.396,16.459c0,5.924,1.464,11.409,4.396,16.459c2.93,5.05,6.92,9.057,11.97,12.017
	c5.05,2.962,10.551,4.442,16.505,4.442c5.953,0,11.456-1.48,16.506-4.442C60.412,64.419,64.417,60.412,67.379,55.362z M55.97,36.799
	c0.592,0.594,0.888,1.295,0.888,2.104c0,0.811-0.296,1.513-0.888,2.104c-0.593,0.593-1.294,0.888-2.104,0.888H23.94
	c-0.874,0-1.59-0.295-2.151-0.888c-0.562-0.592-0.842-1.294-0.842-2.104c0-0.81,0.28-1.511,0.842-2.104
	c0.561-0.592,1.277-0.888,2.151-0.888h29.925C54.675,35.911,55.376,36.207,55.97,36.799z"/>
</svg>
