<?xml version="1.0" encoding="iso-8859-1"?>
<!-- Generator: Adobe Illustrator 24.0.1, SVG Export Plug-In . SVG Version: 6.00 Build 0)  -->
<svg version="1.1" id="icon" xmlns="http://www.w3.org/2000/svg" xmlns:xlink="http://www.w3.org/1999/xlink" x="0px" y="0px"
	 viewBox="0 0 53.866 95.762" style="enable-background:new 0 0 53.866 95.762;" xml:space="preserve">
<path d="M46.01,7.855c5.237,5.237,7.855,11.535,7.855,18.891v42.27c0,7.357-2.619,13.653-7.855,18.891
	c-5.237,5.236-11.535,7.855-18.891,7.855c-7.42,0-13.793-2.619-19.124-7.855C2.665,82.669,0,76.373,0,69.016v-42.27
	c0-7.355,2.665-13.653,7.996-18.891C13.326,2.619,19.7,0,27.12,0C34.476,0,40.773,2.619,46.01,7.855z M47.88,26.746
	c0-5.735-2.026-10.629-6.079-14.682c-4.053-4.053-8.947-6.079-14.682-6.079c-5.798,0-10.771,2.043-14.916,6.125
	c-4.147,4.084-6.219,8.963-6.219,14.636v42.27c0,5.674,2.072,10.553,6.219,14.636c4.145,4.084,9.118,6.125,14.916,6.125
	c5.735,0,10.629-2.025,14.682-6.078c4.052-4.053,6.079-8.946,6.079-14.683V26.746z M29.925,20.948v14.963
	c0,0.811-0.28,1.512-0.842,2.104c-0.561,0.594-1.262,0.889-2.104,0.889s-1.559-0.295-2.151-0.889
	c-0.593-0.592-0.888-1.293-0.888-2.104V20.948c0-0.81,0.295-1.511,0.888-2.104c0.592-0.592,1.309-0.889,2.151-0.889
	s1.543,0.297,2.104,0.889C29.645,19.438,29.925,20.139,29.925,20.948z"/>
</svg>
