<?xml version="1.0" encoding="iso-8859-1"?>
<!-- Generator: Adobe Illustrator 24.0.1, SVG Export Plug-In . SVG Version: 6.00 Build 0)  -->
<svg version="1.1" id="icon" xmlns="http://www.w3.org/2000/svg" xmlns:xlink="http://www.w3.org/1999/xlink" x="0px" y="0px"
	 viewBox="0 0 95.63 96.26" style="enable-background:new 0 0 95.63 96.26;" xml:space="preserve">
<path d="M74,51.715l6-5.704v43.766c0,1.684-0.338,3.35-1.491,4.504c-1.154,1.153-2.332,1.98-4.015,1.98H5.665
	c-1.622,0-2.865-0.826-4.048-1.98C0.432,93.126,0,91.46,0,89.776V14.963c0-1.62,0.432-2.882,1.617-4.067
	C2.801,9.713,4.044,9.26,5.665,9.26h47.974l0.187,0.195l-6.079,5.805H6v75h68V51.715z M95.629,13.279
	c0.061,3.306-1.466,6.547-4.583,9.727c-0.874,0.935-14.621,14.526-41.241,40.772c-0.313,0.313-0.655,0.531-1.029,0.655
	c-6.111,1.809-13.249,4.084-21.415,6.826c-0.25,0.063-0.5,0.094-0.749,0.094c-0.687,0-1.278-0.248-1.777-0.748
	c-0.25-0.188-0.437-0.421-0.561-0.701c-0.125-0.281-0.187-0.576-0.187-0.889c0-0.312,0.031-0.622,0.094-0.936
	c3.428-11.159,5.611-18.423,6.546-21.789c0-0.124,0.031-0.248,0.094-0.374c0.062-0.124,0.14-0.248,0.234-0.374
	c0.093-0.124,0.202-0.248,0.327-0.374l41.054-40.96C75.242,1.403,78.422,0,81.975,0c3.241,0,6.203,1.279,8.884,3.835
	C93.976,6.827,95.566,9.976,95.629,13.279z M89.643,13.373c-0.063-1.62-1.028-3.334-2.899-5.144
	c-1.559-1.496-3.149-2.244-4.769-2.244c-1.934,0-3.71,0.811-5.331,2.432C75.647,9.415,62.18,22.851,36.245,48.723
	c-0.687,2.494-2.151,7.42-4.395,14.775c3.054-0.996,5.892-1.917,8.51-2.759c2.619-0.842,4.55-1.449,5.798-1.823l1.87-1.777
	c24.127-23.814,37.033-36.596,38.716-38.342C88.676,16.803,89.643,14.995,89.643,13.373z"/>
</svg>
