<?xml version="1.0" encoding="iso-8859-1"?>
<!-- Generator: Adobe Illustrator 24.0.1, SVG Export Plug-In . SVG Version: 6.00 Build 0)  -->
<svg version="1.1" id="icon" xmlns="http://www.w3.org/2000/svg" xmlns:xlink="http://www.w3.org/1999/xlink" x="0px" y="0px"
	 viewBox="0 0 84.379 95.581" style="enable-background:new 0 0 84.379 95.581;" xml:space="preserve">
<path d="M41.223,84.733c0.311,0.5,0.451,1.029,0.295,1.59c-0.156,0.562-0.452,0.998-0.951,1.31l-0.92,0.468l-13.926,7.2
	c-1.122,0.562-2.023,0.281-2.708-0.841l-0.278-0.749c-0.313-0.499-0.389-1.028-0.233-1.589c0.155-0.562,0.482-0.83,0.982-1.078
	l7.575-3.79h-0.187c-0.063,0-0.125-0.169-0.187-0.231c-5.611-1.434-10.693-4.043-15.243-7.691
	c-4.552-3.646-8.168-8.091-10.848-13.267C2.1,61.201,0.62,56.056,0.152,50.664c-0.467-5.393,0.14-10.717,1.824-15.954
	c1.621-5.174,4.223-9.838,7.809-13.985c3.584-4.146,7.839-7.498,12.765-10.055c0.685-0.374,1.403-0.437,2.151-0.189
	c0.748,0.25,1.309,0.733,1.683,1.449c0.374,0.718,0.436,1.45,0.187,2.198c-0.25,0.748-0.717,1.308-1.403,1.682
	c-2.12,1.123-4.1,2.401-5.938,3.835c-1.84,1.435-3.507,3.024-5.003,4.769c-1.496,1.746-2.821,3.632-3.974,5.657
	c-1.155,2.026-2.074,4.161-2.759,6.406c-2.993,9.29-2.245,18.268,2.244,26.933c1.558,2.931,3.46,5.597,5.705,7.995
	c2.245,2.401,4.784,4.442,7.622,6.126c2.836,1.684,5.875,2.931,9.118,3.74c0.125,0.063,0.265,0.109,0.421,0.141
	c0.155,0.032,0.328,0.063,0.515,0.094c0.187,0.032,0.342,0.078,0.467,0.14l-5.517-8.604c-0.313-0.498-0.453-1.06-0.421-1.683
	c0.031-0.623,0.295-1.06,0.795-1.31l0.748-0.468c0.561-0.312,1.122-0.389,1.683-0.233c0.561,0.156,0.873,0.483,1.185,0.981
	l8.48,13.467v0.094L41.223,84.733z M84.224,45.222c0.467,5.394-0.126,10.708-1.777,15.945c-1.653,5.236-4.225,9.929-7.715,14.074
	c-3.492,4.146-7.668,7.467-12.531,9.959c-0.437,0.25-0.904,0.374-1.403,0.374c-1.185,0-2.026-0.528-2.525-1.59
	c-0.374-0.748-0.437-1.496-0.187-2.244c0.249-0.748,0.716-1.31,1.403-1.684c4.176-2.182,7.762-5.05,10.754-8.604
	s5.205-7.574,6.64-12.063c2.993-9.289,2.245-18.267-2.244-26.933c-0.687-1.246-1.419-2.446-2.198-3.601
	c-0.78-1.152-1.622-2.259-2.525-3.319c-0.905-1.06-1.871-2.058-2.899-2.993c-1.029-0.935-2.104-1.808-3.227-2.618
	c-1.122-0.81-2.291-1.558-3.507-2.244c-1.216-0.686-2.478-1.277-3.788-1.777c-1.309-0.498-2.65-0.935-4.021-1.309
	c-0.998-0.312-2.183-0.562-3.554-0.748l5.518,8.604c0.311,0.499,0.436,1.061,0.374,1.683c-0.063,0.624-0.343,1.062-0.842,1.31
	l-0.748,0.468c-0.5,0.313-1.029,0.39-1.59,0.233c-0.561-0.155-0.998-0.704-1.309-1.203l-8.604-13.689h-0.094l-0.467-0.714
	c-0.313-0.498-0.406-0.917-0.281-1.479c0.124-0.561,0.468-0.941,1.029-1.253l0.935-0.44L56.777,0.18C57.151,0.056,57.525,0,57.899,0
	s0.732,0.097,1.076,0.284c0.342,0.188,0.607,0.439,0.795,0.75l0.28,0.749c0.249,0.5,0.281,1.03,0.094,1.59
	c-0.187,0.562-0.562,0.998-1.123,1.31l-7.481,3.74c1.059,0.188,1.87,0.374,2.431,0.562c5.611,1.435,10.645,3.975,15.103,7.621
	c4.457,3.647,8.026,8.059,10.708,13.233C82.275,34.701,83.756,39.83,84.224,45.222z"/>
</svg>
