<?xml version="1.0" encoding="iso-8859-1"?>
<!-- Generator: Adobe Illustrator 24.0.1, SVG Export Plug-In . SVG Version: 6.00 Build 0)  -->
<svg version="1.1" id="icon" xmlns="http://www.w3.org/2000/svg" xmlns:xlink="http://www.w3.org/1999/xlink" x="0px" y="0px"
	 viewBox="0 0 96 95" style="enable-background:new 0 0 96 95;" xml:space="preserve">
<path d="M94.25,40.528c1.215,1.185,1.75,2.588,1.75,4.208v5.985c0,1.496-0.52,2.774-1.704,3.834
	c-1.185,1.061-2.551,1.776-4.171,2.15l-7.744,1.871c-0.561,1.746-1.269,3.46-2.141,5.143l4.119,6.921
	c0.873,1.435,1.359,2.868,1.452,4.302c0.094,1.435-0.389,2.838-1.449,4.208l-4.207,4.208c-1.248,1.122-2.681,1.669-4.301,1.637
	c-1.622-0.03-3.086-0.482-4.395-1.355l-6.733-4.302c-1.746,0.935-3.554,1.683-5.424,2.244l-1.684,7.762
	c-0.187,0.996-0.561,1.948-1.122,2.853c-0.561,0.902-1.309,1.486-2.245,2.08C53.316,94.868,52.318,95,51.259,95h-5.985
	c-1.496,0-2.775-0.429-3.834-1.613c-1.061-1.185-1.777-2.506-2.151-4.126l-1.871-7.627c-0.374-0.125-0.764-0.244-1.169-0.4
	c-0.406-0.155-0.811-0.301-1.216-0.458c-0.406-0.155-0.811-0.306-1.215-0.463c-0.406-0.155-0.795-0.325-1.169-0.512
	c-0.374-0.187-0.748-0.373-1.123-0.559l-6.92,4.396c-1.248,0.873-2.682,1.326-4.302,1.356c-1.622,0.032-3.056-0.514-4.302-1.637
	l-4.302-4.208c-1.061-1.37-1.543-2.773-1.45-4.208c0.094-1.434,0.576-2.867,1.45-4.302l4.395-7.295
	c-0.811-1.62-1.465-3.21-1.964-4.769L6.37,56.706c-1.622-0.374-3.218-1.09-4.401-2.15C0.784,53.496,0,52.218,0,50.721v-5.985
	c0-1.62,0.8-3.007,2.016-4.161c1.216-1.153,2.699-1.886,4.258-2.198l7.717-1.684c0.498-1.62,1.208-3.334,2.081-5.143l-4.383-7.295
	c-0.874-1.434-1.35-2.866-1.444-4.302c-0.093-1.434,0.392-2.836,1.453-4.208l4.303-4.208c0.748-0.748,1.652-1.23,2.713-1.45
	c1.059-0.217,2.104-0.217,3.133,0c1.029,0.22,1.948,0.608,2.759,1.169l6.92,4.396c0.936-0.498,1.885-0.949,2.853-1.355
	c0.966-0.405,1.948-0.763,2.946-1.076l1.964-7.668c0.374-1.62,1.075-2.807,2.104-3.992C42.421,0.377,43.714,0,45.273,0h5.985
	c1.558,0,2.93,0.392,4.115,1.608c1.184,1.216,1.932,2.463,2.244,3.959l1.684,7.801c0.248,0.063,0.514,0.114,0.794,0.207
	c0.281,0.093,0.545,0.173,0.795,0.267c0.249,0.094,0.515,0.196,0.795,0.32c0.281,0.126,0.545,0.23,0.795,0.324
	c0.249,0.094,0.499,0.201,0.748,0.325c0.249,0.126,0.499,0.249,0.749,0.373c0.248,0.126,0.498,0.25,0.748,0.374l6.733-4.302
	c0.623-0.374,1.31-0.685,2.058-0.935c0.748-0.248,1.511-0.389,2.291-0.421c0.779-0.03,1.558,0.094,2.338,0.374
	c0.779,0.28,1.45,0.701,2.011,1.263l4.208,4.208c0.749,0.748,1.216,1.652,1.403,2.712c0.187,1.061,0.141,2.073-0.14,3.039
	c-0.281,0.968-0.701,1.887-1.263,2.759l-4.114,6.921c0.935,1.87,1.683,3.71,2.244,5.517l7.632,1.684
	C91.682,38.627,93.034,39.344,94.25,40.528z M90.255,44.923c-0.187-0.311-0.624-0.528-1.309-0.654l-11.128-2.524l-1.029-3.273
	c-0.187-0.748-0.437-1.496-0.748-2.244c-0.313-0.748-0.687-1.527-1.122-2.338l-1.497-2.993l5.892-9.819
	c0.187-0.248,0.312-0.498,0.374-0.748c0.062-0.248,0.125-0.436,0.187-0.561l-3.928-3.834c-0.374,0-0.78,0.125-1.215,0.374
	l-9.632,6.172l-3.086-1.59c-1.497-0.748-3.025-1.371-4.583-1.87l-3.273-1.122L51.726,6.581c-0.063-0.061-0.109-0.154-0.14-0.28
	c-0.032-0.124-0.063-0.218-0.094-0.28c-0.032-0.062-0.079,0.1-0.14,0.036L51.259,6h-5.518c-0.313,0-0.53,0.65-0.655,1.272
	l-2.712,10.737l-3.18,0.972c-1.683,0.561-3.305,1.22-4.863,2.03l-3.086,1.576L21.24,16.221l-1.029-0.471l-3.928,3.926
	c0,0.188,0.062,0.42,0.187,0.7c0.125,0.28,0.249,0.546,0.374,0.794l6.079,10.099l-1.496,2.899c-0.748,1.559-1.309,2.992-1.683,4.302
	l-1.029,3.273L7.399,44.268c-0.126,0-0.266,0.047-0.421,0.141c-0.156,0.094-0.466,0.172-0.559,0.233C6.325,44.706,6,44.736,6,44.736
	v5.518c1,0.25,1.057,0.437,1.681,0.561l11.034,2.806l1.075,3.18c0.436,1.248,1.02,2.558,1.707,3.928l1.414,2.899L16.838,73.82
	c-0.313,0.499-0.497,0.967-0.558,1.402l3.929,3.834c0.374,0,0.78-0.154,1.217-0.468l9.82-6.266l3.086,1.59
	c0.187,0.126,0.374,0.234,0.561,0.328c0.187,0.093,0.358,0.172,0.515,0.233c0.155,0.063,0.327,0.141,0.514,0.233
	c0.187,0.094,0.374,0.173,0.561,0.234c0.187,0.063,0.374,0.14,0.561,0.233s0.374,0.173,0.561,0.234
	c0.187,0.063,0.374,0.125,0.561,0.187c0.188,0.063,0.358,0.126,0.515,0.188c0.155,0.063,0.327,0.125,0.514,0.187L42.374,77
	l2.806,10.862c0.124,0.5,0.311,1.138,0.561,1.138h5.424c0.124,0,0.249-0.123,0.374-0.343c0.125-0.218,0.218-0.365,0.281-0.615
	l2.431-11.085l3.273-1.102c0.498-0.124,0.997-0.284,1.496-0.503c0.498-0.218,0.997-0.43,1.496-0.65
	c0.499-0.218,0.997-0.448,1.497-0.698l3.086-1.589l9.819,6.266c0.061,0.063,0.187,0.141,0.374,0.235
	c0.187,0.093,0.405,0.172,0.654,0.234l3.928-3.928c-0.063-0.436-0.25-0.936-0.561-1.496l-5.892-9.726l1.497-2.993
	c0.374-0.685,0.701-1.387,0.982-2.104c0.28-0.716,0.545-1.45,0.795-2.198l1.028-3.086l11.129-2.806
	c0.187-0.061,0.374-0.124,0.561-0.187c0.187-0.062,0.342-0.124,0.467-0.188c0.125-0.061,0.218-0.124,0.281-0.187L90.255,44.923z
	 M66.315,47.448c0,2.432-0.468,4.755-1.403,6.967c-0.935,2.214-2.214,4.131-3.834,5.752c-1.622,1.621-3.539,2.898-5.751,3.834
	c-2.214,0.935-4.568,1.402-7.061,1.402c-4.926,0-9.15-1.744-12.671-5.236c-3.523-3.491-5.284-7.73-5.284-12.719
	c0-4.987,1.761-9.226,5.284-12.718c3.521-3.491,7.762-5.237,12.718-5.237c4.956,0,9.195,1.746,12.718,5.237
	C64.553,38.222,66.315,42.461,66.315,47.448z M54.298,57.829c1.838-1.06,3.288-2.51,4.349-4.349c1.059-1.839,1.59-3.85,1.59-6.032
	c0-3.304-1.169-6.125-3.507-8.463s-5.16-3.507-8.463-3.507c-3.305,0-6.125,1.169-8.463,3.507s-3.507,5.159-3.507,8.463
	c0,3.306,1.169,6.125,3.507,8.463s5.158,3.507,8.463,3.507C50.448,59.418,52.458,58.889,54.298,57.829z"/>
</svg>
