<?xml version="1.0" encoding="iso-8859-1"?>
<!-- Generator: Adobe Illustrator 24.0.1, SVG Export Plug-In . SVG Version: 6.00 Build 0)  -->
<svg version="1.1" id="icon" xmlns="http://www.w3.org/2000/svg" xmlns:xlink="http://www.w3.org/1999/xlink" x="0px" y="0px"
	 viewBox="0 0 94.228 94.92" style="enable-background:new 0 0 94.228 94.92;" xml:space="preserve">
<path d="M66.023,32.918c-2.992-3.18-5.83-5.288-8.51-6.411c-2.682-1.122-5.581-1.736-8.697-1.736h-0.187
	c-6.048,0-11.378,2.189-15.991,6.645c-4.615,4.458-6.92,9.939-6.92,16.485c0,6.609,2.416,11.746,7.248,15.892
	c4.831,4.146,10.021,5.978,15.571,5.978h0.093c3.554,0,6.841-0.323,9.866-1.601c3.023-1.277,5.875-3.399,8.557-7.399H43.899V36.753
	l48.984,0.187c0.872,4.552,1.346,8.448,1.346,11.689c0,13.653-4.206,24.782-12.653,33.386C73.127,90.618,61.993,94.92,48.152,94.92
	c-6.546,0-12.776-1.248-18.699-3.74c-5.924-2.493-11.033-5.86-15.335-10.101c-4.302-4.238-7.73-9.288-10.285-15.149
	C1.276,60.07,0,53.898,0,47.413c0-8.665,2.151-16.63,6.453-23.894C10.755,16.258,16.6,10.521,23.987,6.313
	C31.375,2.104,39.432,0,48.161,0c6.857,0,13.481,1.403,19.873,4.209c6.39,2.806,11.673,7.014,15.851,12.624L66.023,32.918z
	 M48.899,41.772v14H73.13c-0.25,2-0.687,2.913-1.309,4.377c-0.624,1.466-1.606,3.117-2.946,4.831
	c-1.342,1.716-2.885,3.273-4.629,4.614c-1.746,1.341-3.99,2.463-6.733,3.335c-2.744,0.874-5.737,1.317-8.978,1.317
	c-7.42,0-13.747-2.615-18.984-7.852c-5.237-5.237-7.855-11.501-7.855-18.795c0-7.295,2.649-13.59,7.949-18.89
	c5.298-5.298,11.596-7.949,18.891-7.949c6.92,0,12.686,2.245,17.3,6.734l11.783-11.128C69.638,8.885,59.944,5.143,48.536,5.143
	c-11.97,0-22.196,4.131-30.674,12.392C9.383,25.797,5.144,35.817,5.144,47.601c0,11.722,4.239,21.712,12.718,29.972
	c8.478,8.262,18.704,12.392,30.674,12.392c12.531,0,22.599-3.85,30.206-11.55c7.605-7.699,11.409-17.55,11.409-29.707
	c0-2.556-0.187-4.935-0.561-6.935H48.899z"/>
</svg>
