<?xml version="1.0" encoding="iso-8859-1"?>
<!-- Generator: Adobe Illustrator 24.0.1, SVG Export Plug-In . SVG Version: 6.00 Build 0)  -->
<svg version="1.1" id="icon" xmlns="http://www.w3.org/2000/svg" xmlns:xlink="http://www.w3.org/1999/xlink" x="0px" y="0px"
	 viewBox="0 0 63 95.848" style="enable-background:new 0 0 63 95.848;" xml:space="preserve">
<path d="M33.385,0c1.683,0,2.916,0.62,4.07,1.774C38.608,2.928,39,4.388,39,6.072V21h15.333c1.683,0,2.942,0.595,4.096,1.747
	C59.582,23.901,60,25.337,60,27.02v8.978c0,1.621-0.418,3.033-1.571,4.217C57.275,41.399,56.016,42,54.333,42H39v19.995
	c0,1.496,0.246,2.821,0.278,3.975c0.031,1.154,0.194,1.917,0.257,2.291c0.061,0.374,0.182,0.687,0.245,0.936
	c0.623,0.748,1.806,1.122,3.489,1.122c4.115,0,7.62-1.09,10.489-3.273c1.059-0.748,2.251-1.122,3.56-1.122
	c0.936,0,1.687,0.188,2.561,0.562C62.06,67.606,63,69.415,63,71.908v13.934c0,1.122-0.158,2.184-0.78,3.18
	c-0.624,0.997-1.357,1.745-2.354,2.244c-2.494,1.184-5.853,2.275-10.155,3.273l-0.635,0.188c-3.305,0.748-6.849,1.122-10.651,1.122
	c-2.931,0-5.638-0.313-8.131-0.936c-2.495-0.624-4.58-1.419-6.263-2.385c-1.684-0.967-3.211-2.136-4.581-3.507
	c-1.372-1.37-2.463-2.712-3.272-4.021c-0.811-1.309-1.262-2.712-1.823-4.208C13.294,78.112,13,74.465,13,69.85V42H6.452
	c-0.811,0-1.59-0.163-2.338-0.476c-0.748-0.312-1.403-0.753-1.964-1.314c-0.561-0.562-1.215-1.218-1.496-1.966
	C0.374,37.496,0,36.715,0,35.904v-9.165c0-1.06,0.514-2.041,1.075-2.945c0.561-0.903,1.41-1.621,2.314-2.151
	c0.903-0.528,1.944-0.795,3.004-0.795c0.436,0,0.902-0.03,1.339-0.093c0.435-0.062,1.011-0.218,1.698-0.468
	c0.686-0.249,1.347-0.576,1.971-0.982c0.623-0.404,1.25-0.981,1.874-1.729c0.623-0.748,1.171-1.621,1.639-2.619
	c0.468-0.996,0.843-2.259,1.123-3.787c0.281-1.527,0.421-3.227,0.421-5.097c0-1.684,0.592-3.144,1.777-4.298
	C19.419,0.62,20.822,0,22.444,0H33.385z M22.444,6c0,3-0.297,5.523-0.889,7.891c-0.593,2.37-1.388,4.289-2.385,5.722
	c-0.998,1.436-2.057,2.66-3.179,3.656c-1.123,0.998-2.324,1.751-3.601,2.249c-1.278,0.5-2.611,0.844-3.546,1.032
	C7.91,26.737,7,26.833,6,26.833V36h13v33.85c0,3.866,0.132,6.796,0.88,8.791c2.993,7.481,9.137,11.222,18.676,11.222
	c3.304,0,6.167-0.342,9.035-1.028C51.954,87.838,55,86.84,57,85.842V71.908c-4,2.931-8.441,4.396-13.865,4.396
	c-0.748,0-1.384-0.062-2.07-0.188c-0.687-0.124-1.268-0.28-1.829-0.468c-0.562-0.187-1.071-0.404-1.57-0.654
	c-0.5-0.248-0.911-0.515-1.253-0.795c-0.343-0.28-0.665-0.592-0.977-0.936c-0.313-0.342-0.558-0.669-0.746-0.981
	c-0.187-0.312-0.342-0.622-0.467-0.936c-0.187-0.498-0.343-1.169-0.467-2.011c-0.126-0.841-0.442-1.87-0.473-3.086
	C33.253,65.034,33,63.617,33,61.995V36h21v-9H33V6H22.444z"/>
</svg>
