<?xml version="1.0" encoding="iso-8859-1"?>
<!-- Generator: Adobe Illustrator 24.0.1, SVG Export Plug-In . SVG Version: 6.00 Build 0)  -->
<svg version="1.1" id="icon" xmlns="http://www.w3.org/2000/svg" xmlns:xlink="http://www.w3.org/1999/xlink" x="0px" y="0px"
	 viewBox="0 0 95.84 92.77" style="enable-background:new 0 0 95.84 92.77;" xml:space="preserve">
<path d="M94.748,22.06L79.295,34.984L92.5,45.474c0.375,0.25,0.656,0.594,0.843,1.03c0.188,0.438,0.281,0.906,0.281,1.405
	c-0.063,1-0.5,1.78-1.311,2.342L80.7,58.024c0,0.187,0,0.375,0,0.562v14.142c0,1.063-0.468,1.905-1.405,2.529L49.512,92.302
	c-0.25,0.188-0.515,0.312-0.796,0.375c-0.281,0.062-0.547,0.094-0.796,0.094c-0.562,0-1.093-0.157-1.592-0.468L16.17,75.257
	c-0.937-0.624-1.405-1.466-1.405-2.529V60.646c0-0.874,0.342-1.592,1.03-2.154L3.527,50.25c-0.875-0.562-1.328-1.342-1.358-2.342
	c-0.032-0.998,0.359-1.81,1.171-2.435l13.206-10.489L1.092,22.06c-0.813-0.686-1.171-1.529-1.077-2.529
	c0.094-0.998,0.577-1.779,1.452-2.341L28.158,0.519c1.186-0.749,2.342-0.687,3.465,0.188L47.92,13.912L64.216,0.706
	c1.124-0.874,2.278-0.937,3.465-0.188l26.692,16.671c0.874,0.5,1.358,1.265,1.452,2.294C95.919,20.514,95.559,21.373,94.748,22.06z
	 M21.509,31.331l21.354-13.861L29.47,6.7L8.116,20.093L21.509,31.331z M10.27,47.628l20.417,13.58l11.988-9.178L21.509,38.73
	L10.27,47.628z M20.759,71.042l23.977,13.393V58.024l-12.082,9.272c-0.562,0.375-1.156,0.562-1.779,0.562
	c-0.625,0-1.218-0.155-1.78-0.468l-8.335-5.62V71.042z M47.92,21.31L26.847,35.078L47.92,48.19l21.073-13.112L47.92,21.31z
	 M74.705,71.042v-9.084l-8.054,5.432c-0.25,0.126-0.515,0.234-0.796,0.328c-0.281,0.094-0.578,0.141-0.89,0.141
	c-0.313,0-0.625-0.047-0.937-0.141c-0.313-0.094-0.594-0.234-0.843-0.421l-12.457-9.553v26.88L74.705,71.042z M87.724,20.093
	L66.37,6.7L52.977,17.471l21.354,13.861L87.724,20.093z M74.331,38.73L53.164,52.03l11.895,9.178l20.417-13.674L74.331,38.73z"/>
</svg>
