<?xml version="1.0" encoding="iso-8859-1"?>
<!-- Generator: Adobe Illustrator 24.0.1, SVG Export Plug-In . SVG Version: 6.00 Build 0)  -->
<svg version="1.1" id="icon" xmlns="http://www.w3.org/2000/svg" xmlns:xlink="http://www.w3.org/1999/xlink" x="0px" y="0px"
	 viewBox="0 0 95.388 47.6" style="enable-background:new 0 0 95.388 47.6;" xml:space="preserve">
<path d="M5.105,40.773c-0.593,0.561-1.298,0.842-2.108,0.842c-0.811,0-1.515-0.281-2.106-0.842C0.298,40.212,0,39.526,0,38.716
	v-11.97c0-0.81,0.296-1.512,0.889-2.104c0.591-0.592,1.293-0.889,2.104-0.889c0.561,0,1.059,0.141,1.496,0.421
	c0.436,0.28,0.802,0.654,1.083,1.122C5.853,25.764,6,26.247,6,26.746v11.97C6,39.526,5.696,40.212,5.105,40.773z M14.87,47.6
	c-0.313,0-0.624-0.047-0.935-0.14c-0.313-0.094-0.577-0.234-0.795-0.421c-0.219-0.188-0.421-0.405-0.608-0.655
	c-0.187-0.248-0.313-0.514-0.406-0.795C12.032,45.309,12,44.981,12,44.607V20.761c0-0.249,0.016-0.498,0.079-0.748
	c0.062-0.249,0.148-0.482,0.274-0.701c0.124-0.218,0.277-0.421,0.464-0.608c0.187-0.187,0.387-0.342,0.606-0.468
	c0.218-0.124,0.451-0.218,0.701-0.28c0.249-0.062,0.498-0.094,0.748-0.094c0.873,0,1.658,0.281,2.219,0.842
	c0.561,0.562,0.91,1.248,0.91,2.058v23.847c0,0.811-0.349,1.513-0.91,2.104C16.528,47.305,15.742,47.6,14.87,47.6z M24.812,46.758
	C24.219,46.197,24,45.481,24,44.607V10.38c0-0.81,0.219-1.511,0.812-2.104c0.592-0.592,1.255-0.889,2.066-0.889
	c0.498,0,0.963,0.126,1.431,0.374c0.467,0.25,0.915,0.607,1.196,1.075C29.785,9.305,30,9.819,30,10.38v34.228
	c0,0.811-0.38,1.513-0.972,2.104C28.434,47.305,27.73,47.6,26.92,47.6C26.109,47.6,25.404,47.319,24.812,46.758z M41.013,46.712
	c-0.561,0.593-1.335,0.888-2.177,0.888s-1.488-0.28-2.049-0.842C36.226,46.197,36,45.481,36,44.607v-32.73
	c0-0.81,0.19-1.512,0.751-2.104c0.561-0.592,1.217-0.889,2.058-0.889s1.666,0.297,2.227,0.889C41.597,10.365,42,11.067,42,11.877
	v32.73C42,45.418,41.574,46.12,41.013,46.712z M90.992,43.05c-2.931,2.899-6.453,4.148-10.567,4.148h-5.892
	c-0.874,0-1.59-0.079-2.151-0.641c-0.561-0.561-0.841-1.176-0.841-2.05c0-0.188,0.014-0.308,0.046-0.464
	c0.031-0.154,0.078-0.285,0.141-0.443c0.061-0.154,0.14-0.298,0.233-0.454c0.094-0.155,0.187-0.29,0.281-0.415
	c0.093-0.124,0.202-0.246,0.327-0.371c0.125-0.125,0.265-0.216,0.421-0.28c0.155-0.061,0.312-0.123,0.468-0.186
	c0.155-0.062,0.327,0.137,0.514,0.105c0.187-0.03,0.374,0.198,0.561,0.198h5.892c1.621,0,3.117-0.649,4.489-1.461
	c1.371-0.81,2.462-2.023,3.273-3.395c0.81-1.371,1.216-2.928,1.216-4.55c0-0.996-0.156-1.978-0.467-2.882
	c-0.313-0.903-0.734-1.73-1.263-2.447c-0.53-0.716-1.169-1.364-1.917-1.925c-0.748-0.562-1.575-1.001-2.478-1.313
	c-0.905-0.312-1.856-0.47-2.853-0.47c-1.248,0-2.447-0.249-3.6-0.749c-1.155-0.498-2.141-1.184-2.95-2.058
	C73.064,20.076,72,19.047,72,17.861v-0.094c-1-2.118-1.96-4.052-3.456-5.798c-1.497-1.744-3.287-3.133-5.375-4.161
	c-2.089-1.028-4.317-1.637-6.685-1.823c-0.561,0-1.044,0.14-1.449,0.421c-0.406,0.28-0.573,0.64-0.821,1.075
	C53.964,7.918,54,8.386,54,8.884v35.724c0,0.437-0.239,0.827-0.394,1.169c-0.156,0.344-0.454,0.654-0.735,0.936
	c-0.28,0.28-0.648,0.499-1.022,0.654c-0.374,0.156-0.768,0.233-1.142,0.233c-0.811,0-1.369-0.295-1.961-0.888
	C48.153,46.12,48,45.418,48,44.607V8.884c0-0.935,0.002-1.854,0.315-2.759c0.311-0.902,0.655-1.714,1.186-2.432
	c0.529-0.716,1.115-1.355,1.832-1.917c0.716-0.561,1.508-0.996,2.413-1.309C54.648,0.156,55.59,0,56.588,0
	c4.8,0.25,9.097,1.823,12.9,4.723c3.802,2.898,6.481,6.563,8.04,10.988l0.092,0.261c0.436,1.372,1.369,2.226,2.804,2.226h0.094
	c0.061,0,0.14,0,0.233,0c0.094,0,0.171,0,0.234,0h0.094c3.989,0,7.372,1.469,10.146,4.368c2.773,2.898,4.162,6.159,4.162,10.148
	C95.388,36.829,93.922,40.151,90.992,43.05z M62.563,41.615c0.81,0,1.511,0.296,2.104,0.888c0.592,0.594,0.888,1.295,0.888,2.104
	c0,0.811-0.296,1.513-0.888,2.104c-0.593,0.593-1.295,0.888-2.104,0.888c-0.5,0-0.982-0.14-1.449-0.421
	c-0.468-0.28-0.842-0.639-1.122-1.075c-0.281-0.436-0.421-0.919-0.421-1.449c0-0.529,0.14-1.029,0.421-1.496
	c0.28-0.468,0.654-0.842,1.122-1.123C61.581,41.755,62.064,41.615,62.563,41.615z"/>
</svg>
