<?xml version="1.0" encoding="iso-8859-1"?>
<!-- Generator: Adobe Illustrator 24.0.1, SVG Export Plug-In . SVG Version: 6.00 Build 0)  -->
<svg version="1.1" id="icon" xmlns="http://www.w3.org/2000/svg" xmlns:xlink="http://www.w3.org/1999/xlink" x="0px" y="0px"
	 viewBox="0 0 68.345 96.36" style="enable-background:new 0 0 68.345 96.36;" xml:space="preserve">
<path d="M0.2,7.588c0-0.187-0.069-0.614-0.006-0.801C1.564,2.424,4.333,0,8.884,0c2.432,0,5.127,0,8.089,0c2.96,0,5.611,0,7.949,0
	s5.097,0,8.276,0s5.829,0,7.949,0h18.516c1.496,0,2.806,0.428,3.928,0.802c2.806,0.748,4.363,2.738,4.676,5.731
	c0.249,1.809-0.094,4.955-1.029,9.318c-1.061,5.362-2.618,13.014-4.676,22.895c-2.057,9.882-3.336,15.992-3.834,18.297
	c-0.374,1.87-0.842,3.559-1.403,4.619C55.891,64.343,53.335,66,49.657,66c-4.739,0-9.478,0-14.214,0
	c-0.874,0-1.559,0.064-2.058,0.626c-2.557,2.992-5.924,6.812-10.1,11.675C14.556,88.401,9.85,93.802,9.165,94.612
	c-1.372,1.558-3.242,2.061-5.611,1.563C1.745,95.739,0.561,94.478,0,92.421c0-0.063,0.161-0.164,0.1-0.288
	c-0.063-0.125,0.1-0.226,0.1-0.287V7.588z M7.668,86.89c0.061-0.062,0.187-0.125,0.187-0.188l0.234-0.28
	c2.432-3.054,5.478-6.827,9.095-11.315c4.55-5.735,7.96-9.798,10.205-12.604C28.885,60.633,30.797,60,33.105,60
	c2.057,0,7.449,0,16.178,0c1.247,0,2.182-0.472,2.806-1.004c0.622-0.528,1.09-1.521,1.402-2.769c0.125-0.872,0.482-2.764,1.076-5.57
	c0.592-2.806,1.043-4.982,1.356-6.478c0.249-1.371,0.078-2.429-0.514-3.146c-0.593-0.716-1.575-1.082-2.946-1.082
	c-10.661,0-16.459,0.028-17.394,0.09c-2.495,0.063-4.318-0.469-5.471-1.591c-1.155-1.122-1.637-3.044-1.45-5.538
	C28.335,29.048,30.267,27,33.946,27H56.11c1.184,0,2.072-0.12,2.665-0.588c0.592-0.468,1.013-1.206,1.263-2.328
	c0.623-3.117,1.434-6.967,2.432-11.83C63.091,9.324,61.908,8,58.916,8H11.409C9.974,8,8.79,8.183,8.229,8.775
	C7.668,9.369,7.2,10.269,7.2,11.703v73.784C7.2,86.111,7.481,86.579,7.668,86.89z"/>
</svg>
