<?xml version="1.0" encoding="iso-8859-1"?>
<!-- Generator: Adobe Illustrator 24.0.1, SVG Export Plug-In . SVG Version: 6.00 Build 0)  -->
<svg version="1.1" id="icon" xmlns="http://www.w3.org/2000/svg" xmlns:xlink="http://www.w3.org/1999/xlink" x="0px" y="0px"
	 viewBox="0 0 95.761 95.762" style="enable-background:new 0 0 95.761 95.762;" xml:space="preserve">
<path d="M72.849,2.946c4.613,1.964,8.587,4.614,11.923,7.949c3.334,3.335,6,7.31,7.996,11.923c1.994,4.614,2.992,9.461,2.992,14.542
	c0,5.082-0.998,9.929-2.992,14.542c-1.996,4.614-4.662,8.589-7.996,11.923c-3.336,3.336-7.31,6.001-11.923,7.996
	c-4.614,1.996-9.445,2.992-14.495,2.992c-9.227,0-17.333-3.023-24.314-9.071L22.07,77.807l12.812,12.905
	c0.187,0.187,0.358,0.421,0.515,0.701c0.155,0.28,0.248,0.575,0.28,0.889c0.031,0.311,0.031,0.622,0,0.935
	c-0.032,0.312-0.125,0.608-0.28,0.889c-0.157,0.28-0.328,0.545-0.515,0.795c-0.624,0.561-1.341,0.842-2.151,0.842
	c-0.811,0-1.496-0.281-2.057-0.842L17.861,82.015L5.143,94.826c-0.561,0.562-1.262,0.842-2.104,0.842s-1.559-0.28-2.151-0.842
	C0.295,94.266,0,93.563,0,92.722c0-0.841,0.311-1.543,0.935-2.104l12.718-12.812L1.028,64.994c-0.187-0.187-0.343-0.374-0.467-0.561
	c-0.81-1.371-0.655-2.587,0.467-3.647c0.561-0.622,1.247-0.936,2.058-0.936c0.81,0,1.527,0.313,2.151,0.936l12.625,12.719
	l11.877-11.971c-5.861-6.981-8.791-15.023-8.791-24.127c0-6.795,1.667-13.061,5.003-18.797c3.334-5.735,7.87-10.271,13.606-13.606
	C45.292,1.669,51.558,0,58.354,0C63.404,0,68.235,0.982,72.849,2.946z M63.404,68.408c1.683-0.281,3.304-0.67,4.863-1.169
	c1.558-0.499,3.07-1.123,4.536-1.871c1.464-0.748,2.836-1.604,4.115-2.571c1.277-0.966,2.493-2.025,3.647-3.18
	c1.153-1.153,2.212-2.368,3.18-3.647c0.966-1.276,1.823-2.648,2.572-4.114c0.748-1.464,1.371-2.977,1.87-4.536
	c0.498-1.558,0.888-3.179,1.169-4.862s0.421-3.367,0.421-5.05c0-2.867-0.374-5.658-1.122-8.37c-0.749-2.712-1.793-5.221-3.133-7.528
	c-1.342-2.306-2.978-4.426-4.91-6.358c-1.933-1.932-4.054-3.585-6.359-4.957c-2.307-1.37-4.832-2.431-7.575-3.18
	c-2.744-0.748-5.518-1.122-8.323-1.122c-5.736,0-11.02,1.403-15.851,4.209c-4.832,2.805-8.65,6.625-11.456,11.455
	c-2.806,4.832-4.208,10.116-4.208,15.852c0,4.24,0.826,8.309,2.479,12.204c1.651,3.896,3.896,7.247,6.733,10.053
	c2.836,2.806,6.187,5.035,10.053,6.687c3.865,1.652,7.949,2.479,12.25,2.479C60.038,68.829,61.721,68.688,63.404,68.408z"/>
</svg>
