<?xml version="1.0" encoding="iso-8859-1"?>
<!-- Generator: Adobe Illustrator 24.0.1, SVG Export Plug-In . SVG Version: 6.00 Build 0)  -->
<svg version="1.1" id="icon" xmlns="http://www.w3.org/2000/svg" xmlns:xlink="http://www.w3.org/1999/xlink" x="0px" y="0px"
	 viewBox="0 0 95.904 95.905" style="enable-background:new 0 0 95.904 95.905;" xml:space="preserve">
<path d="M95.857,41.865c-0.032,0.688-0.203,1.515-0.515,2.482c-0.313,0.969-0.781,1.765-1.405,2.388l-47.39,47.39
	c-1.187,1.186-2.623,1.78-4.308,1.78c-1.686,0-3.091-0.594-4.215-1.78L1.779,57.88c-0.562-0.562-1-1.201-1.311-1.92
	C0.155,55.243,0,54.478,0,53.666c0-1.686,0.593-3.122,1.779-4.308L49.17,1.967C50.481,0.656,52.853,0,56.288,0h32.312
	c1.998,0,3.714,0.719,5.151,2.154c1.436,1.437,2.154,3.153,2.154,5.151v31.656C95.904,40.211,95.888,41.178,95.857,41.865z
	 M89.911,39.055V7.305c0-0.375-0.126-0.686-0.375-0.937c-0.25-0.249-0.562-0.375-0.937-0.375h-31h-1.311c-0.188,0-0.344,0-0.468,0
	c-0.126,0-0.297,0-0.515,0c-0.219,0-0.421,0.016-0.609,0.047c-0.187,0.032-0.375,0.047-0.562,0.047
	c-0.187,0-0.344,0.016-0.468,0.047c-0.125,0.032-0.219,0.079-0.281,0.14L5.994,53.666l36.245,36.245l47.39-47.39
	C89.817,42.208,89.911,41.054,89.911,39.055z M77.969,13.581c1.841,1.062,3.292,2.514,4.355,4.355
	c1.061,1.842,1.592,3.856,1.592,6.041c0,3.311-1.171,6.135-3.512,8.476s-5.167,3.512-8.476,3.512c-2.186,0-4.2-0.53-6.041-1.592
	c-1.843-1.061-3.294-2.513-4.355-4.355c-1.062-1.841-1.592-3.854-1.592-6.041c0-3.309,1.17-6.134,3.512-8.476
	c2.342-2.342,5.166-3.512,8.476-3.512C74.113,11.988,76.127,12.52,77.969,13.581z M77.922,23.976c0-1.686-0.578-3.105-1.733-4.261
	c-1.156-1.155-2.561-1.732-4.214-1.732c-1.655,0-3.076,0.578-4.261,1.732c-1.187,1.156-1.78,2.576-1.78,4.261
	c0,1.686,0.593,3.107,1.78,4.262c1.185,1.156,2.606,1.732,4.261,1.732c1.654,0,3.059-0.577,4.214-1.732
	C77.344,27.083,77.922,25.662,77.922,23.976z"/>
</svg>
