<?xml version="1.0" encoding="iso-8859-1"?>
<!-- Generator: Adobe Illustrator 24.0.1, SVG Export Plug-In . SVG Version: 6.00 Build 0)  -->
<svg version="1.1" id="icon" xmlns="http://www.w3.org/2000/svg" xmlns:xlink="http://www.w3.org/1999/xlink" x="0px" y="0px"
	 viewBox="0 0 92.908 84.296" style="enable-background:new 0 0 92.908 84.296;" xml:space="preserve">
<path d="M53.946,3.001v78.297c0,1.187-0.531,2.061-1.592,2.622c-0.438,0.249-0.906,0.375-1.405,0.375
	c-0.25,0-0.515-0.047-0.796-0.141c-0.281-0.094-0.547-0.234-0.796-0.421l-29.97-23.602H9.459c-2.561,0-4.746-0.796-6.556-2.388
	c-1.812-1.592-2.716-3.512-2.716-5.76L0,32.222c0-2.248,0.904-4.152,2.716-5.713c1.811-1.56,3.995-2.341,6.556-2.341h10.021
	L49.357,0.566c0.998-0.686,2.014-0.749,3.044-0.187S53.946,1.816,53.946,3.001z M47.952,8.621L21.822,29.6
	c-0.5,0.375-1.062,0.562-1.686,0.562H9.272c-0.937,0-1.718,0.22-2.341,0.656c-0.625,0.438-0.937,0.906-0.937,1.405l0.187,19.761
	c0,0.562,0.312,1.063,0.937,1.499c0.624,0.438,1.405,0.656,2.342,0.656h10.864c0.623,0,1.185,0.157,1.686,0.468l25.943,21.073V8.621
	z M91.971,51.984c0.562,0.625,0.843,1.344,0.843,2.154c0,0.812-0.297,1.515-0.89,2.107c-0.594,0.594-1.297,0.89-2.107,0.89
	c-0.812,0-1.531-0.281-2.154-0.843l-9.646-9.834l-9.646,9.834c-0.625,0.562-1.344,0.843-2.154,0.843
	c-0.812,0-1.531-0.281-2.154-0.843c-0.125-0.188-0.25-0.375-0.375-0.562c-0.126-0.188-0.219-0.389-0.281-0.609
	c-0.063-0.218-0.11-0.436-0.141-0.656c-0.032-0.218-0.032-0.436,0-0.655c0.031-0.218,0.078-0.436,0.141-0.656
	c0.062-0.218,0.155-0.421,0.281-0.609c0.125-0.187,0.249-0.375,0.375-0.562l9.74-9.74l-9.833-9.927
	c-0.562-0.624-0.843-1.342-0.843-2.154c0-0.811,0.296-1.513,0.89-2.107c0.593-0.593,1.295-0.89,2.107-0.89
	c0.811,0,1.529,0.281,2.154,0.843l9.74,9.928l9.74-9.928c0.624-0.562,1.342-0.843,2.154-0.843c0.811,0,1.513,0.297,2.107,0.89
	c0.593,0.594,0.89,1.297,0.89,2.107c0,0.812-0.281,1.531-0.843,2.154l-9.834,9.927L91.971,51.984z"/>
</svg>
